<svg width="521" height="311" viewBox="0 0 521 311" fill="none" xmlns="http://www.w3.org/2000/svg">
<path d="M495.6 48.2524C488.08 43.3641 479.962 39.5197 471.46 36.8194L471.14 36.6859L470.81 36.5831C458.35 32.6694 447.28 30.6766 437.9 30.6766C429.49 30.6766 423.07 32.2791 418.21 34.5184C413.961 27.0529 407.362 21.2987 399.5 18.206L399.33 18.1444L399.15 18.0828C396.836 17.3413 394.424 16.9774 392 17.0042C386.34 17.0042 372.51 19.1511 365.43 38.9252C365.17 39.4491 364.88 40.1168 364.54 40.9797C365.14 30.8204 362.84 20.4351 353.54 14.0869C348.4 10.3743 342.283 8.35387 336 8.29331C329 8.29331 318.74 10.9538 309.17 23.6195C308.17 24.8727 305.6 28.5399 302.62 36.2236C295.87 21.1439 280 1 252.83 1C247.492 1.0263 242.177 1.71614 237 3.05445C233.54 3.78378 216.05 8.74529 201.68 36.1106C199.58 31.7449 186.46 7.78997 152.08 7.78997C142.111 7.94844 132.226 9.68074 122.77 12.9261L122.59 12.9877C121.59 13.337 98.1 21.8938 96.21 46.9889V47.2766V47.5539C96.21 47.6875 96.21 48.3346 96.21 49.4543C81.63 32.0222 64.31 29.6494 56 29.6494C52.6873 29.6208 49.3833 30.0036 46.16 30.7896C13.68 39.6545 3.57 67.1226 2.74001 80.5382C-2.1 136.933 3.17 174.951 18.39 193.533C24.95 201.545 31.48 203.405 34.01 203.805C36.8052 204.465 39.6621 204.809 42.53 204.833C46.6834 204.855 50.7976 204.006 54.62 202.336C70.2 195.454 72.9 180.21 71.75 168.931C72.21 168.767 72.66 168.613 73.1 168.479C74.8054 172.646 77.1334 176.514 80 179.943L80.45 180.446L80.97 180.878C85.4184 184.451 90.9458 186.308 96.59 186.127C106.96 186.127 116.72 181.042 117.8 180.467L117.95 180.385L118.11 180.292C122.092 177.932 125.243 174.335 127.11 170.02C130.414 171.452 133.917 172.342 137.49 172.66C138.09 172.721 142.25 173.122 148.21 173.122H148.7C131.75 184.052 130.13 212.229 129.97 216.872C126.27 256.718 130.59 277.129 130.78 278.012C137.36 307.524 159.01 309.363 159.92 309.435H161.28C172.36 309.435 178.19 304.864 180.36 302.655C184.684 298.868 187.599 293.659 188.61 287.915C191.39 289.847 194.654 290.917 198.01 290.996H198.7C202.356 290.896 205.853 289.436 208.54 286.887V287.031L208.6 287.319C211.53 301.33 222.26 309.702 237.32 309.702C238.754 309.703 240.186 309.618 241.61 309.445C245.036 309.344 248.383 308.369 251.351 306.608C254.319 304.848 256.813 302.356 258.61 299.358C265.51 304.926 275.12 309.178 288.39 309.178C292.311 309.159 296.223 308.816 300.09 308.151C304.09 307.668 330.5 303.929 339.71 288.747C343.38 282.717 343.99 275.722 341.48 268.541C340.69 266.261 336.89 257.622 323.89 254.437C331.99 253.318 338.14 250.092 341.89 244.936C346.2 239.008 346.09 230.339 345.96 227.822V227.493V227.175C344.66 216.974 336.51 211.581 334.25 210.267C332.875 209.407 331.422 208.688 329.91 208.12C339.08 204.915 343.16 199.131 344.91 193.965C346.045 190.742 346.461 187.298 346.127 183.888C345.793 180.478 344.717 177.188 342.98 174.262C346.535 174.881 350.134 175.194 353.74 175.197C373.66 175.197 388.3 166.455 399.45 147.976C402.83 142.778 403.68 139.306 405.45 136.471C395.25 167.935 408.76 182.696 411.98 185.459L412.12 185.562L412.26 185.654C418.05 190.482 424.91 191.982 431.44 191.982C438.984 191.95 446.263 189.123 451.94 184.021C473.55 164.401 477.53 120.271 478.15 110.646C483.579 111.835 489.109 112.475 494.66 112.557C511.75 112.495 517.88 95.4946 518.8 86.1263C520.76 73.6249 513.13 59.9423 495.6 48.2524Z" fill="white" stroke="#231F20" stroke-width="2" stroke-linecap="round" stroke-linejoin="round"/>
<path d="M160.35 300.704C160.35 300.704 144.12 299.574 138.87 276.05C138.87 276.05 134.6 256.533 138.26 217.385C138.26 217.385 138.99 187.801 154.37 179.655C154.37 179.655 172.8 165.993 187.07 187.924C187.07 187.924 194.88 200.457 196.71 207.986C196.71 207.986 204.4 172.886 220.39 170.503C220.39 170.503 244.39 164.74 251.51 189.301C251.51 189.301 256.02 202.84 255.17 268.028C255.17 268.028 259.11 300.488 240.79 300.745C240.79 300.745 220.63 304.124 216.73 285.449C215.892 277.676 216.179 269.818 217.58 262.131C217.58 262.131 219.53 247.339 218.58 244.668C218.58 244.668 209.28 282.604 198.3 282.224C198.3 282.224 191.84 283.148 187.09 272.876C187.09 272.876 183.26 265.511 178.92 245.295C178.388 254.752 178.75 264.24 180 273.626C180 273.626 183.66 288.921 174.5 296.225C174.5 296.194 170.72 300.95 160.35 300.704Z" fill="#81B6DE"/>
<path d="M160.35 300.704C160.35 300.704 144.12 299.574 138.87 276.05C138.87 276.05 134.6 256.533 138.26 217.385C138.26 217.385 138.99 187.801 154.37 179.655C154.37 179.655 172.8 165.993 187.07 187.924C187.07 187.924 194.88 200.457 196.71 207.986C196.71 207.986 204.4 172.886 220.39 170.503C220.39 170.503 244.39 164.74 251.51 189.301C251.51 189.301 256.02 202.84 255.17 268.028C255.17 268.028 259.11 300.488 240.79 300.745C240.79 300.745 220.63 304.124 216.73 285.449C215.892 277.676 216.179 269.818 217.58 262.131C217.58 262.131 219.53 247.339 218.58 244.668C218.58 244.668 209.28 282.604 198.3 282.224C198.3 282.224 191.84 283.148 187.09 272.876C187.09 272.876 183.26 265.511 178.92 245.295C178.388 254.752 178.75 264.24 180 273.626C180 273.626 183.66 288.921 174.5 296.225C174.5 296.194 170.72 300.95 160.35 300.704Z" stroke="#231F20" stroke-width="2" stroke-linecap="round" stroke-linejoin="round"/>
<path d="M296.21 215.516C320.29 210.688 329.7 217.57 329.7 217.57C329.7 217.57 336.49 221.155 337.38 228.161C337.38 228.161 337.79 235.742 334.98 239.604C328.59 248.397 310.79 245.675 310.79 245.675C299.27 243.487 295.89 246.6 295.89 246.6C295.89 246.6 291.78 248.931 291.62 255.906C291.42 265.429 296.76 263.939 296.76 263.939C328.96 256.348 333.39 271.325 333.39 271.325C341.48 294.499 298.78 299.43 298.78 299.43C252.01 307.391 248.1 262.131 248.1 262.131C243.51 226.856 255.1 191.253 255.1 191.253C263.6 164.637 284.23 171.109 284.23 171.109C294.17 173.379 307.74 171.437 307.74 171.437C307.74 171.437 323.67 169.383 330.74 173.913C333.532 175.554 335.671 178.155 336.78 181.258C337.889 184.36 337.896 187.765 336.8 190.873C331.72 206.281 301.06 200.888 301.06 200.888C301.06 200.888 295.99 200.118 294.57 204.37C294.55 204.391 291 216.553 296.21 215.516Z" fill="#81B6DE"/>
<path d="M296.21 215.516C320.29 210.688 329.7 217.57 329.7 217.57C329.7 217.57 336.49 221.155 337.38 228.161C337.38 228.161 337.79 235.742 334.98 239.604C328.59 248.397 310.79 245.675 310.79 245.675C299.27 243.487 295.89 246.6 295.89 246.6C295.89 246.6 291.78 248.931 291.62 255.906C291.42 265.429 296.76 263.939 296.76 263.939C328.96 256.348 333.39 271.325 333.39 271.325C341.48 294.499 298.78 299.43 298.78 299.43C252.01 307.391 248.1 262.131 248.1 262.131C243.51 226.856 255.1 191.253 255.1 191.253C263.6 164.637 284.23 171.109 284.23 171.109C294.17 173.379 307.74 171.437 307.74 171.437C307.74 171.437 323.67 169.383 330.74 173.913C333.532 175.554 335.671 178.155 336.78 181.258C337.889 184.36 337.896 187.765 336.8 190.873C331.72 206.281 301.06 200.888 301.06 200.888C301.06 200.888 295.99 200.118 294.57 204.37C294.55 204.391 291 216.553 296.21 215.516Z" stroke="#231F20" stroke-width="2" stroke-linecap="round" stroke-linejoin="round"/>
<path d="M102.05 77.3538C84.2603 29.3617 48.2603 39.0587 48.2603 39.0587C13.0003 48.7352 11.0803 81.1237 11.0803 81.1237C1.5103 192.321 35.4803 195.259 35.4803 195.259C42.2803 196.872 47.3703 196.04 51.2003 194.355C69.1103 186.445 62.0503 163.62 62.0503 163.62C67.3655 160.961 73.0276 159.106 78.8603 158.114C80.1003 167.144 86.1803 174.088 86.1803 174.088C96.0303 182.306 113.79 172.732 113.79 172.732C137.05 158.905 102.05 77.3538 102.05 77.3538ZM63.0003 124.986C55.7403 126.917 55.9303 121.288 55.9303 121.288C52.5003 109.167 51.4203 86.4858 51.4203 86.4858C50.8803 72.8545 55.4203 78.5556 55.4203 78.5556C61.2503 90.1325 66.7803 117.97 66.7803 117.97C68.5303 123.456 63.0003 124.986 63.0003 124.986Z" fill="#81B6DE"/>
<path d="M102.05 77.3538C84.2603 29.3617 48.2603 39.0587 48.2603 39.0587C13.0003 48.7352 11.0803 81.1237 11.0803 81.1237C1.5103 192.321 35.4803 195.259 35.4803 195.259C42.2803 196.872 47.3703 196.04 51.2003 194.355C69.1103 186.445 62.0503 163.62 62.0503 163.62C67.3655 160.961 73.0276 159.106 78.8603 158.114C80.1003 167.144 86.1803 174.088 86.1803 174.088C96.0303 182.306 113.79 172.732 113.79 172.732C137.05 158.905 102.05 77.3538 102.05 77.3538ZM63.0003 124.986C55.7403 126.917 55.9303 121.288 55.9303 121.288C52.5003 109.167 51.4203 86.4858 51.4203 86.4858C50.8803 72.8545 55.4203 78.5556 55.4203 78.5556C61.2503 90.1325 66.7803 117.97 66.7803 117.97C68.5303 123.456 63.0003 124.986 63.0003 124.986Z" stroke="#231F20" stroke-width="2" stroke-linecap="round" stroke-linejoin="round"/>
<path d="M196 87.4103C196 87.4103 186.63 79.9526 178.5 81.9352C178.5 81.9352 206.81 70.5843 194.17 40.2092C194.17 40.2092 178.48 3.71188 125.25 21.1439C125.25 21.1439 106.02 27.9031 104.54 47.6053C104.54 47.6053 103.94 99.285 117.85 148.386C117.85 148.386 121.91 162.418 138.18 163.949C138.18 163.949 178.77 168.325 195.34 149.075C195.31 149.075 226.14 115.022 196 87.4103ZM163.95 114.385C161.46 132.362 153.18 129.578 153.18 129.578C149.06 128.715 149.41 112.978 149.41 112.978C149.41 100.898 156.47 102.233 156.47 102.233C165.28 102.839 163.92 114.385 163.92 114.385H163.95ZM154.2 73.2962C147.27 82.6748 145.76 78.6994 145.76 78.6994C144.16 72.7826 143.26 59.7676 143.26 59.7676C142.82 52.2072 148.31 51.6525 148.31 51.6525C156.84 50.1117 158.79 59.7265 158.79 59.7265C160.22 66.5371 154.17 73.2551 154.17 73.2551L154.2 73.2962Z" fill="#81B6DE"/>
<path d="M196 87.4103C196 87.4103 186.63 79.9526 178.5 81.9352C178.5 81.9352 206.81 70.5843 194.17 40.2092C194.17 40.2092 178.48 3.71188 125.25 21.1439C125.25 21.1439 106.02 27.9031 104.54 47.6053C104.54 47.6053 103.94 99.285 117.85 148.386C117.85 148.386 121.91 162.418 138.18 163.949C138.18 163.949 178.77 168.325 195.34 149.075C195.31 149.075 226.14 115.022 196 87.4103ZM163.95 114.385C161.46 132.362 153.18 129.578 153.18 129.578C149.06 128.715 149.41 112.978 149.41 112.978C149.41 100.898 156.47 102.233 156.47 102.233C165.28 102.839 163.92 114.385 163.92 114.385H163.95ZM154.2 73.2962C147.27 82.6748 145.76 78.6994 145.76 78.6994C144.16 72.7826 143.26 59.7676 143.26 59.7676C142.82 52.2072 148.31 51.6525 148.31 51.6525C156.84 50.1117 158.79 59.7265 158.79 59.7265C160.22 66.5371 154.17 73.2551 154.17 73.2551L154.2 73.2962Z" stroke="#231F20" stroke-width="2" stroke-linecap="round" stroke-linejoin="round"/>
<path d="M297.12 45.9412C297.12 45.9412 284 -0.140235 238.71 11.4777C238.71 11.4777 219 15.0114 204.78 49.2077C204.78 49.2077 177.78 121.422 232.03 151.571C232.03 151.571 258.31 166.178 280.74 149.373C280.74 149.373 320.11 122.85 297.12 45.9412ZM255.8 111.745C246.44 116.881 243.23 102.038 243.23 102.038C237.57 74.909 249.29 61.9762 249.29 61.9762C259.66 50.4918 261.22 80.4662 261.22 80.4662C263.83 108.623 255.8 111.745 255.8 111.745Z" fill="#81B6DE"/>
<path d="M297.12 45.9412C297.12 45.9412 284 -0.140235 238.71 11.4777C238.71 11.4777 219 15.0114 204.78 49.2077C204.78 49.2077 177.78 121.422 232.03 151.571C232.03 151.571 258.31 166.178 280.74 149.373C280.74 149.373 320.11 122.85 297.12 45.9412ZM255.8 111.745C246.44 116.881 243.23 102.038 243.23 102.038C237.57 74.9089 249.29 61.9762 249.29 61.9762C259.66 50.4918 261.22 80.4662 261.22 80.4662C263.83 108.623 255.8 111.745 255.8 111.745Z" stroke="#231F20" stroke-width="2" stroke-linecap="round" stroke-linejoin="round"/>
<path d="M342.71 100.271C342.71 100.271 339.71 86.6399 348.65 66.8658C348.65 66.8658 365.33 32.3304 348.65 21.0925C348.65 21.0925 331.76 7.59478 315.71 28.9714C315.71 28.9714 302.14 45.1399 298.39 108.068C298.39 108.068 294.94 153.266 339.49 164.565C339.49 164.565 371.49 174.899 391.49 142.994C391.49 142.994 410.36 116.789 415.66 57.0866C415.66 57.0866 416.39 34.2205 396.42 26.2698C396.42 26.2698 380.57 20.7741 373.12 42.4383C373.12 42.4383 367.59 51.2827 363.18 97.3333C363.18 97.3333 362.04 113.029 350.86 110.954C350.81 110.913 344.68 110.759 342.71 100.271Z" fill="#81B6DE"/>
<path d="M342.71 100.271C342.71 100.271 339.71 86.6399 348.65 66.8658C348.65 66.8658 365.33 32.3304 348.65 21.0925C348.65 21.0925 331.76 7.59478 315.71 28.9714C315.71 28.9714 302.14 45.1399 298.39 108.068C298.39 108.068 294.94 153.266 339.49 164.565C339.49 164.565 371.49 174.899 391.49 142.994C391.49 142.994 410.36 116.789 415.66 57.0866C415.66 57.0866 416.39 34.2205 396.42 26.2698C396.42 26.2698 380.57 20.7741 373.12 42.4383C373.12 42.4383 367.59 51.2827 363.18 97.3333C363.18 97.3333 362.04 113.029 350.86 110.954C350.81 110.913 344.68 110.759 342.71 100.271Z" stroke="#231F20" stroke-width="2" stroke-linecap="round" stroke-linejoin="round"/>
<path d="M431.78 86.9994C431.78 86.9994 405.91 81.3394 410.78 54.1281C410.78 54.1281 415.67 28.2215 468.27 44.7907C468.27 44.7907 515.05 61.2263 510.22 84.8525C510.22 84.8525 508.65 103.743 494.43 103.795C494.43 103.795 482.71 103.712 474.74 100.569C474.74 100.569 470.81 99.1309 469.61 108.386C469.61 108.386 467.53 158.135 446.06 177.498C446.06 177.498 430.6 190.472 416.7 178.33C416.7 178.33 402.79 168.058 415.47 132.218C415.47 132.218 423.74 109.27 432.04 89.5572C432 89.5572 433.47 87.5336 431.78 86.9994Z" fill="#81B6DE"/>
<path d="M431.78 86.9994C431.78 86.9994 405.91 81.3394 410.78 54.1281C410.78 54.1281 415.67 28.2215 468.27 44.7907C468.27 44.7907 515.05 61.2263 510.22 84.8525C510.22 84.8525 508.65 103.743 494.43 103.795C494.43 103.795 482.71 103.712 474.74 100.569C474.74 100.569 470.81 99.1309 469.61 108.386C469.61 108.386 467.53 158.135 446.06 177.498C446.06 177.498 430.6 190.472 416.7 178.33C416.7 178.33 402.79 168.058 415.47 132.218C415.47 132.218 423.74 109.27 432.04 89.5572C432 89.5572 433.47 87.5336 431.78 86.9994Z" stroke="#231F20" stroke-width="2" stroke-linecap="round" stroke-linejoin="round"/>
<path d="M24.3902 63.8252C17.8456 75.9915 14.9279 89.8661 16.0002 103.723C16.0002 103.723 16.3702 83.589 28.4002 65.4687C28.4002 65.4687 30.3002 62.9623 28.6102 61.2263C28.6102 61.2263 26.9202 59.4903 24.3902 63.8252Z" fill="white"/>
<path d="M151.06 188.736C144.496 200.9 141.561 214.779 142.62 228.644C142.62 228.644 143.04 208.51 155.07 190.379C155.07 190.379 156.97 187.873 155.28 186.137C155.28 186.137 153.59 184.401 151.06 188.736Z" fill="white"/>
<path d="M113.29 38.2472C113.29 38.2472 107.15 42.1404 108.84 65.5612C109.671 80.4458 111.648 95.2395 114.75 109.804C114.75 109.804 107.15 65.5612 114.75 46.537C114.75 46.537 118.13 40.3736 116.19 38.2472C116.19 38.2472 115.2 36.9529 113.29 38.2472Z" fill="white"/>
<path d="M415.05 158.412C415.05 158.412 412.14 153.872 419.1 134.139C423.361 121.598 428.337 109.326 434 97.3847C434 97.3847 418 133.8 418.08 151.602C418.08 151.602 418.68 157.519 416.91 158.977C416.9 158.977 415.94 159.891 415.05 158.412Z" fill="white"/>
<path d="M223.68 29.9986C223.68 29.9986 201.33 50.3069 204.49 102.192C204.49 102.192 205.71 114.026 209.21 120.59C209.21 120.59 198.27 91.6219 213.93 52.5668C216.476 46.2476 220.388 40.6061 225.37 36.0695C225.37 36.0695 230.44 31.7243 227.91 29.1254C227.91 29.1254 226.22 27.3894 223.68 29.9986Z" fill="white"/>
<path d="M324.18 25.6534C323.42 26.0438 314.89 32.5975 312.35 45.6124C312.35 45.6124 319.11 33.4603 326.71 27.3894C326.824 27.2773 326.914 27.1425 326.976 26.9933C327.038 26.8442 327.07 26.6836 327.07 26.5214C327.07 26.3592 327.038 26.1987 326.976 26.0495C326.914 25.9004 326.824 25.7656 326.71 25.6534C326.71 25.6534 325.87 24.7906 324.18 25.6534Z" fill="white"/>
<path d="M216.93 179.193C216.17 179.583 207.64 186.137 205.11 199.152C205.11 199.152 211.86 187 219.46 180.929C219.576 180.818 219.668 180.683 219.73 180.534C219.793 180.385 219.826 180.224 219.826 180.061C219.826 179.898 219.793 179.737 219.73 179.588C219.668 179.439 219.576 179.304 219.46 179.193C219.46 179.193 218.62 178.33 216.93 179.193Z" fill="white"/>
<path d="M384.15 31.9606C383.47 32.4742 379.07 36.0695 378.22 43.8764C378.22 43.8764 378.81 39.7675 385.82 34.3335C385.82 34.3335 388.36 32.5975 386.64 31.5189C386.64 31.5189 385.67 30.7896 384.15 31.9606Z" fill="white"/>
<path d="M426.53 44.503C427.31 44.1949 438.07 41.2775 444.94 44.7393C439.049 44.4411 433.156 45.2844 427.57 47.2252C427.57 47.2252 424.79 48.4887 424.82 46.4239C424.82 46.4342 424.77 45.1707 426.53 44.503Z" fill="white"/>
<path d="M263 184.226C263 184.226 252.74 200.354 252.06 241.196C252.06 241.196 256.35 205.387 266.41 187.524C266.41 187.524 268.95 184.812 267.7 182.747C267.68 182.747 265.36 180.641 263 184.226Z" fill="white"/>
</svg>
