<svg xmlns="http://www.w3.org/2000/svg" xmlns:xlink="http://www.w3.org/1999/xlink" viewBox="0 0 234.33 339.41"><defs><style>.cls-1,.cls-6{fill:#d5e3ec;}.cls-1,.cls-22,.cls-24,.cls-25,.cls-3,.cls-32,.cls-4,.cls-7{stroke:#000;}.cls-1,.cls-21,.cls-22,.cls-23,.cls-24,.cls-25,.cls-3,.cls-32,.cls-4,.cls-7{stroke-linecap:round;stroke-linejoin:round;stroke-width:1.5px;}.cls-10,.cls-14,.cls-2{fill:#b4cbd6;}.cls-2{mix-blend-mode:darken;}.cls-19,.cls-3{fill:#5e3728;}.cls-13,.cls-4{fill:#fff;}.cls-5{isolation:isolate;}.cls-7{fill:none;}.cls-8{clip-path:url(#clip-path);}.cls-16,.cls-9{fill:#edf1f3;}.cls-10{mix-blend-mode:multiply;}.cls-11{clip-path:url(#clip-path-2);}.cls-12{fill:#d2d8db;}.cls-15{clip-path:url(#clip-path-3);}.cls-16{mix-blend-mode:lighten;}.cls-17{fill:#f9d5e1;}.cls-18{fill:#f6b8cf;}.cls-20{clip-path:url(#clip-path-4);}.cls-21{fill:#d84141;}.cls-21,.cls-23{stroke:#231f20;}.cls-22{fill:#2b2b2b;}.cls-23{fill:#383030;}.cls-24{fill:#f6b097;}.cls-25{font-size:13.95px;fill:#fee682;font-family:HANAMDAUMR, HANAMDAUM;}.cls-26{clip-path:url(#clip-path-5);}.cls-27,.cls-32{fill:#dfe5e8;}.cls-28{clip-path:url(#clip-path-6);}.cls-29{clip-path:url(#clip-path-7);}.cls-30{clip-path:url(#clip-path-8);}.cls-31{clip-path:url(#clip-path-9);}.cls-33{clip-path:url(#clip-path-10);}</style><clipPath id="clip-path"><path class="cls-1" d="M165.27,314.25s35.95-17,29.81-27.39c0,0-1.26-2.55-5.44-3.35a135.5,135.5,0,0,0-8.24-14.6s13.44-12,17.33-41.82c0,0,10.57,8.14,20.06,2.07,6.61-4.23,8.78-14.79,6.4-25.25,0,0-7.29-32.19-27.5-41.14l-6.4-15.88H98.16l-21.16,7s-15.54,13-12.64,39.35c0,0,1.5,4.38-1.08,14.43,0,0-13.83,30.16,5.58,57.57a132.36,132.36,0,0,0,10.83,13.25,64.75,64.75,0,0,1,17.4,38.38s-3.9,5.94,14.58,6.4c0,0,26.4.73,29.14-2.32a5.42,5.42,0,0,0,.91-6.39s.51-2.21-.18-12c3.47,2.23,1.28.89,13,10C154.54,312.48,158.4,318.23,165.27,314.25Z"/></clipPath><clipPath id="clip-path-2"><path class="cls-2" d="M140.48,302.47A262.92,262.92,0,0,0,95,277.15s-20.23-9.75-24.21-15.79C66.37,254.71,61,267.5,61,267.5s7.54,23.7,13.25,35,12.24,28,19.71,31.16,29.87,7.54,37.64,5,20.56-3.19,19.64-9.59S140.48,302.47,140.48,302.47Z"/></clipPath><clipPath id="clip-path-3"><path class="cls-1" d="M74.74,267.4S38.43,264.74,19.12,248c0,0-17.84-12.91-8.3-25.28,0,0,8.36-8.23,20.88,7.32a73.27,73.27,0,0,0,35.1,21"/></clipPath><clipPath id="clip-path-4"><path class="cls-3" d="M115.79,118.81s6.48,9.8,16.54,8.88c0,0,11,0,10.24-17.08-.75-16.84-16-8.5-16-8.5l-7,4.28Z"/></clipPath><clipPath id="clip-path-5"><path class="cls-4" d="M188.72,159.49s-7,4.38-4.51,8.3c0,0,1.09,3.35,7.64.22,1.1-.53,10.88-4.89,7.86-9.45C199.71,158.56,197.57,153.64,188.72,159.49Z"/></clipPath><clipPath id="clip-path-6"><path class="cls-4" d="M191.88,165.43s-7.35,5.18-4.4,8.83c0,0,1.42,3.22,8.4-.65,1.17-.65,11.6-6.13,8-10.36C203.87,163.25,201.2,158.56,191.88,165.43Z"/></clipPath><clipPath id="clip-path-7"><path class="cls-4" d="M196.28,171.14s-6.81,4.79-4.08,8.17c0,0,1.32,3,7.78-.6,1.08-.6,10.75-5.67,7.41-9.59C207.39,169.12,204.91,164.78,196.28,171.14Z"/></clipPath><clipPath id="clip-path-8"><path class="cls-4" d="M200.19,176.71s-6.1,4.55-3.59,7.85c0,0,1.23,2.9,7-.49,1-.57,9.65-5.35,6.58-9.18C210.21,174.89,207.91,170.67,200.19,176.71Z"/></clipPath><clipPath id="clip-path-9"><path class="cls-1" d="M111.51,169.63c-1-1.84-2-3.76-3.07-5.75-13.08-24-34.43-52.8-58.1-69.2L26.13,119.54s32.06,48.64,38.29,73.91"/></clipPath><clipPath id="clip-path-10"><path class="cls-4" d="M17.22,81s-5.94-4.71-11,5.87c0,0-10,21.41,14.16,30.39,0,0,18.74,9,33.36-4.25,0,0,14.16-12.9,0-21.31,0,0,0-11-12.34-9.46,0,0-5.25-5.81-11.88-1C29.56,81.26,26.82,76,17.22,81Z"/></clipPath></defs><g class="cls-5"><g id="Layer_2" data-name="Layer 2"><g id="Layer_1-2" data-name="Layer 1"><path class="cls-6" d="M158.4,177.28a.49.49,0,0,0-.08-.12l-.89.48Z"/><path class="cls-7" d="M195.35,105.9a82.46,82.46,0,0,1-20.65,16.3"/><path class="cls-6" d="M165.27,314.25s35.95-17,29.81-27.39c0,0-1.26-2.55-5.44-3.35a135.5,135.5,0,0,0-8.24-14.6s13.44-12,17.33-41.82c0,0,10.57,8.14,20.06,2.07,6.61-4.23,8.78-14.79,6.4-25.25,0,0-7.29-32.19-27.5-41.14l-6.4-15.88H98.16l-21.16,7s-15.54,13-12.64,39.35c0,0,1.5,4.38-1.08,14.43,0,0-13.83,30.16,5.58,57.57a132.36,132.36,0,0,0,10.83,13.25,64.75,64.75,0,0,1,17.4,38.38s-3.9,5.94,14.58,6.4c0,0,26.4.73,29.14-2.32a5.42,5.42,0,0,0,.91-6.39s.51-2.21-.18-12c3.47,2.23,1.28.89,13,10C154.54,312.48,158.4,318.23,165.27,314.25Z"/><g class="cls-8"><path class="cls-9" d="M179.69,262.61S149.49,245,153.3,211.77c0,0-3.49-32.45,32.64-42.37v14.2s.21,36.24,16,45.42c0,0,5.58,4,9.53,2.13,0,0-2,7.78-2.17,8.95s14.1,13-13.46,24.12C195.84,264.22,183.94,265.49,179.69,262.61Z"/><path class="cls-10" d="M174.4,260.24c3.16.59,26.42,7.38,36.42-15.57,10.26-23.53-1.32,21-2.84,22.7s-19,8.37-19,8.37l-3-1.1Z"/><path class="cls-2" d="M140.48,302.47A262.92,262.92,0,0,0,95,277.15s-20.23-9.75-24.21-15.79C66.37,254.71,61,267.5,61,267.5s7.54,23.7,13.25,35,12.24,28,19.71,31.16,29.87,7.54,37.64,5,20.56-3.19,19.64-9.59S140.48,302.47,140.48,302.47Z"/><g class="cls-11"><path class="cls-12" d="M95.18,314.71s29.64,4,45.54-1.22l6.55,4.76s11.08,7.12,0,10.17-29.6,5.48-31.55,4.56S88,322,88,322Z"/></g><path class="cls-13" d="M191.18,280s-11.23,21-41.09,35.18,7.67,8.35,7.67,8.35,29.44.79,33.42-7.44,10-23.76,10.21-25.13S191.18,280,191.18,280Z"/><path class="cls-10" d="M86.13,171.45s8.79,2,42-4.62c6.4-1.28,33.58-9.59,33.58-9.59l3.48,8.16c1,2.51,3.68,1.43,3.68,1.43l6.13-1.66,1.1,1.66,6,14.33c.73,31.79,9.79,45.92,9.79,45.92,5.47,13,21.48,10,21.48,10s.46-3.43,1.07-3.65,7.61-7.31,1.81-4.11-15.28-.64-15.28-.64c-16.75-17.58-15.55-51.57-15.55-51.57l23.94-8.86L198.71,155l-20.59,6.51-10.62,2.41-5.25-14.18-1.26.38c-7,6.31-38.53,11-38.53,11S91.18,162.66,77,153.88h0l-11.41,4.64"/><path class="cls-14" d="M186.71,190c-.29,1.44,5.42,13.71,5.42,13.71s-.32,1.31,4.06,0l13.47-4.79,5.77-1.77s6.09,15.15,1.22,24c0,0-6.81,8.17-14.91,5.94s5.7,4.72,5.7,4.72,16.37,5.11,18.8,2.86,7-8.35,7.62-14.13,1.06-15.08-1.52-19-17.4-24.87-18.89-26.36-2.94-11.56-2.94-11.56l-11.7,8.49-11,9.63Z"/><path class="cls-9" d="M28.22,123.34S62.76,166.65,68.5,198c0,0,1.65,7.4-4,18.67A59.24,59.24,0,0,0,59.65,244l-9.47-50.43L20.93,141.67Z"/></g><path class="cls-7" d="M165.27,314.25s35.95-17,29.81-27.39c0,0-1.26-2.55-5.44-3.35a135.5,135.5,0,0,0-8.24-14.6s13.44-12,17.33-41.82c0,0,10.57,8.14,20.06,2.07,6.61-4.23,8.78-14.79,6.4-25.25,0,0-7.29-32.19-27.5-41.14l-6.4-15.88H98.16l-21.16,7s-15.54,13-12.64,39.35c0,0,1.5,4.38-1.08,14.43,0,0-13.83,30.16,5.58,57.57a132.36,132.36,0,0,0,10.83,13.25,64.75,64.75,0,0,1,17.4,38.38s-3.9,5.94,14.58,6.4c0,0,26.4.73,29.14-2.32a5.42,5.42,0,0,0,.91-6.39s.51-2.21-.18-12c3.47,2.23,1.28.89,13,10C154.54,312.48,158.4,318.23,165.27,314.25Z"/><path class="cls-6" d="M74.74,267.4S38.43,264.74,19.12,248c0,0-17.84-12.91-8.3-25.28,0,0,8.36-8.23,20.88,7.32a73.27,73.27,0,0,0,35.1,21"/><g class="cls-15"><path class="cls-2" d="M9.18,234.05c3.57,4.87,5.72,20.54,66.61,29.87,0,0-1.13,5.92-2.83,6.91,0,0-26.06-2.06-29.2-3s-36.89-15.71-39-17.51-3.86-1.83-2.18-7.94A13.39,13.39,0,0,1,9.18,234.05Z"/><path class="cls-9" d="M16.59,220.5s-7.73,1.83-7.83,11.7L6.86,237s-2.5-6.44-2.54-7a50.94,50.94,0,0,1,1.53-7.27C6.17,222,16.59,220.5,16.59,220.5Z"/></g><path class="cls-7" d="M74.74,267.4S38.43,264.74,19.12,248c0,0-17.84-12.91-8.3-25.28,0,0,8.36-8.23,20.88,7.32a73.27,73.27,0,0,0,35.1,21"/><path class="cls-7" d="M202,228.86c-6.56-4.23-14.41-15.57-16.1-45.26"/><path class="cls-6" d="M47.92,66.23c-7.16,15.25-6.87,35.06-1.09,52.05l.7,2.06C55.05,142.41,71.46,155,92.72,160c0,0,27.2,6,53.91-4.08,0,0,35.91-10.63,51.87-36.42C209,102.51,212,85.12,205.1,64.91h0c-7.44-20.53-24.1-39.15-46.4-42.82a15.49,15.49,0,0,0-4.32-.72l-.69-1.52C137.51-.81,128.88.17,128.88.17c-13,4-15.59,25.53-15.59,25.53L113.05,28c-1.93-.08-5.49,1.29-5.49,1.29-11.14,2.14-14,4.89-14,4.89L82.17,39.52s-26.09-8.39-41.07,6c0,0-6.3,5,2.5,15.86S47.92,66.23,47.92,66.23Z"/><path class="cls-16" d="M115.78,27.63l-2.47.43s2.62-22.43,13-26.4C126.34,1.66,115.66,7,115.78,27.63Z"/><path class="cls-16" d="M119,27.45S98.85,29.69,89.09,37C89.09,37,99.93,32.4,119,27.45Z"/><path class="cls-17" d="M50.23,62c-2.46.34-9.25-8.29-6.63-14,0,0,1.88-7,21.71-7.38,0,0,5.71-1,4.66,3.69C66.56,48,57,53.73,52,60,52,60,53,61.64,50.23,62Z"/><path class="cls-9" d="M52,60c-10.64,15.77-11.2,38.84-4.59,58.24l.7,2.06C55.61,142.33,72,154.9,93.28,159.88a97.07,97.07,0,0,0,16.7,1.74c2.32.06,4.83,0,7.46-.06-2,0-53.81,1.49-66.44-41.21,0,0-11.07-31.18,1-60.4"/><path class="cls-7" d="M82.17,39.52A86.3,86.3,0,0,1,118.84,27"/><path class="cls-7" d="M169.69,145.84A120.3,120.3,0,0,1,146.88,156C120.17,166.06,93,160,93,160c-21.26-5-37.67-17.54-45.18-39.62l-.71-2.06c-6.6-19.4-5.91-46.92,7.75-61.79"/><path class="cls-7" d="M194.53,125.48a83.12,83.12,0,0,1-20,17.43"/><path class="cls-7" d="M158.92,22.18c16,1.15,39.79,20.17,46.43,42.81h0c6.88,20.21,3.88,37.61-6.6,54.55"/><path class="cls-7" d="M113.71,25.05s3-21.94,13.75-24.09c0,0,9.83-3.73,26.8,20.42"/><circle class="cls-18" cx="78.96" cy="106.17" r="21.51"/><path class="cls-19" d="M115.79,118.81s6.48,9.8,16.54,8.88c0,0,11,0,10.24-17.08-.75-16.84-16-8.5-16-8.5l-7,4.28Z"/><g class="cls-20"><path class="cls-21" d="M119.82,125.48s6.38-13.42,26.25-10.23-2.48,9-3.76,10.23-4.66,14.9-14.85,12.39S119.82,125.48,119.82,125.48Z"/></g><path class="cls-7" d="M115.79,118.81s6.48,9.8,16.54,8.88c0,0,11,0,10.24-17.08-.75-16.84-16-8.5-16-8.5l-7,4.28Z"/><circle class="cls-18" cx="166.43" cy="75.24" r="21.51"/><path class="cls-13" d="M152.24,86.69c-5.77-7-22.41-.57-22.41-.57L123,88.81l-1.22,1.78-2-.79L113.59,92s-15.78,2.29-18.14,12.26a10.45,10.45,0,0,0,2.73,12.17s5.41,7.91,17.61,2.36c0,0,11.08-3.61,10.58-13.29,5,8.31,16.2,5.09,16.2,5.09,12.58-4.94,12.56-11.87,12.56-11.87C156.91,90.62,152.24,86.69,152.24,86.69Z"/><path class="cls-7" d="M113.59,92s-15.84,2.19-18.44,13.32a13,13,0,0,0,5.37,13.16s6.53,4.54,16,.73c0,0,10.83-4.47,9.88-13.71"/><path class="cls-7" d="M128.29,87s13.91-7.9,22.74-.65a13,13,0,0,1,3.74,13.71s-2.42,7.58-12.23,10.3c0,0-11.31,3-16.17-4.87"/><path d="M120.15,88.12c-.23.07-3.71,1.25-3.71,2.6,0,0-.34,2.55,5.07.93,0,0,4.52-1.36,3.68-3.58C125.19,88.07,124.58,86.63,120.15,88.12Z"/><path class="cls-7" d="M105.61,102.87A42.35,42.35,0,0,0,81.19,106"/><path class="cls-7" d="M107.09,109.66s-13.94,5.13-19.73,13.61"/><path class="cls-7" d="M140.53,91.75A42.31,42.31,0,0,1,162,79.68"/><path class="cls-7" d="M143.39,98.08s14.25-4.21,24-.86"/><path class="cls-7" d="M100,45.55s-2.43-1.41-6.5-.37"/><path class="cls-7" d="M111.52,41.65s1.07-2.61,4.93-4.25"/><path class="cls-17" d="M124.68,24c-1.87-1.64-4-17.35,2.57-20.56,0,0,5.66-3.59,18.92,11.15,0,0,4.88,5.39-1,8-.22.47-8.26,1.62-15.61,2.66A6.11,6.11,0,0,1,124.68,24Z"/><path class="cls-7" d="M47.92,66.23c-5.06-5-10.8-12.4-8.37-18.75,0,0,7.45-13.38,38.38-9.22"/><path class="cls-7" d="M43.6,48s0-4.59,18.36-6.66c0,0,14.22-1,5.54,5.33"/><path class="cls-7" d="M128.36,3s-4.85-.8-6,11.5c0,0-1.49,11.2,8.09,10.32"/><path class="cls-7" d="M132.33,24.65s.71,0,2.7-.16"/><path class="cls-6" d="M151,167.67l-.09-.12-.87.54Z"/><path class="cls-2" d="M117.44,161.56s87.8-7,91.59-74.17C209,87.39,206.77,145,117.44,161.56Z"/><path class="cls-2" d="M106.36,120.56s6,2.38,14.77-2a17.08,17.08,0,0,0,6.93-7.19s6.72,4.55,16.55-1.24a12.3,12.3,0,0,0,5.2-3.87s-9.51,10.19-22.47.63l-.92.27S125,121.82,106.36,120.56Z"/><path class="cls-6" d="M106.7,89.4l5.13,1.16s-8.36,3.1-8.46,2.8a1.24,1.24,0,0,1-1.36-.58l-.9.28s-.49-.6,1-1.83A8.23,8.23,0,0,1,106.7,89.4Z"/><path class="cls-6" d="M133.18,80.62l-3.42,4s8.55-2.51,8.46-2.81a1.21,1.21,0,0,0,.74-1.27l.89-.32s0-.77-1.93-.84A8.23,8.23,0,0,0,133.18,80.62Z"/><path class="cls-7" d="M139.62,301.23s-16.57-10.11-42.32-19.82a61.33,61.33,0,0,1-12.52-6.77"/><path class="cls-7" d="M184,272.75s-3.73-5.55-9.57-12.51"/><polygon class="cls-22" points="211.5 191.63 197.15 200.27 162.9 146.53 181.89 135.1 211.5 191.63"/><circle class="cls-23" cx="164.47" cy="128.41" r="18.4"/><rect class="cls-24" x="156.96" y="139.02" width="43.23" height="23" rx="3.83" transform="translate(-52.04 113.66) rotate(-31.05)"/><text class="cls-25" transform="matrix(0.86, -0.52, 0.52, 0.86, 164.98, 163.86)">BCM</text><rect class="cls-21" x="144.35" y="126.39" width="40.47" height="4.44" rx="2.22" transform="translate(-42.75 103.31) rotate(-31.05)"/><path class="cls-13" d="M188.72,159.49s-7,4.38-4.51,8.3c0,0,1.09,3.35,7.64.22,1.1-.53,10.88-4.89,7.86-9.45C199.71,158.56,197.57,153.64,188.72,159.49Z"/><g class="cls-26"><path class="cls-27" d="M186,171.72s-1-5.92,7.71-10.45c0,0,7.23-4.49,11.41-.86s.58,6.05.24,6.12S186,171.72,186,171.72Z"/><path class="cls-27" d="M193.74,161.27c1-.57,6.08-2.53,6-4.15s2.46,2.34,2.85,3.78,5.13,1.93-1.93,5.13-9.82,4.89-11.68,4.78a9.15,9.15,0,0,1-2.91-.58Z"/></g><path class="cls-7" d="M188.72,159.49s-7,4.38-4.51,8.3c0,0,1.09,3.35,7.64.22,1.1-.53,10.88-4.89,7.86-9.45C199.71,158.56,197.57,153.64,188.72,159.49Z"/><path class="cls-13" d="M191.88,165.43s-7.35,5.18-4.4,8.83c0,0,1.42,3.22,8.4-.65,1.17-.65,11.6-6.13,8-10.36C203.87,163.25,201.2,158.56,191.88,165.43Z"/><g class="cls-28"><path class="cls-27" d="M189.73,178s-1.52-5.8,7.77-11.34c0,0,7.62-5.31,12.45-2.15s1,6,.67,6.1S189.73,178,189.73,178Z"/><path class="cls-27" d="M197.5,166.64c1.1-.69,6.5-3.22,6.29-4.84s2.85,2.07,3.37,3.47,5.76,1.35-1.78,5.36-10.45,6-12.49,6.11a10.69,10.69,0,0,1-3.23-.25Z"/></g><path class="cls-7" d="M191.88,165.43s-7.35,5.18-4.4,8.83c0,0,1.42,3.22,8.4-.65,1.17-.65,11.6-6.13,8-10.36C203.87,163.25,201.2,158.56,191.88,165.43Z"/><path class="cls-13" d="M196.28,171.14s-6.81,4.79-4.08,8.17c0,0,1.32,3,7.78-.6,1.08-.6,10.75-5.67,7.41-9.59C207.39,169.12,204.91,164.78,196.28,171.14Z"/><g class="cls-29"><path class="cls-27" d="M194.28,182.76s-1.4-5.38,7.2-10.5c0,0,7.06-4.92,11.54-2s.95,5.56.62,5.65S194.28,182.76,194.28,182.76Z"/><path class="cls-27" d="M201.48,172.26c1-.64,6-3,5.83-4.48s2.64,1.91,3.13,3.2,5.33,1.26-1.65,5-9.68,5.57-11.57,5.66a10.07,10.07,0,0,1-3-.23Z"/></g><path class="cls-7" d="M196.28,171.14s-6.81,4.79-4.08,8.17c0,0,1.32,3,7.78-.6,1.08-.6,10.75-5.67,7.41-9.59C207.39,169.12,204.91,164.78,196.28,171.14Z"/><path class="cls-13" d="M200.19,176.71s-6.1,4.55-3.59,7.85c0,0,1.23,2.9,7-.49,1-.57,9.65-5.35,6.58-9.18C210.21,174.89,207.91,170.67,200.19,176.71Z"/><g class="cls-30"><path class="cls-27" d="M198.53,187.91s-1.34-5.21,6.38-10.06c0,0,6.32-4.67,10.4-1.79s.94,5.38.63,5.47S198.53,187.91,198.53,187.91Z"/><path class="cls-27" d="M204.91,177.85c.92-.6,5.41-2.81,5.21-4.25s2.41,1.87,2.87,3.13,4.84,1.28-1.43,4.78-8.69,5.26-10.4,5.33a8.72,8.72,0,0,1-2.71-.26Z"/></g><path class="cls-7" d="M200.19,176.71s-6.1,4.55-3.59,7.85c0,0,1.23,2.9,7-.49,1-.57,9.65-5.35,6.58-9.18C210.21,174.89,207.91,170.67,200.19,176.71Z"/><path class="cls-7" d="M96.42,82.44s6.28-7.39,13-6.93a31.94,31.94,0,0,0-12.26,9.21s9.59-7.7,14.13-6.64c0,0-10.94,4.44-12.39,9.18,0,0,7.78-6.35,13.19-6.32,0,0-7.87,2.21-12.55,8.61"/><path class="cls-13" d="M104.19,76.49l.27.49a1.12,1.12,0,0,0,1.06.6l.56,0-.49.26a1.14,1.14,0,0,0-.6,1.07l0,.56-.26-.5a1.16,1.16,0,0,0-1.07-.6l-.56,0,.5-.27a1.14,1.14,0,0,0,.6-1.06Z"/><path class="cls-7" d="M137.4,71s-9.2-3-14.67.82A31.94,31.94,0,0,1,138,73.26s-12.2-1.59-15.53,1.68c0,0,11.66-1.89,15.36,1.4,0,0-9.95-1.38-14.55,1.46,0,0,7.86-2.21,15.19.83"/><path class="cls-13" d="M127.66,69.91l0,.56a1.1,1.1,0,0,1-.59,1.06l-.5.27.56,0a1.15,1.15,0,0,1,1.07.59l.26.5,0-.56a1.11,1.11,0,0,1,.6-1.06l.49-.27L129,71a1.11,1.11,0,0,1-1.06-.59Z"/><path class="cls-7" d="M65.46,48.49s-3.92,2.08-4.61,3.35"/><path class="cls-6" d="M111.51,169.63c-1-1.84-2-3.76-3.07-5.75-13.08-24-34.43-52.8-58.1-69.2L26.13,119.54s32.06,48.64,38.29,73.91"/><g class="cls-31"><path class="cls-9" d="M28.22,122.44s34.54,43.31,40.28,74.69c0,0,0,6.7-5.66,18,0,0-5.48,13.1-4.65,21.63l-8-44.1L20.93,140.78Z"/><path class="cls-10" d="M22.48,116.46s10.58,12.94,34.07,0c0,0,24.9,10,54.13,52.14l3.2,4.63c23.75,34.24-3.2-4.63-3.2-4.63l5.11-4.72-13.73-44.34s-20.36-15.41-21.8-15.41S58.5,92.51,58.5,92.51s-24.93,13-26.37,13.39S22.48,116.46,22.48,116.46Z"/></g><path class="cls-7" d="M111.51,169.63c-1-1.84-2-3.76-3.07-5.75-13.08-24-34.43-52.8-58.1-69.2L26.13,119.54s32.06,48.64,38.29,73.91"/><path class="cls-32" d="M4.19,99.65S2.6,93.74,1.46,91.73c0,0-2.3-2.7,1.37-6.13,0,0,4.8-3.33,8,3.89a16.3,16.3,0,0,1,.91,10.16Z"/><path class="cls-13" d="M17.22,81s-5.94-4.71-11,5.87c0,0-10,21.41,14.16,30.39,0,0,18.74,9,33.36-4.25,0,0,14.16-12.9,0-21.31,0,0,0-11-12.34-9.46,0,0-5.25-5.81-11.88-1C29.56,81.26,26.82,76,17.22,81Z"/><g class="cls-33"><path class="cls-27" d="M57.55,110.16s1.25-9-7.09-11.19c0,0-4-.89-6.58.6,0,0-1.14-6.66,2-8.49,0,0,5.77,3.58,7.6-1.59S60.78,91,60.78,91,65,97.88,65,99s1,7.57-1.37,8S57.55,110.16,57.55,110.16Z"/><path class="cls-27" d="M56.82,102.28S52.58,119.76,29,119.81s18,2.73,18.65,2.65,8,.76,10.12-4,4.88-9.37,4.57-11.65S56.82,102.28,56.82,102.28Z"/><path class="cls-27" d="M44.18,80.42s-12-2.14-12.56,11.31C31.62,91.73,33.22,84.23,44.18,80.42Z"/><path class="cls-27" d="M31.16,78.85s-8.3,7.44-9.29,10.64c0,0-.23-8.3,7.31-11.5Z"/><path class="cls-27" d="M10.83,88.19l-.47.35s1.84-7.43,5.72-10.25l3.67.92S11.67,84.84,10.83,88.19Z"/></g><path class="cls-7" d="M17.22,81s-5.94-4.71-11,5.87c0,0-10,21.41,14.16,30.39,0,0,18.74,9,33.36-4.25,0,0,14.16-12.9,0-21.31,0,0,0-11-12.34-9.46,0,0-5.25-5.81-11.88-1C29.56,81.26,26.82,76,17.22,81Z"/><path class="cls-7" d="M44.18,95.47s5.48,3.15,8.68-1.64c0,0,1.54-2.79.33-5.29"/><path class="cls-7" d="M44.18,99c-1.14-5.13,1.37-7.24,1.37-7.24"/><path class="cls-7" d="M32.13,91.73s2.09-9.65,11.75-9.6"/><path class="cls-7" d="M22.48,89.49a21.81,21.81,0,0,1,7.08-8.23"/><path class="cls-7" d="M19.75,79.87a17,17,0,0,0-8.92,8.67"/></g></g></g></svg>