<svg xmlns="http://www.w3.org/2000/svg" xmlns:xlink="http://www.w3.org/1999/xlink" viewBox="0 0 236.91 330.04"><defs><style>.cls-1,.cls-9{fill:#d5e3ec;}.cls-1,.cls-26,.cls-28,.cls-29,.cls-3,.cls-4,.cls-8{stroke:#000;}.cls-1,.cls-20,.cls-26,.cls-27,.cls-28,.cls-29,.cls-3,.cls-4,.cls-8{stroke-linecap:round;stroke-linejoin:round;stroke-width:1.5px;}.cls-2,.cls-4{fill:#fff;}.cls-18,.cls-3{fill:#5e3728;}.cls-5{isolation:isolate;}.cls-11,.cls-15,.cls-6{fill:#b4cbd6;}.cls-16,.cls-7{fill:#edf1f3;}.cls-8{fill:none;}.cls-10{clip-path:url(#clip-path);}.cls-11{mix-blend-mode:darken;}.cls-12{clip-path:url(#clip-path-2);}.cls-13{fill:#d2d8db;}.cls-14{fill:#e0e0e0;}.cls-15{mix-blend-mode:multiply;}.cls-16{mix-blend-mode:lighten;}.cls-17{fill:#5e4b18;}.cls-19{clip-path:url(#clip-path-3);}.cls-20{fill:#d84141;}.cls-20,.cls-27{stroke:#231f20;}.cls-21{fill:#f6b8cf;}.cls-22{fill:#f9d5e1;}.cls-23{clip-path:url(#clip-path-4);}.cls-24{fill:#dfe5e8;}.cls-25{clip-path:url(#clip-path-5);}.cls-26{fill:#2b2b2b;}.cls-27{fill:#383030;}.cls-28{fill:#f6b097;}.cls-29{font-size:13.95px;fill:#fee682;font-family:HANAMDAUMR, HANAMDAUM;}.cls-30{clip-path:url(#clip-path-6);}.cls-31{clip-path:url(#clip-path-7);}.cls-32{clip-path:url(#clip-path-8);}.cls-33{clip-path:url(#clip-path-9);}</style><clipPath id="clip-path" transform="translate(0.98)"><path class="cls-1" d="M87.77,152.09S76.32,162.47,76.41,187.6a73.68,73.68,0,0,1-2.36,18.27s-14.78,31.53,6.86,57.57c0,0,8.64,8.69,17.88,13.25,0,0,9.81,17.37,9.07,38.38,0,0-3.9,5.94,14.58,6.4,0,0,26.61,2.74,29.63-3.65a5.08,5.08,0,0,0,1.48-3.21.5.5,0,0,1,.82-.41l3.94,3.5s2.95,6.35,10.86.76c0,0,39-19.49,32.89-29.89A9.9,9.9,0,0,0,195.8,284s.88-.9-3.87-9.83c0,0,26-16.83,30.31-45.46,0,0,12.71-1.83,11.8-24.67,0,0-1.43-23-30.17-49.35l-1.81-9.59H108.93Z"/></clipPath><clipPath id="clip-path-2" transform="translate(0.98)"><path class="cls-2" d="M199.72,285.88s-3-3.85-11.34.08c0,0-22.1,9.49-30.07,31.74s4.55,7.58,4.55,7.58,40.28-6,43-11.08,11.32-14.51,6.4-20.9A20.81,20.81,0,0,0,199.72,285.88Z"/></clipPath><clipPath id="clip-path-3" transform="translate(0.98)"><path class="cls-3" d="M124,115.41s4.75,10.75,14.82,11.53c0,0,10.84,1.84,13-15.13,2.08-16.72-14.32-11-14.32-11l-7.61,3Z"/></clipPath><clipPath id="clip-path-4" transform="translate(0.98)"><path class="cls-4" d="M103.15,180.29s9-9.14,28.4-10.36c0,0,2.67-6.85,1.46-22.24,0,0-.54-5.25-3.74-5.55,0,0-4.41-1.22-4,6.85,0,.06-.11-.92-.12-1-.41-1.84-.18-9.83-3.83-10.4,0,0-3.81-.92-4.38,3.42a48,48,0,0,0,.24,8.07s-1.27-7.82-4.68-10.68c0,0-2.28-2.14-5.64,0,0,0-2.41,1.55-1.46,5.47a60.8,60.8,0,0,1,2.13,7.38s-2.74-5.59-3.88-7.31c0,0-1.83-3.31-5.37-2.17,0,0-3.2,1.26-1.94,6.06a36.6,36.6,0,0,0,2.17,5.94s1.49,5.37,1.49,7.88c0,0-1.15.23-5.6-2.79,0,0-3.2-2.35-6.29,0,0,0-3.65,3.47,1.26,7a18.2,18.2,0,0,1,5.09,5.85A19.35,19.35,0,0,0,103.15,180.29Z"/></clipPath><clipPath id="clip-path-5" transform="translate(0.98)"><path class="cls-1" d="M78.33,254.88S49.18,276.69,23.6,276.69c0,0-21.94,1.95-22.85-13.64,0,0,.91-11.7,20.56-8.17a73.15,73.15,0,0,0,50.53-13.46"/></clipPath><clipPath id="clip-path-6" transform="translate(0.98)"><path class="cls-4" d="M206,157s-7.67,3-6,7.31c0,0,.45,3.49,7.47,1.64,1.17-.31,11.6-2.77,9.48-7.82C216.91,158.15,215.72,152.92,206,157Z"/></clipPath><clipPath id="clip-path-7" transform="translate(0.98)"><path class="cls-4" d="M207.94,163.44s-8.19,3.72-6,7.85c0,0,.8,3.44,8.38.93,1.27-.42,12.55-3.85,9.78-8.69C220.12,163.53,218.37,158.43,207.94,163.44Z"/></clipPath><clipPath id="clip-path-8" transform="translate(0.98)"><path class="cls-4" d="M211.2,169.87s-7.59,3.44-5.54,7.27c0,0,.74,3.18,7.76.86,1.17-.39,11.62-3.57,9.06-8.05C222.48,170,220.86,165.23,211.2,169.87Z"/></clipPath><clipPath id="clip-path-9" transform="translate(0.98)"><path class="cls-4" d="M214,176.07s-6.84,3.33-5,7c0,0,.67,3.08,7,.83,1.06-.38,10.48-3.45,8.18-7.79C224.18,176.15,222.71,171.58,214,176.07Z"/></clipPath></defs><g class="cls-5"><g id="Layer_2" data-name="Layer 2"><g id="Layer_1-2" data-name="Layer 1"><path class="cls-6" d="M197.1,180.29v5.48l6,16.22s1.19,3.43,5.4,2.06l14.42-5.58,6.46-2.19-8.78-22.18Z" transform="translate(0.98)"/><path class="cls-7" d="M208.69,223.2s-10.17-19.25-11-35.41C197.66,187.79,197.1,213.41,208.69,223.2Z" transform="translate(0.98)"/><path class="cls-8" d="M222.24,228.72s-22.75,8.22-25.53-46.91" transform="translate(0.98)"/><path class="cls-9" d="M169.17,175.49a.91.91,0,0,0-.08-.12l-.89.49Z" transform="translate(0.98)"/><path class="cls-8" d="M206.12,104.11a82.23,82.23,0,0,1-20.65,16.3" transform="translate(0.98)"/><path class="cls-9" d="M87.77,152.09S76.32,162.47,76.41,187.6a73.68,73.68,0,0,1-2.36,18.27s-14.78,31.53,6.86,57.57c0,0,8.64,8.69,17.88,13.25,0,0,9.81,17.37,9.07,38.38,0,0-3.9,5.94,14.58,6.4,0,0,26.61,2.74,29.63-3.65a5.08,5.08,0,0,0,1.48-3.21.5.5,0,0,1,.82-.41l3.94,3.5s2.95,6.35,10.86.76c0,0,39-19.49,32.89-29.89A9.9,9.9,0,0,0,195.8,284s.88-.9-3.87-9.83c0,0,26-16.83,30.31-45.46,0,0,12.71-1.83,11.8-24.67,0,0-1.43-23-30.17-49.35l-1.81-9.59H108.93Z" transform="translate(0.98)"/><g class="cls-10"><path class="cls-7" d="M87.77,152.09s-9.43,16.32-9.44,32.77a45.21,45.21,0,0,1-1.83,20.62s-8.59,18.41-7,34.54c0,0-7.43-1.25-10.17-13.74s5-50.67,5-50.67,5.18-15.18,6.55-15.91S87.77,152.09,87.77,152.09Z" transform="translate(0.98)"/><path class="cls-7" d="M80.16,192.88s14.56,38.06,42.46,46.89c0,0-28.41-8.38-38.86-36.67C83.76,203.1,80.16,194.63,80.16,192.88Z" transform="translate(0.98)"/><path class="cls-7" d="M184.9,263.7s-34.51-14.45-30.7-47.65c0,0,2.07-36.55,41.93-43.56v14.32s-.24,31.59,15.55,40.78c0,0,7.21,3.16,11.16,1.29a4.93,4.93,0,0,0-1.37,2.34c-.15,1.18,6.5,23-21.06,34.09C200.41,265.31,189.15,266.58,184.9,263.7Z" transform="translate(0.98)"/><path class="cls-7" d="M78.33,259.1s4.57,9.83,27.18,21.15c0,0,7.07,4,10,5.71,0,0-9.94-8.12-16.69-11.09A85.25,85.25,0,0,1,78.33,259.1Z" transform="translate(0.98)"/><path class="cls-11" d="M151.42,219.88s-8.54,29.92-39.37,16c0,0-22.91-10.39-31.89-41.61,0,0,13.86,48.13,41.27,49.19,0,0,13.71,3.51,24.52-6.09A22.64,22.64,0,0,0,151.42,219.88Z" transform="translate(0.98)"/><path class="cls-6" d="M130.16,170.39s34.22,48.58,1,69.67c0,0,25.92-6.48,18.44-34.45a86,86,0,0,0-18-35.68Z" transform="translate(0.98)"/><path class="cls-6" d="M99.61,277.11s8.53,19.92,8.25,38c0,0-1.49,4.94,6.55,5.67,0,0,26.45,2.93,33.11,0,0,0,7.26-2.78,6.39-7,0,0-25.47-20.59-42.09-29.94Z" transform="translate(0.98)"/><path class="cls-6" d="M197.82,284.67s-2.89-2.46-9.44,1.29c0,0,2.05-5.33,6.2-6.39s5.91,3.1,5.83,3.2S197.82,284.67,197.82,284.67Z" transform="translate(0.98)"/><path class="cls-6" d="M103.77,157.84l-1.42,7.2s-16-.63-18.18-5.5l3.6-7.45S100,158.23,103.77,157.84Z" transform="translate(0.98)"/><path class="cls-6" d="M91.4,167.61s4.2,11.59,8.21,14.2a20.67,20.67,0,0,1,2.78,8.68s1.34,10.34,5.47,15c0,0-4.71-17-4.71-25.19,0,0-6.32-4.57-9.78-10.36Z" transform="translate(0.98)"/><path class="cls-2" d="M199.72,285.88s-3-3.85-11.34.08c0,0-22.1,9.49-30.07,31.74s4.55,7.58,4.55,7.58,40.28-6,43-11.08,11.32-14.51,6.4-20.9A20.81,20.81,0,0,0,199.72,285.88Z" transform="translate(0.98)"/><g class="cls-12"><path class="cls-13" d="M164.91,322.06s-11.42,5.81,5.49-10c0,0,27.85-28.78,32.2-19,0,0,5,12.34-4.56,16s-23.76,10.28-23.76,10.28" transform="translate(0.98)"/></g><path class="cls-13" d="M105.51,310.66s27.8,4,42.73-1.22l6.13,4.76s10.4,7.12,0,10.17-27.76,5.48-29.59,4.56-26-11-26-11Z" transform="translate(0.98)"/><path class="cls-6" d="M207.33,222.47s7.77,11.58,18.73,4.27c0,0,15-8.07,8-35.79,0,0-12.15-22-17.48-25.91s-4.25,0-4.25,0l-2.88,3.87,2.27.18s21.32,17.59,15.53,50.61c0,0-2.17,7.08-8.68,7C218.6,226.66,211.38,227.43,207.33,222.47Z" transform="translate(0.98)"/><path class="cls-14" d="M186.21,264.38s30.4-18.92,30.4-35.67l9.3.44s3.46,25.84-1.37,30-16.08,9.53-16.08,9.53Z" transform="translate(0.98)"/><path class="cls-15" d="M138.18,169.93s11.25,21.86,11.61,36.87c0,0-1.79-15.7-18.24-36.87l1.68-10.63s31.56-4.69,38.53-11l1.26-.38,5.25,14.19,10.62-2.41,20.59-6.51,10.59,13.32-23.94,8.86s-1.2,34.63,15.55,52.22c0,0,9.47,3.2,15.28,0s-1.19,3.87-1.81,4.1-1.07,3.65-1.07,3.65-16,3-21.48-10.05c0,0-9.06-14.13-9.79-45.92l-6-14.33-1.1-1.66L179.61,165s-2.72,1.08-3.68-1.43l-3.48-8.16s-27.06,9.75-33.58,9.59Z" transform="translate(0.98)"/><path class="cls-15" d="M186.21,264.38s25.12,2,35.38-21.49-1.32,21-2.84,22.7-19,8.36-19,8.36l-6.91,1.93Z" transform="translate(0.98)"/></g><path class="cls-8" d="M87.77,152.09S76.32,162.47,76.41,187.6a73.68,73.68,0,0,1-2.36,18.27s-14.78,31.53,6.86,57.57c0,0,8.64,8.69,17.88,13.25,0,0,9.81,17.37,9.07,38.38,0,0-3.9,5.94,14.58,6.4,0,0,26.61,2.74,29.63-3.65a5.08,5.08,0,0,0,1.48-3.21.5.5,0,0,1,.82-.41l3.94,3.5s2.95,6.35,10.86.76c0,0,39-19.49,32.89-29.89A9.9,9.9,0,0,0,195.8,284s.88-.9-3.87-9.83c0,0,26-16.83,30.31-45.46,0,0,12.71-1.83,11.8-24.67,0,0-1.43-23-30.17-49.35l-1.81-9.59H108.93Z" transform="translate(0.98)"/><path class="cls-8" d="M98.79,276.69s33.1,16.49,55.58,37.51" transform="translate(0.98)"/><path class="cls-9" d="M166.79,22.42l-.6-1.54C151.15-.38,142.56.18,142.56.18,129.5,3.5,125.87,24.72,125.87,24.72L125.53,27A9.21,9.21,0,0,0,121.29,28c-12.8,4.34-13.48,3.08-13.48,3.08l-1.89,1h0S93,12.51,80.09,15.6c0,0-11.5,1.82-12.23,31a28.13,28.13,0,0,0,0,3.7c-.72.59-5,5.41-5,5.41-11.31,15.11-13,38-7.38,57.49l.59,2.08c6.38,22.24,22,35.49,42.85,41.45,0,0,26.66,7.28,53.62-1.42,0,0,36.1-8.8,53.16-33.58,11.2-16.28,15-33.37,9.19-53.73h0c-6.38-20.7-22-40-43.9-44.68A15.34,15.34,0,0,0,166.79,22.42Z" transform="translate(0.98)"/><path class="cls-16" d="M128.25,26.75l-2.48.31S129.46,5,140,1.53C140,1.53,129.13,6.25,128.25,26.75Z" transform="translate(0.98)"/><path class="cls-16" d="M131.42,26.73s-20,1.24-30.08,8C101.34,34.75,112.31,30.71,131.42,26.73Z" transform="translate(0.98)"/><path class="cls-7" d="M59.56,115.48S45.72,74,69.67,50.36c0,0-1.28-26.72,8.9-33.58l-.6,0c-3.51,2.46-9.37,9.43-9.88,29.64a28.52,28.52,0,0,0,.06,4,66.18,66.18,0,0,0-4.68,5.25c-11.3,15.12-13,38-7.38,57.49l.6,2.08c6.37,22.24,22,35.49,42.85,41.45A95.4,95.4,0,0,0,116,159.23c2.29.17,4.78.28,7.39.31C121.4,159.41,70,158.4,59.56,115.48Z" transform="translate(0.98)"/><path class="cls-2" d="M104.84,69.12c1.77-6.21,6.79-7.45,6.79-7.45,10-2.75,13.5,6.38,13.5,6.38,2.51,6.37,1.71,10.82,1.71,10.82a10.42,10.42,0,0,1-8.25,9.7c-11.6,1.63-13.9-11.25-13.9-11.25a21.13,21.13,0,0,1-.19-6.51S104.73,69.5,104.84,69.12Z" transform="translate(0.98)"/><path class="cls-17" d="M108.83,71.79A16.59,16.59,0,0,0,109,76.5s1.67,9.32,10.07,8.14a7.55,7.55,0,0,0,6-7,15.83,15.83,0,0,0-1.24-7.83A7.91,7.91,0,0,0,114,65.17a7.3,7.3,0,0,0-4.92,5.4A7.69,7.69,0,0,0,108.83,71.79Z" transform="translate(0.98)"/><path class="cls-8" d="M101.24,34.32s9.93-5,30.07-8.06" transform="translate(0.98)"/><path class="cls-8" d="M175.93,146.49a118.76,118.76,0,0,1-23.1,8.93c-27,8.71-53.61,1.42-53.61,1.42-20.82-6-36.48-19.21-42.85-41.45l-.59-2.08C50.17,93.77,52.2,66.54,66.45,52.47" transform="translate(0.98)"/><path class="cls-8" d="M171.26,23.44c15.83,1.92,38.44,21.92,43.92,44.68h0c5.84,20.35,2,37.44-9.19,53.72" transform="translate(0.98)"/><path class="cls-18" d="M124,115.41s4.75,10.75,14.82,11.53c0,0,10.84,1.84,13-15.13,2.08-16.72-14.32-11-14.32-11l-7.61,3Z" transform="translate(0.98)"/><g class="cls-19"><path class="cls-20" d="M126.84,122.67s8.53-12.17,27.59-5.69-4,8.49-5.41,9.45-7.1,13.91-16.72,9.73S126.84,122.67,126.84,122.67Z" transform="translate(0.98)"/></g><path class="cls-8" d="M124,115.41s4.75,10.75,14.82,11.53c0,0,10.84,1.84,13-15.13,2.08-16.72-14.32-11-14.32-11l-7.61,3Z" transform="translate(0.98)"/><path class="cls-8" d="M104.14,29.49S91.36,13,80.33,15.7c0,0-12.39,1.59-12.25,32.55" transform="translate(0.98)"/><path class="cls-8" d="M126.32,24.09S130.4,2.5,141.11.89c0,0,9.92-3.22,25.57,21.53" transform="translate(0.98)"/><circle class="cls-21" cx="88.93" cy="102.79" r="21.34"/><circle class="cls-21" cx="177.1" cy="76.38" r="21.34"/><path class="cls-8" d="M104.5,70.81a21.13,21.13,0,0,0,.19,6.51s2.3,12.88,13.9,11.25a10.42,10.42,0,0,0,8.25-9.7s.8-4.45-1.71-10.82c0,0-3.47-9.13-13.5-6.38a10.06,10.06,0,0,0-6.79,7.45" transform="translate(0.98)"/><path class="cls-2" d="M161.51,87c-5.38-7.17-22.18-1.66-22.18-1.66l-6.88,2.34-1.3,1.71-2-.89L123,90.44s-15.75,1.5-18.57,11.27a10.35,10.35,0,0,0,2.12,12.19s5,8.1,17.33,3.19c0,0,11.16-3,11.13-12.65,4.55,8.47,15.8,5.83,15.8,5.83,12.71-4.28,13-11.16,13-11.16C166,91.16,161.51,87,161.51,87Z" transform="translate(0.98)"/><path class="cls-8" d="M123,90.44s-15.8,1.41-18.92,12.31a12.93,12.93,0,0,0,4.69,13.3s6.25,4.81,15.79,1.5c0,0,10.94-3.91,10.45-13.11" transform="translate(0.98)"/><path class="cls-8" d="M137.76,86.21s14.16-7.15,22.56.46a12.93,12.93,0,0,1,3.05,13.77s-2.77,7.39-12.62,9.61c0,0-11.35,2.47-15.79-5.61" transform="translate(0.98)"/><path d="M129.64,86.89c-.23.07-3.74,1.07-3.8,2.41,0,0-.46,2.51,5,1.16,0,0,4.54-1.13,3.82-3.37C134.64,87.09,134.1,85.63,129.64,86.89Z" transform="translate(0.98)"/><path class="cls-2" d="M116.2,72.12s4.2-4.22.67-5.36a5.26,5.26,0,0,0-4.08.67,4.65,4.65,0,0,0-1.6,6.27S112.67,76,116.2,72.12Z" transform="translate(0.98)"/><path class="cls-2" d="M122.72,73.84A2.83,2.83,0,0,0,119.39,72s-2.23.26-4.88,3.55c0,0-3.5,3.19-1.36,5.43,0,0,3.09,3.57,7.86.33A6.38,6.38,0,0,0,122.72,73.84Z" transform="translate(0.98)"/><path class="cls-8" d="M108.83,71.79A15.24,15.24,0,0,0,109,76.5s1.67,9.32,10.07,8.14a7.55,7.55,0,0,0,6-7,15.83,15.83,0,0,0-1.24-7.83A7.91,7.91,0,0,0,114,65.17a7.3,7.3,0,0,0-4.92,5.4" transform="translate(0.98)"/><path class="cls-8" d="M114.52,100.81a42,42,0,0,0-24.35,1.9" transform="translate(0.98)"/><path class="cls-8" d="M115.66,107.61s-14.07,4.4-20.22,12.52" transform="translate(0.98)"/><path class="cls-8" d="M149.65,91.48A42,42,0,0,1,171.5,80.57" transform="translate(0.98)"/><path class="cls-8" d="M152.19,97.9s14.32-3.48,23.77.31" transform="translate(0.98)"/><path class="cls-8" d="M111.75,43.74s-2.34-1.52-6.42-.68" transform="translate(0.98)"/><path class="cls-8" d="M123.34,40.43s1.19-2.53,5.1-4" transform="translate(0.98)"/><path class="cls-22" d="M94.5,33.92c.51-2.41-5.81-17.44-14.27-14.79,0,0-6.63.51-8.39,20.1,0,0-.67,7.18,5.54,5.75.46.24,7.53-3.63,14-7.17A6.08,6.08,0,0,0,94.5,33.92Z" transform="translate(0.98)"/><path class="cls-22" d="M137.24,23.54c-1.77-1.71-3.15-17.38,3.54-20.24,0,0,5.79-3.29,18.21,12,0,0,4.58,5.58-1.37,7.87-.25.46-8.27,1.21-15.6,1.88A6.05,6.05,0,0,1,137.24,23.54Z" transform="translate(0.98)"/><path class="cls-8" d="M80.23,19.13s3.64-3.24,11.13,6.46c0,0,7.18,8.61-1.31,12.94" transform="translate(0.98)"/><path class="cls-8" d="M88.4,39.43s-.59.39-2.36,1.3" transform="translate(0.98)"/><path class="cls-8" d="M141.91,2.91s-4.76-1-6.51,11.1c0,0-2,11,7.51,10.62" transform="translate(0.98)"/><path class="cls-8" d="M144.79,24.6s.7,0,2.68,0" transform="translate(0.98)"/><path class="cls-11" d="M101.84,34.18s1.56-4.21-9-14.77c0,0,10.13,7.22,13.29,12.83Z" transform="translate(0.98)"/><path class="cls-11" d="M123.39,159.54s87.34-2.71,94.35-69C217.74,90.49,212.71,147.41,123.39,159.54Z" transform="translate(0.98)"/><path class="cls-11" d="M114.4,118.37s5.8,2.64,14.74-1.25a16.92,16.92,0,0,0,7.21-6.79s6.44,4.84,16.46-.43a12.17,12.17,0,0,0,5.34-3.58s-9.92,9.63-22.29-.47l-.94.22S132.82,120.53,114.4,118.37Z" transform="translate(0.98)"/><path class="cls-11" d="M104.4,71.75s-3.19,9.55,4.81,16.14c0,0,4.73,3.23,13.41-1.13,0,0-10.47,5.83-15.21-3.05C107.41,83.71,103.18,76.51,104.4,71.75Z" transform="translate(0.98)"/><path class="cls-9" d="M116.26,87.51l5,1.4s-8.43,2.67-8.52,2.36a1.19,1.19,0,0,1-1.32-.63l-.91.22s-.45-.61,1.13-1.76A8.24,8.24,0,0,1,116.26,87.51Z" transform="translate(0.98)"/><path class="cls-8" d="M110.23,89.64a10.38,10.38,0,0,1,10.19-1" transform="translate(0.98)"/><path class="cls-9" d="M142.91,80.1l-3.58,3.79s8.6-2.06,8.52-2.37a1.21,1.21,0,0,0,.8-1.22l.89-.28s.07-.75-1.87-.92A8.15,8.15,0,0,0,142.91,80.1Z" transform="translate(0.98)"/><path class="cls-8" d="M149.17,78.82a10.37,10.37,0,0,0-9.24,4.4" transform="translate(0.98)"/><path class="cls-8" d="M148.79,59C137.17,59.81,131.47,71,131.47,71s12.84-2.46,21,4.2" transform="translate(0.98)"/><path class="cls-8" d="M131.47,71s7.37-5.91,16.71-5.51" transform="translate(0.98)"/><path class="cls-8" d="M192.81,275.88s-4.47-9.47-8.94-14.49" transform="translate(0.98)"/><path class="cls-2" d="M103.15,180.29s9-9.14,28.4-10.36c0,0,2.67-6.85,1.46-22.24,0,0-.54-5.25-3.74-5.55,0,0-4.41-1.22-4,6.85,0,.06-.11-.92-.12-1-.41-1.84-.18-9.83-3.83-10.4,0,0-3.81-.92-4.38,3.42a48,48,0,0,0,.24,8.07s-1.27-7.82-4.68-10.68c0,0-2.28-2.14-5.64,0,0,0-2.41,1.55-1.46,5.47a60.8,60.8,0,0,1,2.13,7.38s-2.74-5.59-3.88-7.31c0,0-1.83-3.31-5.37-2.17,0,0-3.2,1.26-1.94,6.06a36.6,36.6,0,0,0,2.17,5.94s1.49,5.37,1.49,7.88c0,0-1.15.23-5.6-2.79,0,0-3.2-2.35-6.29,0,0,0-3.65,3.47,1.26,7a18.2,18.2,0,0,1,5.09,5.85A19.35,19.35,0,0,0,103.15,180.29Z" transform="translate(0.98)"/><g class="cls-23"><path class="cls-24" d="M128.13,170.24s6.86-18.76,1.37-30.06,8.23,5.95,8.23,5.95l3.42,23.49-6.18.31-6.84.31" transform="translate(0.98)"/><path class="cls-24" d="M119.32,137.47s3.86,2.53,5.54,11.75c0,0,1.06-8.63,1.06-9s.08-7-1.44-7.64-6,.84-6,1.14S119.32,137.47,119.32,137.47Z" transform="translate(0.98)"/><path class="cls-24" d="M107.8,137.47s4.87.93,8.83,11.9c0,0,.82-.24,0-2.82s-1.32-7.57-1.78-9.08-1.37-4.09-2.36-4.09S107.8,137.47,107.8,137.47Z" transform="translate(0.98)"/><path class="cls-24" d="M97.6,141.37s5.1,2.52,9.67,10.28c0,0-1.75-7.38-2.44-8.6S102,137,101.48,137s-2.51,0-2.89.51A20.59,20.59,0,0,0,97.6,141.37Z" transform="translate(0.98)"/><path class="cls-24" d="M87.78,159.31s2.89-.8,7.68,1.63c0,0,6.25,3,5-.07-.15-.38.61-2.51-2.06-3.28s-8.68-3.42-9.36-3.12-1.53,2.29-1.6,2.67" transform="translate(0.98)"/></g><path class="cls-8" d="M103.15,180.29s9-9.14,28.4-10.36c0,0,2.67-6.85,1.46-22.24,0,0-.54-5.25-3.74-5.55,0,0-4.41-1.22-4,6.85,0,.06-.11-.92-.12-1-.41-1.84-.18-9.83-3.83-10.4,0,0-3.81-.92-4.38,3.42a48,48,0,0,0,.24,8.07s-1.27-7.82-4.68-10.68c0,0-2.28-2.14-5.64,0,0,0-2.41,1.55-1.46,5.47a60.8,60.8,0,0,1,2.13,7.38s-2.74-5.59-3.88-7.31c0,0-1.83-3.31-5.37-2.17,0,0-3.2,1.26-1.94,6.06a36.6,36.6,0,0,0,2.17,5.94s1.49,5.37,1.49,7.88c0,0-1.15.23-5.6-2.79,0,0-3.2-2.35-6.29,0,0,0-3.65,3.47,1.26,7a18.2,18.2,0,0,1,5.09,5.85A19.35,19.35,0,0,0,103.15,180.29Z" transform="translate(0.98)"/><path class="cls-9" d="M78.33,254.88S49.18,276.69,23.6,276.69c0,0-21.94,1.95-22.85-13.64,0,0,.91-11.7,20.56-8.17a73.15,73.15,0,0,0,50.53-13.46" transform="translate(0.98)"/><g class="cls-25"><path class="cls-11" d="M2.14,266.53c4.25,7.78,22.62,17.93,74.7-15,0,0,3,5.22,2.4,7.09,0,0-21,15.53-24,16.9s-38.16,12.34-40.9,12.34S10.24,289,7.5,283.32,2.14,266.53,2.14,266.53Z" transform="translate(0.98)"/><path class="cls-7" d="M19.73,254.63s-13.59-.78-17.93,8.59a11,11,0,0,0-1,4.68c0,2.63-2-6.17-1.69-7.31s6.16-11.54,6.16-11.54,13.37,2.63,13.71,3.2A14.41,14.41,0,0,1,19.73,254.63Z" transform="translate(0.98)"/></g><path class="cls-8" d="M78.33,254.88S49.18,276.69,23.6,276.69c0,0-21.94,1.95-22.85-13.64,0,0,.91-11.7,20.56-8.17a73.15,73.15,0,0,0,50.53-13.46" transform="translate(0.98)"/><path class="cls-8" d="M103.15,180.29s1.49,15.66,4.71,25.19" transform="translate(0.98)"/><path class="cls-8" d="M131.55,169.93s20.75,25.89,19.18,48.74c0,0-1.78,22.23-26.81,21.32,0,0-31-3.44-43.76-47.11" transform="translate(0.98)"/><polygon class="cls-26" points="221.05 192.66 205.34 198.47 181.73 139.29 202.51 131.61 221.05 192.66"/><circle class="cls-27" cx="186.65" cy="121.78" r="18.4"/><rect class="cls-28" x="173.79" y="134.63" width="43.23" height="23" rx="3.83" transform="translate(-37.57 76.84) rotate(-20.29)"/><text class="cls-29" transform="translate(180.57 156.73) rotate(-20.29)">BCM</text><rect class="cls-20" x="165.51" y="119.77" width="40.47" height="4.44" rx="2.22" transform="translate(-29.8 71.99) rotate(-20.29)"/><path class="cls-2" d="M206,157s-7.67,3-6,7.31c0,0,.45,3.49,7.47,1.64,1.17-.31,11.6-2.77,9.48-7.82C216.91,158.15,215.72,152.92,206,157Z" transform="translate(0.98)"/><g class="cls-30"><path class="cls-24" d="M201,168.52s.1-6,9.53-8.82c0,0,7.93-3.06,11.36,1.28s-.56,6.06-.9,6.06S201,168.52,201,168.52Z" transform="translate(0.98)"/><path class="cls-24" d="M210.54,159.7c1.13-.37,6.45-1.35,6.65-3s2,2.75,2.1,4.24,4.68,2.86-2.86,4.69-10.56,3-12.36,2.51a9.52,9.52,0,0,1-2.76-1.11Z" transform="translate(0.98)"/></g><path class="cls-8" d="M206,157s-7.67,3-6,7.31c0,0,.45,3.49,7.47,1.64,1.17-.31,11.6-2.77,9.48-7.82C216.91,158.15,215.72,152.92,206,157Z" transform="translate(0.98)"/><path class="cls-2" d="M207.94,163.44s-8.19,3.72-6,7.85c0,0,.8,3.44,8.38.93,1.27-.42,12.55-3.85,9.78-8.69C220.12,163.53,218.37,158.43,207.94,163.44Z" transform="translate(0.98)"/><g class="cls-31"><path class="cls-24" d="M203.48,175.37s-.4-6,9.75-9.69c0,0,8.48-3.8,12.64.2s-.11,6.09-.49,6.12S203.48,175.37,203.48,175.37Z" transform="translate(0.98)"/><path class="cls-24" d="M213.23,165.68c1.22-.47,7-2,7.08-3.58s2.42,2.56,2.67,4,5.41,2.41-2.75,4.94-11.38,4-13.41,3.67a11,11,0,0,1-3.13-.85Z" transform="translate(0.98)"/></g><path class="cls-8" d="M207.94,163.44s-8.19,3.72-6,7.85c0,0,.8,3.44,8.38.93,1.27-.42,12.55-3.85,9.78-8.69C220.12,163.53,218.37,158.43,207.94,163.44Z" transform="translate(0.98)"/><path class="cls-2" d="M211.2,169.87s-7.59,3.44-5.54,7.27c0,0,.74,3.18,7.76.86,1.17-.39,11.62-3.57,9.06-8.05C222.48,170,220.86,165.23,211.2,169.87Z" transform="translate(0.98)"/><g class="cls-32"><path class="cls-24" d="M207.07,180.92s-.38-5.55,9-9c0,0,7.85-3.52,11.7.19s-.09,5.64-.44,5.67S207.07,180.92,207.07,180.92Z" transform="translate(0.98)"/><path class="cls-24" d="M216.1,171.94c1.12-.44,6.48-1.81,6.56-3.32s2.24,2.37,2.47,3.74,5,2.23-2.54,4.57-10.55,3.67-12.43,3.4a10.08,10.08,0,0,1-2.9-.78Z" transform="translate(0.98)"/></g><path class="cls-8" d="M211.2,169.87s-7.59,3.44-5.54,7.27c0,0,.74,3.18,7.76.86,1.17-.39,11.62-3.57,9.06-8.05C222.48,170,220.86,165.23,211.2,169.87Z" transform="translate(0.98)"/><path class="cls-2" d="M214,176.07s-6.84,3.33-5,7c0,0,.67,3.08,7,.83,1.06-.38,10.48-3.45,8.18-7.79C224.18,176.15,222.71,171.58,214,176.07Z" transform="translate(0.98)"/><g class="cls-33"><path class="cls-24" d="M210.27,186.77s-.34-5.37,8.15-8.7c0,0,7.08-3.4,10.55.19s-.08,5.46-.4,5.49S210.27,186.77,210.27,186.77Z" transform="translate(0.98)"/><path class="cls-24" d="M218.42,178.07c1-.42,5.84-1.75,5.92-3.2s2,2.29,2.23,3.61,4.51,2.16-2.3,4.43-9.52,3.55-11.21,3.29a8.35,8.35,0,0,1-2.61-.76Z" transform="translate(0.98)"/></g><path class="cls-8" d="M214,176.07s-6.84,3.33-5,7c0,0,.67,3.08,7,.83,1.06-.38,10.48-3.45,8.18-7.79C224.18,176.15,222.71,171.58,214,176.07Z" transform="translate(0.98)"/></g></g></g></svg>