<svg xmlns="http://www.w3.org/2000/svg" xmlns:xlink="http://www.w3.org/1999/xlink" viewBox="0 0 232.38 339.41"><defs><style>.cls-1,.cls-5{fill:#d5e3ec;}.cls-1,.cls-20,.cls-22,.cls-23,.cls-3,.cls-6{stroke:#000;}.cls-1,.cls-20,.cls-21,.cls-22,.cls-23,.cls-24,.cls-3,.cls-6{stroke-linecap:round;stroke-linejoin:round;stroke-width:1.5px;}.cls-12,.cls-14,.cls-2{fill:#b4cbd6;}.cls-2{mix-blend-mode:darken;}.cls-11,.cls-3{fill:#fff;}.cls-4{isolation:isolate;}.cls-6{fill:none;}.cls-7{clip-path:url(#clip-path);}.cls-16,.cls-8{fill:#edf1f3;}.cls-9{clip-path:url(#clip-path-2);}.cls-10{fill:#d2d8db;}.cls-13{fill:#e0e0e0;}.cls-14{mix-blend-mode:multiply;}.cls-15{clip-path:url(#clip-path-3);}.cls-16{mix-blend-mode:lighten;}.cls-17{fill:#5e4b18;}.cls-18{fill:#f6b8cf;}.cls-19{fill:#f9d5e1;}.cls-20{fill:#2b2b2b;}.cls-21{fill:#383030;}.cls-21,.cls-24{stroke:#231f20;}.cls-22{fill:#f6b097;}.cls-23{font-size:13.95px;fill:#fee682;font-family:HANAMDAUMR, HANAMDAUM;}.cls-24{fill:#d84141;}.cls-25{clip-path:url(#clip-path-4);}.cls-26{fill:#dfe5e8;}.cls-27{clip-path:url(#clip-path-5);}.cls-28{clip-path:url(#clip-path-6);}.cls-29{clip-path:url(#clip-path-7);}.cls-30{clip-path:url(#clip-path-8);}</style><clipPath id="clip-path" transform="translate(5.31)"><path class="cls-1" d="M158,314.25s36-17,29.8-27.39c0,0-1.25-2.55-5.44-3.35a134.62,134.62,0,0,0-8.23-14.6s13.44-12,17.33-41.82c0,0,10.57,8.14,20.05,2.07,6.62-4.23,8.78-14.79,6.41-25.25,0,0-7.3-32.19-27.51-41.14L184,146.89H90.89l-21.16,7s-15.54,13-12.63,39.35c0,0,1.49,4.38-1.08,14.43,0,0-13.84,30.16,5.57,57.57a134,134,0,0,0,10.83,13.25,64.75,64.75,0,0,1,17.4,38.38s-3.89,5.94,14.59,6.4c0,0,26.4.73,29.14-2.32a5.42,5.42,0,0,0,.91-6.39s.5-2.21-.18-12c3.46,2.23,1.28.89,13,10C147.27,312.48,151.14,318.23,158,314.25Z"/></clipPath><clipPath id="clip-path-2" transform="translate(5.31)"><path class="cls-2" d="M133.22,302.47s-26.47-17.32-51.4-27.83c0,0-14.34-7.24-18.33-13.28-4.38-6.65-9.73,6.14-9.73,6.14s7.54,23.7,13.25,35,12.23,28,19.71,31.16,29.86,7.54,37.63,5,20.56-3.19,19.65-9.59S133.22,302.47,133.22,302.47Z"/></clipPath><clipPath id="clip-path-3" transform="translate(5.31)"><path class="cls-1" d="M67.48,267.4S31.17,264.74,11.85,248c0,0-17.83-12.91-8.29-25.28,0,0,8.36-8.23,20.87,7.32a73.27,73.27,0,0,0,35.1,21"/></clipPath><clipPath id="clip-path-4" transform="translate(5.31)"><path class="cls-3" d="M185.66,158.63s-7.66,3-6,7.31c0,0,.45,3.49,7.47,1.64,1.18-.31,11.6-2.77,9.49-7.82C196.63,159.76,195.44,154.53,185.66,158.63Z"/></clipPath><clipPath id="clip-path-5" transform="translate(5.31)"><path class="cls-3" d="M187.66,165.05s-8.2,3.72-6,7.85c0,0,.8,3.44,8.37.93,1.27-.42,12.55-3.85,9.79-8.69C199.84,165.14,198.09,160,187.66,165.05Z"/></clipPath><clipPath id="clip-path-6" transform="translate(5.31)"><path class="cls-3" d="M190.91,171.48s-7.59,3.44-5.54,7.27c0,0,.74,3.18,7.76.86,1.18-.39,11.63-3.57,9.07-8.05C202.2,171.56,200.57,166.84,190.91,171.48Z"/></clipPath><clipPath id="clip-path-7" transform="translate(5.31)"><path class="cls-3" d="M193.71,177.68s-6.84,3.33-5,7c0,0,.66,3.08,7,.83,1.07-.37,10.49-3.45,8.18-7.79C203.89,177.76,202.43,173.19,193.71,177.68Z"/></clipPath><clipPath id="clip-path-8" transform="translate(5.31)"><path class="cls-3" d="M130.5,201.08s7.61,10.31,5.75,29.68c0,0,6.34,3.72,21.73,4.94,0,0,5.27.3,6.07-2.81,0,0,1.9-4.17-6.14-5l1,0c1.88-.11,9.74,1.38,10.87-2.14,0,0,1.51-3.62-2.68-4.87a48.91,48.91,0,0,0-8-1s7.92,0,11.28-2.94c0,0,2.47-1.91.89-5.56,0,0-1.14-2.63-5.16-2.31a61.26,61.26,0,0,1-7.64.94s6-1.82,7.84-2.68c0,0,3.56-1.28,3-5,0,0-.74-3.36-5.68-2.87a36.89,36.89,0,0,0-6.2,1.2s-5.54.63-8,.23c0,0,0-1.17,3.64-5.09,0,0,2.82-2.79,1-6.2,0,0-2.86-4.16-7.13.13a18.33,18.33,0,0,1-6.57,4.1A19.33,19.33,0,0,0,130.5,201.08Z"/></clipPath></defs><g class="cls-4"><g id="Layer_2" data-name="Layer 2"><g id="Layer_1-2" data-name="Layer 1"><path class="cls-5" d="M151.14,177.28l-.08-.12-.9.48Z" transform="translate(5.31)"/><path class="cls-6" d="M188.09,105.9a82.82,82.82,0,0,1-20.65,16.3" transform="translate(5.31)"/><path class="cls-5" d="M158,314.25s36-17,29.8-27.39c0,0-1.25-2.55-5.44-3.35a134.62,134.62,0,0,0-8.23-14.6s13.44-12,17.33-41.82c0,0,10.57,8.14,20.05,2.07,6.62-4.23,8.78-14.79,6.41-25.25,0,0-7.3-32.19-27.51-41.14L184,146.89H90.89l-21.16,7s-15.54,13-12.63,39.35c0,0,1.49,4.38-1.08,14.43,0,0-13.84,30.16,5.57,57.57a134,134,0,0,0,10.83,13.25,64.75,64.75,0,0,1,17.4,38.38s-3.89,5.94,14.59,6.4c0,0,26.4.73,29.14-2.32a5.42,5.42,0,0,0,.91-6.39s.5-2.21-.18-12c3.46,2.23,1.28.89,13,10C147.27,312.48,151.14,318.23,158,314.25Z" transform="translate(5.31)"/><g class="cls-7"><path class="cls-8" d="M69.73,153.88s-9.42,16.31-9.43,32.76a45.42,45.42,0,0,1-1.83,20.63s-8.6,18.41-7,34.53c0,0-7.42-1.24-10.16-13.73s5-50.67,5-50.67,5.18-15.18,6.55-15.92S69.73,153.88,69.73,153.88Z" transform="translate(5.31)"/><path class="cls-8" d="M172.43,262.61S142.22,245,146,211.77c0,0-3.5-32.45,32.63-42.37v14.2s.21,36.24,16,45.42c0,0,5.58,4,9.54,2.13,0,0-2,7.78-2.17,8.95s14.1,13-13.47,24.12C188.57,264.22,176.67,265.49,172.43,262.61Z" transform="translate(5.31)"/><path class="cls-2" d="M133.22,302.47s-26.47-17.32-51.4-27.83c0,0-14.34-7.24-18.33-13.28-4.38-6.65-9.73,6.14-9.73,6.14s7.54,23.7,13.25,35,12.23,28,19.71,31.16,29.86,7.54,37.63,5,20.56-3.19,19.65-9.59S133.22,302.47,133.22,302.47Z" transform="translate(5.31)"/><g class="cls-9"><path class="cls-10" d="M87.91,314.71s29.64,4,45.55-1.22l6.54,4.76s11.09,7.12,0,10.17-29.59,5.48-31.54,4.56-27.7-11-27.7-11Z" transform="translate(5.31)"/></g><path class="cls-11" d="M183.92,280s-11.23,21-41.09,35.18,7.67,8.35,7.67,8.35,29.44.79,33.42-7.44,10-23.76,10.21-25.13S183.92,280,183.92,280Z" transform="translate(5.31)"/><path class="cls-2" d="M54.62,188.3l3.32,8.56s3.39,47.12,56.33,39.31c0,0,19.9-2,22.4-4.95,0,0,21.8,9,27.81,2.13,2.16-2.47-1.93,2.86-1.93,2.86s-8.55,8.29-24.44,1.42C138.11,237.63,65.56,270.82,54.62,188.3Z" transform="translate(5.31)"/><path class="cls-12" d="M179.44,190c-.29,1.44,5.43,13.71,5.43,13.71s-.33,1.31,4.06,0l13.47-4.79,5.77-1.77s6.09,15.15,1.21,24c0,0-6.8,8.17-14.91,5.94s5.71,4.72,5.71,4.72,16.36,5.11,18.8,2.86,7-8.35,7.61-14.13,1.07-15.08-1.52-19-17.39-24.87-18.88-26.36-2.94-11.56-2.94-11.56l-11.71,8.49-11,9.63Z" transform="translate(5.31)"/><path class="cls-13" d="M167.14,260.24s15.57-19.57,21.26-37.88l5.24,6.37.17,35.7-14.38,2.07Z" transform="translate(5.31)"/><path class="cls-14" d="M65.14,157.06s14.94,13.1,55.7,9.77c6.5-.53,33.58-9.59,33.58-9.59l3.47,8.16c1,2.51,3.69,1.43,3.69,1.43l6.13-1.66,1.1,1.66,6,14.33c.72,31.79,9.78,45.92,9.78,45.92,5.48,13,21.49,10,21.49,10s.46-3.43,1.07-3.65,7.61-7.31,1.8-4.11-15.28-.64-15.28-.64c-16.74-17.58-15.54-51.57-15.54-51.57L202,168.3,191.44,155l-20.59,6.51-10.62,2.41L155,149.71l-1.26.38c-7,6.31-38.54,11-38.54,11s-31.28,1.57-45.46-7.21h0l-11.4,4.64" transform="translate(5.31)"/><path class="cls-14" d="M167.14,260.24c3.16.59,26.41,7.38,36.42-15.57,10.26-23.53-1.33,21-2.85,22.7s-19,8.37-19,8.37l-3-1.1Z" transform="translate(5.31)"/></g><path class="cls-6" d="M158,314.25s36-17,29.8-27.39c0,0-1.25-2.55-5.44-3.35a134.62,134.62,0,0,0-8.23-14.6s13.44-12,17.33-41.82c0,0,10.57,8.14,20.05,2.07,6.62-4.23,8.78-14.79,6.41-25.25,0,0-7.3-32.19-27.51-41.14L184,146.89H90.89l-21.16,7s-15.54,13-12.63,39.35c0,0,1.49,4.38-1.08,14.43,0,0-13.84,30.16,5.57,57.57a134,134,0,0,0,10.83,13.25,64.75,64.75,0,0,1,17.4,38.38s-3.89,5.94,14.59,6.4c0,0,26.4.73,29.14-2.32a5.42,5.42,0,0,0,.91-6.39s.5-2.21-.18-12c3.46,2.23,1.28.89,13,10C147.27,312.48,151.14,318.23,158,314.25Z" transform="translate(5.31)"/><path class="cls-5" d="M67.48,267.4S31.17,264.74,11.85,248c0,0-17.83-12.91-8.29-25.28,0,0,8.36-8.23,20.87,7.32a73.27,73.27,0,0,0,35.1,21" transform="translate(5.31)"/><g class="cls-15"><path class="cls-2" d="M1.92,234.05c3.56,4.87,5.71,20.54,66.61,29.87,0,0-1.13,5.92-2.84,6.91,0,0-26.06-2.06-29.2-3s-36.89-15.71-39-17.51-3.85-1.83-2.17-7.94A13.36,13.36,0,0,1,1.92,234.05Z" transform="translate(5.31)"/><path class="cls-8" d="M9.32,220.5s-7.73,1.83-7.82,11.7L-.4,237s-2.5-6.44-2.55-7a53.85,53.85,0,0,1,1.53-7.27C-1.09,222,9.32,220.5,9.32,220.5Z" transform="translate(5.31)"/></g><path class="cls-6" d="M67.48,267.4S31.17,264.74,11.85,248c0,0-17.83-12.91-8.29-25.28,0,0,8.36-8.23,20.87,7.32a73.27,73.27,0,0,0,35.1,21" transform="translate(5.31)"/><path class="cls-6" d="M194.77,228.86c-6.55-4.23-14.41-15.57-16.1-45.26" transform="translate(5.31)"/><path class="cls-5" d="M147.11,21.37l-.68-1.52C130.24-.81,121.62.17,121.62.17c-13,4-15.6,25.53-15.6,25.53L105.79,28a9.25,9.25,0,0,0-4.22,1.29C88.9,34.26,88.15,33,88.15,33L86.3,34.16h0S72.31,15,59.48,18.78c0,0-11.48,2.4-10.78,31.83a27.08,27.08,0,0,0,.22,3.73C48.22,55,44.16,60,44.16,60,33.52,75.8,33,98.88,39.57,118.28l.7,2.06C47.78,142.41,64.2,155,85.46,160c0,0,27.2,6,53.9-4.08,0,0,35.92-10.63,51.87-36.42,10.48-16.95,13.48-34.34,6.61-54.55h0c-7.45-20.53-24.11-39.15-46.41-42.82A15.49,15.49,0,0,0,147.11,21.37Z" transform="translate(5.31)"/><path class="cls-16" d="M108.52,27.63l-2.48.43s2.62-22.43,13-26.4C119.07,1.66,108.39,7,108.52,27.63Z" transform="translate(5.31)"/><path class="cls-16" d="M111.71,27.45S91.59,29.69,81.82,37C81.82,37,92.67,32.4,111.71,27.45Z" transform="translate(5.31)"/><path class="cls-8" d="M43.74,120.35s-16-41.11,7-66.06c0,0-2.6-26.84,7.31-34.25l-.6.07c-3.42,2.64-9,10-8.49,30.32a28.43,28.43,0,0,0,.26,4A66.25,66.25,0,0,0,44.72,60c-10.63,15.77-11.19,38.84-4.59,58.24l.7,2.06C48.35,142.33,64.76,154.9,86,159.88a96.89,96.89,0,0,0,16.7,1.74c2.32.06,4.82,0,7.46-.06C108.16,161.54,56.37,163.05,43.74,120.35Z" transform="translate(5.31)"/><path class="cls-11" d="M87,71.45c1.47-6.35,6.47-7.84,6.47-7.84,10-3.27,13.9,5.76,13.9,5.76,2.84,6.28,2.26,10.8,2.26,10.8a10.52,10.52,0,0,1-7.83,10.18c-11.6,2.21-14.55-10.64-14.55-10.64a21.63,21.63,0,0,1-.51-6.54S87,71.83,87,71.45Z" transform="translate(5.31)"/><path class="cls-11" d="M125,58.48c-5-4.12-9.91-2.24-9.91-2.24-9.88,3.51-7.48,13.06-7.48,13.06,1.6,6.71,4.82,9.93,4.82,9.93a10.52,10.52,0,0,0,12.42,3.26c10.53-5.34,5-17.31,5-17.31a21.46,21.46,0,0,0-3.6-5.49S125.32,58.73,125,58.48Z" transform="translate(5.31)"/><path class="cls-17" d="M91.19,73.94a16.66,16.66,0,0,0,.36,4.73s2.14,9.3,10.54,7.7A7.6,7.6,0,0,0,107.75,79a15.76,15.76,0,0,0-1.63-7.82A8,8,0,0,0,96.06,67a7.35,7.35,0,0,0-4.69,5.67A8.28,8.28,0,0,0,91.19,73.94Z" transform="translate(5.31)"/><path class="cls-6" d="M81.7,36.59S91.45,31,111.58,27" transform="translate(5.31)"/><path class="cls-6" d="M162.43,145.84A120.3,120.3,0,0,1,139.62,156C112.91,166.06,85.71,160,85.71,160c-21.26-5-37.67-17.54-45.19-39.62l-.7-2.06c-6.6-19.4-5.91-46.92,7.75-61.79" transform="translate(5.31)"/><path class="cls-6" d="M187.27,125.48a83.12,83.12,0,0,1-20,17.43" transform="translate(5.31)"/><path class="cls-6" d="M151.66,22.18c16,1.15,39.79,20.17,46.43,42.81h0C205,85.2,202,102.6,191.48,119.54" transform="translate(5.31)"/><path class="cls-6" d="M84.38,31.58S70.7,15.65,59.73,18.86c0,0-12.39,2.22-10.73,33.38" transform="translate(5.31)"/><path class="cls-6" d="M106.44,25.05S109.49,3.11,120.2,1c0,0,9.83-3.73,26.79,20.42" transform="translate(5.31)"/><circle class="cls-18" cx="77" cy="106.17" r="21.51"/><circle class="cls-18" cx="164.47" cy="75.24" r="21.51"/><path class="cls-6" d="M86.78,73.17a21.63,21.63,0,0,0,.51,6.54s2.95,12.85,14.55,10.64a10.52,10.52,0,0,0,7.83-10.18s.58-4.52-2.26-10.8c0,0-3.94-9-13.9-5.76A10.15,10.15,0,0,0,87,71.45" transform="translate(5.31)"/><path class="cls-11" d="M145,86.69c-5.77-7-22.41-.57-22.41-.57l-6.81,2.69-1.22,1.78-2-.79L106.32,92s-15.78,2.29-18.14,12.26a10.44,10.44,0,0,0,2.74,12.17s5.41,7.91,17.61,2.36c0,0,11.08-3.61,10.57-13.29,5,8.31,16.21,5.09,16.21,5.09,12.58-4.94,12.56-11.87,12.56-11.87C149.65,90.62,145,86.69,145,86.69Z" transform="translate(5.31)"/><path class="cls-6" d="M106.32,92s-15.84,2.19-18.43,13.32a13,13,0,0,0,5.37,13.16s6.53,4.54,16,.73c0,0,10.83-4.47,9.87-13.71" transform="translate(5.31)"/><path class="cls-6" d="M121,87s13.9-7.9,22.74-.65a13,13,0,0,1,3.74,13.71s-2.42,7.58-12.23,10.3c0,0-11.31,3-16.18-4.87" transform="translate(5.31)"/><path d="M112.89,88.12c-.23.07-3.71,1.25-3.72,2.6,0,0-.33,2.55,5.08.93,0,0,4.52-1.36,3.68-3.58C117.93,88.07,117.32,86.63,112.89,88.12Z" transform="translate(5.31)"/><path class="cls-11" d="M98.63,73.9s4-4.45.4-5.43a5.32,5.32,0,0,0-4.07.88,4.68,4.68,0,0,0-1.3,6.39S95.26,77.94,98.63,73.9Z" transform="translate(5.31)"/><path class="cls-11" d="M105.27,75.32a2.85,2.85,0,0,0-3.43-1.68S99.6,74,97.1,77.45c0,0-3.38,3.38-1.11,5.54,0,0,3.29,3.44,7.93,0A6.46,6.46,0,0,0,105.27,75.32Z" transform="translate(5.31)"/><path class="cls-6" d="M91.19,73.94a15.31,15.31,0,0,0,.36,4.73s2.14,9.3,10.54,7.7A7.6,7.6,0,0,0,107.75,79a15.76,15.76,0,0,0-1.63-7.82A8,8,0,0,0,96.06,67a7.35,7.35,0,0,0-4.69,5.67" transform="translate(5.31)"/><path class="cls-17" d="M123.29,63.18a17.3,17.3,0,0,1,2.57,4s3.91,8.7-3.74,12.5a7.62,7.62,0,0,1-9-2.44A15.86,15.86,0,0,1,109.73,70a8,8,0,0,1,5.49-9.4,7.36,7.36,0,0,1,7.17,1.68A7.88,7.88,0,0,1,123.29,63.18Z" transform="translate(5.31)"/><path class="cls-6" d="M126.32,59.87a21.4,21.4,0,0,1,3.55,5.52s5.41,12-5.17,17.27a10.51,10.51,0,0,1-12.38-3.38s-3.2-3.24-4.73-10c0,0-2.32-9.57,7.59-13a10.17,10.17,0,0,1,9.89,2.33" transform="translate(5.31)"/><path class="cls-11" d="M116.88,67.79s-5.9-1.12-3.61-4.09a5.37,5.37,0,0,1,3.78-1.76,4.69,4.69,0,0,1,4.9,4.31S122,69,116.88,67.79Z" transform="translate(5.31)"/><path class="cls-11" d="M112.44,72.93a2.85,2.85,0,0,1,1.72-3.42s2-1.05,6.08.18c0,0,4.73.65,4.23,3.74,0,0-.54,4.73-6.35,4.75A6.45,6.45,0,0,1,112.44,72.93Z" transform="translate(5.31)"/><path class="cls-6" d="M123.29,63.18a15.8,15.8,0,0,1,2.57,4s3.91,8.7-3.74,12.5a7.62,7.62,0,0,1-9-2.44A15.86,15.86,0,0,1,109.73,70a8,8,0,0,1,5.49-9.4,7.36,7.36,0,0,1,7.17,1.68" transform="translate(5.31)"/><path class="cls-6" d="M98.35,102.87A42.35,42.35,0,0,0,73.93,106" transform="translate(5.31)"/><path class="cls-6" d="M99.83,109.66s-14,5.13-19.74,13.61" transform="translate(5.31)"/><path class="cls-6" d="M133.26,91.75a42.31,42.31,0,0,1,21.46-12.07" transform="translate(5.31)"/><path class="cls-6" d="M136.13,98.08s14.25-4.21,24-.86" transform="translate(5.31)"/><path class="cls-6" d="M92.75,45.55s-2.44-1.41-6.51-.37" transform="translate(5.31)"/><path class="cls-6" d="M104.25,41.65s1.07-2.61,4.94-4.25" transform="translate(5.31)"/><path class="cls-19" d="M74.89,36.51c.39-2.45-6.7-17.26-15.09-14.19,0,0-6.66.85-7.46,20.66,0,0-.32,7.26,5.86,5.51.48.22,7.4-4,13.73-7.91A6.08,6.08,0,0,0,74.89,36.51Z" transform="translate(5.31)"/><path class="cls-19" d="M117.41,24c-1.86-1.64-4-17.35,2.57-20.56,0,0,5.67-3.59,18.93,11.15,0,0,4.88,5.39-1,8-.23.47-8.27,1.62-15.61,2.66A6.13,6.13,0,0,1,117.41,24Z" transform="translate(5.31)"/><path class="cls-6" d="M59.8,22.32s3.5-3.44,11.52,6c0,0,7.66,8.31-.68,13.09" transform="translate(5.31)"/><path class="cls-6" d="M69,42.37s-.57.41-2.3,1.42" transform="translate(5.31)"/><path class="cls-6" d="M121.09,3s-4.84-.8-6,11.5c0,0-1.49,11.2,8.08,10.32" transform="translate(5.31)"/><path class="cls-6" d="M125.07,24.65s.7,0,2.7-.16" transform="translate(5.31)"/><path class="cls-5" d="M143.77,167.67l-.09-.12-.87.54Z" transform="translate(5.31)"/><path class="cls-2" d="M82.3,36.42S83.66,32.1,72.53,22c0,0,10.56,6.76,14,12.25Z" transform="translate(5.31)"/><path class="cls-2" d="M110.18,161.56s87.8-7,91.59-74.17C201.77,87.39,199.51,145,110.18,161.56Z" transform="translate(5.31)"/><path class="cls-2" d="M99.1,120.56s6,2.38,14.77-2a17.08,17.08,0,0,0,6.93-7.19s6.72,4.55,16.55-1.24a12.36,12.36,0,0,0,5.2-3.87s-9.52,10.19-22.47.63l-.93.27S117.74,121.82,99.1,120.56Z" transform="translate(5.31)"/><path class="cls-2" d="M86.72,74.11s-2.74,9.77,5.64,16c0,0,4.92,3,13.45-1.8,0,0-10.26,6.39-15.46-2.32C90.35,86,85.74,79,86.72,74.11Z" transform="translate(5.31)"/><path class="cls-2" d="M127.25,60.91s7.92,6.5,4.83,16.48c0,0-6.19,5.49-11.88,6.25,0,0,12-.88,11.13-11C131.33,72.65,130.9,64.24,127.25,60.91Z" transform="translate(5.31)"/><path class="cls-5" d="M99.44,89.4l5.13,1.16s-8.36,3.1-8.46,2.8a1.23,1.23,0,0,1-1.36-.58l-.91.28s-.48-.6,1-1.83A8.27,8.27,0,0,1,99.44,89.4Z" transform="translate(5.31)"/><path class="cls-6" d="M93.48,91.84a10.43,10.43,0,0,1,10.2-1.51" transform="translate(5.31)"/><path class="cls-5" d="M125.91,80.62l-3.41,4s8.55-2.51,8.45-2.81a1.21,1.21,0,0,0,.75-1.27l.89-.32s0-.77-1.94-.84A8.23,8.23,0,0,0,125.91,80.62Z" transform="translate(5.31)"/><path class="cls-6" d="M132.15,79a10.44,10.44,0,0,0-9.08,4.89" transform="translate(5.31)"/><polygon class="cls-20" points="207.35 194.45 191.63 200.26 168.02 141.08 188.8 133.39 207.35 194.45"/><circle class="cls-21" cx="172.94" cy="123.57" r="18.4"/><rect class="cls-22" x="155.75" y="136.42" width="43.23" height="23" rx="3.83" transform="translate(-34.98 70.7) rotate(-20.29)"/><text class="cls-23" transform="translate(166.86 158.52) rotate(-20.29)">BCM</text><rect class="cls-24" x="147.47" y="121.56" width="40.47" height="4.44" rx="2.22" transform="translate(-27.21 65.85) rotate(-20.29)"/><path class="cls-6" d="M132.35,301.23S115.79,291.12,90,281.41a61.06,61.06,0,0,1-12.52-6.77" transform="translate(5.31)"/><path class="cls-6" d="M176.7,272.75s-3.72-5.55-9.56-12.51" transform="translate(5.31)"/><path class="cls-2" d="M101.7,183.6s4,26.12,32.86,15.15l3.13-1.83,5.57-4.4s-7.7-.39-10.91,2.12C132.35,194.64,114.46,205.22,101.7,183.6Z" transform="translate(5.31)"/><path class="cls-12" d="M156.11,231.88s13.6,0,13.92-7.47l-.67-2.1-2.27-1.39S173,220,171.92,213l-4.29-2.59s6.46-7,1.22-9l-4.06-2.77s-11.36,1.46-12.8.77c0,0,7.54-5.68.95-10.84s-8.41,11.27-8.56,11.66-.91,19.28,0,19.58S156.11,231.88,156.11,231.88Z" transform="translate(5.31)"/><path class="cls-11" d="M185.66,158.63s-7.66,3-6,7.31c0,0,.45,3.49,7.47,1.64,1.18-.31,11.6-2.77,9.49-7.82C196.63,159.76,195.44,154.53,185.66,158.63Z" transform="translate(5.31)"/><g class="cls-25"><path class="cls-26" d="M180.72,170.13s.1-6,9.53-8.82c0,0,7.93-3.06,11.37,1.28s-.57,6.06-.91,6.06S180.72,170.13,180.72,170.13Z" transform="translate(5.31)"/><path class="cls-26" d="M190.25,161.31c1.13-.37,6.45-1.35,6.66-3s2,2.75,2.09,4.24,4.68,2.86-2.86,4.69-10.56,3-12.36,2.51a9.36,9.36,0,0,1-2.75-1.11Z" transform="translate(5.31)"/></g><path class="cls-6" d="M185.66,158.63s-7.66,3-6,7.31c0,0,.45,3.49,7.47,1.64,1.18-.31,11.6-2.77,9.49-7.82C196.63,159.76,195.44,154.53,185.66,158.63Z" transform="translate(5.31)"/><path class="cls-11" d="M187.66,165.05s-8.2,3.72-6,7.85c0,0,.8,3.44,8.37.93,1.27-.42,12.55-3.85,9.79-8.69C199.84,165.14,198.09,160,187.66,165.05Z" transform="translate(5.31)"/><g class="cls-27"><path class="cls-26" d="M183.2,177s-.41-6,9.74-9.69c0,0,8.49-3.8,12.64.2s-.1,6.09-.48,6.12S183.2,177,183.2,177Z" transform="translate(5.31)"/><path class="cls-26" d="M193,167.29c1.21-.47,7-1.95,7.08-3.58s2.41,2.56,2.67,4,5.4,2.41-2.75,4.94-11.39,3.95-13.41,3.67a10.9,10.9,0,0,1-3.13-.85Z" transform="translate(5.31)"/></g><path class="cls-6" d="M187.66,165.05s-8.2,3.72-6,7.85c0,0,.8,3.44,8.37.93,1.27-.42,12.55-3.85,9.79-8.69C199.84,165.14,198.09,160,187.66,165.05Z" transform="translate(5.31)"/><path class="cls-11" d="M190.91,171.48s-7.59,3.44-5.54,7.27c0,0,.74,3.18,7.76.86,1.18-.39,11.63-3.57,9.07-8.05C202.2,171.56,200.57,166.84,190.91,171.48Z" transform="translate(5.31)"/><g class="cls-28"><path class="cls-26" d="M186.78,182.53s-.38-5.55,9-9c0,0,7.86-3.52,11.71.19s-.1,5.64-.45,5.67S186.78,182.53,186.78,182.53Z" transform="translate(5.31)"/><path class="cls-26" d="M195.81,173.55c1.13-.44,6.48-1.81,6.56-3.31s2.24,2.37,2.48,3.73,5,2.23-2.55,4.57-10.55,3.67-12.43,3.4a10.08,10.08,0,0,1-2.9-.78Z" transform="translate(5.31)"/></g><path class="cls-6" d="M190.91,171.48s-7.59,3.44-5.54,7.27c0,0,.74,3.18,7.76.86,1.18-.39,11.63-3.57,9.07-8.05C202.2,171.56,200.57,166.84,190.91,171.48Z" transform="translate(5.31)"/><path class="cls-11" d="M193.71,177.68s-6.84,3.33-5,7c0,0,.66,3.08,7,.83,1.07-.37,10.49-3.45,8.18-7.79C203.89,177.76,202.43,173.19,193.71,177.68Z" transform="translate(5.31)"/><g class="cls-29"><path class="cls-26" d="M190,188.38s-.34-5.37,8.14-8.69c0,0,7.09-3.41,10.56.18s-.09,5.46-.4,5.49S190,188.38,190,188.38Z" transform="translate(5.31)"/><path class="cls-26" d="M198.13,179.69c1-.43,5.85-1.75,5.92-3.21s2,2.29,2.23,3.61,4.52,2.16-2.3,4.43-9.51,3.55-11.2,3.29a8.49,8.49,0,0,1-2.62-.76Z" transform="translate(5.31)"/></g><path class="cls-6" d="M193.71,177.68s-6.84,3.33-5,7c0,0,.66,3.08,7,.83,1.07-.37,10.49-3.45,8.18-7.79C203.89,177.76,202.43,173.19,193.71,177.68Z" transform="translate(5.31)"/><path class="cls-6" d="M57.1,193.23s4.46,63.7,79.64,37.71c0,0,4.2-16.6-5.12-30.68,0,0-23.86,6.41-28.93-13.89" transform="translate(5.31)"/><path class="cls-11" d="M130.5,201.08s7.61,10.31,5.75,29.68c0,0,6.34,3.72,21.73,4.94,0,0,5.27.3,6.07-2.81,0,0,1.9-4.17-6.14-5l1,0c1.88-.11,9.74,1.38,10.87-2.14,0,0,1.51-3.62-2.68-4.87a48.91,48.91,0,0,0-8-1s7.92,0,11.28-2.94c0,0,2.47-1.91.89-5.56,0,0-1.14-2.63-5.16-2.31a61.26,61.26,0,0,1-7.64.94s6-1.82,7.84-2.68c0,0,3.56-1.28,3-5,0,0-.74-3.36-5.68-2.87a36.89,36.89,0,0,0-6.2,1.2s-5.54.63-8,.23c0,0,0-1.17,3.64-5.09,0,0,2.82-2.79,1-6.2,0,0-2.86-4.16-7.13.13a18.33,18.33,0,0,1-6.57,4.1A19.33,19.33,0,0,0,130.5,201.08Z" transform="translate(5.31)"/><g class="cls-30"><path class="cls-26" d="M136.49,222.28s12.63,12.13,27.47,8.35,3.27,1.86,2.5,3.23-11.91,12.2-15.32,9.29S139.2,234,139.2,234l-6.4-5.15,3.69-6.58" transform="translate(5.31)"/><path class="cls-26" d="M157.4,227.46s12.75-.36,13.48-5.33,1.11,5.79.9,6a28.78,28.78,0,0,1-5.47,1.82C165.88,229.86,157.4,227.46,157.4,227.46Z" transform="translate(5.31)"/><path class="cls-26" d="M158.85,219.39s11.35-2,12.56-6.7c0,0,3.05,4.26,2.21,5.33s-4,3.35-4.42,3.2-6.49-1.6-6.49-1.6Z" transform="translate(5.31)"/><path class="cls-26" d="M158.47,209.41s9.59-3.2,10.35-6.7,2.8,2.51,2.29,2.74-3,2.21-3.43,2.21S158.47,209.41,158.47,209.41Z" transform="translate(5.31)"/><path class="cls-26" d="M150.4,201.44s-2.82,1.12-2.44-1.78a9,9,0,0,1,2.2-4s3.37-4.32,2-8.1,5.21,1.71,5.29,2.39,1.75,5.41-.08,6.32-4.11,1.45-4.34,1.76Z" transform="translate(5.31)"/></g><path class="cls-6" d="M130.5,201.08s7.61,10.31,5.75,29.68c0,0,6.34,3.72,21.73,4.94,0,0,5.27.3,6.07-2.81,0,0,1.9-4.17-6.14-5l1,0c1.88-.11,9.74,1.38,10.87-2.14,0,0,1.51-3.62-2.68-4.87a48.91,48.91,0,0,0-8-1s7.92,0,11.28-2.94c0,0,2.47-1.91.89-5.56,0,0-1.14-2.63-5.16-2.31a61.26,61.26,0,0,1-7.64.94s6-1.82,7.84-2.68c0,0,3.56-1.28,3-5,0,0-.74-3.36-5.68-2.87a36.89,36.89,0,0,0-6.2,1.2s-5.54.63-8,.23c0,0,0-1.17,3.64-5.09,0,0,2.82-2.79,1-6.2,0,0-2.86-4.16-7.13.13a18.33,18.33,0,0,1-6.57,4.1A19.33,19.33,0,0,0,130.5,201.08Z" transform="translate(5.31)"/><path class="cls-2" d="M63.4,213.84s26.51,32.2,73.09,8.44l-.24,8.48S85.61,254.06,63.4,213.84Z" transform="translate(5.31)"/></g></g></g></svg>