<svg width="797" height="205" viewBox="0 0 797 205" fill="none" xmlns="http://www.w3.org/2000/svg">
<path d="M528.805 169.424C527.655 168.064 524.995 165.084 522.805 156.244H522.705C523.055 163.164 522.105 172.354 516.395 179.794C512.395 184.954 504.655 191.104 490.125 191.034C485.066 191.073 480.023 190.451 475.125 189.184C472.985 188.624 461.525 185.404 453.845 167.434C451.389 161.517 449.637 155.331 448.625 149.004C447.205 158.804 444.425 168.264 439.565 176.174C436.244 181.543 431.595 185.966 426.067 189.015C420.539 192.065 414.318 193.638 408.005 193.584C403.688 193.526 399.402 192.852 395.275 191.584L395.085 191.524L394.905 191.464C392.335 190.584 370.725 181.884 371.235 137.554C368.785 156.004 363.755 172.184 354.635 182.024C351.767 185.236 348.261 187.816 344.34 189.598C340.42 191.38 336.171 192.325 331.865 192.374C330.736 192.498 329.601 192.554 328.465 192.544C322.835 192.544 305.385 190.654 295.055 169.924C293.729 173.501 291.857 176.851 289.505 179.854C286.945 183.092 283.697 185.72 279.996 187.546C276.294 189.373 272.232 190.352 268.105 190.414C267.17 190.534 266.228 190.59 265.285 190.584C259.075 190.584 246.335 188.054 237.505 169.984C233.802 175.187 229.347 179.811 224.285 183.704C216.285 190.704 205.285 193.544 191.585 194.214C171.245 195.214 158.055 188.214 157.375 187.934L156.735 187.694L156.125 187.374C147.473 182.803 139.657 176.801 133.005 169.624C127.835 180.834 119.275 188.164 111.475 192.824C103.057 197.752 93.7672 201.011 84.1153 202.424L83.5253 202.494H82.8353C55.8353 205.854 37.1753 195.314 23.6553 180.934C6.28528 162.464 -0.994717 132.584 1.46528 89.5742C6.22528 5.39423 58.2153 1.37423 68.5853 1.42423C69.4753 1.42423 70.1753 1.42423 70.6853 1.48423C71.4253 1.48423 72.1653 1.48423 72.9053 1.48423C98.9053 1.60423 120.735 16.4842 129.655 38.3142C144.005 13.0842 164.165 9.08423 166.555 8.65423C171.654 7.73672 176.825 7.27822 182.005 7.28423C210.265 7.41423 228.565 23.3842 238.525 38.4342C243.985 25.8442 251.525 18.4342 261.335 15.9742C264.261 14.996 267.33 14.516 270.415 14.5542C278.135 14.5542 289.855 17.5542 300.765 31.9442C302.188 27.7371 304.318 23.8039 307.065 20.3142C312.865 13.0842 321.205 8.92423 331.215 8.31423C331.854 8.2581 332.495 8.23473 333.135 8.24423C337.728 8.35737 342.245 9.43732 346.393 11.4137C350.54 13.39 354.224 16.2183 357.205 19.7142C369.485 11.8442 387.805 7.91423 411.925 7.99423H412.335H412.735C421.724 8.46764 430.624 10.0153 439.245 12.6042C451.385 16.4542 461.355 19.8742 468.465 24.9542C476.465 14.9542 490.135 4.16423 512.395 1.22423C513.906 1.05435 515.426 0.980868 516.945 1.00423C527.185 1.05423 559.505 4.67423 574.575 46.1342C590.675 4.78423 621.445 1.13423 631.975 1.20423C633.946 1.20298 635.914 1.33998 637.865 1.61423C651.546 2.30452 664.558 7.74743 674.655 17.0042C684.285 11.0642 697.715 8.09423 714.745 8.17423C719.955 8.17423 725.595 8.51423 731.485 9.11423H731.885L732.285 9.18423C736.455 9.34423 750.525 12.8042 761.735 17.7942C780.735 26.2442 795.275 38.3442 795.645 52.4842C796.645 62.9642 793.425 82.9342 774.175 86.8342C768.423 87.8736 762.591 88.4123 756.745 88.4442H755.855C757.325 99.9942 761.935 147.574 742.405 173.284C739.051 177.644 734.738 181.174 729.802 183.602C724.865 186.029 719.436 187.289 713.935 187.284C708.514 187.212 703.157 186.099 698.155 184.004L697.975 183.934L697.795 183.854C696.185 183.124 686.655 178.194 681.935 162.224C680.288 164.991 678.362 167.581 676.185 169.954C660.315 187.244 636.415 188.144 635.355 188.174L633.705 188.224L633.105 188.174C610.675 187.944 593.105 181.094 582.705 166.694C580.069 170.849 576.13 174.014 571.505 175.694L571.175 175.814L570.825 175.914C565.008 177.445 559.02 178.231 553.005 178.254C543.805 178.204 537.545 176.854 532.005 172.454C530.867 171.522 529.798 170.51 528.805 169.424Z" fill="white" stroke="black" stroke-width="2" stroke-linecap="round" stroke-linejoin="round"/>
<path d="M698.365 74.3944C698.365 74.3944 668.425 74.0044 668.005 43.4944C668.005 43.4944 667.865 14.4244 729.815 20.7044C729.815 20.7044 783.575 27.3844 784.985 54.7644C784.985 54.7644 787.305 75.5244 771.525 78.7144C771.525 78.7144 758.525 81.2144 748.975 79.5744C748.975 79.5744 742.755 78.4044 744.975 89.1544C744.975 89.1544 753.355 143.364 733.685 169.034C733.685 169.034 722.535 185.034 701.275 176.404C701.275 176.404 683.625 168.404 690.005 126.854C690.005 126.854 694.245 100.234 699.225 77.1044C699.175 77.1044 700.355 74.5944 698.365 74.3944Z" fill="#FCCC31"/>
<mask id="mask0_493_7806" style="mask-type:luminance" maskUnits="userSpaceOnUse" x="668" y="19" width="118" height="160">
<path d="M698.365 74.3944C698.365 74.3944 668.425 74.0044 668.005 43.4944C668.005 43.4944 667.865 14.4244 729.815 20.7044C729.815 20.7044 783.575 27.3844 784.985 54.7644C784.985 54.7644 787.305 75.5244 771.525 78.7144C771.525 78.7144 758.525 81.2144 748.975 79.5744C748.975 79.5744 742.755 78.4044 744.975 89.1544C744.975 89.1544 753.355 143.364 733.685 169.034C733.685 169.034 722.535 185.034 701.275 176.404C701.275 176.404 683.625 168.404 690.005 126.854C690.005 126.854 694.245 100.234 699.225 77.1044C699.175 77.1044 700.355 74.5944 698.365 74.3944Z" fill="white"/>
</mask>
<g mask="url(#mask0_493_7806)">
<path d="M675.385 20.8945C675.385 20.8945 697.005 42.3045 690.085 76.4845C683.165 110.665 667.835 71.3845 667.835 71.3845L661.765 37.1445L675.385 20.8945Z" fill="#FAB639"/>
<path d="M705.644 178.935C705.644 178.935 696.404 171.865 695.644 156.175C695.644 156.175 692.184 132.995 701.644 81.7047C701.644 81.7047 704.014 71.7047 696.344 73.3047C688.674 74.9047 682.554 124.395 682.554 125.105C682.554 125.105 674.004 170.665 705.644 178.935Z" fill="#FAB639"/>
</g>
<path d="M698.365 74.3944C698.365 74.3944 668.425 74.0044 668.005 43.4944C668.005 43.4944 667.865 14.4244 729.815 20.7044C729.815 20.7044 783.575 27.3844 784.985 54.7644C784.985 54.7644 787.305 75.5244 771.525 78.7144C771.525 78.7144 758.525 81.2144 748.975 79.5744C748.975 79.5744 742.755 78.4044 744.975 89.1544C744.975 89.1544 753.355 143.364 733.685 169.034C733.685 169.034 722.535 185.034 701.275 176.404C701.275 176.404 683.625 168.404 690.005 126.854C690.005 126.854 694.245 100.234 699.225 77.1044C699.175 77.1044 700.355 74.5944 698.365 74.3944Z" stroke="black" stroke-width="2" stroke-linecap="round" stroke-linejoin="round"/>
<path d="M636.105 13.2242C636.105 13.2242 586.885 3.7942 575.885 80.5642C564.885 157.334 596.685 179.694 633.305 179.864C633.305 179.864 680.525 178.464 677.985 133.344C677.985 133.344 680.726 117.884 667.156 112.164C667.156 112.164 657.515 107.424 647.385 116.994C647.385 116.994 638.815 128.994 627.645 125.914C627.645 125.914 621.395 126.364 622.415 115.034C622.415 115.034 624.535 61.1842 631.185 61.7942C631.185 61.7942 634.855 61.2442 636.015 67.2142C636.015 67.2142 638.785 85.9742 657.656 85.3742C657.656 85.3742 680.555 85.1142 681.365 59.8242C682.175 34.5342 661.885 14.4742 636.105 13.2242Z" fill="#FCCC31"/>
<mask id="mask1_493_7806" style="mask-type:luminance" maskUnits="userSpaceOnUse" x="573" y="12" width="109" height="168">
<path d="M636.105 13.2242C636.105 13.2242 586.885 3.7942 575.885 80.5642C564.885 157.334 596.685 179.694 633.305 179.864C633.305 179.864 680.525 178.464 677.985 133.344C677.985 133.344 680.726 117.884 667.156 112.164C667.156 112.164 657.515 107.424 647.385 116.994C647.385 116.994 638.815 128.994 627.645 125.914C627.645 125.914 621.395 126.364 622.415 115.034C622.415 115.034 624.535 61.1842 631.185 61.7942C631.185 61.7942 634.855 61.2442 636.015 67.2142C636.015 67.2142 638.785 85.9742 657.656 85.3742C657.656 85.3742 680.555 85.1142 681.365 59.8242C682.175 34.5342 661.885 14.4742 636.105 13.2242Z" fill="white"/>
</mask>
<g mask="url(#mask1_493_7806)">
<path d="M577.555 55.604C577.555 55.604 602.605 115.784 585.395 171.054C568.185 226.324 555.975 171.374 554.575 165.304C553.175 159.234 543.505 94.004 547.825 86.494C552.145 78.984 577.555 55.604 577.555 55.604Z" fill="#FAB639"/>
<path d="M648.716 82.6339C648.716 82.6339 641.246 78.0339 638.826 63.4039C638.826 63.4039 635.656 55.9039 627.616 60.5039C627.616 60.5039 619.206 65.8139 616.946 91.8239C616.946 91.8239 609.646 128.144 624.946 129.644C624.946 129.644 640.486 133.484 649.186 115.424C651.746 110.322 653.04 104.679 652.959 98.9715C652.877 93.2639 651.421 87.66 648.716 82.6339Z" fill="#FAB639"/>
<path d="M678.006 133.344C678.006 133.344 678.006 156.624 654.376 169.704C654.376 169.704 631.376 187.054 598.746 169.434C566.116 151.814 632.846 196.004 632.846 196.004C632.846 196.004 649.926 203.004 660.696 185.854C671.466 168.704 694.256 147.954 677.986 133.374" fill="#FAB639"/>
</g>
<path d="M636.105 13.2242C636.105 13.2242 586.885 3.7942 575.885 80.5642C564.885 157.334 596.685 179.694 633.305 179.864C633.305 179.864 680.525 178.464 677.985 133.344C677.985 133.344 680.726 117.884 667.156 112.164C667.156 112.164 657.515 107.424 647.385 116.994C647.385 116.994 638.815 128.994 627.645 125.914C627.645 125.914 621.395 126.364 622.415 115.034C622.415 115.034 624.535 61.1842 631.185 61.7942C631.185 61.7942 634.855 61.2442 636.015 67.2142C636.015 67.2142 638.786 85.9742 657.656 85.3742C657.656 85.3742 680.555 85.1142 681.365 59.8242C682.175 34.5342 661.885 14.4742 636.105 13.2242Z" stroke="black" stroke-width="2" stroke-linecap="round" stroke-linejoin="round"/>
<path d="M567.785 62.3541C554.675 7.47409 513.005 12.8041 513.005 12.8041C472.115 18.2141 465.445 53.2041 465.445 53.2041C439.005 172.944 476.585 181.094 476.585 181.094C515.385 192.564 510.805 150.494 510.805 150.494C517.129 148.367 523.727 147.167 530.395 146.934C529.765 160.434 536.325 165.404 536.325 165.404C549.455 174.544 567.415 167.944 567.415 167.944C593.455 158.574 567.785 62.3541 567.785 62.3541ZM517.335 108.564C508.935 109.564 509.945 103.504 509.945 103.504C507.825 89.7941 509.835 64.9341 509.835 64.9341C511.155 50.0041 515.455 56.8741 515.455 56.8741C520.335 70.3441 522.585 101.474 522.585 101.474C523.745 107.704 517.335 108.564 517.335 108.564Z" fill="#FCCC31"/>
<mask id="mask2_493_7806" style="mask-type:luminance" maskUnits="userSpaceOnUse" x="456" y="12" width="124" height="172">
<path d="M567.785 62.3541C554.675 7.47409 513.005 12.8041 513.005 12.8041C472.115 18.2141 465.445 53.2041 465.445 53.2041C439.005 172.944 476.585 181.094 476.585 181.094C515.385 192.564 510.805 150.494 510.805 150.494C517.129 148.367 523.727 147.167 530.395 146.934C529.765 160.434 536.325 165.404 536.325 165.404C549.455 174.544 567.415 167.944 567.415 167.944C593.455 158.574 567.785 62.3541 567.785 62.3541ZM517.335 108.564C508.935 109.564 509.945 103.504 509.945 103.504C507.825 89.7941 509.835 64.9341 509.835 64.9341C511.155 50.0041 515.455 56.8741 515.455 56.8741C520.335 70.3441 522.585 101.474 522.585 101.474C523.745 107.704 517.335 108.564 517.335 108.564Z" fill="white"/>
</mask>
<g mask="url(#mask2_493_7806)">
<path d="M472.495 24.1143C472.495 24.1143 486.745 37.3743 484.495 58.0343C484.495 58.0343 482.205 89.0343 452.605 93.1743C452.625 93.1743 444.255 30.0043 472.495 24.1143Z" fill="#FAB639"/>
<path d="M495.595 17.5441C495.595 17.5441 475.715 34.1141 473.845 51.9241C473.845 51.9241 460.435 98.2041 462.785 128.864C462.785 128.864 460.095 170.414 478.945 179.134C497.795 187.854 458.225 187.574 458.225 187.574C458.225 187.574 445.225 142.684 445.295 134.124C445.365 125.564 447.005 84.2341 447.005 84.2341C447.005 84.2341 442.145 -11.1459 495.635 17.5441" fill="#FAB639"/>
<path d="M513.345 53.7841C523.425 54.7141 524.585 100.644 524.585 100.644C524.365 109.024 519.205 108.704 519.205 108.704C510.635 111.404 506.015 108.644 506.015 108.644C494.795 106.154 505.885 61.1741 505.885 61.1741C507.885 52.8041 512.885 53.7741 512.885 53.7741" fill="#FAB639"/>
<path d="M488.436 182.684C488.436 182.684 510.686 181.254 506.966 158.424C506.966 158.424 503.416 147.954 515.606 145.424C515.606 145.424 523.436 143.534 528.886 145.224C528.886 145.224 536.666 147.044 524.436 157.314C511.636 168.084 520.176 178.444 512.086 180.314C503.996 182.184 488.436 182.684 488.436 182.684Z" fill="#FAB639"/>
</g>
<path d="M567.785 62.3541C554.675 7.47409 513.005 12.8041 513.005 12.8041C472.115 18.2141 465.445 53.2041 465.445 53.2041C439.005 172.944 476.585 181.094 476.585 181.094C515.385 192.564 510.805 150.494 510.805 150.494C517.129 148.367 523.727 147.167 530.395 146.934C529.765 160.434 536.325 165.404 536.325 165.404C549.455 174.544 567.415 167.944 567.415 167.944C593.455 158.574 567.785 62.3541 567.785 62.3541ZM517.335 108.564C508.935 109.564 509.945 103.504 509.945 103.504C507.825 89.7941 509.835 64.9341 509.835 64.9341C511.155 50.0041 515.455 56.8741 515.455 56.8741C520.335 70.3441 522.585 101.474 522.585 101.474C523.745 107.704 517.335 108.564 517.335 108.564Z" stroke="black" stroke-width="2" stroke-linecap="round" stroke-linejoin="round"/>
<path d="M384.135 78.3841C384.135 78.3841 353.135 80.9941 349.535 49.4841C349.535 49.4841 346.435 19.4141 411.195 19.6241C411.195 19.6241 469.195 21.7241 471.765 49.2841C471.765 49.2841 476.265 70.5341 460.265 75.4341C460.265 75.4341 447.035 79.3441 437.015 78.6141C437.015 78.6141 432.105 78.3841 433.835 88.9441C433.835 88.9441 448.005 144.204 430.255 172.764C430.255 172.764 420.335 190.494 397.455 183.684C397.455 183.684 378.375 177.184 380.755 133.534C380.755 133.534 382.445 105.534 385.245 81.1041C385.245 81.1041 386.215 78.3841 384.135 78.3841Z" fill="#FCCC31"/>
<mask id="mask3_493_7806" style="mask-type:luminance" maskUnits="userSpaceOnUse" x="349" y="19" width="124" height="167">
<path d="M384.135 78.3841C384.135 78.3841 353.135 80.9941 349.535 49.4841C349.535 49.4841 346.435 19.4141 411.195 19.6241C411.195 19.6241 469.195 21.7241 471.765 49.2841C471.765 49.2841 476.265 70.5341 460.265 75.4341C460.265 75.4341 447.035 79.3441 437.015 78.6141C437.015 78.6141 432.105 78.3841 433.835 88.9441C433.835 88.9441 448.005 144.204 430.255 172.764C430.255 172.764 420.335 190.494 397.455 183.684C397.455 183.684 378.375 177.184 380.755 133.534C380.755 133.534 382.445 105.534 385.245 81.1041C385.245 81.1041 386.215 78.3841 384.135 78.3841Z" fill="white"/>
</mask>
<g mask="url(#mask3_493_7806)">
<path d="M357.786 24.2842C357.786 24.2842 371.946 43.3642 370.316 86.1242C368.686 128.884 348.456 86.9742 343.266 77.9142C338.076 68.8542 324.016 28.9142 324.016 28.9142L357.786 24.2842Z" fill="#FAB639"/>
<path d="M379.386 78.3041L381.646 77.5041C381.646 77.5041 391.166 75.5041 390.166 83.8441C390.166 83.8441 375.396 150.844 394.886 182.254C414.376 213.664 375.986 192.054 372.736 177.344C369.486 162.634 376.876 106.504 376.456 95.1441C376.036 83.7841 379.386 78.3041 379.386 78.3041Z" fill="#FAB639"/>
<path d="M469.606 42.0542C469.606 42.0542 471.456 56.1942 467.866 61.1642C467.866 61.1642 465.186 75.4142 436.426 75.7442C436.426 75.7442 429.306 74.7442 432.316 89.9842C432.316 89.9842 443.736 154.164 425.166 178.684C406.596 203.204 463.826 159.524 466.966 150.274C470.106 141.024 486.306 80.2742 486.816 72.4242C487.326 64.5742 469.606 42.0542 469.606 42.0542Z" fill="#FAB639"/>
</g>
<path d="M384.135 78.3841C384.135 78.3841 353.135 80.9941 349.535 49.4841C349.535 49.4841 346.435 19.4141 411.195 19.6241C411.195 19.6241 469.195 21.7241 471.765 49.2841C471.765 49.2841 476.265 70.5341 460.265 75.4341C460.265 75.4341 447.035 79.3441 437.015 78.6141C437.015 78.6141 432.105 78.3841 433.835 88.9441C433.835 88.9441 448.005 144.204 430.255 172.764C430.255 172.764 420.335 190.494 397.455 183.684C397.455 183.684 378.375 177.184 380.755 133.534C380.755 133.534 382.445 105.534 385.245 81.1041C385.245 81.1041 386.215 78.3841 384.135 78.3841Z" stroke="black" stroke-width="2" stroke-linecap="round" stroke-linejoin="round"/>
<path d="M285.655 113.144C285.655 113.144 300.055 181.774 266.535 182.144C266.535 182.144 238.825 188.364 237.375 121.064C237.375 121.064 233.475 33.9543 263.555 27.2443C263.555 27.2443 297.305 12.6743 312.155 94.5143C312.155 94.5143 291.155 22.2943 331.295 19.9543C331.295 19.9543 356.195 17.0243 359.855 59.1943C359.855 59.1943 375.455 184.494 330.515 184.094C330.515 184.094 309.165 187.934 300.255 159.454C300.255 159.424 290.165 125.354 285.655 113.144Z" fill="#FCCC31"/>
<mask id="mask4_493_7806" style="mask-type:luminance" maskUnits="userSpaceOnUse" x="237" y="19" width="126" height="166">
<path d="M285.655 113.144C285.655 113.144 300.055 181.774 266.535 182.144C266.535 182.144 238.825 188.364 237.375 121.064C237.375 121.064 233.475 33.9543 263.555 27.2443C263.555 27.2443 297.305 12.6743 312.155 94.5143C312.155 94.5143 291.155 22.2943 331.295 19.9543C331.295 19.9543 356.195 17.0243 359.855 59.1943C359.855 59.1943 375.455 184.494 330.515 184.094C330.515 184.094 309.165 187.934 300.255 159.454C300.255 159.424 290.165 125.354 285.655 113.144Z" fill="white"/>
</mask>
<g mask="url(#mask4_493_7806)">
<path d="M240.386 50.1045C240.386 50.1045 252.726 80.1045 254.046 101.694C254.046 101.694 255.266 144.984 238.786 162.694C222.306 180.404 229.646 135.694 229.646 135.694C229.646 135.694 231.016 72.1245 233.166 69.2845C235.316 66.4445 240.386 50.1045 240.386 50.1045Z" fill="#FAB639"/>
<path d="M260.206 28.3447C260.206 28.3447 245.206 44.4247 245.016 77.9247L237.466 57.2147C237.466 57.2147 248.556 28.2147 260.206 28.3447Z" fill="#FAB639"/>
<path d="M244.726 138.875C244.726 138.875 244.116 162.065 257.226 180.295L237.006 163.075L244.726 138.875Z" fill="#FAB639"/>
<path d="M273.146 181.005C273.146 181.005 290.636 164.585 283.926 114.835C283.926 114.835 283.765 109.835 286.605 113.065C289.445 116.295 295.796 166.215 295.796 166.215L273.146 181.005Z" fill="#FAB639"/>
<path d="M285.646 112.195C285.646 112.195 287.145 111.395 289.375 118.055C289.375 118.055 302.525 150.915 303.685 156.145C303.685 156.145 309.576 176.275 320.986 183.215C332.396 190.155 304.115 189.895 301.635 187.855C299.155 185.815 291.585 177.355 290.435 169.745C289.285 162.135 285.646 112.195 285.646 112.195Z" fill="#FAB639"/>
<path d="M273.576 26.5942L273.766 27.5942C273.766 27.5942 298.056 42.2042 307.236 85.3842C307.236 85.3842 313.716 97.1242 312.536 95.1442C312.156 94.5142 305.916 62.5642 305.796 62.2042C305.676 61.8442 303.256 46.8642 300.906 41.2742C298.556 35.6842 297.386 31.6342 295.496 30.4342C293.606 29.2342 273.576 26.6242 273.576 26.6242" fill="#FAB639"/>
<path d="M311.606 90.3643C311.606 90.3643 305.146 31.0043 326.386 20.6143L313.386 22.1743C313.386 22.1743 301.386 37.0843 301.386 40.8843C301.386 44.6843 311.606 90.3643 311.606 90.3643Z" fill="#FAB639"/>
<path d="M327.415 14.3145C327.415 14.3145 350.085 24.0045 351.005 91.6145C351.005 91.6145 349.465 174.974 321.365 186.924C293.265 198.874 352.185 202.444 355.075 195.824C357.965 189.204 397.555 157.544 396.235 134.254C394.915 110.964 380.445 23.7845 378.405 19.0845C376.365 14.3845 327.415 14.3145 327.415 14.3145Z" fill="url(#paint0_linear_493_7806)"/>
</g>
<path d="M285.655 113.144C285.655 113.144 300.055 181.774 266.535 182.144C266.535 182.144 238.825 188.364 237.375 121.064C237.375 121.064 233.475 33.9543 263.555 27.2443C263.555 27.2443 297.305 12.6743 312.155 94.5143C312.155 94.5143 291.155 22.2943 331.295 19.9543C331.295 19.9543 356.195 17.0243 359.855 59.1943C359.855 59.1943 375.455 184.494 330.515 184.094C330.515 184.094 309.165 187.934 300.255 159.454C300.255 159.424 290.165 125.354 285.655 113.144Z" stroke="black" stroke-width="2" stroke-linecap="round" stroke-linejoin="round"/>
<path d="M69.7749 13.1543C69.7749 13.1543 15.505 7.51427 10.775 91.7943C6.04495 176.074 43.135 197.514 82.255 194.144C82.255 194.144 133.345 188.224 126.395 139.524C126.395 139.524 127.915 122.524 112.665 117.524C112.665 117.524 101.765 113.284 91.665 124.604C91.665 124.604 83.485 138.424 71.085 136.114C71.085 136.114 64.345 137.184 64.405 124.814C64.405 124.814 61.6849 66.2143 68.9549 66.2443C68.9549 66.2443 72.885 65.3143 74.695 71.6743C74.695 71.6743 79.445 91.7743 99.865 89.3543C99.865 89.3543 124.665 86.9443 123.185 59.4443C121.705 31.9443 97.8449 12.1143 69.7749 13.1543Z" fill="#FCCC31"/>
<mask id="mask5_493_7806" style="mask-type:luminance" maskUnits="userSpaceOnUse" x="10" y="13" width="118" height="182">
<path d="M69.7749 13.1543C69.7749 13.1543 15.505 7.51427 10.775 91.7943C6.04495 176.074 43.135 197.514 82.255 194.144C82.255 194.144 133.345 188.224 126.395 139.524C126.395 139.524 127.915 122.524 112.665 117.524C112.665 117.524 101.765 113.284 91.665 124.604C91.665 124.604 83.485 138.424 71.085 136.114C71.085 136.114 64.345 137.184 64.405 124.814C64.405 124.814 61.6849 66.2143 68.9549 66.2443C68.9549 66.2443 72.885 65.3143 74.695 71.6743C74.695 71.6743 79.445 91.7743 99.865 89.3543C99.865 89.3543 124.665 86.9443 123.185 59.4443C121.705 31.9443 97.8449 12.1143 69.7749 13.1543Z" fill="white"/>
</mask>
<g mask="url(#mask5_493_7806)">
<path d="M105.205 105.755C105.205 105.755 104.465 139.375 125.205 160.385C145.945 181.395 142.385 146.565 140.625 141.925C138.865 137.285 124.005 106.205 120.295 104.005C116.585 101.805 105.205 105.755 105.205 105.755Z" fill="#FAB639"/>
<path d="M78.6953 13.5444C78.6953 13.5444 100.825 17.3844 112.925 45.0044C112.925 45.0044 123.925 75.0044 106.785 86.5644C89.6453 98.1244 111.975 95.3744 112.925 96.0944C113.875 96.8144 139.925 108.094 144.995 97.1944C150.065 86.2944 164.525 57.3544 153.545 47.8144C142.565 38.2744 115.905 18.8544 110.205 17.1644C104.505 15.4744 78.6953 13.5444 78.6953 13.5444Z" fill="#FAB639"/>
<path d="M73.8451 67.7242C73.8451 67.7242 70.0851 59.6242 63.8451 62.9242C63.8451 62.9242 58.4951 65.5042 56.9651 87.1242C56.9651 87.1242 54.6951 114.674 61.3651 134.794C62.1098 136.962 63.6531 138.763 65.6805 139.832C67.7078 140.9 70.0663 141.155 72.2751 140.544C72.2751 140.544 84.1551 139.654 90.7551 126.734C97.3551 113.814 70.0551 82.7942 70.0551 82.7942L73.8451 67.7242Z" fill="#FAB639"/>
<path d="M118.885 141.484C118.885 141.484 127.935 185.964 80.375 193.334L83.205 198.814C83.205 198.814 112.875 205.614 121.465 196.624C130.055 187.634 145.115 172.024 142.055 164.624C138.995 157.224 129.805 142.224 129.055 141.274C128.305 140.324 118.885 141.484 118.885 141.484Z" fill="#FAB639"/>
</g>
<path d="M69.7749 13.1543C69.7749 13.1543 15.505 7.51427 10.775 91.7943C6.04495 176.074 43.135 197.514 82.255 194.144C82.255 194.144 133.345 188.224 126.395 139.524C126.395 139.524 127.915 122.524 112.665 117.524C112.665 117.524 101.765 113.284 91.665 124.604C91.665 124.604 83.485 138.424 71.085 136.114C71.085 136.114 64.345 137.184 64.405 124.814C64.405 124.814 61.6849 66.2143 68.9549 66.2443C68.9549 66.2443 72.885 65.3143 74.695 71.6743C74.695 71.6743 79.445 91.7743 99.865 89.3543C99.865 89.3543 124.665 86.9443 123.185 59.4443C121.705 31.9443 97.8449 12.1143 69.7749 13.1543Z" stroke="black" stroke-width="2" stroke-linecap="round" stroke-linejoin="round"/>
<path d="M236.255 59.3441C236.255 59.3441 221.935 7.47409 167.595 20.1541C167.595 20.1541 140.355 25.8741 127.885 63.3741C127.885 63.3741 96.365 145.974 160.185 180.244C160.185 180.244 193.905 195.474 217.345 177.584C217.345 177.584 261.445 143.354 236.255 59.3441ZM188.005 134.674C177.665 139.234 173.235 123.614 173.235 123.614C166.805 97.2341 180.235 77.8741 180.235 77.8741C192.305 64.7141 194.225 99.0041 194.225 99.0041C195.275 129.404 188.005 134.674 188.005 134.674Z" fill="#FCCC31"/>
<mask id="mask6_493_7806" style="mask-type:luminance" maskUnits="userSpaceOnUse" x="120" y="18" width="125" height="169">
<path d="M236.255 59.3441C236.255 59.3441 221.935 7.47409 167.595 20.1541C167.595 20.1541 140.355 25.8741 127.885 63.3741C127.885 63.3741 96.365 145.974 160.185 180.244C160.185 180.244 193.905 195.474 217.345 177.584C217.345 177.584 261.445 143.354 236.255 59.3441ZM188.005 134.674C177.665 139.234 173.235 123.614 173.235 123.614C166.805 97.2341 180.235 77.8741 180.235 77.8741C192.305 64.7141 194.225 99.0041 194.225 99.0041C195.275 129.404 188.005 134.674 188.005 134.674Z" fill="white"/>
</mask>
<g mask="url(#mask6_493_7806)">
<path d="M198.005 19.6943C198.005 19.6943 235.685 34.1443 236.855 89.0043C236.855 89.0043 239.855 173.174 203.715 186.164C203.715 186.164 193.055 202.374 223.515 194.084C253.975 185.794 279.885 184.734 282.945 140.194C286.005 95.6543 289.735 45.4843 282.015 36.1043C274.295 26.7243 250.075 8.19426 236.535 6.70426C222.995 5.21426 198.005 19.6943 198.005 19.6943Z" fill="#FAB639"/>
<path d="M187.875 74.8742C187.875 74.8742 180.955 68.8742 173.355 78.7742C173.355 78.7742 155.675 100.774 172.355 130.774C172.355 130.774 179.355 142.984 189.355 134.654L183.005 85.2942L187.875 74.8742Z" fill="#FAB639"/>
</g>
<path d="M236.255 59.3441C236.255 59.3441 221.935 7.47409 167.595 20.1541C167.595 20.1541 140.355 25.8741 127.885 63.3741C127.885 63.3741 96.365 145.974 160.185 180.244C160.185 180.244 193.905 195.474 217.345 177.584C217.345 177.584 261.445 143.354 236.255 59.3441ZM188.005 134.674C177.665 139.234 173.235 123.614 173.235 123.614C166.805 97.2341 180.235 77.8741 180.235 77.8741C192.305 64.7141 194.225 99.0041 194.225 99.0041C195.275 129.404 188.005 134.674 188.005 134.674Z" stroke="black" stroke-width="2" stroke-linecap="round" stroke-linejoin="round"/>
<path d="M44.0954 28.134C44.0954 28.134 21.0054 42.454 19.5654 90.004C19.5654 90.004 23.9354 50.464 48.7054 32.584C48.7054 32.584 51.9254 30.814 50.7054 28.134C50.6854 28.164 48.0054 24.894 44.0954 28.134Z" fill="white"/>
<path d="M158.005 31.004C158.005 31.004 139.435 42.234 133.495 67.154C133.495 67.154 148.115 40.844 163.355 33.314C163.355 33.314 165.915 32.104 164.245 29.864C164.245 29.884 162.265 27.764 158.005 31.004Z" fill="white"/>
<path d="M258.625 38.4241C256.288 40.4295 254.406 42.9096 253.102 45.6995C251.798 48.4894 251.104 51.525 251.065 54.6041C251.065 54.6041 253.955 46.5141 261.365 42.0941C261.365 42.0941 264.135 40.6741 262.455 38.4441C261.944 37.9459 261.259 37.6654 260.544 37.6617C259.83 37.6579 259.142 37.9312 258.625 38.4241Z" fill="white"/>
<path d="M392.535 111.894C392.535 111.894 386.445 143.294 393.235 162.994C393.235 162.994 394.095 165.754 396.675 164.994C396.675 164.994 398.675 164.404 397.775 161.554C397.775 161.584 390.685 147.784 392.535 111.894Z" fill="white"/>
<path d="M702.005 112.004C702.005 112.004 695.915 143.404 702.715 163.104C702.715 163.104 703.575 165.864 706.155 165.104C706.155 165.104 708.155 164.514 707.245 161.664C707.285 161.724 700.205 147.924 702.005 112.004Z" fill="white"/>
<path d="M467.885 106.794C467.885 106.794 466.115 146.464 472.885 166.164C472.885 166.164 473.745 168.924 476.325 168.164C476.325 168.164 477.775 167.764 476.105 164.474C476.135 164.504 468.415 145.174 467.885 106.794Z" fill="white"/>
<path d="M374.675 32.0045C378.165 30.5676 381.901 29.8237 385.675 29.8145C382.032 30.9291 378.606 32.6572 375.545 34.9245C375.545 34.9245 372.915 36.9945 371.315 35.9245C371.325 35.9345 369.435 34.1445 374.675 32.0045Z" fill="white"/>
<path d="M614.905 20.874C614.905 20.874 591.455 30.624 584.405 63.504C584.405 63.504 591.205 37.724 613.255 25.414C614.579 24.6211 615.952 23.913 617.365 23.294C617.365 23.294 619.505 22.414 618.975 20.894C619.005 20.894 618.305 19.064 614.905 20.874Z" fill="white"/>
<defs>
<linearGradient id="paint0_linear_493_7806" x1="314.203" y1="106.599" x2="396.402" y2="106.986" gradientUnits="userSpaceOnUse">
<stop offset="0.36" stop-color="white" stop-opacity="0"/>
<stop offset="0.97" stop-color="white"/>
</linearGradient>
</defs>
</svg>
