<svg xmlns="http://www.w3.org/2000/svg" viewBox="0 0 305.67 330.23"><defs><style>.cls-1{fill:#85def9;}.cls-1,.cls-2{opacity:0.61;}.cls-2{fill:#fab639;}.cls-3{fill:#82b7df;}.cls-4{fill:#ea639a;}.cls-5{fill:#f2b630;}</style></defs><g id="Layer_2" data-name="Layer 2"><g id="Layer_1-2" data-name="Layer 1"><circle class="cls-1" cx="61.4" cy="84.6" r="61.4"/><circle class="cls-2" cx="198.37" cy="193.54" r="107.3"/><path class="cls-3" d="M294.25,312.72H304.7a0,0,0,0,1,0,0v10.45a6.49,6.49,0,0,1-6.49,6.49h-4a6.49,6.49,0,0,1-6.49-6.49v-4A6.49,6.49,0,0,1,294.25,312.72Z" transform="translate(-93.01 122.67) rotate(-20.29)"/><rect class="cls-3" x="293.64" y="275.7" width="2.91" height="44.45" transform="translate(-85.01 120.84) rotate(-20.29)"/><path class="cls-4" d="M65.48,211.47h8a0,0,0,0,1,0,0v8a8,8,0,0,1-8,8h0a8,8,0,0,1-8-8v0a8,8,0,0,1,8-8Z" transform="translate(-79.69 42.32) rotate(-22.72)"/><rect class="cls-4" x="62.09" y="176.41" width="2.76" height="42.16" transform="translate(-71.35 39.84) rotate(-22.72)"/><path class="cls-4" d="M56.6,177.51s5,3.15,14.73,4.49c0,0,12.75.85,12.3,11.43,0,0-2.18-4.94-11.67-4.09-8.49.77-10.18.54-10.18.54-.71-.16-3.72-3.79-3.81-4.41s-2.14-6-2.14-6Z"/><path class="cls-5" d="M271.92,13.27l-35.2,5.52A1.6,1.6,0,0,1,234.89,17l1.32-10.09a1.6,1.6,0,0,1,1.34-1.37L272.75,0a1.6,1.6,0,0,1,1.83,1.79L273.26,11.9A1.6,1.6,0,0,1,271.92,13.27Z"/><path class="cls-5" d="M225.48,40.12h8a0,0,0,0,1,0,0v8a8,8,0,0,1-8,8h0a8,8,0,0,1-8-8v0A8,8,0,0,1,225.48,40.12Z" transform="translate(8.18 -28.91) rotate(7.47)"/><rect class="cls-5" x="233.44" y="7.04" width="2.76" height="42.16" transform="translate(5.65 -30.3) rotate(7.47)"/><path class="cls-5" d="M261.11,34.73h8a0,0,0,0,1,0,0v8a8,8,0,0,1-8,8h0a8,8,0,0,1-8-8v0A8,8,0,0,1,261.11,34.73Z" transform="matrix(0.99, 0.13, -0.13, 0.99, 7.78, -33.59)"/><rect class="cls-5" x="269.06" y="1.65" width="2.76" height="42.16" transform="matrix(0.99, 0.13, -0.13, 0.99, 5.25, -34.98)"/><polygon class="cls-5" points="235.4 23.67 271.09 17.81 270.64 21.23 234.97 26.97 235.4 23.67"/></g></g></svg>