<svg xmlns="http://www.w3.org/2000/svg" viewBox="0 0 339.4 351.09"><defs><style>.cls-1{fill:#c2f73e;}.cls-1,.cls-2,.cls-3{opacity:0.61;}.cls-2{fill:#85def9;}.cls-3{fill:#f9e63d;}.cls-4{fill:#ea639a;}.cls-5{fill:#f2b630;}.cls-6{fill:#98ae47;}</style></defs><g id="Layer_2" data-name="Layer 2"><g id="Layer_1-2" data-name="Layer 1"><circle class="cls-1" cx="69.84" cy="269.03" r="38.46"/><circle class="cls-2" cx="266.41" cy="263.8" r="61.4"/><circle class="cls-3" cx="107.3" cy="113.12" r="107.3"/><path class="cls-4" d="M22.77,188.81h8a0,0,0,0,1,0,0v8a8,8,0,0,1-8,8h0a8,8,0,0,1-8-8v0a8,8,0,0,1,8-8Z" transform="translate(-14.06 2.14) rotate(-4.11)"/><rect class="cls-4" x="26.51" y="154.26" width="2.76" height="42.16" transform="matrix(1, -0.07, 0.07, 1, -12.51, 2.45)"/><path class="cls-4" d="M27.76,154.22s3.75,4.58,12.53,8.95c0,0,11.8,4.87,8,14.75,0,0-.49-5.37-9.76-7.59-8.29-2-9.82-2.74-9.82-2.74-.62-.38-2.32-4.78-2.21-5.4s-.12-6.34-.12-6.34Z"/><path class="cls-4" d="M227,34.44h9.34a0,0,0,0,1,0,0v9.34a8,8,0,0,1-8,8H227a8,8,0,0,1-8-8V42.47A8,8,0,0,1,227,34.44Z" transform="translate(15.6 -50.26) rotate(13.04)"/><rect class="cls-4" x="238.33" y="-0.25" width="2.99" height="45.59" transform="translate(11.27 -53.53) rotate(13.04)"/><path class="cls-4" d="M246.43.67s2.41,5.94,10.09,13.25c0,0,10.64,8.8,3.57,17.8,0,0,1.21-5.71-7.67-11-7.93-4.69-9.27-6-9.27-6-.52-.59-.87-5.68-.56-6.28s1.9-6.59,1.9-6.59Z"/><path class="cls-5" d="M328.61,291.74l-29.51,20a1.6,1.6,0,0,1-2.42-.84l-3.1-9.7a1.61,1.61,0,0,1,.63-1.81l29.51-20a1.6,1.6,0,0,1,2.42.84l3.09,9.7A1.6,1.6,0,0,1,328.61,291.74Z"/><path class="cls-5" d="M301.42,335h8a0,0,0,0,1,0,0v8a8,8,0,0,1-8,8h0a8,8,0,0,1-8-8v0a8,8,0,0,1,8-8Z" transform="translate(-90.04 107.89) rotate(-17.7)"/><rect class="cls-5" x="299.97" y="299.88" width="2.76" height="42.16" transform="translate(-83.32 106.82) rotate(-17.7)"/><path class="cls-5" d="M331.36,315h8a0,0,0,0,1,0,0v8a8,8,0,0,1-8,8h0a8,8,0,0,1-8-8v0a8,8,0,0,1,8-8Z" transform="translate(-82.53 116.05) rotate(-17.7)"/><rect class="cls-5" x="329.91" y="279.84" width="2.76" height="42.16" transform="translate(-75.81 114.98) rotate(-17.7)"/><polygon class="cls-5" points="299.98 316.68 329.79 296.2 330.83 299.48 301 319.85 299.98 316.68"/><path class="cls-6" d="M269.61,72.5l21.07-15.7a1.18,1.18,0,0,1,1.81.54l2.61,7a1.17,1.17,0,0,1-.4,1.35l-21.08,15.7a1.18,1.18,0,0,1-1.81-.54l-2.6-7A1.17,1.17,0,0,1,269.61,72.5Z"/><path class="cls-6" d="M287.93,27.86h5.92a0,0,0,0,1,0,0v5.92a5.92,5.92,0,0,1-5.92,5.92h0A5.92,5.92,0,0,1,282,33.78v0A5.92,5.92,0,0,1,287.93,27.86Z" transform="matrix(-0.94, 0.35, -0.35, -0.94, 569.7, -34.4)"/><rect class="cls-6" x="287.7" y="34.52" width="2.04" height="31.09" transform="translate(576.88 -3.12) rotate(159.71)"/><path class="cls-6" d="M266.53,43.61h5.92a0,0,0,0,1,0,0v5.92a5.92,5.92,0,0,1-5.92,5.92h0a5.92,5.92,0,0,1-5.92-5.92v0A5.92,5.92,0,0,1,266.53,43.61Z" transform="matrix(-0.94, 0.35, -0.35, -0.94, 533.7, 3.56)"/><rect class="cls-6" x="266.3" y="50.28" width="2.04" height="31.09" transform="translate(540.88 34.84) rotate(159.71)"/><polygon class="cls-6" points="269.13 69.59 290.04 54.09 289.27 51.77 268.18 67.1 269.13 69.59"/></g></g></svg>