<svg xmlns="http://www.w3.org/2000/svg" viewBox="0 0 318.08 357.6"><defs><style>.cls-1{fill:#c2f73e;}.cls-1,.cls-2,.cls-3{opacity:0.61;}.cls-2{fill:#fc9a83;}.cls-3{fill:#f9e63d;}.cls-4{fill:#f17195;}.cls-5{fill:#fab639;}.cls-6{fill:#82b7df;}</style></defs><g id="Layer_2" data-name="Layer 2"><g id="Layer_1-2" data-name="Layer 1"><circle class="cls-1" cx="61.4" cy="61.4" r="61.4"/><circle class="cls-2" cx="236.5" cy="131.42" r="29.86"/><circle class="cls-3" cx="116.64" cy="245.86" r="107.3"/><path class="cls-4" d="M95.68,24h6.49a0,0,0,0,1,0,0v6.49A6.49,6.49,0,0,1,95.68,37h0a6.49,6.49,0,0,1-6.49-6.49v0A6.49,6.49,0,0,1,95.68,24Z" transform="matrix(0.93, 0.36, -0.36, 0.93, 17.1, -32.03)"/><rect class="cls-4" x="105.65" y="-0.53" width="2.23" height="34.07" transform="translate(12.85 -36.88) rotate(20.83)"/><path class="cls-5" d="M53.9,341.53h8a0,0,0,0,1,0,0v8a8,8,0,0,1-8,8h0a8,8,0,0,1-8-8v0A8,8,0,0,1,53.9,341.53Z" transform="translate(-130.82 47.94) rotate(-22.72)"/><rect class="cls-5" x="50.51" y="306.47" width="2.76" height="42.16" transform="translate(-122.48 45.46) rotate(-22.72)"/><path class="cls-5" d="M45,307.57s5,3.15,14.73,4.49c0,0,12.74.85,12.29,11.43,0,0-2.17-4.94-11.67-4.08-8.49.76-10.17.53-10.17.53-.72-.16-3.73-3.79-3.82-4.41s-2.14-6-2.14-6Z"/><path class="cls-4" d="M316.93,176.2l-34.18,10.05a1.6,1.6,0,0,1-2.05-1.54V174.53a1.6,1.6,0,0,1,1.15-1.53L316,163a1.6,1.6,0,0,1,2.05,1.53v10.18A1.61,1.61,0,0,1,316.93,176.2Z"/><path class="cls-4" d="M275.43,208.78h8a0,0,0,0,1,0,0v8a8,8,0,0,1-8,8h0a8,8,0,0,1-8-8v0a8,8,0,0,1,8-8Z"/><rect class="cls-4" x="280.7" y="174.66" width="2.76" height="42.16"/><path class="cls-4" d="M310,198.8h8a0,0,0,0,1,0,0v8a8,8,0,0,1-8,8h0a8,8,0,0,1-8-8v0A8,8,0,0,1,310,198.8Z"/><rect class="cls-4" x="315.32" y="164.68" width="2.76" height="42.16"/><polygon class="cls-4" points="282.08 191.26 316.7 180.8 316.7 184.25 282.08 194.58 282.08 191.26"/><path class="cls-6" d="M67,17.81l-26.19-2a1.18,1.18,0,0,1-1-1.6l2.67-7a1.19,1.19,0,0,1,1.2-.76l26.2,2a1.18,1.18,0,0,1,1,1.59l-2.67,7A1.17,1.17,0,0,1,67,17.81Z"/><path class="cls-6" d="M27.73,29h5.92a0,0,0,0,1,0,0v5.92a5.92,5.92,0,0,1-5.92,5.92h0a5.92,5.92,0,0,1-5.92-5.92v0A5.92,5.92,0,0,1,27.73,29Z" transform="translate(14.23 -7.58) rotate(20.83)"/><rect class="cls-6" x="36.83" y="6.6" width="2.04" height="31.09" transform="translate(10.35 -12.01) rotate(20.83)"/><path class="cls-6" d="M54.21,31.21h5.92a0,0,0,0,1,0,0v5.92a5.92,5.92,0,0,1-5.92,5.92h0a5.92,5.92,0,0,1-5.92-5.92v0A5.92,5.92,0,0,1,54.21,31.21Z" transform="translate(16.75 -16.85) rotate(20.83)"/><rect class="cls-6" x="63.31" y="8.8" width="2.04" height="31.09" transform="translate(12.86 -21.28) rotate(20.83)"/><polygon class="cls-6" points="65.44 20.31 39.5 18.24 38.55 20.5 64.52 22.82 65.44 20.31"/></g></g></svg>