<svg xmlns="http://www.w3.org/2000/svg" viewBox="0 0 312.21 335.07"><defs><style>.cls-1{fill:#fc9a83;}.cls-1,.cls-2{opacity:0.61;}.cls-2{fill:#f9e63d;}.cls-3{fill:#82b7df;}.cls-4{fill:#efa573;}.cls-5{fill:#7388ef;}</style></defs><g id="Layer_2" data-name="Layer 2"><g id="Layer_1-2" data-name="Layer 1"><circle class="cls-1" cx="250.81" cy="273.67" r="61.4"/><circle class="cls-2" cx="111.31" cy="107.3" r="107.3"/><path class="cls-3" d="M47.78,30.24h6.49a0,0,0,0,1,0,0v6.49a6.49,6.49,0,0,1-6.49,6.49h0a6.49,6.49,0,0,1-6.49-6.49v0a6.49,6.49,0,0,1,6.49-6.49Z" transform="translate(16.18 -14.59) rotate(20.83)"/><rect class="cls-3" x="57.74" y="5.69" width="2.23" height="34.07" transform="translate(11.93 -19.44) rotate(20.83)"/><path class="cls-4" d="M281.69,112.52l-22.16,27.9a1.6,1.6,0,0,1-2.56-.08L251.11,132a1.61,1.61,0,0,1,0-1.92l22.16-27.9a1.6,1.6,0,0,1,2.56.08l5.86,8.32A1.61,1.61,0,0,1,281.69,112.52Z"/><path class="cls-4" d="M271.14,161.59h8a0,0,0,0,1,0,0v8a8,8,0,0,1-8,8h0a8,8,0,0,1-8-8v0A8,8,0,0,1,271.14,161.59Z" transform="translate(-48.21 187.07) rotate(-35.16)"/><rect class="cls-4" x="263.06" y="127.49" width="2.76" height="42.16" transform="translate(-37.31 179.37) rotate(-35.16)"/><path class="cls-4" d="M293.7,133.5h8a0,0,0,0,1,0,0v8a8,8,0,0,1-8,8h0a8,8,0,0,1-8-8v0a8,8,0,0,1,8-8Z" transform="translate(-27.92 194.93) rotate(-35.16)"/><rect class="cls-4" x="285.62" y="99.39" width="2.76" height="42.16" transform="translate(-17.01 187.23) rotate(-35.16)"/><polygon class="cls-4" points="261.86 144.9 284.15 116.42 286.13 119.23 263.78 147.62 261.86 144.9"/><path class="cls-5" d="M48.33,247.05l-26.08-6.21a1.2,1.2,0,0,1-.76-1.77l3.8-6.64a1.2,1.2,0,0,1,1.32-.58l26.08,6.21a1.2,1.2,0,0,1,.77,1.77l-3.8,6.65A1.21,1.21,0,0,1,48.33,247.05Z"/><path class="cls-5" d="M6,252h6a0,0,0,0,1,0,0v6a6,6,0,0,1-6,6H6a6,6,0,0,1-6-6v0a6,6,0,0,1,6-6Z" transform="translate(128.96 31.07) rotate(29.78)"/><rect class="cls-5" x="17.23" y="230.93" width="2.08" height="31.72" transform="translate(124.97 23.51) rotate(29.78)"/><path class="cls-5" d="M32.39,258.45h6a0,0,0,0,1,0,0v6a6,6,0,0,1-6,6h0a6,6,0,0,1-6-6v0A6,6,0,0,1,32.39,258.45Z" transform="translate(135.62 18.84) rotate(29.78)"/><rect class="cls-5" x="43.57" y="237.35" width="2.08" height="31.72" transform="translate(131.63 11.28) rotate(29.78)"/><polygon class="cls-5" points="19.94 243.87 46.46 249.97 45.17 252.22 18.7 246.04 19.94 243.87"/></g></g></svg>