<svg xmlns="http://www.w3.org/2000/svg" viewBox="0 0 337.16 367.3"><defs><style>.cls-1{fill:#85def9;}.cls-1,.cls-2{opacity:0.61;}.cls-2{fill:#f9e33d;}.cls-3{fill:#f17195;}.cls-4{fill:#82b7df;}.cls-5{fill:#fab639;}.cls-6{fill:#98ae47;}</style></defs><g id="Layer_2" data-name="Layer 2"><g id="Layer_1-2" data-name="Layer 1"><circle class="cls-1" cx="149.26" cy="260" r="107.3"/><circle class="cls-2" cx="248.61" cy="113.74" r="61.4"/><path class="cls-3" d="M311.88,179.3h8a0,0,0,0,1,0,0v8a8,8,0,0,1-8,8h0a8,8,0,0,1-8-8v0A8,8,0,0,1,311.88,179.3Z" transform="translate(110.02 -115.34) rotate(25.31)"/><rect class="cls-3" x="325.52" y="150.05" width="2.76" height="42.16" transform="translate(104.53 -123.32) rotate(25.31)"/><path class="cls-4" d="M91.45,141.37h8a0,0,0,0,1,0,0v8a8,8,0,0,1-8,8h0a8,8,0,0,1-8-8v0a8,8,0,0,1,8-8Z" transform="translate(-50.61 46.91) rotate(-22.72)"/><rect class="cls-4" x="88.06" y="106.31" width="2.76" height="42.16" transform="translate(-42.26 44.43) rotate(-22.72)"/><path class="cls-4" d="M82.58,107.42s5,3.14,14.73,4.48c0,0,12.74.85,12.29,11.43,0,0-2.17-4.94-11.67-4.08-8.49.76-10.17.54-10.17.54-.72-.17-3.73-3.8-3.82-4.42s-2.14-6-2.14-6Z"/><path class="cls-5" d="M201.2,13.31,167,23.36A1.59,1.59,0,0,1,165,21.83V11.65a1.6,1.6,0,0,1,1.15-1.53L200.3.07a1.59,1.59,0,0,1,2,1.53V11.78A1.6,1.6,0,0,1,201.2,13.31Z"/><path class="cls-5" d="M159.7,45.9h8a0,0,0,0,1,0,0v8a8,8,0,0,1-8,8h0a8,8,0,0,1-8-8v0A8,8,0,0,1,159.7,45.9Z"/><rect class="cls-5" x="164.97" y="11.78" width="2.76" height="42.16"/><path class="cls-5" d="M194.32,35.92h8a0,0,0,0,1,0,0v8a8,8,0,0,1-8,8h0a8,8,0,0,1-8-8v0A8,8,0,0,1,194.32,35.92Z"/><rect class="cls-5" x="199.59" y="1.8" width="2.76" height="42.16"/><polygon class="cls-5" points="166.35 28.38 200.97 17.92 200.97 21.36 166.35 31.7 166.35 28.38"/><path class="cls-6" d="M9,296l21.08-15.7a1.18,1.18,0,0,1,1.81.54l2.6,7a1.19,1.19,0,0,1-.4,1.36L13,304.92a1.18,1.18,0,0,1-1.81-.53l-2.6-7A1.18,1.18,0,0,1,9,296Z"/><path class="cls-6" d="M27.32,251.35h5.92a0,0,0,0,1,0,0v5.92a5.92,5.92,0,0,1-5.92,5.92h0a5.92,5.92,0,0,1-5.92-5.92v0A5.92,5.92,0,0,1,27.32,251.35Z" transform="translate(142.18 489.1) rotate(159.71)"/><rect class="cls-6" x="27.09" y="258.01" width="2.04" height="31.09" transform="translate(149.35 520.38) rotate(159.71)"/><path class="cls-6" d="M5.93,267.11h5.92a0,0,0,0,1,0,0V273A5.92,5.92,0,0,1,5.93,279h0A5.92,5.92,0,0,1,0,273v0A5.92,5.92,0,0,1,5.93,267.11Z" transform="translate(106.18 527.07) rotate(159.71)"/><rect class="cls-6" x="5.7" y="273.77" width="2.04" height="31.09" transform="translate(113.36 558.34) rotate(159.71)"/><polygon class="cls-6" points="8.53 293.09 29.43 277.58 28.66 275.27 7.57 290.59 8.53 293.09"/></g></g></svg>