<svg width="262" height="325" viewBox="0 0 262 325" fill="none" xmlns="http://www.w3.org/2000/svg">
<g clip-path="url(#clip0_493_6602)">
<path d="M19.88 282C19.88 282 13.36 307.83 27.4 316.4C27.4 316.4 32.64 319.09 35.22 315.4C35.22 315.4 38.12 317.63 43.6 316.14C43.6 316.14 48.27 314.29 48.74 312.08C48.74 312.08 51.65 314.31 56.66 311.65C56.66 311.65 61.33 309.81 61.06 306.07C61.06 306.07 69.41 326.84 77.34 323.07C77.34 323.07 89.34 321.07 71.84 292.31C71.39 291.58 70.84 290.85 70.38 290.09C70.38 290.09 73.88 288.71 73.56 282.77C73.56 282.77 71.99 270.24 57.56 265.18C43.13 260.12 19.94 278 19.88 282Z" fill="white" stroke="black" stroke-width="2" stroke-linecap="round" stroke-linejoin="round"/>
<path d="M66.5703 282.13C67.9962 285.637 69.7789 288.988 71.8903 292.13L66.5703 282.13Z" fill="white"/>
<path d="M66.5703 282.13C67.9962 285.637 69.7789 288.988 71.8903 292.13" stroke="black" stroke-width="2" stroke-linecap="round" stroke-linejoin="round"/>
<path d="M149.9 187.65C149.9 187.65 149.9 187.6 149.9 187.51H148.9L149.9 187.65Z" fill="#D5E3EC"/>
<path d="M92.9206 124.91C92.9206 124.91 -9.68936 128.91 2.10064 231.85C2.10064 231.85 6.38064 264.12 20.1806 281.05C20.1806 281.05 43.1806 285.05 58.4306 264.75C58.4306 264.75 41.5006 222.75 58.4306 196.39H231.501C231.501 196.39 222.721 166.29 205.991 157.82C205.871 157.75 92.9206 124.91 92.9206 124.91Z" fill="#D5E3EC"/>
<path d="M63.0005 191C63.0005 191 111.731 161.36 165.651 187.67C170.573 189.677 175.044 192.648 178.801 196.41H59.0605L63.0005 191Z" fill="#EDF1F3"/>
<path d="M19.8602 280.74C19.8602 280.74 -20.6898 216.92 23.5702 159.31C23.5702 159.31 46.2902 132.18 83.7102 125.41C121.13 118.64 82.8802 125.53 82.8802 125.53C82.8802 125.53 9.88019 133.23 2.15019 204.63C2.15019 204.63 -6.15981 247.81 19.8602 280.74Z" fill="#EDF1F3"/>
<path d="M85.71 125.22C85.71 125.22 1.05 130.24 1 222.36C1 222.36 1.05 256.91 19.86 280.74C19.86 280.74 45.26 284.18 58.12 265.06C58.12 265.06 36.79 219.28 65.64 187.93" stroke="black" stroke-width="2" stroke-linecap="round" stroke-linejoin="round"/>
<path d="M219.09 170.54C219.09 170.54 229.62 183.23 231.5 197.65" stroke="black" stroke-width="2" stroke-linecap="round" stroke-linejoin="round"/>
<g style="mix-blend-mode:darken">
<path d="M87.2705 129.3C87.2705 129.3 128.361 190.76 207.521 174.45C207.521 174.45 186.361 187.08 141.521 175.75C141.521 175.75 103.001 163.16 87.2705 129.3Z" fill="#B4CBD6"/>
</g>
<g style="mix-blend-mode:darken">
<path d="M53.7499 269.89C53.7499 269.89 32.3399 216.72 63.8799 189.94C63.8799 189.94 38.3599 215.83 57.5299 265.15L53.7499 269.89Z" fill="#B4CBD6"/>
</g>
<path d="M238.36 56.81L238.67 55.04C236.81 26.78 228.52 22.41 228.52 22.41C214.52 18.07 199.1 35.68 199.1 35.68L197.5 37.57C196.135 36.7445 194.592 36.2576 193 36.15C178.67 32.9 178.75 31.35 178.75 31.35L176.41 31.22C176.41 31.22 175.57 5.66001 161.86 1.22001C161.86 1.22001 150.16 -3.61999 132.86 23.04C132.089 24.1428 131.397 25.299 130.79 26.5C129.79 26.64 123.08 28.68 123.08 28.68C104 36.25 89.47 56.47 83.56 77.78L82.93 80.05C76.2 104.3 83.18 125.48 99.11 142.85C99.11 142.85 119.69 164.75 149.64 172C149.64 172 188.12 184.36 218.03 171.07C237.67 162.35 250.93 148.66 257.09 126.47C262.94 103.65 259.41 76.92 241.77 60.08C240.793 58.8351 239.645 57.7343 238.36 56.81Z" fill="#D5E3EC"/>
<g style="mix-blend-mode:lighten">
<path d="M200.15 38.92L197.68 37.8C197.68 37.8 213.68 19.39 225.35 22.19C225.35 22.19 212.61 20.41 200.15 38.92Z" fill="#EDF1F3"/>
</g>
<g style="mix-blend-mode:lighten">
<path d="M203.1 40.7C203.1 40.7 183.8 30.46 170.65 31C170.65 31 183.11 33.53 203.1 40.7Z" fill="#EDF1F3"/>
</g>
<path d="M86.0003 82.17C86.0003 82.17 96.7703 35.8 132.4 27.52C132.4 27.52 146.4 2.01 159.74 1.43L159.17 1.13C154.51 1.41 145.11 4.54001 133.17 23C132.365 24.1866 131.64 25.4261 131 26.71C128.519 27.3191 126.072 28.0602 123.67 28.93C104.55 36.52 90.0003 56.74 84.1103 78.05L83.4803 80.32C76.7503 104.57 83.7403 125.75 99.6603 143.12C103.923 147.413 108.55 151.328 113.49 154.82C115.49 156.29 117.76 157.82 120.17 159.31C118.39 158.06 71.3003 127.91 86.0003 82.17Z" fill="#EDF1F3"/>
<path d="M154.35 64.91C159.52 60.15 164.89 61.91 164.89 61.91C175.75 65.06 173.78 75.5 173.78 75.5C172.49 82.83 169.22 86.5 169.22 86.5C167.811 88.5746 165.754 90.1232 163.371 90.9032C160.987 91.6831 158.412 91.6503 156.05 90.81C144.37 85.73 149.55 72.48 149.55 72.48C150.406 70.267 151.593 68.1968 153.07 66.34C153.07 66.34 154 65.2 154.35 64.91Z" fill="white"/>
<path d="M196.09 76.45C194.09 69.71 188.61 68.45 188.61 68.45C177.68 65.57 174.01 75.55 174.01 75.55C171.35 82.55 172.27 87.33 172.27 87.33C172.415 89.8317 173.385 92.215 175.027 94.1074C176.67 95.9998 178.893 97.2948 181.35 97.79C193.98 99.43 196.35 85.4 196.35 85.4C196.756 83.0608 196.803 80.6734 196.49 78.32C196.49 78.32 196.21 76.86 196.09 76.45Z" fill="white"/>
<path d="M155.09 72.39C154.037 73.7438 153.179 75.2383 152.54 76.83C152.54 76.83 148.79 86.42 157.25 90.1C158.956 90.7107 160.817 90.7377 162.54 90.1766C164.263 89.6155 165.751 88.4982 166.77 87C168.542 84.6626 169.679 81.9067 170.07 79C170.07 79 171.5 71.44 163.64 69.17C162.289 68.8345 160.873 68.8612 159.535 69.2474C158.197 69.6337 156.985 70.3658 156.02 71.37C155.684 71.6855 155.373 72.0265 155.09 72.39Z" fill="#5E4B18"/>
<path d="M170.79 30.59C170.79 30.59 182.87 31.59 203.26 40.21" stroke="black" stroke-width="2" stroke-linecap="round" stroke-linejoin="round"/>
<path d="M176.31 177.08C167.333 176.387 158.451 174.762 149.81 172.23C119.87 164.98 99.2804 143.07 99.2804 143.07C83.3604 125.71 76.3704 104.52 83.1004 80.27L83.7304 78C89.6404 56.7 107 32.59 128.21 27.65" stroke="black" stroke-width="2" stroke-linecap="round" stroke-linejoin="round"/>
<path d="M210.83 174C201.599 176.642 192.003 177.784 182.41 177.38" stroke="black" stroke-width="2" stroke-linecap="round" stroke-linejoin="round"/>
<path d="M241.92 60.3C255.51 71.07 265.12 102.48 257.26 126.7C251.1 148.89 237.85 162.57 218.2 171.3" stroke="black" stroke-width="2" stroke-linecap="round" stroke-linejoin="round"/>
<path d="M176.231 27.76C176.231 27.76 173.721 5.23999 162.001 1.42999C162.001 1.42999 149.601 -4.13001 132.141 24.66" stroke="black" stroke-width="2" stroke-linecap="round" stroke-linejoin="round"/>
<path d="M199.87 35.35C199.87 35.35 215.87 17.65 226.78 22.24C226.78 22.24 237.78 24.9 238.25 56.75" stroke="black" stroke-width="2" stroke-linecap="round" stroke-linejoin="round"/>
<path d="M119.55 109.75C132.368 109.75 142.76 99.3585 142.76 86.54C142.76 73.7215 132.368 63.33 119.55 63.33C106.731 63.33 96.3398 73.7215 96.3398 86.54C96.3398 99.3585 106.731 109.75 119.55 109.75Z" fill="#F6B8CF"/>
<path d="M216.34 135.37C229.158 135.37 239.55 124.979 239.55 112.16C239.55 99.3415 229.158 88.95 216.34 88.95C203.521 88.95 193.13 99.3415 193.13 112.16C193.13 124.979 203.521 135.37 216.34 135.37Z" fill="#F6B8CF"/>
<path d="M153.07 66.29C151.593 68.1468 150.406 70.217 149.55 72.43C149.55 72.43 144.37 85.68 156.05 90.76C158.412 91.6003 160.987 91.6331 163.371 90.8531C165.754 90.0732 167.811 88.5246 169.22 86.45C169.22 86.45 172.49 82.78 173.78 75.45C173.78 75.45 175.78 65.01 164.89 61.86C163.024 61.3952 161.069 61.4276 159.22 61.954C157.37 62.4804 155.691 63.4824 154.35 64.86" stroke="black" stroke-width="2" stroke-linecap="round" stroke-linejoin="round"/>
<path d="M196.72 113.74C195.81 104 177.1 99.6 177.1 99.6L169.4 97.85L167.22 98.7L165.91 96.77L159 95C159 95 143.54 87.44 135.38 94.89C133.31 96.1587 131.706 98.0616 130.805 100.316C129.904 102.57 129.755 105.054 130.38 107.4C130.38 107.4 130.38 117.74 144.64 120.21C144.64 120.21 156.71 123.74 162.15 114.81C161.56 125.25 173.5 129.2 173.5 129.2C187.71 132.44 191.92 126.2 191.92 126.2C198.5 120.08 196.72 113.74 196.72 113.74Z" fill="white"/>
<path d="M159 95C159 95 143.55 87.32 134.46 95.66C132.53 97.5809 131.199 100.021 130.63 102.684C130.06 105.347 130.275 108.117 131.25 110.66C131.25 110.66 134.31 118.66 145.04 121.02C145.04 121.02 157.41 123.62 162.18 114.81" stroke="black" stroke-width="2" stroke-linecap="round" stroke-linejoin="round"/>
<path d="M175.171 99.48C175.171 99.48 192.371 100.89 195.841 112.72C196.499 115.362 196.378 118.137 195.49 120.711C194.603 123.285 192.987 125.546 190.841 127.22C190.841 127.22 184.081 132.51 173.681 128.97C173.681 128.97 161.751 124.8 162.221 114.79" stroke="black" stroke-width="2" stroke-linecap="round" stroke-linejoin="round"/>
<path d="M167.25 95.49C167 95.42 163.18 94.36 162.36 95.56C162.36 95.56 160.51 97.63 166.36 99.47C166.36 99.47 171.22 101 171.82 98.47C171.78 98.51 172.11 96.86 167.25 95.49Z" fill="black"/>
<path d="M161.75 76.88C161.75 76.88 168.04 75.36 165.41 72.29C164.867 71.7409 164.219 71.3073 163.504 71.0152C162.789 70.723 162.022 70.5784 161.25 70.59C161.25 70.59 156.46 70.59 156.2 75.5C156.2 75.5 156.28 78.44 161.75 76.88Z" fill="white"/>
<path d="M166.81 82.18C166.977 81.4417 166.865 80.6678 166.495 80.0071C166.126 79.3463 165.526 78.8452 164.81 78.6C164.81 78.6 162.59 77.6 158.26 79.12C158.26 79.12 153.2 80.12 153.91 83.38C153.91 83.38 154.75 88.44 161.01 88.16C162.49 87.9161 163.852 87.2033 164.897 86.1267C165.941 85.0501 166.612 83.6666 166.81 82.18Z" fill="white"/>
<path d="M155.09 72.39C154.02 73.7322 153.16 75.2293 152.54 76.83C152.54 76.83 148.79 86.42 157.25 90.1C158.956 90.7107 160.817 90.7377 162.54 90.1766C164.263 89.6155 165.751 88.4982 166.77 87C168.542 84.6626 169.679 81.9067 170.07 79C170.07 79 171.5 71.44 163.64 69.17C162.289 68.8345 160.873 68.8612 159.535 69.2474C158.197 69.6337 156.985 70.3658 156.02 71.37" stroke="black" stroke-width="2" stroke-linecap="round" stroke-linejoin="round"/>
<path d="M191 82.47C191.192 84.1782 191.145 85.9048 190.86 87.6C190.86 87.6 189.06 97.74 179.92 96.47C178.146 96.0945 176.546 95.1423 175.37 93.7621C174.194 92.3818 173.509 90.6511 173.42 88.84C173.133 85.9322 173.594 82.9994 174.76 80.32C174.76 80.32 177.48 73.13 185.37 75.32C186.699 75.7393 187.895 76.5019 188.836 77.5307C189.777 78.5595 190.43 79.8183 190.73 81.18C190.853 81.6024 190.943 82.0337 191 82.47Z" fill="#5E4B18"/>
<path d="M196.41 78.48C196.705 80.8364 196.638 83.224 196.21 85.56C196.21 85.56 193.73 99.56 181.11 97.81C178.657 97.294 176.443 95.98 174.815 94.0732C173.187 92.1665 172.236 89.7742 172.11 87.27C172.11 87.27 171.23 82.43 173.95 75.5C173.95 75.5 177.71 65.56 188.62 68.5C190.457 69.083 192.108 70.138 193.408 71.5595C194.709 72.9811 195.613 74.7192 196.03 76.6" stroke="black" stroke-width="2" stroke-linecap="round" stroke-linejoin="round"/>
<path d="M182.46 82.68C182.46 82.68 177.88 78.1 181.73 76.85C182.479 76.6663 183.257 76.6354 184.018 76.7591C184.779 76.8828 185.508 77.1586 186.16 77.57C186.16 77.57 190.23 80.09 187.91 84.39C187.91 84.39 186.31 86.85 182.46 82.68Z" fill="white"/>
<path d="M175.37 84.56C175.615 83.8377 176.121 83.2327 176.789 82.8629C177.456 82.4932 178.237 82.3852 178.98 82.56C178.98 82.56 181.41 82.84 184.3 86.41C184.3 86.41 188.12 89.87 185.79 92.32C185.79 92.32 182.44 96.2 177.24 92.69C176.097 91.7149 175.298 90.3981 174.961 88.934C174.625 87.47 174.768 85.9364 175.37 84.56Z" fill="white"/>
<path d="M191 82.47C191.212 84.1773 191.165 85.9068 190.86 87.6C190.86 87.6 189.06 97.74 179.92 96.47C178.146 96.0945 176.546 95.1423 175.37 93.7621C174.194 92.3818 173.509 90.6511 173.42 88.84C173.133 85.9322 173.594 82.9994 174.76 80.32C174.76 80.32 177.48 73.13 185.37 75.32C186.699 75.7393 187.895 76.5019 188.836 77.5307C189.777 78.5595 190.43 79.8183 190.73 81.18" stroke="black" stroke-width="2" stroke-linecap="round" stroke-linejoin="round"/>
<path d="M145.32 99.8C138.803 93.5172 130.563 89.3157 121.65 87.73" stroke="black" stroke-width="2" stroke-linecap="round" stroke-linejoin="round"/>
<path d="M142.511 106.75C142.511 106.75 126.961 102.84 116.641 106.88" stroke="black" stroke-width="2" stroke-linecap="round" stroke-linejoin="round"/>
<path d="M183.21 111.12C192.062 109.246 201.271 110.043 209.67 113.41" stroke="black" stroke-width="2" stroke-linecap="round" stroke-linejoin="round"/>
<path d="M181.91 118.51C181.91 118.51 197.17 123.42 203.79 132.31" stroke="black" stroke-width="2" stroke-linecap="round" stroke-linejoin="round"/>
<path d="M175.19 45.3C175.19 45.3 173.88 42.56 169.62 41.02" stroke="black" stroke-width="2" stroke-linecap="round" stroke-linejoin="round"/>
<path d="M187.82 48.82C187.82 48.82 190.36 47.15 194.82 48.03" stroke="black" stroke-width="2" stroke-linecap="round" stroke-linejoin="round"/>
<path d="M164.77 26.38C166.61 24.44 169.3 6.92002 159.95 4.56002C159.95 4.56002 153.5 1.26002 140.74 18.43C140.74 18.43 136.03 24.71 142.61 26.91C142.9 27.4 151.61 27.83 159.61 28.21C160.551 28.2926 161.499 28.172 162.389 27.8562C163.279 27.5405 164.091 27.037 164.77 26.38Z" fill="#F9D5E1"/>
<path d="M210.31 41.05C209.64 38.46 217.26 23.14 225.1 24.3C225.1 24.3 232.34 24.54 235.19 45.74C235.19 45.74 236.27 53.51 229.45 52.25C228.95 52.54 221.09 48.67 213.91 45.13C213.054 44.7454 212.29 44.1825 211.669 43.4789C211.048 42.7753 210.585 41.9472 210.31 41.05Z" fill="#F9D5E1"/>
<path d="M160 4.56003C160 4.56003 165.21 3.62003 166.64 16.88C166.64 16.88 168.41 28.94 158.07 28.13" stroke="black" stroke-width="2" stroke-linecap="round" stroke-linejoin="round"/>
<path d="M156 28C156 28 155.24 28 153.08 27.87" stroke="black" stroke-width="2" stroke-linecap="round" stroke-linejoin="round"/>
<path d="M226.37 24.57C226.37 24.57 222.54 20.91 214.02 31.17C214.02 31.17 205.88 40.25 214.95 45.28" stroke="black" stroke-width="2" stroke-linecap="round" stroke-linejoin="round"/>
<path d="M216.71 46.33C216.71 46.33 217.33 46.77 219.21 47.83" stroke="black" stroke-width="2" stroke-linecap="round" stroke-linejoin="round"/>
<g style="mix-blend-mode:darken">
<path d="M171.43 30.8C171.43 30.8 175.27 27.8 171.5 12C171.5 12 176.8 24.45 176.5 31.45L171.43 30.8Z" fill="#B4CBD6"/>
</g>
<g style="mix-blend-mode:darken">
<path d="M120.17 159.31C120.17 159.31 202.71 206.45 246.92 148.9C246.92 148.9 209.9 198.83 120.17 159.31Z" fill="#B4CBD6"/>
</g>
<g style="mix-blend-mode:darken">
<path d="M135.23 116C135.23 116 139.1 121.75 149.61 123.22C153.268 123.55 156.94 122.784 160.16 121.02C160.16 121.02 163.38 129.17 175.67 130.02C175.67 130.02 178.29 130.88 182.67 129.73C182.67 129.73 167.98 133.03 162.25 116.63L161.25 116.3C161.25 116.3 151.08 128.49 135.23 116Z" fill="#B4CBD6"/>
</g>
<g style="mix-blend-mode:darken">
<path d="M152.45 67.1C152.45 67.1 144.07 74.1 147.73 84.8C147.73 84.8 150.29 90.48 160.82 91.37C160.82 91.37 147.82 90.83 148.44 79.9C148.44 79.9 148.62 70.82 152.45 67.1Z" fill="#B4CBD6"/>
</g>
<g style="mix-blend-mode:darken">
<path d="M196.6 80C196.6 80 199.71 90.61 190.88 97.63C190.88 97.63 182.03 98.76 176.5 95.97C176.5 95.97 187.78 102.52 193.1 92.97C193.1 92.92 197.83 85.17 196.6 80Z" fill="#B4CBD6"/>
</g>
<path d="M154.49 88.45L158.35 92.61C158.35 92.61 149 90.29 149.11 90C148.839 89.9055 148.608 89.7234 148.452 89.4825C148.296 89.2417 148.225 88.9558 148.25 88.67L147.25 88.36C147.25 88.36 147.18 87.54 149.25 87.36C151.067 87.1791 152.896 87.5595 154.49 88.45Z" fill="#D5E3EC"/>
<path d="M147.69 87C149.635 86.8754 151.579 87.2578 153.332 88.1097C155.085 88.9615 156.587 90.2538 157.69 91.86" stroke="black" stroke-width="2" stroke-linecap="round" stroke-linejoin="round"/>
<path d="M183.42 96.74L178 98.22C178 98.22 187.14 101.22 187.24 100.85C187.522 100.916 187.817 100.885 188.079 100.761C188.34 100.638 188.552 100.429 188.68 100.17L189.68 100.43C189.68 100.43 190.17 99.77 188.47 98.51C187.01 97.4118 185.246 96.7934 183.42 96.74Z" fill="#D5E3EC"/>
<path d="M190 99.1C188.414 97.9633 186.56 97.2579 184.619 97.0528C182.679 96.8478 180.718 97.15 178.93 97.93" stroke="black" stroke-width="2" stroke-linecap="round" stroke-linejoin="round"/>
</g>
<defs>
<clipPath id="clip0_493_6602">
<rect width="261.09" height="324.51" fill="white"/>
</clipPath>
</defs>
</svg>
