<svg width="150" height="186" viewBox="0 0 150 186" fill="none" xmlns="http://www.w3.org/2000/svg">
<g clip-path="url(#clip0_493_6177)">
<path d="M24.3404 4H130.4L148.24 19.85V152.47C148.238 153.302 147.906 154.099 147.318 154.687C146.73 155.276 145.932 155.607 145.1 155.61H4.62039C3.82474 155.61 3.06168 155.294 2.49907 154.731C1.93646 154.169 1.62039 153.406 1.62039 152.61V6.94C1.61509 6.55581 1.68619 6.1744 1.82955 5.81793C1.97292 5.46146 2.18569 5.13702 2.45551 4.86348C2.72533 4.58994 3.04682 4.37275 3.40129 4.22451C3.75577 4.07628 4.13617 3.99996 4.52039 4H19.9004C20.4308 4 20.9395 4.21071 21.3146 4.58579C21.6897 4.96086 21.9004 5.46957 21.9004 6C21.9004 5.46957 22.1111 4.96086 22.4862 4.58579C22.8613 4.21071 23.37 4 23.9004 4H24.3404Z" fill="#293D65" stroke="black" stroke-width="2" stroke-linecap="round" stroke-linejoin="round"/>
<path d="M128.29 155.61V84.5599C128.29 83.3045 127.792 82.1004 126.905 81.2118C126.019 80.3232 124.816 79.8226 123.56 79.8199H28.2301C26.7423 79.8199 25.3153 80.411 24.2632 81.4631C23.2112 82.5152 22.6201 83.9421 22.6201 85.4299V155.61H128.29Z" fill="#8CD8BC" stroke="black" stroke-width="2" stroke-linecap="round" stroke-linejoin="round"/>
<path d="M29.8506 1V44.91C29.8611 46.2636 30.4063 47.5582 31.3672 48.5116C32.3281 49.4651 33.6269 50 34.9806 50H113.911C115.237 50 116.508 49.4732 117.446 48.5355C118.384 47.5979 118.911 46.3261 118.911 45V1H29.8506ZM58.6206 45.15H42.7306V9.73H46.9406V7.26H54.8706V9.73H58.6206V45.15Z" fill="#C9D1D3" stroke="black" stroke-width="2" stroke-linecap="round" stroke-linejoin="round"/>
<path d="M113.31 8.25H107.37V11.22H113.31V8.25Z" fill="black"/>
<path d="M29.8506 97.86V134.26C29.8559 135.255 30.2557 136.208 30.9625 136.909C31.6692 137.61 32.6251 138.003 33.6206 138H121.251V103.38C121.251 101.916 120.669 100.512 119.634 99.4768C118.599 98.4416 117.195 97.86 115.731 97.86H29.8506Z" fill="white" stroke="black" stroke-width="2" stroke-linecap="round" stroke-linejoin="round"/>
<path d="M54.8708 102.36H36.0508V131.09H54.8708V102.36Z" fill="#D6D18E" stroke="black" stroke-width="2" stroke-linecap="round" stroke-linejoin="round"/>
<path d="M60.3203 107.81H103.38" stroke="black" stroke-width="2" stroke-linecap="round" stroke-linejoin="round"/>
<path d="M60.3203 115.66H113.32" stroke="black" stroke-width="2" stroke-linecap="round" stroke-linejoin="round"/>
<path d="M60.3203 123.16H113.32" stroke="black" stroke-width="2" stroke-linecap="round" stroke-linejoin="round"/>
<path d="M60.3203 130.1H113.32" stroke="black" stroke-width="2" stroke-linecap="round" stroke-linejoin="round"/>
<path d="M41.7402 110.92V114.98" stroke="black" stroke-width="2" stroke-linecap="round" stroke-linejoin="round"/>
<path d="M48.6807 110.92V114.98" stroke="black" stroke-width="2" stroke-linecap="round" stroke-linejoin="round"/>
<path d="M41.25 118.87C41.3622 119.762 41.8061 120.58 42.4935 121.16C43.181 121.74 44.0615 122.04 44.96 122C44.96 122 48.43 122.63 49.42 118.66" stroke="black" stroke-width="2" stroke-linecap="round" stroke-linejoin="round"/>
<path d="M46.1814 180.296H45.037V181.44H43.8927V182.584H37.0264V181.44H43.8927V180.296H45.037V179.151H46.1814V180.296ZM39.3152 174.574H38.1708V173.429H39.3152V174.574ZM37.0264 181.44H35.882V180.296H37.0264V181.44ZM35.882 180.296H34.7377V179.151H35.882V180.296ZM35.882 179.151V178.007H37.0264V179.151H35.882ZM45.037 179.151H43.8927V178.007H45.037V179.151ZM37.0264 178.007V176.862H43.8927V178.007H37.0264ZM45.037 171.141H41.6039V169.996H45.037V166.563H46.1814V175.718H45.037V171.141ZM32.4489 173.429V174.574H31.3045V173.429H32.4489ZM32.4489 173.429V172.285H33.5933V173.429H32.4489ZM38.1708 173.429H37.0264V172.285H38.1708V173.429ZM33.5933 172.285V171.141H34.7377V172.285H33.5933ZM37.0264 172.285H35.882V171.141H37.0264V172.285ZM34.7377 171.141V167.707H35.882V171.141H34.7377ZM63.347 182.584H54.192V181.44H63.347V182.584ZM57.6252 174.574H56.4808V173.429H57.6252V174.574ZM54.192 181.44H53.0477V179.151H62.2027V178.007H53.0477V176.862H63.347V180.296H54.192V181.44ZM63.347 166.563H64.4914V175.718H63.347V166.563ZM50.7589 173.429V174.574H49.6145V173.429H50.7589ZM50.7589 173.429V172.285H51.9033V173.429H50.7589ZM56.4808 173.429H55.3364V172.285H56.4808V173.429ZM51.9033 172.285V171.141H53.0477V172.285H51.9033ZM55.3364 172.285H54.192V171.141H55.3364V172.285ZM53.0477 171.141V167.707H54.192V171.141H53.0477ZM83.9458 171.141H81.657V175.718H80.5127V166.563H81.657V169.996H83.9458V171.141ZM75.9352 168.852H67.9245V167.707H70.2133V166.563H73.6464V167.707H75.9352V168.852ZM72.502 181.44H71.3577V176.862H82.8014V182.584H72.502V181.44ZM72.502 181.44H81.657V180.296V179.151V178.007H72.502V179.151V181.44ZM69.0689 173.429H74.7908V174.574H69.0689V173.429ZM69.0689 173.429H67.9245V172.285V171.141H69.0689V173.429ZM74.7908 173.429V171.141H75.9352V173.429H74.7908ZM69.0689 171.141V169.996H74.7908V171.141H69.0689ZM87.3789 179.151H89.6677V181.44H87.3789V179.151ZM102.256 173.429H101.111V174.574H99.967V175.718H98.8227V176.862H97.6783V178.007H99.967V176.862H102.256V179.151H94.2452V178.007H95.3895V176.862H96.5339V175.718H97.6783V174.574H98.8227V173.429H96.5339V174.574H94.2452V172.285H102.256V173.429ZM110.266 179.151H105.689V178.007H106.833V173.429H105.689V172.285H109.122V178.007H110.266V179.151ZM106.833 168.852H109.122V171.141H106.833V168.852ZM117.133 181.44H112.555V180.296H113.7V173.429H112.555V172.285H114.844V173.429H115.988V172.285H119.421V173.429H120.566V176.862H119.421V178.007H115.988V180.296H117.133V181.44ZM115.988 176.862H118.277V175.718V174.574V173.429H115.988V174.574V176.862Z" fill="#1F2223"/>
</g>
<defs>
<clipPath id="clip0_493_6177">
<rect width="148.62" height="185.04" fill="white" transform="translate(0.620117)"/>
</clipPath>
</defs>
</svg>
