<svg width="149" height="186" viewBox="0 0 149 186" fill="none" xmlns="http://www.w3.org/2000/svg">
<g clip-path="url(#clip0_493_6160)">
<path d="M23.7203 4H129.78L147.62 19.85V152.47C147.618 153.302 147.286 154.099 146.698 154.687C146.109 155.276 145.312 155.607 144.48 155.61H4.00028C3.20463 155.61 2.44156 155.294 1.87896 154.731C1.31635 154.169 1.00028 153.406 1.00028 152.61V6.94C0.994976 6.55581 1.06607 6.1744 1.20944 5.81793C1.3528 5.46146 1.56557 5.13702 1.83539 4.86348C2.10521 4.58994 2.4267 4.37275 2.78118 4.22451C3.13565 4.07628 3.51605 3.99996 3.90028 4H19.2803C19.8107 4 20.3194 4.21071 20.6945 4.58579C21.0696 4.96086 21.2803 5.46957 21.2803 6C21.2803 5.46957 21.491 4.96086 21.8661 4.58579C22.2411 4.21071 22.7498 4 23.2803 4H23.7203Z" fill="#F6B097" stroke="black" stroke-width="2" stroke-linecap="round" stroke-linejoin="round"/>
<path d="M127.67 155.85V84.5699C127.671 83.9475 127.55 83.3309 127.313 82.7553C127.076 82.1797 126.728 81.6564 126.289 81.2153C125.85 80.7743 125.328 80.424 124.753 80.1846C124.179 79.9452 123.562 79.8213 122.94 79.8199H27.61C26.8725 79.8199 26.1421 79.9654 25.4608 80.2479C24.7796 80.5305 24.1607 80.9446 23.6396 81.4666C23.1185 81.9886 22.7055 82.6082 22.4242 83.29C22.1428 83.9718 21.9987 84.7024 22 85.4399V155.85H127.67Z" fill="#FEE682" stroke="black" stroke-width="2" stroke-linecap="round" stroke-linejoin="round"/>
<path d="M29.2305 1V44.91C29.241 46.2636 29.7862 47.5582 30.7471 48.5116C31.708 49.4651 33.0068 50 34.3605 50H113.29C114.617 50 115.888 49.4732 116.826 48.5355C117.764 47.5979 118.29 46.3261 118.29 45V1H29.2305ZM58.0005 45.15H42.1105V9.73H46.3205V7.26H54.2505V9.73H58.0005V45.15Z" fill="#C9D1D3" stroke="black" stroke-width="2" stroke-linecap="round" stroke-linejoin="round"/>
<path d="M112.69 8.25H106.75V11.22H112.69V8.25Z" fill="black"/>
<path d="M32.9999 97.86V134.26C32.9893 134.743 33.074 135.224 33.2492 135.674C33.4244 136.125 33.6866 136.537 34.0209 136.886C34.3552 137.235 34.7551 137.515 35.1976 137.709C35.6401 137.904 36.1166 138.01 36.5999 138.02H120.67V103.38C120.685 102.669 120.559 101.963 120.3 101.301C120.042 100.639 119.656 100.035 119.163 99.522C118.671 99.0094 118.083 98.5988 117.432 98.3136C116.781 98.0284 116.08 97.8743 115.37 97.86H32.9999Z" fill="white" stroke="black" stroke-width="2" stroke-linecap="round" stroke-linejoin="round"/>
<path d="M54.2507 102.36H35.4307V131.09H54.2507V102.36Z" fill="#EE8F63" stroke="black" stroke-width="2" stroke-linecap="round" stroke-linejoin="round"/>
<path d="M59.7002 107.81H102.76" stroke="black" stroke-width="2" stroke-linecap="round" stroke-linejoin="round"/>
<path d="M59.7002 115.66H112.7" stroke="black" stroke-width="2" stroke-linecap="round" stroke-linejoin="round"/>
<path d="M59.7002 123.16H112.7" stroke="black" stroke-width="2" stroke-linecap="round" stroke-linejoin="round"/>
<path d="M59.7002 130.1H112.7" stroke="black" stroke-width="2" stroke-linecap="round" stroke-linejoin="round"/>
<path d="M41.1201 110.92V114.98" stroke="black" stroke-width="2" stroke-linecap="round" stroke-linejoin="round"/>
<path d="M48.0605 110.92V114.98" stroke="black" stroke-width="2" stroke-linecap="round" stroke-linejoin="round"/>
<path d="M40.6299 118.87C40.7421 119.762 41.186 120.58 41.8734 121.16C42.5608 121.74 43.4414 122.04 44.3399 122C44.3399 122 47.8099 122.63 48.7999 118.66" stroke="black" stroke-width="2" stroke-linecap="round" stroke-linejoin="round"/>
<path d="M47.3075 180.296H46.1632V181.44H45.0188V182.584H37.0082V181.44H45.0188V180.296H46.1632V179.151H47.3075V180.296ZM48.4519 175.718H33.575V174.574H48.4519V175.718ZM37.0082 181.44H35.8638V180.296H37.0082V181.44ZM35.8638 180.296H34.7194V179.151H35.8638V180.296ZM35.8638 179.151V178.007H37.0082V179.151H35.8638ZM46.1632 179.151H45.0188V178.007H46.1632V179.151ZM37.0082 178.007V176.862H45.0188V178.007H37.0082ZM46.1632 168.852H34.7194V167.707H47.3075V173.429H46.1632V168.852ZM66.7619 180.296H65.6175V181.44H64.4732V182.584H57.6069V181.44H64.4732V180.296H65.6175V179.151H66.7619V180.296ZM59.8957 174.574H58.7513V173.429H59.8957V174.574ZM59.8957 168.852H56.4625V171.141H57.6069V172.285H58.7513V173.429H57.6069V172.285H56.4625V171.141H55.3182V172.285H54.1738V173.429H53.0294V174.574H51.885V173.429H53.0294V172.285H54.1738V171.141H55.3182V168.852H51.885V167.707H59.8957V168.852ZM57.6069 181.44H56.4625V180.296H57.6069V181.44ZM56.4625 180.296H55.3182V179.151H56.4625V180.296ZM56.4625 179.151V178.007H57.6069V179.151H56.4625ZM65.6175 179.151H64.4732V178.007H65.6175V179.151ZM57.6069 178.007V176.862H64.4732V178.007H57.6069ZM65.6175 171.141H62.1844V169.996H65.6175V166.563H66.7619V175.718H65.6175V171.141ZM78.2057 174.574H77.0613V173.429H78.2057V174.574ZM78.2057 168.852H74.7725V171.141H75.9169V172.285H77.0613V173.429H75.9169V172.285H74.7725V171.141H73.6282V172.285H72.4838V173.429H71.3394V174.574H70.195V173.429H71.3394V172.285H72.4838V171.141H73.6282V168.852H70.195V167.707H78.2057V168.852ZM82.7832 178.007H73.6282V176.862H83.9275V182.584H82.7832V178.007ZM83.9275 171.141H80.4944V169.996H83.9275V166.563H85.0719V175.718H83.9275V171.141ZM89.6494 179.151H91.9382V181.44H89.6494V179.151ZM104.526 173.429H103.382V174.574H102.238V175.718H101.093V176.862H99.9488V178.007H102.238V176.862H104.526V179.151H96.5157V178.007H97.66V176.862H98.8044V175.718H99.9488V174.574H101.093V173.429H98.8044V174.574H96.5157V172.285H104.526V173.429ZM112.537 179.151H107.959V178.007H109.104V173.429H107.959V172.285H111.393V178.007H112.537V179.151ZM109.104 168.852H111.393V171.141H109.104V168.852ZM119.403 181.44H114.826V180.296H115.97V173.429H114.826V172.285H117.114V173.429H118.259V172.285H121.692V173.429H122.836V176.862H121.692V178.007H118.259V180.296H119.403V181.44ZM118.259 176.862H120.548V175.718V174.574V173.429H118.259V174.574V176.862Z" fill="#1F2223"/>
</g>
<defs>
<clipPath id="clip0_493_6160">
<rect width="148.62" height="185.04" fill="white"/>
</clipPath>
</defs>
</svg>
