<svg width="149" height="186" viewBox="0 0 149 186" fill="none" xmlns="http://www.w3.org/2000/svg">
<g clip-path="url(#clip0_493_6194)">
<path d="M23.9605 4H130.021L147.861 19.85V152.47C147.858 153.302 147.526 154.099 146.938 154.687C146.35 155.276 145.552 155.607 144.721 155.61H4.24051C3.44486 155.61 2.6818 155.294 2.11919 154.731C1.55658 154.169 1.24051 153.406 1.24051 152.61V6.94C1.23521 6.55581 1.30631 6.1744 1.44967 5.81793C1.59304 5.46146 1.80581 5.13702 2.07563 4.86348C2.34545 4.58994 2.66693 4.37275 3.02141 4.22451C3.37589 4.07628 3.75629 3.99996 4.14051 4H19.5205C20.0509 4 20.5597 4.21071 20.9347 4.58579C21.3098 4.96086 21.5205 5.46957 21.5205 6C21.5205 5.46957 21.7312 4.96086 22.1063 4.58579C22.4814 4.21071 22.9901 4 23.5205 4H23.9605Z" fill="#161B21" stroke="black" stroke-width="2" stroke-linecap="round" stroke-linejoin="round"/>
<path d="M127.91 155.61V84.5599C127.91 83.3045 127.412 82.1004 126.525 81.2118C125.639 80.3232 124.436 79.8226 123.18 79.8199H27.8502C26.3624 79.8199 24.9354 80.411 23.8834 81.4631C22.8313 82.5152 22.2402 83.9421 22.2402 85.4299V155.61H127.91Z" fill="white" stroke="black" stroke-width="2" stroke-linecap="round" stroke-linejoin="round"/>
<path d="M29.4707 1V44.91C29.4813 46.2636 30.0264 47.5582 30.9873 48.5116C31.9482 49.4651 33.247 50 34.6007 50H113.531C114.857 50 116.129 49.4732 117.066 48.5355C118.004 47.5979 118.531 46.3261 118.531 45V1H29.4707ZM58.2407 45.15H42.3507V9.73H46.5607V7.26H54.4907V9.73H58.2407V45.15Z" fill="#C9D1D3" stroke="black" stroke-width="2" stroke-linecap="round" stroke-linejoin="round"/>
<path d="M112.93 8.25H106.99V11.22H112.93V8.25Z" fill="black"/>
<path d="M29.4707 97.86V134.26C29.476 135.255 29.8758 136.208 30.5826 136.909C31.2893 137.61 32.2452 138.003 33.2407 138H120.871V103.38C120.871 101.916 120.289 100.512 119.254 99.4768C118.219 98.4416 116.815 97.86 115.351 97.86H29.4707Z" fill="white" stroke="black" stroke-width="2" stroke-linecap="round" stroke-linejoin="round"/>
<path d="M54.4909 102.36H35.6709V131.09H54.4909V102.36Z" fill="#FFE67C" stroke="black" stroke-width="2" stroke-linecap="round" stroke-linejoin="round"/>
<path d="M59.9404 107.81H103" stroke="black" stroke-width="2" stroke-linecap="round" stroke-linejoin="round"/>
<path d="M59.9404 115.66H112.94" stroke="black" stroke-width="2" stroke-linecap="round" stroke-linejoin="round"/>
<path d="M59.9404 123.16H112.94" stroke="black" stroke-width="2" stroke-linecap="round" stroke-linejoin="round"/>
<path d="M59.9404 130.1H112.94" stroke="black" stroke-width="2" stroke-linecap="round" stroke-linejoin="round"/>
<path d="M41.3604 110.92V114.98" stroke="black" stroke-width="2" stroke-linecap="round" stroke-linejoin="round"/>
<path d="M48.3008 110.92V114.98" stroke="black" stroke-width="2" stroke-linecap="round" stroke-linejoin="round"/>
<path d="M40.8701 118.87C40.9823 119.762 41.4262 120.58 42.1137 121.16C42.8011 121.74 43.6816 122.04 44.5801 122C44.5801 122 48.0501 122.63 49.0401 118.66" stroke="black" stroke-width="2" stroke-linecap="round" stroke-linejoin="round"/>
<path d="M18.5205 172.285H19.6649V171.141H20.8093V169.996H21.9536V168.852H23.098V169.996H24.2424V171.141H25.3868V172.285H26.5311V179.151H24.2424V175.718H20.8093V179.151H18.5205V172.285ZM20.8093 174.574H24.2424V173.429V172.285H23.098V171.141H21.9536V172.285H20.8093V174.574ZM34.5418 179.151H29.9643V178.007H31.1086V173.429H29.9643V172.285H33.3974V178.007H34.5418V179.151ZM31.1086 168.852H33.3974V171.141H31.1086V168.852ZM47.1299 178.007H45.9855V175.718H48.2743V178.007H51.7074V175.718H50.563V174.574H48.2743V173.429H47.1299V172.285H45.9855V169.996H47.1299V168.852H52.8518V169.996H53.9961V172.285H51.7074V169.996H48.2743V172.285H49.4186V173.429H51.7074V174.574H52.8518V175.718H53.9961V178.007H52.8518V179.151H47.1299V178.007ZM63.1511 173.429H62.0068V174.574H60.8624V175.718H62.0068V176.862H63.1511V179.151H60.8624V176.862H59.718V175.718H58.5736V179.151H55.1405V178.007H56.2849V169.996H55.1405V168.852H58.5736V174.574H59.718V173.429H60.8624V172.285H63.1511V173.429ZM71.1618 179.151H66.5843V178.007H67.7286V173.429H66.5843V172.285H70.0174V178.007H71.1618V179.151ZM67.7286 168.852H70.0174V171.141H67.7286V168.852ZM80.3168 179.151H75.7393V178.007H76.8836V169.996H75.7393V168.852H79.1724V178.007H80.3168V179.151ZM89.4718 179.151H84.8943V178.007H86.0386V169.996H84.8943V168.852H88.3274V178.007H89.4718V179.151ZM94.0493 179.151H96.338V181.44H94.0493V179.151ZM108.926 173.429H107.782V174.574H106.637V175.718H105.493V176.862H104.349V178.007H106.637V176.862H108.926V179.151H100.916V178.007H102.06V176.862H103.204V175.718H104.349V174.574H105.493V173.429H103.204V174.574H100.916V172.285H108.926V173.429ZM116.937 179.151H112.359V178.007H113.504V173.429H112.359V172.285H115.792V178.007H116.937V179.151ZM113.504 168.852H115.792V171.141H113.504V168.852ZM123.803 181.44H119.226V180.296H120.37V173.429H119.226V172.285H121.514V173.429H122.659V172.285H126.092V173.429H127.236V176.862H126.092V178.007H122.659V180.296H123.803V181.44ZM122.659 176.862H124.947V175.718V174.574V173.429H122.659V174.574V176.862Z" fill="#1F2223"/>
</g>
<defs>
<clipPath id="clip0_493_6194">
<rect width="148.62" height="185.04" fill="white" transform="translate(0.240234)"/>
</clipPath>
</defs>
</svg>
