<svg width="327" height="387" viewBox="0 0 327 387" fill="none" xmlns="http://www.w3.org/2000/svg">
<path d="M325.28 2H2V385.41H325.28V2Z" stroke="#231F20" stroke-width="2" stroke-linecap="round" stroke-linejoin="round"/>
<path fill-rule="evenodd" clip-rule="evenodd" d="M163.961 2.04922H88.8929L163.961 193.734L163.961 2.04922ZM163.853 193.734L88.7855 2.04922H2.85526L163.853 193.734ZM2.72467 2.04922H2.06094V113.436L163.818 193.847L2.72467 2.04922ZM163.799 193.949L2.06094 113.548V193.949H163.799Z" fill="#FBCA0A"/>
<path fill-rule="evenodd" clip-rule="evenodd" d="M163.961 2.04922H88.8929L163.961 193.734L163.961 2.04922ZM2.72467 2.04922H2.06094V113.436L163.818 193.847L2.72467 2.04922Z" fill="#FAFF00"/>
<path fill-rule="evenodd" clip-rule="evenodd" d="M164.16 2.04922H239.228L164.16 193.734L164.16 2.04922ZM164.268 193.734L239.336 2.04922H325.266L164.268 193.734ZM325.396 2.04922H326.06V113.436L164.303 193.847L325.396 2.04922ZM164.323 193.949L326.06 113.548V193.949H164.323Z" fill="#FAFF00"/>
<path fill-rule="evenodd" clip-rule="evenodd" d="M164.16 2.04922H239.228L164.16 193.734L164.16 2.04922ZM325.396 2.04922H326.06V113.436L164.303 193.847L325.396 2.04922Z" fill="#FBCA0A"/>
<path fill-rule="evenodd" clip-rule="evenodd" d="M164.16 386L239.228 386L164.16 194.315L164.16 386ZM164.268 194.315L239.336 386L325.266 386L164.268 194.315ZM325.396 386L326.06 386L326.06 274.613L164.303 194.202L325.396 386ZM164.323 194.1L326.06 274.502L326.06 194.1L164.323 194.1Z" fill="#FBCA0A"/>
<path fill-rule="evenodd" clip-rule="evenodd" d="M164.16 386L239.228 386L164.16 194.315L164.16 386ZM325.396 386L326.06 386L326.06 274.613L164.303 194.202L325.396 386Z" fill="#FAFF00"/>
<path fill-rule="evenodd" clip-rule="evenodd" d="M163.961 386L88.8929 386L163.961 194.315L163.961 386ZM163.853 194.315L88.7855 386L2.85526 386L163.853 194.315ZM2.72467 386L2.06094 386L2.06095 274.613L163.818 194.202L2.72467 386ZM163.799 194.1L2.06095 274.502L2.06096 194.1L163.799 194.1Z" fill="#FAFF00"/>
<path fill-rule="evenodd" clip-rule="evenodd" d="M163.961 386L88.8929 386L163.961 194.315L163.961 386ZM2.72467 386L2.06094 386L2.06095 274.613L163.818 194.202L2.72467 386Z" fill="#FBCA0A"/>
<path d="M294.55 142.37C311.37 127.54 305.13 103.7 305.13 103.7C307.33 74.8702 296.21 77.4602 296.21 77.4602C289.47 78.5702 291.21 84.4602 291.21 84.4602C292.39 89.2702 290.74 98.0002 290.74 98.0002C285.14 92.0002 277.2 100.61 277.2 100.61C269.28 96.9102 265.35 97.3502 265.35 97.3502C264 73.0002 255.18 75.8302 255.18 75.8302C245.03 77.2402 252.84 106.83 252.84 106.83C240.09 123.58 257.55 139.64 257.55 139.64C257.55 139.64 274.72 159.86 294.55 142.37Z" fill="white"/>
<mask id="mask0_505_567" style="mask-type:luminance" maskUnits="userSpaceOnUse" x="248" y="75" width="59" height="75">
<path d="M294.55 142.37C311.37 127.54 305.13 103.7 305.13 103.7C307.33 74.8702 296.21 77.4602 296.21 77.4602C289.47 78.5702 291.21 84.4602 291.21 84.4602C292.39 89.2702 290.74 98.0002 290.74 98.0002C285.14 92.0002 277.2 100.61 277.2 100.61C269.28 96.9102 265.35 97.3502 265.35 97.3502C264 73.0002 255.18 75.8302 255.18 75.8302C245.03 77.2402 252.84 106.83 252.84 106.83C240.09 123.58 257.55 139.64 257.55 139.64C257.55 139.64 274.72 159.86 294.55 142.37Z" fill="white"/>
</mask>
<g mask="url(#mask0_505_567)">
<path d="M296.37 75.7299C301.433 84.227 303.335 94.2383 301.74 104C301.74 104 299.74 133.85 284.38 139.75L302.18 141.13C302.18 141.13 314.59 124.47 314.7 122.21C314.81 119.95 316.83 106.12 314.25 93.5899C311.67 81.0599 306.25 62.1899 306.25 62.1899L296.37 75.7299Z" fill="#D3D3D3"/>
<path d="M277.22 111.78C277.22 111.78 263.07 119.62 261.51 119.31C261.51 119.31 261.82 124.64 268.4 125.58C268.4 125.58 273.58 126.03 276.48 122.2C276.48 122.2 281.26 125.27 285.96 123.07C285.96 123.07 292.96 121.16 291.79 106.59C290.62 92.0199 277.22 107.44 277.22 107.44V111.78Z" fill="#D3D3D3"/>
<path d="M252.439 107.32C252.439 107.32 256.179 103.32 260.569 102.06C260.569 102.06 263.839 95.6297 265.969 95.7097C268.099 95.7897 266.759 103.99 266.759 103.99C266.759 103.99 267.009 109.32 264.099 109.45C261.189 109.58 255.549 109.59 255.549 109.59L252.439 107.32Z" fill="#D3D3D3"/>
<path d="M261.19 102.06C261.19 102.06 263.7 81.3701 256.14 75.7301L266.84 73.8501C266.84 73.8501 275.62 87.6401 275.62 88.9001C275.472 91.504 275.05 94.085 274.36 96.6001C273.73 98.3001 261.19 102.06 261.19 102.06Z" fill="#D3D3D3"/>
</g>
<path d="M294.55 142.37C311.37 127.54 305.13 103.7 305.13 103.7C307.33 74.8702 296.21 77.4602 296.21 77.4602C289.47 78.5702 291.21 84.4602 291.21 84.4602C292.39 89.2702 290.74 98.0002 290.74 98.0002C285.14 92.0002 277.2 100.61 277.2 100.61C269.28 96.9102 265.35 97.3502 265.35 97.3502C264 73.0002 255.18 75.8302 255.18 75.8302C245.03 77.2402 252.84 106.83 252.84 106.83C240.09 123.58 257.55 139.64 257.55 139.64C257.55 139.64 274.72 159.86 294.55 142.37Z" stroke="black" stroke-width="1.5" stroke-linecap="round" stroke-linejoin="round"/>
<path d="M282.54 384.2C282.54 384.2 280.69 342.91 265.28 289.92C265.28 289.92 303.08 224.13 298.36 138.4C298.36 138.4 272.27 129.23 255.53 138.4C255.53 138.4 251.73 201.18 220.3 232.61L117.39 237.54C117.39 237.54 71.7896 266.54 70.5596 314.54C70.5596 314.54 71.7096 350.69 102.25 355.1C102.25 355.1 100.06 374.78 102.25 384.1" fill="#D5E3EC"/>
<mask id="mask1_505_567" style="mask-type:luminance" maskUnits="userSpaceOnUse" x="71" y="134" width="229" height="251">
<path d="M282.98 384.2C282.98 384.2 281.13 342.91 265.72 289.92C265.72 289.92 303.52 224.13 298.8 138.4C298.8 138.4 272.71 129.23 255.97 138.4C255.97 138.4 252.17 201.18 220.74 232.61L117.83 237.54C117.83 237.54 72.23 266.54 71 314.54C71 314.54 72.15 350.69 102.69 355.1C102.69 355.1 100.5 374.78 102.69 384.1" fill="white"/>
</mask>
<g mask="url(#mask1_505_567)">
<g style="mix-blend-mode:darken">
<path d="M291.78 136.45C291.78 136.45 300.91 223.67 251.78 290.16C251.78 290.16 263.89 345.16 251.78 385.41H282.96C282.96 385.41 293.62 295.34 297.68 284.3C301.74 273.26 336.56 198.69 337.02 187.69C337.48 176.69 323.18 116.28 291.78 136.45Z" fill="#B4CBD6"/>
</g>
<path d="M110.71 384.2C110.71 384.2 103.97 276.29 174.83 266.43C174.83 266.43 246.31 250.43 261.72 327.43C261.72 327.43 265.35 343.6 266.61 384.2H110.71Z" fill="#EDF1F3"/>
<path d="M254.23 304.08C254.23 304.08 258.68 358.44 251.07 384.2H266.61C266.61 384.2 266.89 323.62 254.23 304.08Z" fill="#D2D9DB"/>
<path d="M111.38 241.32C111.38 241.32 56.2101 296.85 81.7901 343.06C81.7901 343.06 69.7901 345.2 71.0001 342.46C72.2101 339.72 57.8301 280.78 57.8301 280.78C57.8301 280.78 77.2701 253.78 77.9001 253.78C78.5301 253.78 111.38 241.32 111.38 241.32Z" fill="#EDF1F3"/>
</g>
<path d="M282.54 384.2C282.54 384.2 280.69 342.91 265.28 289.92C265.28 289.92 303.08 224.13 298.36 138.4C298.36 138.4 272.27 129.23 255.53 138.4C255.53 138.4 251.73 201.18 220.3 232.61L117.39 237.54C117.39 237.54 71.7896 266.54 70.5596 314.54C70.5596 314.54 71.7096 350.69 102.25 355.1C102.25 355.1 100.06 374.78 102.25 384.1" stroke="black" stroke-width="1.5" stroke-linecap="round" stroke-linejoin="round"/>
<g style="mix-blend-mode:multiply">
<path d="M101.63 362.56C101.63 362.56 158.86 369.73 180.24 323.69C180.24 323.69 206.52 320.99 212.24 304.02C212.24 304.02 232.19 291.76 223.19 277.49L205.63 291.06L155.2 308.94C155.2 308.94 125.2 334.38 121.37 337.99C117.54 341.6 101.63 341.57 101.63 341.57V362.56Z" fill="#B4CBD6"/>
</g>
<path d="M277.78 107.46C277.78 107.46 275.33 94.8101 283.31 93.7001C283.31 93.7001 291.57 91.9201 291.19 102.63C291.19 102.63 292.69 119.4 286.04 119.18C286 119.18 278.2 121.87 277.78 107.46Z" fill="white"/>
<mask id="mask2_505_567" style="mask-type:luminance" maskUnits="userSpaceOnUse" x="277" y="93" width="15" height="27">
<path d="M277.78 107.46C277.78 107.46 275.33 94.8101 283.31 93.7001C283.31 93.7001 291.57 91.9201 291.19 102.63C291.19 102.63 292.69 119.4 286.04 119.18C286 119.18 278.2 121.87 277.78 107.46Z" fill="white"/>
</mask>
<g mask="url(#mask2_505_567)">
<path d="M285 92.0001C287.54 94.276 289.141 97.4172 289.49 100.81C289.49 100.81 290.93 119.59 285.49 119.28L287.7 122.03C287.7 122.03 300.08 122.1 300.08 118.34C300.08 114.58 297.57 101.41 297.57 99.5301C297.57 97.6501 293.18 90.1201 293.18 90.1201L285 92.0001Z" fill="#D3D3D3"/>
<path d="M278.59 95.9302C278.59 95.9302 282.93 110.67 279.27 116.71C275.61 122.75 278.59 117.39 278.59 117.39L277.93 113.58" fill="#D3D3D3"/>
</g>
<path d="M277.78 107.46C277.78 107.46 275.33 94.8101 283.31 93.7001C283.31 93.7001 291.57 91.9201 291.19 102.63C291.19 102.63 292.69 119.4 286.04 119.18C286 119.18 278.2 121.87 277.78 107.46Z" stroke="black" stroke-width="2" stroke-linecap="round" stroke-linejoin="round"/>
<g style="mix-blend-mode:multiply">
<path d="M112.58 303.94C112.58 303.94 143.03 290.22 149.44 275.47C149.44 275.47 153.62 260.25 164.44 261.74C175.26 263.23 163.63 277.49 163.63 277.49C163.63 277.49 150.63 290.94 147.92 291.49C145.21 292.04 134.07 303.93 134.07 303.93L112.58 303.94Z" fill="#B4CBD6"/>
</g>
<g style="mix-blend-mode:darken">
<path d="M108.79 244C108.79 244 121.66 263.23 168.85 256.32L161.07 264.32L185.66 267.88C185.66 267.88 201.66 260.34 204.46 249.23C204.46 249.23 237.08 239.42 245.69 187.66L199.69 219.66L114.76 236.56L108.79 244Z" fill="#B4CBD6"/>
</g>
<path d="M265 108.1C265 108.1 261.31 95.7599 269.13 93.8599C269.13 93.8599 277.13 91.2699 277.87 101.96C277.87 101.96 281.03 118.5 274.39 118.96C274.36 118.94 266.82 122.39 265 108.1Z" fill="white"/>
<mask id="mask3_505_567" style="mask-type:luminance" maskUnits="userSpaceOnUse" x="264" y="93" width="15" height="27">
<path d="M265 108.1C265 108.1 261.31 95.7599 269.13 93.8599C269.13 93.8599 277.13 91.2699 277.87 101.96C277.87 101.96 281.03 118.5 274.39 118.96C274.36 118.94 266.82 122.39 265 108.1Z" fill="white"/>
</mask>
<g mask="url(#mask3_505_567)">
<path d="M271.349 91.6797C273.696 95.3716 275.005 99.6272 275.139 104C275.139 104 275.299 110.93 274.359 111.36C274.359 111.36 269.859 102.85 262.859 105.13C262.859 105.13 265.299 118.83 266.229 119.07C267.159 119.31 278.589 124.44 278.589 124.44C278.589 124.44 282.829 126.22 282.829 121.83C282.829 117.44 284.659 112.7 282.179 106.6C279.699 100.5 276.809 93.5997 276.809 93.5997L271.349 91.6797Z" fill="#D3D3D3"/>
</g>
<path d="M265 108.1C265 108.1 261.31 95.7599 269.13 93.8599C269.13 93.8599 277.13 91.2699 277.87 101.96C277.87 101.96 281.03 118.5 274.39 118.96C274.36 118.94 266.82 122.39 265 108.1Z" stroke="black" stroke-width="1.5" stroke-linecap="round" stroke-linejoin="round"/>
<path d="M261.28 118.54C267.44 125.32 272.8 120.6 272.8 120.6C276.31 117.12 272.8 112.03 272.8 112.03C262.51 98.1999 251.36 109 251.36 109" fill="white"/>
<mask id="mask4_505_567" style="mask-type:luminance" maskUnits="userSpaceOnUse" x="251" y="104" width="24" height="19">
<path d="M261.28 118.54C267.44 125.32 272.8 120.6 272.8 120.6C276.31 117.12 272.8 112.03 272.8 112.03C262.51 98.1999 251.36 109 251.36 109" fill="white"/>
</mask>
<g mask="url(#mask4_505_567)">
<path d="M259.94 115.23C259.94 115.23 269.94 123.93 274.36 117.39C274.36 117.39 273.11 125.89 267.46 123.39C267.46 123.38 260.57 120.88 259.94 115.23Z" fill="#D3D3D3"/>
</g>
<path d="M261.28 118.54C267.44 125.32 272.8 120.6 272.8 120.6C276.31 117.12 272.8 112.03 272.8 112.03C262.51 98.1999 251.36 109 251.36 109" stroke="black" stroke-width="1.5" stroke-linecap="round" stroke-linejoin="round"/>
<path d="M201.52 127.51L201.12 126C189.29 104.4 181.12 104 181.12 104C168.49 105.71 162.78 125.26 162.78 125.26L162.22 127.33C160.829 127.18 159.423 127.369 158.12 127.88C145.63 130.57 145.12 129.32 145.12 129.32L143.23 130.08C143.23 130.08 133.23 110.23 120.74 111.75C120.74 111.75 109.74 112.22 105.9 139.58C105.703 140.731 105.582 141.893 105.54 143.06C104.8 143.53 100.26 147.6 100.26 147.6C88.0003 160.57 84.0003 181.85 87.1503 200.82L87.4803 202.82C91.0703 224.41 104.35 238.55 123.27 246.4C123.27 246.4 147.54 256.13 173.81 250.86C173.81 250.86 208.69 246.49 227.4 225.05C239.69 210.96 245.12 195.31 241.84 175.55C238.08 155.41 225.5 135.62 205.41 128.82C204.182 128.203 202.872 127.762 201.52 127.51Z" fill="#D5E3EC"/>
<g style="mix-blend-mode:lighten">
<path d="M164.83 127.42H162.47C162.47 127.42 168.32 107.05 178.57 104.96C178.57 105 167.87 108.25 164.83 127.42Z" fill="#EDF1F3"/>
</g>
<g style="mix-blend-mode:lighten">
<path d="M167.81 127.74C167.81 127.74 148.81 126.74 138.68 132.02C138.68 132 149.42 129.42 167.81 127.74Z" fill="#EDF1F3"/>
</g>
<path d="M90.7005 203.38C90.7005 203.38 82.1705 162.87 107.23 143.27C107.23 143.27 108.92 118.02 119.23 112.68H118.67C115.1 114.61 108.84 120.52 106.18 139.46C105.971 140.697 105.844 141.946 105.8 143.2C104.057 144.588 102.388 146.067 100.8 147.63C88.5405 160.63 84.5005 181.89 87.6605 200.86L87.9905 202.86C91.5805 224.44 104.86 238.59 123.78 246.44C128.724 248.261 133.817 249.649 139 250.59C141.14 251 143.46 251.38 145.92 251.68C144.06 251.35 95.8705 244.85 90.7005 203.38Z" fill="#EDF1F3"/>
<path d="M138.63 131.62C138.63 131.62 148.51 127.95 167.76 127.29" stroke="black" stroke-width="1.5" stroke-linecap="round" stroke-linejoin="round"/>
<path d="M196.7 245.1C189.36 247.855 181.752 249.832 174 251C147.73 256.27 123.46 246.55 123.46 246.55C104.54 238.7 91.2599 224.55 87.6799 202.96L87.3399 200.96C84.1899 181.96 89.0299 156.61 103.94 144.96" stroke="black" stroke-width="1.5" stroke-linecap="round" stroke-linejoin="round"/>
<path d="M222.81 230C216.498 235.465 209.351 239.881 201.64 243.08" stroke="black" stroke-width="1.5" stroke-linecap="round" stroke-linejoin="round"/>
<path d="M205.61 129C220.27 132.51 239.37 153.75 242.06 175.73C245.34 195.48 239.91 211.13 227.62 225.22" stroke="black" stroke-width="1.5" stroke-linecap="round" stroke-linejoin="round"/>
<path d="M141.88 127.39C141.88 127.39 131.64 110.55 121 111.85C121 111.85 109.18 112.01 106 141.12" stroke="black" stroke-width="1.5" stroke-linecap="round" stroke-linejoin="round"/>
<path d="M163.3 124.71C163.3 124.71 169.47 104.86 179.72 104.5C179.72 104.5 189.39 102.5 201.41 127.5" stroke="black" stroke-width="1.5" stroke-linecap="round" stroke-linejoin="round"/>
<path d="M118.74 214.71C129.89 214.71 138.93 205.671 138.93 194.52C138.93 183.369 129.89 174.33 118.74 174.33C107.589 174.33 98.5498 183.369 98.5498 194.52C98.5498 205.671 107.589 214.71 118.74 214.71Z" fill="#F6B8CF"/>
<path d="M204.46 199.42C215.61 199.42 224.65 190.381 224.65 179.23C224.65 168.079 215.61 159.04 204.46 159.04C193.309 159.04 184.27 168.079 184.27 179.23C184.27 190.381 193.309 199.42 204.46 199.42Z" fill="#F6B8CF"/>
<path d="M189.57 187.67C185.29 180.35 168.91 183.72 168.91 183.72L162.19 185.17L160.79 186.63L159.05 185.63L153 186.7C153 186.7 138 186.41 134.33 195.28C133.163 197.044 132.597 199.139 132.718 201.251C132.839 203.363 133.639 205.38 135 207C135 207 138.8 215.15 150.94 211.87C150.94 211.87 161.75 210.22 162.76 201.18C166.12 209.64 176.99 208.37 176.99 208.37C189.39 205.72 190.43 199.29 190.43 199.29C193.3 192 189.57 187.67 189.57 187.67Z" fill="white"/>
<path d="M153 186.7C153 186.7 138 186.31 133.89 196.22C133.079 198.445 132.93 200.857 133.463 203.165C133.995 205.472 135.186 207.575 136.89 209.22C136.89 209.22 142.24 214.42 151.57 212.33C151.57 212.33 162.27 209.84 162.8 201.14" stroke="black" stroke-width="1.5" stroke-linecap="round" stroke-linejoin="round"/>
<path d="M167.35 184.33C167.35 184.33 181.42 179.13 188.5 187.2C189.99 189.039 190.913 191.272 191.156 193.626C191.4 195.981 190.953 198.355 189.87 200.46C189.87 200.46 186.47 207.11 176.98 208.13C176.98 208.13 166.04 209.22 162.74 201.13" stroke="black" stroke-width="1.5" stroke-linecap="round" stroke-linejoin="round"/>
<path d="M159.64 184.09C159.42 184.09 156.01 184.69 155.8 185.94C155.8 185.94 155.1 188.25 160.36 187.56C160.36 187.56 164.75 187 164.36 184.81C164.32 184.81 164 183.39 159.64 184.09Z" fill="black"/>
<path d="M143.93 195.53C136.486 192.973 128.45 192.68 120.84 194.69" stroke="black" stroke-width="1.5" stroke-linecap="round" stroke-linejoin="round"/>
<path d="M144.26 202.05C144.26 202.05 130.56 204.66 123.91 211.63" stroke="black" stroke-width="1.5" stroke-linecap="round" stroke-linejoin="round"/>
<path d="M178 190.56C184.296 185.837 191.851 183.088 199.71 182.66" stroke="black" stroke-width="1.5" stroke-linecap="round" stroke-linejoin="round"/>
<path d="M179.64 196.86C179.64 196.86 193.48 195.14 201.95 199.72" stroke="black" stroke-width="1.5" stroke-linecap="round" stroke-linejoin="round"/>
<path d="M147.49 141.6C145.725 140.427 143.586 139.953 141.49 140.27" stroke="black" stroke-width="1.5" stroke-linecap="round" stroke-linejoin="round"/>
<path d="M158.74 139.74C160.031 138.075 161.889 136.943 163.96 136.56" stroke="black" stroke-width="1.5" stroke-linecap="round" stroke-linejoin="round"/>
<path d="M132.34 130.5C133.08 128.3 128.77 113.5 120.53 115.06C120.53 115.06 114.24 114.83 110.47 133.06C110.47 133.06 109.06 139.73 115.06 139.06C115.47 139.34 122.52 136.47 128.97 133.83C129.737 133.548 130.434 133.104 131.016 132.53C131.597 131.955 132.049 131.263 132.34 130.5Z" fill="#F9D5E1"/>
<path d="M173.63 125.37C172.15 123.58 172.54 108.7 179.15 106.73C179.15 106.73 184.94 104.27 194.96 119.95C194.96 119.95 198.66 125.68 192.82 127.19C192.54 127.59 184.92 127.43 177.96 127.27C177.144 127.28 176.336 127.116 175.589 126.789C174.843 126.461 174.174 125.977 173.63 125.37Z" fill="#F9D5E1"/>
<path d="M120.53 115.06C120.53 115.06 124.3 112.42 130.29 122.34C130.29 122.34 136.11 131.21 127.66 134.34" stroke="black" stroke-width="1.5" stroke-linecap="round" stroke-linejoin="round"/>
<path d="M126 135C126 135 125.41 135.3 123.65 136" stroke="black" stroke-width="1.5" stroke-linecap="round" stroke-linejoin="round"/>
<path d="M180.24 106.48C180.24 106.48 175.88 105 172.93 116.22C172.93 116.22 169.84 126.36 178.84 127.01" stroke="black" stroke-width="1.5" stroke-linecap="round" stroke-linejoin="round"/>
<path d="M180.61 127.19C180.61 127.19 181.26 127.3 183.13 127.45" stroke="black" stroke-width="1.5" stroke-linecap="round" stroke-linejoin="round"/>
<path d="M176.09 262.46L176.03 262.34L175.13 262.7L176.09 262.46Z" fill="#D5E3EC"/>
<g style="mix-blend-mode:darken">
<path d="M139.21 131.55C139.21 131.55 141.13 127.76 132.37 116.7C132.37 116.7 141.12 124.57 143.48 130.19L139.21 131.55Z" fill="#B4CBD6"/>
</g>
<g style="mix-blend-mode:darken">
<path d="M145.92 251.68C145.92 251.68 228.29 258.58 242.05 196.99C242.05 197 231.17 249.94 145.92 251.68Z" fill="#B4CBD6"/>
</g>
<g style="mix-blend-mode:darken">
<path d="M141.92 212C141.92 212 147.08 215.11 155.92 212.42C158.927 211.342 161.543 209.388 163.43 206.81C163.43 206.81 168.96 212.06 178.95 208.2C180.969 207.762 182.836 206.796 184.36 205.4C184.36 205.4 173.99 213.4 163.45 202.56L162.55 202.66C162.55 202.66 159 216 141.92 212Z" fill="#B4CBD6"/>
</g>
<path d="M147 183.22L151.57 185.08C151.57 185.08 143.36 186.68 143.31 186.38C143.061 186.401 142.812 186.339 142.601 186.206C142.39 186.072 142.228 185.874 142.14 185.64L141.27 185.76C141.27 185.76 140.91 185.13 142.52 184.22C143.877 183.44 145.439 183.091 147 183.22Z" fill="#D5E3EC"/>
<path d="M172.85 179.14L169.07 182.32C169.07 182.32 177.37 181.32 177.33 181C177.574 180.947 177.793 180.813 177.953 180.621C178.112 180.429 178.203 180.189 178.21 179.94L179.09 179.78C179.09 179.78 179.23 179.08 177.42 178.71C175.889 178.387 174.295 178.537 172.85 179.14Z" fill="#D5E3EC"/>
<path d="M142.43 170.09C142.43 170.09 127.13 169.09 126.53 174.7C126.53 174.7 125.08 181.86 137.6 189.17C135.77 188.1 148.36 196.34 156.12 183.09C156.12 183.09 161.64 170.3 142.43 170.09Z" fill="black"/>
<path d="M173.2 166.44C173.2 166.44 187.84 161.88 189.74 167.19C189.74 167.19 192.82 173.81 182.36 183.85C183.89 182.38 173.59 193.34 162.94 182.28C162.94 182.28 154.57 171.14 173.2 166.44Z" fill="black"/>
<path d="M155.2 178.69C155.2 178.69 158.82 174.88 163.2 177.69" stroke="black" stroke-width="1.5" stroke-linecap="round" stroke-linejoin="round"/>
<path d="M169.48 314C191.33 319 207.06 300 207.06 300C231.76 285 223.17 277.45 223.17 277.45C218.34 272.62 214.58 277.45 214.58 277.45C211.36 281.21 203.3 284.97 203.3 284.97C204.91 276.91 195.79 273.69 195.79 273.69C194.18 265.1 187.02 265.4 187.02 265.4C206.02 250.07 198.56 244.61 198.56 244.61C191.49 237.18 172.06 260.76 172.06 260.76C151.01 260.17 150.15 282.28 150.15 282.28C150.15 282.28 143.71 308.09 169.48 314Z" fill="white"/>
<mask id="mask5_505_567" style="mask-type:luminance" maskUnits="userSpaceOnUse" x="149" y="243" width="76" height="72">
<path d="M169.48 314C191.33 319 207.06 300 207.06 300C231.76 285 223.17 277.45 223.17 277.45C218.34 272.62 214.58 277.45 214.58 277.45C211.36 281.21 203.3 284.97 203.3 284.97C204.91 276.91 195.79 273.69 195.79 273.69C194.18 265.1 187.02 265.4 187.02 265.4C206.02 250.07 198.56 244.61 198.56 244.61C191.49 237.18 172.06 260.76 172.06 260.76C151.01 260.17 150.15 282.28 150.15 282.28C150.15 282.28 143.71 308.09 169.48 314Z" fill="white"/>
</mask>
<g mask="url(#mask5_505_567)">
<path d="M155.2 308.941C155.2 308.941 184.38 318.091 208.83 295.521C208.83 295.521 225.35 282.751 224.3 272.831L231.41 286.741C231.41 286.741 217 309.311 215.1 309.311C213.2 309.311 167.81 320.101 167.81 320.101L155.2 308.941Z" fill="#D3D3D3"/>
<path d="M198.521 241.73C198.521 241.73 200.781 250.89 184.271 265.21C184.271 265.21 192.62 267.57 193.98 269.21C193.98 269.21 205.831 253.99 205.611 251.73C205.391 249.47 198.521 241.73 198.521 241.73Z" fill="#D3D3D3"/>
<path d="M175.13 257.31L166.88 267.91C166.88 267.91 167.01 263.78 170.52 257.23" fill="#D3D3D3"/>
</g>
<path d="M169.48 314C191.33 319 207.06 300 207.06 300C231.76 285 223.17 277.45 223.17 277.45C218.34 272.62 214.58 277.45 214.58 277.45C211.36 281.21 203.3 284.97 203.3 284.97C204.91 276.91 195.79 273.69 195.79 273.69C194.18 265.1 187.02 265.4 187.02 265.4C206.02 250.07 198.56 244.61 198.56 244.61C191.49 237.18 172.06 260.76 172.06 260.76C151.01 260.17 150.15 282.28 150.15 282.28C150.15 282.28 143.71 308.09 169.48 314Z" stroke="black" stroke-width="1.5" stroke-linecap="round" stroke-linejoin="round"/>
<path d="M97.5303 354.13C97.5303 354.13 147.28 368.72 178.09 313.88C178.09 313.88 178.71 284.3 149.74 284.3C149.74 284.3 128.09 307.96 110.27 303.53" fill="#D5E3EC"/>
<path d="M97.5303 354.13C97.5303 354.13 147.28 368.72 178.09 313.88C178.09 313.88 178.71 284.3 149.74 284.3C149.74 284.3 128.09 307.96 110.27 303.53" stroke="black" stroke-width="1.5" stroke-linecap="round" stroke-linejoin="round"/>
<path d="M166.88 267.91C166.88 267.91 167.26 266.26 172.06 260.8" stroke="black" stroke-width="1.5" stroke-linecap="round" stroke-linejoin="round"/>
<path d="M32.4021 124.032C32.6429 123.747 32.9168 123.695 33.2237 123.876C33.5307 124.057 33.7518 124.402 33.8872 124.91C34.2335 126.414 34.6357 127.258 35.0937 127.444C35.4825 127.587 36.1688 127.73 37.1526 127.871C38.1569 128.003 39.1777 128.091 40.215 128.133C41.6143 128.207 42.6256 128.274 43.249 128.334C44.0234 128.399 44.653 128.418 45.1379 128.393C45.8242 128.374 46.1996 128.462 46.2641 128.655C46.3664 128.931 45.9603 129.18 45.0458 129.404C44.8018 129.467 44.5484 129.509 44.2855 129.531C43.445 129.646 42.7917 129.737 42.3258 129.803C40.6651 130.023 38.8148 130.021 36.7748 129.796C35.5486 129.666 34.919 129.647 34.886 129.737C34.8624 129.847 34.9261 130.55 35.0772 131.845C35.2252 133.241 35.2976 133.99 35.2944 134.09C35.3228 134.474 35.3779 134.97 35.4597 135.578C35.6313 136.864 35.6612 138.166 35.5494 139.483C35.4581 140.791 35.2795 141.507 35.0135 141.629C34.7065 141.771 34.5633 141.192 34.5837 139.892C34.5869 139.146 34.5735 138.606 34.5436 138.272C34.5043 137.918 34.3547 137.056 34.095 135.687C33.8368 134.267 33.6834 133.369 33.6346 132.995C33.2521 130.391 32.8515 128.206 32.4328 126.438C32.2628 125.747 32.1731 125.23 32.1636 124.887C32.1746 124.534 32.2541 124.249 32.4021 124.032ZM50.4173 129.829C51.3208 128.99 51.8253 128.658 51.9307 128.832C52.0378 129.279 50.651 131.222 47.7705 134.662C46.4498 136.264 44.3138 139.596 41.3625 144.656C40.8178 145.628 40.4668 146.212 40.3094 146.408C40.215 146.526 39.9513 146.896 39.5184 147.518C38.0514 149.61 37.0818 150.306 36.6096 149.605C36.4364 149.338 36.926 148.193 38.0782 146.172C39.2414 144.121 40.673 141.872 42.373 139.424C44.0935 136.967 45.5652 135.047 46.7883 133.663C47.2904 133.084 47.7075 132.643 48.0397 132.341C48.3623 132.018 48.6701 131.69 48.9628 131.356C49.3815 130.865 49.8664 130.356 50.4173 129.829ZM64.4533 107.601C64.6044 107.283 64.7988 107.193 65.0365 107.332C65.2852 107.44 65.652 107.805 66.1368 108.425C67.4637 110.171 68.5593 111.576 69.4234 112.642C69.9177 113.283 70.4261 113.954 70.9487 114.656C71.0746 114.821 71.3068 115.136 71.6452 115.6C71.9837 116.065 72.2308 116.385 72.3866 116.561C72.8132 117.109 73.1697 117.64 73.4562 118.153C73.686 118.543 73.8458 118.755 73.9355 118.788C74.0362 118.791 74.2125 118.635 74.4644 118.32C75.1334 117.565 75.6449 117.329 75.9991 117.612C76.3533 117.895 77.0813 119.123 78.1831 121.295C78.4019 121.716 78.1611 122.485 77.4606 123.602C76.7602 124.72 75.4993 126.344 73.6781 128.475C73.2799 128.957 73.0886 129.269 73.1044 129.41C73.128 129.623 73.6718 130.129 74.7359 130.929C74.983 131.088 75.131 131.193 75.1798 131.245C75.2097 131.256 75.264 131.293 75.3427 131.356C75.4891 131.512 75.6355 131.506 75.7819 131.34C75.9692 131.154 76.6311 130.141 77.7676 128.301C78.1076 127.747 78.3783 127.311 78.5798 126.995C79.8863 124.878 80.6284 123.716 80.8063 123.51C80.9731 123.334 81.1628 123.234 81.3753 123.21C81.5784 123.166 81.7177 123.226 81.7932 123.39C81.9255 123.676 81.7374 124.21 81.2289 124.991C81.081 125.208 80.8236 125.699 80.4569 126.464C80.1106 127.219 79.9146 127.682 79.8689 127.852C79.7902 128.112 79.2881 129.014 78.3626 130.558C78.0871 130.983 77.7463 131.562 77.3402 132.296C77.1057 132.702 76.8947 132.998 76.7074 133.184C76.55 133.38 76.369 133.526 76.1644 133.62C75.9597 133.715 75.6937 133.676 75.3663 133.505C75.0389 133.333 74.6777 133.115 74.2826 132.851C73.9174 132.597 73.4003 132.203 72.7313 131.668C72.2686 131.31 71.9341 131.043 71.7279 130.865C71.5122 130.667 71.3328 130.439 71.1895 130.183C71.0369 129.906 70.9629 129.691 70.9676 129.54C70.9723 129.389 71.066 129.135 71.2486 128.778C71.4516 128.411 71.6688 128.075 71.9002 127.77C72.1316 127.464 72.5039 127.007 73.017 126.398C74.6005 124.451 75.508 123.324 75.7394 123.019L76.6508 121.928L76.0817 120.776C75.7496 120.11 75.534 119.75 75.4348 119.697C75.3262 119.623 75.1515 119.728 74.9106 120.013C74.6383 120.338 74.4187 120.588 74.2519 120.764C73.7183 121.383 73.4357 121.712 73.4042 121.751C72.9966 122.212 72.7723 122.452 72.7313 122.471C72.6904 122.49 72.4818 122.71 72.1056 123.132C71.7389 123.575 71.5453 123.801 71.5248 123.81C71.5043 123.819 71.2588 124.094 70.7881 124.634C70.338 125.164 70.0137 125.537 69.8154 125.753C69.7634 125.802 69.6532 125.94 69.4848 126.166C69.307 126.373 69.1763 126.52 69.0929 126.608C68.7466 127.041 68.457 127.274 68.224 127.307C67.991 127.34 67.7896 127.172 67.6196 126.804C67.4118 126.354 67.6424 125.751 68.3114 124.995C69.1913 123.944 69.813 123.247 70.1766 122.906C70.4788 122.592 70.6512 122.401 70.6937 122.332C70.7362 122.263 70.9188 122.067 71.2415 121.744C71.72 121.275 72.3622 120.569 73.1681 119.626C73.398 119.371 73.4593 119.181 73.3523 119.057C73.0123 118.643 72.3669 117.998 71.4162 117.121C71.3768 117.089 71.1037 116.794 70.5969 116.233C69.2149 114.637 68.3515 113.708 68.0068 113.445C67.9281 113.382 67.7659 113.568 67.5204 114.004C66.7837 115.312 66.195 116.242 65.7543 116.793C65.3246 117.314 64.9586 117.57 64.6564 117.56C64.3841 117.562 64.2503 117.648 64.255 117.82C64.2392 118.001 64.3542 118.68 64.5997 119.857C64.7776 120.619 64.8933 121.435 64.9468 122.304C64.9909 123.152 64.9688 123.857 64.8807 124.419C64.813 124.972 64.6894 125.215 64.51 125.149C64.4502 125.127 64.34 124.78 64.1794 124.11C64.0299 123.409 63.9315 122.847 63.8843 122.422C63.8512 122.189 63.5309 121.145 62.9233 119.291C62.3268 117.407 61.8837 116.097 61.594 115.362C61.3894 114.811 61.221 114.554 61.0887 114.59C60.9565 114.626 60.6527 114.99 60.1774 115.681C59.6485 116.471 59.2172 117.042 58.8835 117.395C58.5183 117.787 58.3184 118.053 58.2838 118.193C58.2696 118.324 58.3711 118.624 58.5883 119.095C58.9756 119.934 59.4431 121.269 59.9908 123.102C60.5386 124.934 60.9707 126.596 61.2871 128.088C61.3469 128.433 61.3815 128.938 61.391 129.604C61.391 130.249 61.3642 130.622 61.3107 130.721C61.2052 130.869 61.1053 130.841 61.0108 130.636C60.9353 130.472 60.8062 130.085 60.6236 129.474C60.1309 127.815 59.41 125.715 58.4608 123.175C57.5022 120.614 56.9434 119.296 56.7845 119.22C56.6349 119.165 56.4665 119.23 56.2792 119.416C56.1123 119.592 55.4992 120.334 54.4399 121.642C53.2137 123.127 52.4393 123.869 52.1166 123.869C51.945 123.874 51.7648 123.671 51.5759 123.262C51.4153 122.914 51.3744 122.611 51.4531 122.351C51.5318 122.091 51.7537 121.765 52.1189 121.373C52.4841 120.981 52.7092 120.716 52.7942 120.578C53.2412 119.825 54.0117 118.886 55.1057 117.761C56.2107 116.605 56.8671 116.092 57.0749 116.219C57.2827 116.347 57.6352 116.035 58.1327 115.284C58.7245 114.415 59.2195 113.74 59.6178 113.258C60.027 112.747 60.3969 112.365 60.7275 112.113C61.0785 111.852 61.3681 111.78 61.5964 111.898C61.8451 112.007 62.0851 112.231 62.3165 112.571C62.5684 112.902 62.7895 113.408 62.98 114.089C63.4963 115.638 63.804 116.439 63.9032 116.493C64.0149 116.466 64.2408 116.176 64.5808 115.622C64.9413 115.058 65.3773 114.497 65.8889 113.938C66.5153 113.252 66.8648 112.88 66.9372 112.821C67.0631 112.664 67.1127 112.529 67.0859 112.418C67.0592 112.306 66.9388 112.126 66.7247 111.877C64.8138 109.78 64.0567 108.355 64.4533 107.601ZM80.9846 114.529L88.6889 110.973C93.8251 108.603 96.4986 107.431 96.7095 107.458C97.1629 107.472 97.4651 107.643 97.6162 107.97C97.7579 108.277 97.6823 108.597 97.3895 108.931C97.2542 109.068 94.7923 110.241 90.004 112.451C85.2362 114.652 82.5469 115.844 81.9361 116.026C81.4167 116.191 81.0625 116.231 80.8736 116.144C80.6848 116.058 80.5817 115.969 80.5643 115.877C80.5675 115.777 80.6352 115.547 80.7674 115.188L80.9846 114.529Z" fill="#191504"/>
<path d="M258.69 16.7803H15.3799V66.9503H258.69V16.7803Z" fill="white" stroke="#231F20" stroke-width="2" stroke-miterlimit="10"/>
<path d="M42.3485 32.4344H40.8296L37.8145 32.4798H36.2956C36.1293 32.4798 35.948 32.4798 35.7515 32.4798C35.555 32.4646 35.3737 32.4344 35.2074 32.3891C35.0412 32.3286 34.9052 32.2379 34.7994 32.117C34.6936 31.981 34.6407 31.7921 34.6407 31.5503C34.6407 31.3236 34.7087 31.1196 34.8447 30.9382C34.9807 30.7568 35.1545 30.6284 35.3661 30.5528C35.5324 30.4772 35.7288 30.447 35.9555 30.4621C36.1822 30.4621 36.3787 30.4621 36.545 30.4621H42.6205C42.8472 30.4621 43.0739 30.4848 43.3006 30.5301C43.5273 30.5604 43.7389 30.6284 43.9354 30.7342C44.1319 30.8249 44.2905 30.9609 44.4115 31.1422C44.5324 31.3085 44.5928 31.5276 44.5928 31.7997C44.5928 31.9508 44.5701 32.117 44.5248 32.2984C44.9177 32.2682 45.2427 32.2606 45.4996 32.2757C45.7717 32.2757 46.0739 32.2682 46.4064 32.2531C46.5122 32.2531 46.6104 32.2531 46.7011 32.2531C46.8069 32.2379 46.9127 32.2304 47.0185 32.2304L48.22 32.1851C48.3258 32.1851 48.424 32.1851 48.5147 32.1851C48.6205 32.1699 48.7263 32.1624 48.8321 32.1624C48.817 31.981 48.8019 31.8072 48.7868 31.641C48.7868 31.4596 48.7868 31.2783 48.7868 31.0969C48.7868 30.7946 48.9001 30.5377 49.1268 30.3261C49.3686 30.1145 49.6331 30.0087 49.9203 30.0087C50.3434 30.0087 50.6381 30.1901 50.8044 30.5528C50.8497 30.6586 50.8875 30.9609 50.9177 31.4596C50.948 31.9584 50.9631 32.51 50.9631 33.1145C50.9782 33.7039 50.9858 34.2707 50.9858 34.8148C51.0009 35.3589 51.0084 35.7367 51.0084 35.9483C51.0386 36.5226 51.0613 37.0969 51.0764 37.6712C51.1067 38.2455 51.1218 38.8198 51.1218 39.3941C51.1218 39.7417 51.0235 40.0591 50.8271 40.3463C50.6457 40.6183 50.3585 40.7543 49.9656 40.7543C49.7087 40.7543 49.482 40.6712 49.2855 40.5049C49.1041 40.3387 49.0135 40.1196 49.0135 39.8475V38.3966L48.9908 38.2153V38.1246C48.7339 38.1397 48.4769 38.1473 48.22 38.1473C47.9631 38.1321 47.7062 38.1246 47.4492 38.1246C46.89 38.1548 46.3686 38.185 45.885 38.2153C45.4014 38.2304 44.8573 38.2379 44.2528 38.2379C43.9958 38.2379 43.7691 38.1548 43.5727 37.9886C43.3913 37.8223 43.3006 37.6032 43.3006 37.3311C43.3006 37.1196 43.3611 36.9231 43.482 36.7417C43.618 36.5604 43.7842 36.4319 43.9807 36.3563C44.1016 36.2959 44.2225 36.2657 44.3434 36.2657C44.7968 36.2203 45.1898 36.1976 45.5223 36.1976C45.8548 36.1976 46.2175 36.1976 46.6104 36.1976C46.7162 36.1976 46.8145 36.1976 46.9052 36.1976C47.0109 36.1825 47.1092 36.175 47.1999 36.175L48.356 36.1296C48.4618 36.1296 48.5601 36.1296 48.6507 36.1296C48.7414 36.1145 48.8321 36.107 48.9228 36.107V35.9256L48.9001 35.5629V35.3815L48.8774 34.18H48.4467L47.6079 34.2027H47.1772C46.6029 34.2178 46.0739 34.2405 45.5903 34.2707C45.1067 34.3009 44.5475 34.316 43.9127 34.316H43.7994C43.5122 35.0112 43.1948 35.6384 42.8472 36.1976C42.4996 36.7568 42.1067 37.2782 41.6684 37.7619C41.2452 38.2304 40.7616 38.6762 40.2175 39.0994C39.6885 39.5226 39.0916 39.9382 38.4266 40.3463C38.215 40.4672 37.9505 40.6258 37.6331 40.8223C37.3309 41.0037 37.0588 41.0944 36.817 41.0944C36.5601 41.0944 36.3334 41.0112 36.1369 40.845C35.9555 40.6787 35.8649 40.4596 35.8649 40.1876C35.8649 40.0062 35.9026 39.8475 35.9782 39.7115C36.0689 39.5755 36.1747 39.4621 36.2956 39.3714C36.4165 39.2656 36.5525 39.175 36.7036 39.0994C36.8548 39.0238 36.9984 38.9483 37.1344 38.8727C37.3309 38.7518 37.5273 38.6384 37.7238 38.5327C37.9203 38.4117 38.1092 38.2833 38.2906 38.1473C38.8497 37.7694 39.3334 37.3765 39.7414 36.9684C40.1646 36.5604 40.5273 36.1296 40.8296 35.6762C41.147 35.2228 41.419 34.7316 41.6457 34.2027C41.8875 33.6737 42.1142 33.0919 42.3258 32.4571H42.3485V32.4344ZM48.7868 43.4747C47.7591 43.4747 46.7389 43.4747 45.7263 43.4747C44.7288 43.4596 43.7162 43.4596 42.6885 43.4747C42.0538 43.4898 41.419 43.5125 40.7843 43.5427C40.1646 43.5578 39.5374 43.5654 38.9026 43.5654C38.6457 43.5654 38.419 43.4823 38.2225 43.316C38.0412 43.1498 37.9505 42.9306 37.9505 42.6586C37.9505 42.4319 38.0185 42.2279 38.1545 42.0465C38.2905 41.8651 38.4644 41.7367 38.6759 41.6611C38.7515 41.6309 38.9631 41.6082 39.3107 41.5931C39.6583 41.5629 40.0664 41.5402 40.5349 41.5251C41.0185 41.51 41.5324 41.5024 42.0764 41.5024C42.6205 41.4873 43.1419 41.4798 43.6407 41.4798C44.1394 41.4798 44.5777 41.4798 44.9555 41.4798C45.3334 41.4798 45.5978 41.4798 45.749 41.4798H49.0135C49.4215 41.4798 49.7465 41.5478 49.9883 41.6838C50.2452 41.8198 50.4417 42.0012 50.5777 42.2279C50.7137 42.4546 50.8044 42.7266 50.8497 43.044C50.8951 43.3462 50.9177 43.6712 50.9177 44.0188C50.9177 44.185 50.9102 44.3437 50.8951 44.4949C50.8951 44.6309 50.8875 44.7745 50.8724 44.9256C50.8422 45.2127 50.8119 45.4697 50.7817 45.6964C50.7515 45.9231 50.6835 46.1195 50.5777 46.2858C50.4719 46.4369 50.3208 46.5578 50.1243 46.6485C49.9278 46.7241 49.6558 46.7619 49.3082 46.7619C48.1293 46.7619 46.958 46.7845 45.7943 46.8299C44.6306 46.8752 43.4593 46.8979 42.2805 46.8979C41.8875 46.8979 41.4946 46.8979 41.1016 46.8979C40.7087 46.8828 40.3157 46.8903 39.9228 46.9206C39.9379 47.1473 39.9606 47.374 39.9908 47.6007C40.0361 47.8274 40.0966 48.0465 40.1722 48.2581C40.278 48.3185 40.4215 48.3639 40.6029 48.3941C40.7843 48.4243 40.9807 48.447 41.1923 48.4621C41.4039 48.4772 41.6079 48.4848 41.8044 48.4848C42.0009 48.4999 42.1596 48.5075 42.2805 48.5075H43.7313L46.6331 48.4621H50.0336C50.1999 48.4621 50.3661 48.4697 50.5324 48.4848C50.6986 48.4999 50.8422 48.5377 50.9631 48.5981C51.0991 48.6586 51.2049 48.7493 51.2805 48.8702C51.3711 48.9911 51.4165 49.1573 51.4165 49.3689C51.4165 49.6712 51.2956 49.9281 51.0538 50.1397C50.8271 50.3513 50.5701 50.4571 50.283 50.4571C48.9077 50.4571 47.5399 50.4646 46.1797 50.4797C44.8195 50.4949 43.4518 50.5024 42.0764 50.5024C41.7893 50.5024 41.4568 50.4949 41.079 50.4797C40.7162 50.4646 40.3535 50.4193 39.9908 50.3437C39.6432 50.2682 39.3183 50.1548 39.016 50.0037C38.7137 49.8525 38.4795 49.6334 38.3132 49.3462C38.1923 49.1649 38.1092 48.9684 38.0638 48.7568C38.0185 48.5603 37.9807 48.3563 37.9505 48.1447C37.9203 47.9785 37.89 47.8122 37.8598 47.646C37.8296 47.4797 37.8145 47.3059 37.8145 47.1246C37.8145 46.52 37.9958 46.0213 38.3586 45.6284C38.7364 45.2354 39.2351 45.0087 39.8548 44.9483C39.9757 44.9331 40.089 44.9256 40.1948 44.9256C40.3006 44.9256 40.414 44.9256 40.5349 44.9256C41.9253 44.9256 43.3006 44.918 44.6608 44.9029C46.0361 44.8727 47.4114 44.8425 48.7868 44.8122C48.8019 44.6611 48.8094 44.5175 48.8094 44.3815C48.8245 44.2304 48.8321 44.0792 48.8321 43.9281C48.8321 43.8525 48.8321 43.777 48.8321 43.7014C48.8321 43.6258 48.817 43.5503 48.7868 43.4747ZM67.1424 45.4697C65.1021 45.4697 63.0618 45.515 61.0215 45.6057C60.5832 45.6208 60.1449 45.6435 59.7066 45.6737C59.2834 45.7039 58.8527 45.719 58.4144 45.719C58.1575 45.719 57.9308 45.6359 57.7343 45.4697C57.553 45.3034 57.4623 45.0843 57.4623 44.8122C57.4623 44.5855 57.5303 44.3815 57.6663 44.2002C57.8023 44.0188 57.9761 43.8903 58.1877 43.8148C58.2784 43.7845 58.4749 43.7543 58.7771 43.7241C59.0945 43.6939 59.4724 43.6712 59.9106 43.6561C60.364 43.6258 60.8552 43.6032 61.3842 43.5881C61.9283 43.5729 62.4724 43.5578 63.0164 43.5427C63.0164 43.0138 63.0164 42.4848 63.0164 41.9558C63.0315 41.4117 63.0391 40.8752 63.0391 40.3463V40.2782C61.9509 40.2782 60.8779 40.2858 59.82 40.3009C58.762 40.3009 57.6965 40.3009 56.6235 40.3009C56.4572 40.3009 56.2683 40.3009 56.0567 40.3009C55.8452 40.3009 55.6487 40.2782 55.4673 40.2329C55.286 40.1876 55.1348 40.1044 55.0139 39.9835C54.893 39.8475 54.8326 39.651 54.8326 39.3941C54.8326 39.1523 54.9081 38.9407 55.0593 38.7594C55.2104 38.578 55.3918 38.4495 55.6033 38.374C55.6638 38.3437 55.7167 38.3286 55.762 38.3286C55.8225 38.3286 55.8754 38.3211 55.9207 38.306C56.4044 38.2757 56.8955 38.2682 57.3943 38.2833C57.893 38.2984 58.3842 38.306 58.8678 38.306H61.2255L65.9182 38.2833H68.2532H68.9333V37.0138L68.8653 34.7694V33.5226C68.8653 33.311 68.8653 33.1145 68.8653 32.9332C68.8804 32.7367 68.8729 32.5327 68.8426 32.3211C68.5404 32.2908 68.2305 32.2757 67.9132 32.2757C67.6109 32.2757 67.3086 32.2757 67.0064 32.2757C65.6159 32.2757 64.2331 32.2984 62.8577 32.3437C61.4824 32.3891 60.0996 32.4118 58.7091 32.4118C58.4522 32.4118 58.2255 32.3286 58.029 32.1624C57.8477 31.9961 57.757 31.777 57.757 31.505C57.757 31.2783 57.825 31.0742 57.961 30.8929C58.097 30.7115 58.2708 30.583 58.4824 30.5075C58.5731 30.4772 58.6789 30.4546 58.7998 30.4395C58.9358 30.4243 59.0794 30.4168 59.2305 30.4168C59.3817 30.4017 59.5253 30.3941 59.6613 30.3941C59.8124 30.3941 59.9333 30.3941 60.024 30.3941C61.2331 30.3941 62.427 30.379 63.6059 30.3488C64.7998 30.3034 66.0013 30.2808 67.2104 30.2808C67.4673 30.2808 67.7318 30.2808 68.0038 30.2808C68.2759 30.2808 68.5404 30.2959 68.7973 30.3261C69.0693 30.3412 69.3263 30.3715 69.5681 30.4168C69.8099 30.4621 70.0215 30.5377 70.2028 30.6435C70.3842 30.7342 70.5353 30.8777 70.6562 31.0742C70.7771 31.2556 70.8603 31.505 70.9056 31.8223C70.9358 32.0339 70.9509 32.2455 70.9509 32.4571C70.966 32.6536 70.9736 32.8576 70.9736 33.0692V34.5427L71.0416 37.2405V38.306C71.6461 38.3211 72.1978 38.3362 72.6965 38.3513C73.1953 38.3513 73.4824 38.3664 73.558 38.3966C73.9509 38.5629 74.1474 38.8425 74.1474 39.2354C74.1474 39.5377 74.0265 39.7946 73.7847 40.0062C73.558 40.2178 73.3011 40.3236 73.0139 40.3236C71.6839 40.3236 70.3691 40.316 69.0693 40.3009C67.7696 40.2858 66.4623 40.2782 65.1474 40.2782C65.1474 40.7619 65.1399 41.2455 65.1247 41.7291C65.1247 42.2127 65.1247 42.6964 65.1247 43.18V43.5201C65.5479 43.5201 65.9106 43.5201 66.2129 43.5201C66.5303 43.5049 66.7721 43.4974 66.9383 43.4974C67.1802 43.4974 67.422 43.5049 67.6638 43.5201C67.9056 43.5201 68.155 43.5201 68.4119 43.5201C68.6688 43.5201 68.9333 43.5352 69.2053 43.5654C69.4774 43.5805 69.7343 43.6258 69.9761 43.7014C70.2179 43.777 70.4295 43.8979 70.6109 44.0641C70.8074 44.2304 70.9585 44.4571 71.0643 44.7442C71.1399 44.9558 71.1776 45.1825 71.1776 45.4243C71.1927 45.651 71.2003 45.8702 71.2003 46.0818C71.2003 47.1095 71.1776 48.1296 71.1323 49.1422C71.1323 49.4445 71.1096 49.709 71.0643 49.9357C71.0189 50.1775 70.8527 50.3815 70.5655 50.5478C70.3691 50.6687 70.1726 50.7291 69.9761 50.7291C69.7192 50.7291 69.4925 50.646 69.296 50.4797C69.1147 50.3135 69.024 50.0944 69.024 49.8223V49.5729L69.0467 49.0969V48.8475C69.0618 48.4394 69.0693 48.0238 69.0693 47.6007C69.0844 47.1926 69.092 46.777 69.092 46.3538C69.092 46.2329 69.092 46.1044 69.092 45.9684C69.092 45.8324 69.0769 45.6964 69.0467 45.5604C68.956 45.5452 68.8275 45.5301 68.6613 45.515C68.495 45.4999 68.3137 45.4923 68.1172 45.4923C67.9358 45.4772 67.7545 45.4697 67.5731 45.4697C67.3917 45.4697 67.2482 45.4697 67.1424 45.4697ZM93.2765 50.2304C92.8986 50.2304 92.6493 50.1246 92.5283 49.913C92.4074 49.7014 92.3394 49.4369 92.3243 49.1195C92.3092 48.8022 92.2941 48.4848 92.279 48.1674C92.279 47.85 92.2714 47.5251 92.2563 47.1926L92.2336 45.243C92.2034 43.8828 92.1656 42.5301 92.1203 41.185C92.0749 39.84 92.0296 38.4873 91.9843 37.1271L91.8709 33.2279C91.8558 32.9105 91.8407 32.5931 91.8256 32.2757C91.8256 31.9584 91.8256 31.6334 91.8256 31.3009C91.8256 30.9987 91.9389 30.7493 92.1656 30.5528C92.4074 30.3412 92.6719 30.2354 92.9591 30.2354C93.352 30.2354 93.609 30.3488 93.7299 30.5755C93.8508 30.8022 93.9188 31.0667 93.9339 31.3689C93.9792 33.3639 94.0321 35.3513 94.0926 37.3311C94.153 39.2959 94.2135 41.2682 94.2739 43.248C94.3042 44.2455 94.3344 45.2354 94.3646 46.2178C94.41 47.185 94.4326 48.1674 94.4326 49.1649C94.4326 49.4671 94.3117 49.7165 94.0699 49.913C93.8432 50.1246 93.5787 50.2304 93.2765 50.2304ZM88.2664 31.3236C88.2664 31.0213 88.3797 30.772 88.6064 30.5755C88.8482 30.3639 89.1203 30.2581 89.4226 30.2581C89.7399 30.2581 89.9742 30.3563 90.1253 30.5528C90.2916 30.7342 90.3747 30.976 90.3747 31.2783V35.5856L90.4427 44.2228V48.5301C90.4427 48.8324 90.3218 49.0893 90.08 49.3009C89.8533 49.5125 89.5888 49.6183 89.2865 49.6183C88.9692 49.6183 88.7273 49.52 88.5611 49.3236C88.41 49.1422 88.3344 48.9004 88.3344 48.5981V44.2682L88.2891 38.8727H87.881C87.8357 38.8727 87.7903 38.8803 87.745 38.8954C87.7148 38.8954 87.677 38.8954 87.6316 38.8954H87.1102C87.0649 38.8954 87.0195 38.9029 86.9742 38.918C86.944 38.918 86.9062 38.918 86.8608 38.918V39.1901C86.8608 39.9306 86.7626 40.7543 86.5661 41.6611C86.3697 42.5528 86.0598 43.3916 85.6367 44.1775C85.2286 44.9634 84.6996 45.6208 84.0498 46.1498C83.415 46.6787 82.6442 46.9432 81.7374 46.9432C80.7399 46.9432 79.8936 46.6787 79.1984 46.1498C78.5032 45.6208 77.9364 44.9558 77.4981 44.1548C77.075 43.3538 76.7651 42.4848 76.5687 41.5478C76.3722 40.6107 76.274 39.7342 76.274 38.918C76.274 38.2682 76.3269 37.5805 76.4326 36.8551C76.5536 36.1296 76.7349 35.4269 76.9767 34.7468C77.2185 34.0515 77.5359 33.4092 77.9289 32.8198C78.3218 32.2153 78.8054 31.7241 79.3797 31.3463C79.7122 31.1347 80.0674 30.9684 80.4452 30.8475C80.8231 30.7115 81.2085 30.6435 81.6014 30.6435C82.2664 30.6435 82.8785 30.7871 83.4377 31.0742C83.9515 31.316 84.3974 31.6485 84.7752 32.0717C85.153 32.4798 85.4704 32.9483 85.7273 33.4772C85.9843 33.9911 86.1883 34.5427 86.3394 35.1322C86.5057 35.7216 86.6266 36.311 86.7022 36.9004C86.9742 36.9004 87.2387 36.9004 87.4956 36.9004C87.7525 36.9004 88.017 36.8853 88.2891 36.8551L88.2664 35.6309V31.3236ZM81.3974 32.6158C81.2462 32.6158 81.1027 32.6385 80.9666 32.6838C80.8306 32.7291 80.7022 32.7896 80.5813 32.8652C80.1732 33.0767 79.8256 33.4243 79.5384 33.908C79.2664 34.3765 79.0397 34.8979 78.8583 35.4722C78.6921 36.0465 78.5712 36.6284 78.4956 37.2178C78.42 37.7921 78.3823 38.2908 78.3823 38.714C78.3823 39.243 78.4427 39.8626 78.5636 40.573C78.6845 41.2833 78.881 41.9634 79.153 42.6133C79.4402 43.2631 79.8105 43.8148 80.2639 44.2682C80.7173 44.7216 81.2765 44.9483 81.9415 44.9483C82.2739 44.9483 82.546 44.8727 82.7576 44.7216C82.9692 44.5553 83.1732 44.3437 83.3697 44.0868C83.8533 43.452 84.2085 42.7039 84.4352 41.8425C84.6619 40.981 84.7752 40.1573 84.7752 39.3714C84.7752 39.0238 84.7525 38.6158 84.7072 38.1473C84.677 37.6787 84.609 37.1951 84.5032 36.6964C84.4125 36.1976 84.284 35.7065 84.1178 35.2228C83.9666 34.7392 83.7626 34.3085 83.5057 33.9306C83.2639 33.5377 82.9692 33.2203 82.6216 32.9785C82.2739 32.7367 81.8659 32.6158 81.3974 32.6158ZM100.206 30.9609C100.206 30.6586 100.32 30.4017 100.546 30.1901C100.788 29.9785 101.053 29.8727 101.34 29.8727C101.567 29.8727 101.748 29.9181 101.884 30.0087C102.02 30.0994 102.118 30.2128 102.179 30.3488C102.239 30.4848 102.277 30.6435 102.292 30.8249C102.307 30.9911 102.315 31.1649 102.315 31.3463C102.315 32.117 102.315 32.8803 102.315 33.6359C102.33 34.3916 102.375 35.1548 102.451 35.9256C102.708 36.0314 103.002 36.0918 103.335 36.107C103.667 36.1221 103.977 36.1296 104.264 36.1296C105.519 36.1296 106.766 36.1221 108.005 36.107C109.244 36.0918 110.499 36.0843 111.768 36.0843C111.934 36.0843 112.116 36.0918 112.312 36.107C112.509 36.107 112.69 36.1372 112.856 36.1976C113.038 36.243 113.181 36.3337 113.287 36.4697C113.408 36.5906 113.468 36.7719 113.468 37.0138C113.468 37.2405 113.393 37.452 113.242 37.6485C113.091 37.8299 112.909 37.9583 112.698 38.0339C112.546 38.0793 112.327 38.1095 112.04 38.1246C111.768 38.1246 111.549 38.1246 111.383 38.1246C110.159 38.1246 108.927 38.1246 107.687 38.1246C106.463 38.1095 105.232 38.1019 103.992 38.1019C103.72 38.1019 103.426 38.0944 103.108 38.0793C102.791 38.0641 102.473 38.0264 102.156 37.9659C101.854 37.9054 101.567 37.8148 101.295 37.6939C101.023 37.5578 100.796 37.3689 100.614 37.1271C100.539 37.0364 100.486 36.9382 100.456 36.8324C100.426 36.7266 100.395 36.6133 100.365 36.4924C100.29 36.0994 100.252 35.7065 100.252 35.3135C100.252 34.9206 100.252 34.5276 100.252 34.1347C100.237 33.6057 100.222 33.0767 100.206 32.5478C100.206 32.0188 100.206 31.4898 100.206 30.9609ZM106.078 42.0012C105.897 42.0012 105.564 42.0012 105.08 42.0012C104.612 41.986 104.068 41.9785 103.448 41.9785C102.829 41.9634 102.171 41.9483 101.476 41.9332C100.796 41.918 100.161 41.9029 99.5716 41.8878C98.9973 41.8576 98.5061 41.8274 98.0981 41.7971C97.69 41.7669 97.4558 41.7367 97.3953 41.7065C97.0326 41.5402 96.8512 41.2682 96.8512 40.8903C96.8512 40.5881 96.9646 40.3311 97.1913 40.1196C97.4331 39.908 97.6976 39.8022 97.9847 39.8022C98.4835 39.8022 98.9747 39.8173 99.4583 39.8475C99.957 39.8777 100.456 39.908 100.955 39.9382C102.723 39.9835 104.499 40.0062 106.282 40.0062C107.34 40.0062 108.39 40.0062 109.433 40.0062C110.476 39.9911 111.526 39.9684 112.584 39.9382L113.922 39.8702C114.148 39.8551 114.368 39.8475 114.579 39.8475C114.806 39.8324 115.025 39.8248 115.237 39.8248C115.494 39.8248 115.713 39.908 115.894 40.0742C116.091 40.2405 116.189 40.4596 116.189 40.7316C116.189 40.9735 116.121 41.1775 115.985 41.3437C115.849 41.51 115.675 41.6384 115.463 41.7291C115.373 41.7745 115.108 41.8122 114.67 41.8425C114.232 41.8727 113.695 41.8954 113.06 41.9105C112.441 41.9256 111.761 41.9407 111.02 41.9558C110.295 41.9709 109.599 41.986 108.934 42.0012C108.269 42.0012 107.672 42.0012 107.143 42.0012C106.63 42.0012 106.274 42.0012 106.078 42.0012ZM100.274 47.3286V44.9483L100.252 44.6536V44.5175C100.252 44.2153 100.365 43.9583 100.592 43.7468C100.834 43.5352 101.098 43.4294 101.385 43.4294C101.612 43.4294 101.786 43.4747 101.907 43.5654C102.043 43.641 102.141 43.7468 102.201 43.8828C102.277 44.0188 102.322 44.1775 102.337 44.3588C102.352 44.5251 102.36 44.6989 102.36 44.8803C102.36 45.0616 102.352 45.2959 102.337 45.583C102.337 45.8551 102.337 46.1347 102.337 46.4218C102.337 46.709 102.345 46.981 102.36 47.2379C102.375 47.4949 102.405 47.6913 102.451 47.8274C102.511 48.0692 102.632 48.243 102.813 48.3488C102.934 48.4243 103.07 48.4621 103.222 48.4621C103.373 48.4621 103.516 48.4621 103.652 48.4621C105.209 48.4621 106.766 48.4394 108.322 48.3941C109.879 48.3488 111.436 48.3261 112.992 48.3261C113.249 48.3261 113.468 48.4092 113.65 48.5755C113.846 48.7417 113.944 48.9609 113.944 49.2329C113.944 49.4596 113.876 49.6636 113.74 49.845C113.604 50.0263 113.431 50.1548 113.219 50.2304C113.098 50.2757 112.962 50.2984 112.811 50.2984C112.675 50.3135 112.546 50.3211 112.426 50.3211C110.914 50.3211 109.418 50.3362 107.937 50.3664C106.471 50.4117 104.982 50.4344 103.471 50.4344C102.337 50.4344 101.521 50.1699 101.023 49.641C100.524 49.1271 100.274 48.3563 100.274 47.3286ZM129.01 35.1548H126.358L125.179 35.1775C124.998 35.1775 124.816 35.1775 124.635 35.1775C124.454 35.1624 124.287 35.1322 124.136 35.0868C123.985 35.0264 123.857 34.9357 123.751 34.8148C123.66 34.6788 123.615 34.4974 123.615 34.2707C123.615 33.8929 123.751 33.6208 124.023 33.4546C124.31 33.2732 124.62 33.1825 124.952 33.1825H128.194C128.194 33.107 128.187 33.0314 128.171 32.9558C128.171 32.8803 128.171 32.8123 128.171 32.7518C128.141 32.4193 128.111 32.0868 128.081 31.7543C128.051 31.4218 128.035 31.0893 128.035 30.7568C128.035 30.4546 128.149 30.1976 128.375 29.9861C128.617 29.7745 128.889 29.6687 129.192 29.6687C129.403 29.6687 129.592 29.7291 129.758 29.85C129.94 29.9709 130.061 30.1372 130.121 30.3488C130.151 30.4546 130.159 30.5604 130.144 30.6662C130.144 30.7568 130.151 30.8475 130.166 30.9382L130.28 32.9332C130.28 33.039 130.257 33.1221 130.212 33.1825C130.438 33.1825 130.748 33.1901 131.141 33.2052C131.549 33.2052 131.965 33.2128 132.388 33.2279C132.811 33.2279 133.189 33.243 133.522 33.2732C133.854 33.2883 134.066 33.311 134.156 33.3412C134.504 33.5075 134.678 33.7795 134.678 34.1573C134.678 34.4596 134.557 34.7165 134.315 34.9281C134.088 35.1397 133.831 35.2455 133.544 35.2455H133.227L132.615 35.2002H132.297C131.753 35.185 131.209 35.1775 130.665 35.1775C130.121 35.1624 129.569 35.1548 129.01 35.1548ZM135.834 31.573C135.834 31.2707 135.947 31.0138 136.174 30.8022C136.401 30.5906 136.665 30.4848 136.967 30.4848C137.224 30.4848 137.443 30.5679 137.625 30.7342C137.821 30.9004 137.92 31.112 137.92 31.3689V37.8752L138.894 37.8299C139.061 37.8148 139.227 37.7997 139.393 37.7845C139.574 37.7694 139.748 37.7543 139.914 37.7392C139.899 36.6813 139.884 35.6233 139.869 34.5654C139.869 33.5075 139.869 32.4495 139.869 31.3916C139.869 31.0893 139.983 30.8324 140.209 30.6208C140.451 30.4092 140.723 30.3034 141.025 30.3034C141.464 30.3034 141.766 30.4999 141.932 30.8929C141.947 30.9533 141.962 31.2556 141.977 31.7997C141.993 32.3286 142.008 32.9861 142.023 33.772C142.038 34.5427 142.045 35.3891 142.045 36.311C142.045 37.2329 142.045 38.117 142.045 38.9634C142.045 39.7946 142.045 40.5276 142.045 41.1624C142.045 41.7971 142.045 42.2279 142.045 42.4546V43.7014L142.023 46.2178V47.4873C142.023 47.6082 142.023 47.7669 142.023 47.9634C142.023 48.1598 142.023 48.3639 142.023 48.5755C142.023 48.787 142.015 48.9835 142 49.1649C141.985 49.3462 141.955 49.4823 141.909 49.5729C141.804 49.7845 141.66 49.9508 141.479 50.0717C141.297 50.2077 141.086 50.2757 140.844 50.2757C140.587 50.2757 140.36 50.1926 140.164 50.0263C139.983 49.8601 139.892 49.641 139.892 49.3689V47.714L139.96 44.4269V42.7719C139.96 42.2581 139.952 41.7518 139.937 41.2531C139.937 40.7543 139.937 40.248 139.937 39.7342L139.28 39.7568C139.053 39.7719 138.826 39.7946 138.6 39.8248C138.373 39.84 138.146 39.8551 137.92 39.8702V48.5301C137.92 48.8324 137.799 49.0893 137.557 49.3009C137.33 49.5125 137.066 49.6183 136.763 49.6183C136.506 49.6183 136.287 49.5352 136.106 49.3689C135.925 49.2027 135.834 48.9911 135.834 48.7342V31.573ZM124.748 41.6838C124.748 41.0944 124.816 40.4596 124.952 39.7795C125.103 39.0994 125.338 38.4722 125.655 37.8979C125.972 37.3085 126.381 36.8248 126.879 36.447C127.393 36.0541 128.013 35.8576 128.738 35.8576C129.267 35.8576 129.781 35.9332 130.28 36.0843C130.778 36.2354 131.239 36.4546 131.663 36.7417C132.101 37.0289 132.486 37.3765 132.819 37.7845C133.151 38.1775 133.416 38.6233 133.612 39.1221C133.778 39.5301 133.899 39.976 133.975 40.4596C134.051 40.9281 134.088 41.3815 134.088 41.8198C134.088 42.5452 133.998 43.2858 133.816 44.0415C133.65 44.7971 133.378 45.4848 133 46.1044C132.622 46.7241 132.131 47.2304 131.527 47.6233C130.922 48.0163 130.197 48.2127 129.35 48.2127C128.413 48.2127 127.642 48.0163 127.038 47.6233C126.449 47.2455 125.98 46.7467 125.632 46.1271C125.3 45.4923 125.066 44.7896 124.93 44.0188C124.809 43.2329 124.748 42.4546 124.748 41.6838ZM128.557 37.8526C128.224 37.8526 127.945 38.0037 127.718 38.306C127.506 38.5931 127.333 38.9332 127.197 39.3261C127.061 39.719 126.962 40.1196 126.902 40.5276C126.857 40.9357 126.834 41.2606 126.834 41.5024C126.834 41.7896 126.849 42.1296 126.879 42.5226C126.909 42.9004 126.962 43.2858 127.038 43.6787C127.129 44.0717 127.234 44.442 127.355 44.7896C127.491 45.1372 127.665 45.4168 127.877 45.6284C128.088 45.8399 128.345 45.9986 128.648 46.1044C128.95 46.1951 129.244 46.2405 129.532 46.2405C129.743 46.2405 129.947 46.2102 130.144 46.1498C130.34 46.0893 130.522 45.9986 130.688 45.8777C130.809 45.8022 130.899 45.7115 130.96 45.6057C131.035 45.4999 131.111 45.3865 131.187 45.2656C131.489 44.7669 131.7 44.2455 131.821 43.7014C131.942 43.1573 132.003 42.5981 132.003 42.0238C132.003 41.7216 131.972 41.3815 131.912 41.0037C131.852 40.6107 131.761 40.2707 131.64 39.9835C131.383 39.3488 130.975 38.8349 130.416 38.442C129.857 38.049 129.237 37.8526 128.557 37.8526ZM149.973 40.7997C149.746 40.7997 149.519 40.7845 149.293 40.7543C149.066 40.7241 148.839 40.6939 148.613 40.6636C148.084 40.5881 147.593 40.4445 147.139 40.2329C146.686 40.0213 146.353 39.651 146.142 39.1221C146.036 38.8651 145.945 38.4495 145.87 37.8752C145.809 37.2858 145.756 36.6586 145.711 35.9936C145.681 35.3286 145.65 34.6863 145.62 34.0667C145.605 33.4319 145.59 32.9407 145.575 32.5931C145.545 32.3815 145.514 32.1775 145.484 31.981C145.469 31.7694 145.462 31.5578 145.462 31.3463C145.462 31.044 145.575 30.7871 145.802 30.5755C146.043 30.3639 146.308 30.2581 146.595 30.2581C146.776 30.2581 146.943 30.3034 147.094 30.3941C147.26 30.4697 147.381 30.5906 147.457 30.7568C147.502 30.8324 147.532 30.9458 147.547 31.0969C147.577 31.2329 147.6 31.384 147.615 31.5503C147.63 31.7165 147.638 31.8828 147.638 32.049C147.653 32.2002 147.661 32.3211 147.661 32.4118C147.661 32.5478 147.668 32.7896 147.683 33.1372C147.698 33.4697 147.713 33.8551 147.729 34.2934C147.759 34.7165 147.789 35.1624 147.819 35.6309C147.849 36.0843 147.88 36.515 147.91 36.9231C147.955 37.316 148.001 37.6561 148.046 37.9432C148.091 38.2153 148.144 38.374 148.205 38.4193C148.28 38.4949 148.401 38.5629 148.567 38.6233C148.749 38.6687 148.938 38.7065 149.134 38.7367C149.346 38.7669 149.542 38.7896 149.724 38.8047C149.92 38.8198 150.079 38.8274 150.2 38.8274C151.046 38.8274 151.885 38.8047 152.716 38.7594C153.562 38.714 154.409 38.6611 155.255 38.6007C155.557 38.5855 155.844 38.5704 156.116 38.5553C156.404 38.5251 156.691 38.5024 156.978 38.4873C156.963 37.6561 156.933 36.8324 156.887 36.0163C156.842 35.185 156.789 34.3538 156.729 33.5226C156.698 33.0994 156.661 32.6762 156.615 32.2531C156.585 31.8299 156.57 31.4067 156.57 30.9835C156.57 30.6813 156.683 30.4243 156.91 30.2128C157.152 30.0012 157.416 29.8954 157.703 29.8954C158.111 29.8954 158.406 30.0767 158.587 30.4395C158.618 30.4848 158.648 30.6359 158.678 30.8929C158.708 31.1498 158.739 31.4747 158.769 31.8677C158.799 32.2606 158.822 32.6989 158.837 33.1825C158.867 33.6662 158.897 34.1649 158.928 34.6788H159.721C159.933 34.6636 160.137 34.6561 160.333 34.6561C160.53 34.6561 160.734 34.6561 160.945 34.6561L160.9 32.3211V31.0516C160.9 30.7493 161.013 30.4924 161.24 30.2808C161.482 30.0692 161.746 29.9634 162.033 29.9634C162.275 29.9634 162.464 30.0163 162.6 30.1221C162.736 30.2128 162.834 30.3337 162.895 30.4848C162.955 30.6208 162.985 30.7871 162.985 30.9835C163.001 31.1649 163.008 31.3463 163.008 31.5276V32.7745L163.031 35.2908V36.5377C163.031 37.1573 163.031 37.7694 163.031 38.374C163.031 38.9785 163.016 39.583 162.985 40.1876C162.97 40.3236 162.963 40.4672 162.963 40.6183C162.963 40.7543 162.948 40.8828 162.917 41.0037C162.857 41.2606 162.721 41.4722 162.509 41.6384C162.298 41.8047 162.064 41.8878 161.807 41.8878C161.55 41.8878 161.323 41.8047 161.127 41.6384C160.945 41.4722 160.854 41.2531 160.854 40.981V40.5956L160.9 39.8475V39.4621C160.93 38.9785 160.945 38.51 160.945 38.0566C160.945 37.5881 160.945 37.112 160.945 36.6284H160.288H160.197L160.061 36.651H159.97H159.313H159.222L159.086 36.6737H158.996C159.026 37.2934 159.048 37.8374 159.064 38.306C159.079 38.7594 159.086 39.0692 159.086 39.2354C159.086 39.4168 159.086 39.6208 159.086 39.8475C159.101 40.0591 159.086 40.2707 159.041 40.4823C159.011 40.6787 158.95 40.8677 158.86 41.049C158.784 41.2304 158.655 41.374 158.474 41.4798C158.278 41.6007 158.081 41.6611 157.885 41.6611C157.628 41.6611 157.401 41.578 157.205 41.4117C157.023 41.2455 156.933 41.0264 156.933 40.7543V40.4823C156.661 40.5125 156.313 40.5427 155.89 40.573C155.482 40.6032 155.043 40.6334 154.575 40.6636C154.106 40.6787 153.623 40.6939 153.124 40.709C152.64 40.7241 152.187 40.7392 151.764 40.7543C151.341 40.7694 150.97 40.7845 150.653 40.7997C150.336 40.7997 150.109 40.7997 149.973 40.7997ZM146.572 49.641V49.5956C146.603 49.3387 146.701 49.0969 146.867 48.8702C147.033 48.6435 147.184 48.4319 147.32 48.2354C147.593 47.8576 147.857 47.4797 148.114 47.1019C148.386 46.7241 148.65 46.3387 148.907 45.9457C149.028 45.7795 149.142 45.6132 149.247 45.447C149.368 45.2808 149.482 45.107 149.587 44.9256C149.769 44.578 149.92 44.2153 150.041 43.8374C150.086 43.6863 150.124 43.5352 150.154 43.384C150.2 43.2329 150.268 43.0969 150.358 42.976C150.6 42.6586 150.91 42.4999 151.288 42.4999C151.545 42.4999 151.764 42.583 151.945 42.7493C152.142 42.9155 152.24 43.1347 152.24 43.4067C152.24 43.5427 152.202 43.7241 152.127 43.9508C152.066 44.1624 151.983 44.3891 151.877 44.6309C151.786 44.8576 151.688 45.0767 151.582 45.2883C151.492 45.4999 151.416 45.6586 151.356 45.7644L151.56 45.9004C152.134 46.248 152.716 46.5956 153.305 46.9432C153.895 47.2908 154.484 47.6384 155.074 47.986C155.089 48.0012 155.104 48.0087 155.119 48.0087L155.255 48.0767H155.278V48.0994C155.338 48.0541 155.383 48.0087 155.414 47.9634C155.459 47.918 155.497 47.8727 155.527 47.8274C155.875 47.3891 156.215 46.9357 156.547 46.4672C156.88 45.9986 157.197 45.5226 157.499 45.0389C157.65 44.782 157.794 44.5251 157.93 44.2682C158.081 44.0112 158.217 43.7543 158.338 43.4974C158.414 43.3614 158.482 43.2178 158.542 43.0667C158.603 42.9155 158.686 42.7795 158.792 42.6586C158.897 42.5377 159.026 42.4394 159.177 42.3639C159.343 42.2732 159.509 42.2279 159.676 42.2279C159.933 42.2279 160.152 42.311 160.333 42.4772C160.53 42.6435 160.628 42.8626 160.628 43.1347C160.628 43.3311 160.567 43.5352 160.446 43.7468C160.341 43.9583 160.242 44.1473 160.152 44.3135C160.046 44.51 159.94 44.7064 159.834 44.9029C159.744 45.0843 159.638 45.2732 159.517 45.4697C159.593 45.5452 159.668 45.6132 159.744 45.6737C159.819 45.7342 159.895 45.7946 159.97 45.8551L162.169 47.6687C162.411 47.8651 162.706 48.0843 163.053 48.3261C163.401 48.583 163.673 48.8248 163.87 49.0515C164.006 49.2178 164.074 49.4143 164.074 49.641C164.074 49.9432 163.953 50.2001 163.711 50.4117C163.484 50.6233 163.227 50.7291 162.94 50.7291C162.759 50.7291 162.577 50.6762 162.396 50.5704C162.336 50.5402 162.154 50.4042 161.852 50.1624C161.55 49.9205 161.195 49.6334 160.786 49.3009C160.378 48.9835 159.948 48.6435 159.494 48.2808C159.056 47.918 158.671 47.5931 158.338 47.3059C157.779 48.0918 157.205 48.8475 156.615 49.5729C156.494 49.7241 156.373 49.8752 156.252 50.0263C156.147 50.1926 156.018 50.3362 155.867 50.4571C155.64 50.6384 155.399 50.7291 155.142 50.7291C154.885 50.7291 154.673 50.6535 154.507 50.5024C154.341 50.3664 154.242 50.1699 154.212 49.913C153.985 49.7921 153.698 49.6334 153.351 49.4369C153.018 49.2404 152.663 49.0289 152.285 48.8022C151.907 48.5755 151.53 48.3488 151.152 48.1221C150.789 47.9105 150.472 47.7216 150.2 47.5553C150.048 47.7669 149.905 47.9634 149.769 48.1447C149.633 48.3412 149.497 48.5452 149.361 48.7568C149.225 48.9533 149.051 49.2102 148.839 49.5276C148.643 49.8601 148.462 50.1019 148.295 50.253C148.053 50.4495 147.797 50.5478 147.525 50.5478C147.268 50.5478 147.041 50.4646 146.844 50.2984C146.663 50.1321 146.572 49.913 146.572 49.641ZM168.442 37.3992C168.442 37.0969 168.533 36.8702 168.714 36.7191C168.91 36.5528 169.114 36.3941 169.326 36.243C169.915 35.8198 170.475 35.3437 171.004 34.8148C171.548 34.2707 172.016 33.6964 172.409 33.0919C172.56 32.8349 172.704 32.5856 172.84 32.3437C172.976 32.0868 173.089 31.8223 173.18 31.5503C173.255 31.3538 173.316 31.1498 173.361 30.9382C173.422 30.7115 173.497 30.5075 173.588 30.3261C173.679 30.1448 173.8 29.9936 173.951 29.8727C174.102 29.7518 174.313 29.6914 174.585 29.6914C174.842 29.6914 175.061 29.7745 175.243 29.9407C175.439 30.107 175.538 30.3261 175.538 30.5982C175.538 30.7191 175.5 30.9155 175.424 31.1876C175.349 31.4445 175.288 31.641 175.243 31.777C175.228 31.8223 175.213 31.8677 175.198 31.913C175.182 31.9584 175.167 32.0037 175.152 32.049L176.24 32.5251C176.905 32.7971 177.563 33.0767 178.213 33.3639C178.862 33.6359 179.52 33.9155 180.185 34.2027C180.457 34.3236 180.729 34.4445 181.001 34.5654C181.273 34.6712 181.545 34.777 181.817 34.8828C181.938 34.9432 182.067 34.9961 182.203 35.0415C182.339 35.0868 182.467 35.1473 182.588 35.2228C182.83 35.3891 182.951 35.6309 182.951 35.9483C182.951 36.2505 182.83 36.5075 182.588 36.7191C182.361 36.9306 182.104 37.0364 181.817 37.0364C181.681 37.0364 181.56 37.0138 181.454 36.9684C181.107 36.8475 180.767 36.7115 180.434 36.5604C180.102 36.4092 179.762 36.2657 179.414 36.1296C178.538 35.7518 177.669 35.3815 176.807 35.0188C175.946 34.6561 175.077 34.2934 174.2 33.9306C173.762 34.6107 173.263 35.2379 172.704 35.8123C172.16 36.3714 171.57 36.908 170.936 37.4218C170.724 37.5881 170.482 37.777 170.21 37.9886C169.938 38.2002 169.666 38.306 169.394 38.306C169.137 38.306 168.91 38.2228 168.714 38.0566C168.533 37.8903 168.442 37.6712 168.442 37.3992ZM174.177 41.1397C174.011 41.1397 173.709 41.1397 173.271 41.1397C172.847 41.1397 172.356 41.1397 171.797 41.1397C171.253 41.1246 170.679 41.1095 170.074 41.0944C169.47 41.0792 168.91 41.0641 168.397 41.049C167.883 41.0339 167.437 41.0112 167.059 40.981C166.696 40.9508 166.485 40.9206 166.424 40.8903C166.062 40.7241 165.88 40.452 165.88 40.0742C165.88 39.7719 165.993 39.515 166.22 39.3034C166.462 39.0918 166.726 38.9861 167.014 38.9861C167.452 38.9861 167.89 39.0012 168.329 39.0314C168.782 39.0616 169.228 39.0843 169.666 39.0994C171.223 39.1447 172.787 39.1674 174.359 39.1674C175.402 39.1674 176.429 39.1599 177.442 39.1447C178.454 39.1296 179.482 39.107 180.525 39.0767C181.099 39.0616 181.674 39.0465 182.248 39.0314C182.837 39.0163 183.419 39.0087 183.993 39.0087C184.296 39.0087 184.568 39.0767 184.81 39.2128C185.051 39.3337 185.172 39.5679 185.172 39.9155C185.172 40.2178 185.051 40.4747 184.81 40.6863C184.583 40.8979 184.326 41.0037 184.039 41.0037C182.8 41.0037 181.56 41.0264 180.321 41.0717C178.281 41.117 176.233 41.1397 174.177 41.1397ZM171.321 45.0163C171.472 45.0163 171.608 45.0163 171.729 45.0163C171.865 45.0012 171.978 44.9936 172.069 44.9936C173.429 44.9331 174.782 44.8803 176.127 44.8349C177.487 44.7896 178.855 44.7593 180.23 44.7442C180.23 44.5326 180.223 44.3211 180.208 44.1095C180.208 43.8979 180.208 43.6863 180.208 43.4747C180.208 43.1724 180.321 42.9155 180.548 42.7039C180.789 42.4923 181.054 42.3866 181.341 42.3866C181.583 42.3866 181.772 42.4394 181.908 42.5452C182.044 42.6359 182.142 42.7568 182.203 42.908C182.263 43.0591 182.301 43.2329 182.316 43.4294C182.331 43.6107 182.339 43.7921 182.339 43.9735V45.1523L182.407 47.5553V48.7342C182.407 49.0818 182.346 49.3916 182.225 49.6636C182.119 49.9508 181.878 50.1472 181.5 50.253C181.318 50.2984 181.13 50.3211 180.933 50.3211C180.737 50.3211 180.548 50.3286 180.366 50.3437C179.354 50.4193 178.349 50.4571 177.351 50.4571C176.354 50.4722 175.349 50.4797 174.336 50.4797H172.409C172.137 50.4797 171.857 50.4646 171.57 50.4344C171.283 50.4193 171.011 50.3664 170.754 50.2757C170.512 50.185 170.286 50.049 170.074 49.8677C169.878 49.7014 169.726 49.4671 169.621 49.1649C169.515 48.8626 169.447 48.5452 169.417 48.2127C169.402 47.8954 169.379 47.578 169.349 47.2606L169.213 44.7442C169.198 44.5326 169.182 44.3211 169.167 44.1095C169.152 43.8979 169.145 43.6863 169.145 43.4747C169.145 43.1724 169.258 42.9155 169.485 42.7039C169.726 42.4923 169.991 42.3866 170.278 42.3866C170.49 42.3866 170.686 42.447 170.868 42.5679C171.049 42.6888 171.162 42.8626 171.208 43.0893C171.238 43.18 171.253 43.2782 171.253 43.384C171.253 43.4747 171.253 43.5654 171.253 43.6561C171.268 43.777 171.276 43.9583 171.276 44.2002C171.291 44.442 171.306 44.714 171.321 45.0163ZM180.298 48.2581C180.298 48.0012 180.298 47.7518 180.298 47.51C180.298 47.2682 180.291 47.0188 180.276 46.7619C179.082 46.7619 177.888 46.7694 176.694 46.7845C175.5 46.7996 174.306 46.845 173.112 46.9206C172.825 46.9357 172.545 46.9508 172.273 46.9659C172.001 46.9659 171.729 46.981 171.457 47.0112C171.487 47.3588 171.517 47.6535 171.548 47.8954C171.578 48.1523 171.608 48.3185 171.638 48.3941C171.729 48.4243 171.85 48.447 172.001 48.4621C172.152 48.4772 172.303 48.4848 172.454 48.4848C172.621 48.4999 172.779 48.5075 172.931 48.5075C173.082 48.5075 173.21 48.5075 173.316 48.5075C174.48 48.5075 175.636 48.5075 176.784 48.5075C177.948 48.5075 179.112 48.4697 180.276 48.3941L180.298 48.2581ZM187.956 42.9533C187.956 41.8047 187.971 40.6636 188.002 39.5301C188.032 38.3815 188.062 37.2329 188.092 36.0843C188.107 35.6158 188.115 35.1548 188.115 34.7014C188.13 34.2329 188.145 33.7568 188.16 33.2732C188.175 33.0616 188.175 32.8425 188.16 32.6158C188.16 32.3891 188.175 32.1624 188.206 31.9357C188.221 31.8903 188.228 31.845 188.228 31.7997C188.228 31.7543 188.243 31.7165 188.274 31.6863C188.364 31.4747 188.5 31.3009 188.682 31.1649C188.878 31.0138 189.105 30.9382 189.362 30.9382C189.619 30.9382 189.838 31.0213 190.019 31.1876C190.216 31.3538 190.314 31.573 190.314 31.845C190.314 32.3437 190.299 32.8425 190.269 33.3412C190.254 33.8248 190.238 34.316 190.223 34.8148C190.193 36.1447 190.155 37.4672 190.11 38.782C190.08 40.0818 190.065 41.3966 190.065 42.7266C190.065 42.9382 190.08 43.1498 190.11 43.3614C190.155 43.5729 190.223 43.7619 190.314 43.9281C190.45 44.185 190.646 44.3437 190.903 44.4042C191.175 44.4646 191.44 44.4949 191.697 44.4949C193.133 44.4949 194.561 44.4722 195.981 44.4269C197.417 44.3815 198.853 44.3059 200.289 44.2002C200.636 44.1699 200.976 44.1473 201.309 44.1321C201.657 44.1019 202.004 44.0641 202.352 44.0188H202.397C202.397 41.2833 202.352 38.5402 202.261 35.7896C202.246 35.306 202.231 34.8148 202.216 34.316C202.201 33.8173 202.185 33.3186 202.17 32.8198C202.155 32.5629 202.14 32.3135 202.125 32.0717C202.11 31.8148 202.102 31.5578 202.102 31.3009C202.102 30.9987 202.216 30.7493 202.442 30.5528C202.684 30.3412 202.956 30.2354 203.259 30.2354C203.682 30.2354 203.976 30.4168 204.143 30.7795C204.173 30.8551 204.196 31.0893 204.211 31.4823C204.241 31.8601 204.264 32.3513 204.279 32.9558C204.309 33.5604 204.332 34.248 204.347 35.0188C204.362 35.7745 204.377 36.5528 204.392 37.3538C204.407 38.1548 204.422 38.9483 204.437 39.7342C204.452 40.5201 204.46 41.2455 204.46 41.9105C204.475 42.5604 204.483 43.1271 204.483 43.6107C204.483 44.0944 204.483 44.4269 204.483 44.6082V45.6057L204.415 47.6233V48.6208C204.415 48.7417 204.415 48.8551 204.415 48.9609C204.43 49.0818 204.422 49.1951 204.392 49.3009C204.316 49.5578 204.173 49.7694 203.961 49.9357C203.765 50.117 203.531 50.2077 203.259 50.2077C203.002 50.2077 202.775 50.1246 202.578 49.9583C202.397 49.8072 202.306 49.5956 202.306 49.3236C202.306 49.0364 202.306 48.7493 202.306 48.4621C202.306 48.1901 202.314 47.9105 202.329 47.6233L202.374 46.4898V45.9911C200.576 46.1876 198.785 46.316 197.002 46.3765C195.218 46.4369 193.427 46.4672 191.629 46.4672C191.417 46.4672 191.198 46.4672 190.971 46.4672C190.76 46.452 190.548 46.4218 190.337 46.3765C189.913 46.2858 189.551 46.1347 189.248 45.9231C188.946 45.6964 188.697 45.4319 188.5 45.1296C188.319 44.8274 188.183 44.4949 188.092 44.1321C188.002 43.7543 187.956 43.3614 187.956 42.9533ZM222.272 48.7568C222.256 46.7921 222.256 44.8425 222.272 42.908C222.287 40.9735 222.256 39.0238 222.181 37.0591C222.136 35.7291 222.068 34.4218 221.977 33.1372C221.947 32.8349 221.916 32.5478 221.886 32.2757C221.856 31.9886 221.841 31.7014 221.841 31.4143C221.841 31.112 221.954 30.8551 222.181 30.6435C222.423 30.4319 222.687 30.3261 222.974 30.3261C223.398 30.3261 223.692 30.5075 223.858 30.8702C223.934 31.0062 223.972 31.2102 223.972 31.4823C223.987 31.7543 224.002 31.9735 224.017 32.1397C224.078 32.9558 224.123 33.7644 224.153 34.5654C224.199 35.3513 224.236 36.1523 224.267 36.9684C224.569 36.9684 224.833 36.9609 225.06 36.9458C225.302 36.9306 225.529 36.9155 225.74 36.9004C225.967 36.8853 226.194 36.8777 226.42 36.8777C226.662 36.8626 226.934 36.8551 227.236 36.8551C227.493 36.8551 227.712 36.9382 227.894 37.1044C228.09 37.2707 228.188 37.4898 228.188 37.7619C228.188 38.1699 228.03 38.4571 227.712 38.6233C227.41 38.7745 227.085 38.85 226.738 38.85C226.481 38.85 226.254 38.8576 226.057 38.8727C225.876 38.8727 225.695 38.8803 225.513 38.8954C225.347 38.8954 225.166 38.9029 224.969 38.918C224.788 38.9332 224.569 38.9407 224.312 38.9407C224.327 39.6964 224.335 40.452 224.335 41.2077C224.35 41.9483 224.357 42.6964 224.357 43.452V49.1876C224.357 49.4898 224.236 49.7467 223.995 49.9583C223.768 50.1699 223.511 50.2757 223.224 50.2757C222.921 50.2757 222.68 50.185 222.498 50.0037C222.332 49.8223 222.249 49.5805 222.249 49.2782V49.1422L222.272 48.8928V48.7568ZM211.911 44.7442C212.244 44.7442 212.569 44.7291 212.886 44.6989C213.219 44.6536 213.551 44.6158 213.884 44.5855C215.017 44.4797 216.151 44.3437 217.284 44.1775C217.586 44.1473 217.889 44.1019 218.191 44.0415C218.508 43.981 218.818 43.9508 219.12 43.9508C219.377 43.9508 219.597 44.0339 219.778 44.2002C219.974 44.3664 220.073 44.5855 220.073 44.8576C220.073 45.0692 220.012 45.2581 219.891 45.4243C219.77 45.5906 219.612 45.7266 219.415 45.8324C219.34 45.8626 219.113 45.908 218.735 45.9684C218.372 46.0289 217.927 46.0969 217.398 46.1724C216.884 46.2329 216.324 46.3009 215.72 46.3765C215.115 46.4369 214.541 46.4974 213.997 46.5578C213.453 46.6032 212.969 46.6485 212.546 46.6939C212.123 46.7241 211.843 46.7392 211.707 46.7392C211.254 46.7392 210.869 46.6485 210.551 46.4672C210.234 46.2707 209.969 46.0213 209.758 45.719C209.561 45.4017 209.403 45.0541 209.282 44.6762C209.176 44.2984 209.093 43.9206 209.032 43.5427C208.972 43.1044 208.942 42.6661 208.942 42.2279C208.942 41.7745 208.934 41.3286 208.919 40.8903C208.889 40.2102 208.866 39.5452 208.851 38.8954C208.836 38.2455 208.828 37.5805 208.828 36.9004C208.828 36.6888 208.828 36.4772 208.828 36.2657C208.843 36.0541 208.851 35.8425 208.851 35.6309V34.7694L208.828 33.0692V32.2304C208.828 31.9281 208.942 31.6712 209.168 31.4596C209.41 31.248 209.675 31.1422 209.962 31.1422C210.143 31.1422 210.461 31.1498 210.914 31.1649C211.382 31.1649 211.911 31.18 212.501 31.2102C213.105 31.2254 213.733 31.248 214.382 31.2783C215.032 31.3085 215.637 31.3387 216.196 31.3689C216.755 31.3992 217.231 31.4369 217.624 31.4823C218.017 31.5125 218.259 31.5503 218.35 31.5956C218.697 31.7619 218.871 32.0339 218.871 32.4118C218.871 32.714 218.75 32.9709 218.508 33.1825C218.282 33.3941 218.025 33.4999 217.738 33.4999C217.617 33.4999 217.503 33.4924 217.398 33.4772C217.292 33.4621 217.178 33.447 217.057 33.4319C216.785 33.4017 216.513 33.3866 216.241 33.3866C215.969 33.3714 215.705 33.3563 215.448 33.3412C214.677 33.2959 213.921 33.2657 213.181 33.2505C212.44 33.2203 211.692 33.1901 210.937 33.1599C210.937 33.5528 210.937 33.9382 210.937 34.316C210.952 34.6939 210.959 35.0717 210.959 35.4495V35.7669L210.937 36.4017C210.937 37.1725 210.944 37.9281 210.959 38.6687C210.974 39.4092 210.997 40.1649 211.027 40.9357C211.042 41.3286 211.05 41.7291 211.05 42.1372C211.05 42.5452 211.088 42.9457 211.163 43.3387C211.178 43.4294 211.201 43.5503 211.231 43.7014C211.262 43.8525 211.307 44.0112 211.367 44.1775C211.428 44.3286 211.503 44.4646 211.594 44.5855C211.685 44.6913 211.79 44.7442 211.911 44.7442ZM232.149 48.0541C232.149 48.4772 231.982 48.787 231.65 48.9835C231.317 49.1951 230.962 49.3009 230.584 49.3009C230.297 49.3009 230.048 49.2102 229.836 49.0289C229.64 48.8475 229.542 48.6057 229.542 48.3034C229.542 47.9256 229.693 47.6082 229.995 47.3513C230.297 47.0944 230.63 46.9659 230.992 46.9659C231.295 46.9659 231.559 47.0641 231.786 47.2606C232.028 47.4571 232.149 47.7216 232.149 48.0541Z" fill="black"/>
<path d="M1 1H326V385H1V1Z" stroke="#231F20" stroke-width="2" stroke-linecap="round" stroke-linejoin="round"/>
</svg>
