<svg width="546" height="36" viewBox="0 0 546 36" fill="none" xmlns="http://www.w3.org/2000/svg">
<path d="M15.597 25.7709C15.5009 25.7709 15.4144 25.7612 15.3376 25.742C15.2607 25.7228 15.1742 25.694 15.0781 25.6555C14.8859 25.5787 14.7033 25.4826 14.5303 25.3672C14.3573 25.2519 14.194 25.1366 14.0402 25.0213C13.3099 24.5216 12.6083 24.0026 11.9356 23.4645C11.2821 22.9071 10.6479 22.3113 10.0328 21.677C9.45624 22.638 8.81237 23.5509 8.10123 24.4158C7.40931 25.2807 6.62129 26.088 5.73717 26.8376C5.60263 26.9529 5.43926 27.097 5.24706 27.27C5.05486 27.4238 4.84344 27.5775 4.6128 27.7313C4.40138 27.8851 4.18996 28.01 3.97854 28.1061C3.76712 28.2214 3.56531 28.2791 3.37311 28.2791C3.04637 28.2791 2.75807 28.1734 2.50821 27.9619C2.27757 27.7505 2.16225 27.4718 2.16225 27.1259C2.16225 26.8952 2.21991 26.6934 2.33523 26.5204C2.46977 26.3282 2.62353 26.1553 2.79651 26.0015C2.96949 25.8477 3.15208 25.7132 3.34428 25.5979C3.5557 25.4633 3.73829 25.3288 3.89205 25.1943C4.50709 24.6945 5.08369 24.1468 5.62185 23.5509C7.02491 21.9557 8.14928 20.1778 8.99496 18.2174C9.85986 16.2377 10.5422 14.2292 11.0419 12.1919C11.138 11.7691 11.2341 11.3366 11.3302 10.8946C11.4455 10.4525 11.5032 10.0105 11.5032 9.5684V9.51074C11.2918 9.49152 10.9458 9.4723 10.4653 9.45308C9.98479 9.43386 9.44663 9.41464 8.85081 9.39542C8.27421 9.3762 7.66878 9.35698 7.03452 9.33776C6.40026 9.31854 5.81405 9.29932 5.27589 9.2801C4.73773 9.26088 4.27645 9.24166 3.89205 9.22244C3.50765 9.184 3.2674 9.13595 3.1713 9.07829C2.72924 8.82843 2.50821 8.48247 2.50821 8.04041C2.50821 7.65601 2.65236 7.32927 2.94066 7.06019C3.22896 6.79111 3.56531 6.65657 3.94971 6.65657C4.18035 6.65657 4.41099 6.66618 4.64163 6.6854C4.89149 6.70462 5.13174 6.72384 5.36238 6.74306L7.72644 6.82955C8.53368 6.86799 9.35053 6.88721 10.177 6.88721C11.0035 6.88721 11.8203 6.94487 12.6275 7.06019C12.7813 7.07941 12.9255 7.10824 13.06 7.14668C13.1945 7.1659 13.3291 7.22356 13.4636 7.31966C13.7327 7.49264 13.9153 7.7425 14.0114 8.06924C14.1267 8.39598 14.1844 8.71311 14.1844 9.02063C14.1844 9.75099 14.1075 10.4813 13.9537 11.2117C13.8 11.9228 13.627 12.634 13.4348 13.3451C13.1657 14.3446 12.8582 15.3248 12.5122 16.2858C12.1855 17.2276 11.8107 18.1597 11.3879 19.0823L11.532 19.2264L11.7915 19.5724L11.9356 19.7166C12.5507 20.3893 13.2041 21.0139 13.8961 21.5905C14.4919 22.0902 15.1261 22.5515 15.7988 22.9743C15.9526 23.0704 16.116 23.1665 16.2889 23.2626C16.4619 23.3587 16.6157 23.4741 16.7502 23.6086C16.9424 23.8008 17.0385 24.0603 17.0385 24.387C17.0385 24.7714 16.8944 25.0982 16.6061 25.3672C16.3178 25.6363 15.9814 25.7709 15.597 25.7709ZM23.6406 24.0122C23.6406 24.8579 23.6214 25.7036 23.5829 26.5493C23.5637 27.3757 23.5541 28.2214 23.5541 29.0863C23.5541 29.2401 23.5541 29.3842 23.5541 29.5188C23.5733 29.6725 23.5637 29.8263 23.5253 29.98C23.4292 30.3068 23.2466 30.5759 22.9775 30.7873C22.7277 31.0179 22.4297 31.1332 22.0838 31.1332C21.757 31.1332 21.4687 31.0275 21.2189 30.8161C20.9882 30.6239 20.8729 30.3548 20.8729 30.0089V28.5674L20.9594 25.6844C20.9594 23.5317 20.9498 21.3887 20.9306 19.2553C20.9306 17.1026 20.8921 14.95 20.8153 12.7974C20.7768 11.8364 20.7384 10.885 20.6999 9.94319C20.6615 9.00141 20.6423 8.05002 20.6423 7.08902C20.6423 6.70462 20.7864 6.38749 21.0747 6.13763C21.3823 5.86855 21.7186 5.73401 22.0838 5.73401C22.3529 5.73401 22.5835 5.80128 22.7757 5.93582C22.9871 6.05114 23.1409 6.23373 23.237 6.48359C23.2562 6.56047 23.2754 6.74306 23.2946 7.03136C23.3139 7.30044 23.3331 7.59835 23.3523 7.92509C23.3715 8.23261 23.3811 8.54013 23.3811 8.84765C23.3811 9.13595 23.3811 9.33776 23.3811 9.45308C23.458 11.894 23.5157 14.3157 23.5541 16.7182C23.6118 19.1207 23.6406 21.5521 23.6406 24.0122ZM32.7995 8.4152C32.4728 8.4152 32.1845 8.30949 31.9346 8.09807C31.704 7.88665 31.5887 7.60796 31.5887 7.262C31.5887 6.9737 31.6752 6.71423 31.8481 6.48359C32.0211 6.25295 32.2422 6.08958 32.5112 5.99348C32.7227 5.89738 33.0013 5.84933 33.3473 5.84933C33.7125 5.84933 34.0104 5.84933 34.241 5.84933C35.5096 5.84933 36.7589 5.8205 37.9889 5.76284C39.219 5.70518 40.4683 5.67635 41.7368 5.67635C42.3134 5.67635 42.89 5.67635 43.4666 5.67635C44.0432 5.67635 44.6198 5.69557 45.1964 5.73401C45.9652 5.77245 46.5611 5.86855 46.9839 6.02231C47.426 6.17607 47.7431 6.41632 47.9353 6.74306C48.1467 7.05058 48.2716 7.4542 48.3101 7.95392C48.3485 8.43442 48.3773 9.02063 48.3966 9.71255C48.4158 10.8081 48.435 11.9036 48.4542 12.9992C48.4734 14.0755 48.4831 15.1614 48.4831 16.257C48.8675 16.257 49.2422 16.257 49.6074 16.257C49.9726 16.257 50.3474 16.2666 50.7318 16.2858C50.9432 16.2858 51.1546 16.305 51.3661 16.3434C51.5775 16.3627 51.7601 16.4107 51.9138 16.4876C52.0868 16.5645 52.2213 16.6798 52.3174 16.8336C52.4328 16.9873 52.4904 17.1987 52.4904 17.4678C52.4904 17.8522 52.3367 18.179 52.0291 18.448C51.7408 18.7171 51.4141 18.8517 51.0489 18.8517C50.8952 18.8517 50.7414 18.8517 50.5876 18.8517C50.4531 18.8324 50.309 18.8132 50.1552 18.794C49.5978 18.7748 49.0404 18.7652 48.4831 18.7652C47.9257 18.7652 47.3683 18.7652 46.8109 18.7652H42.3423L33.405 18.8228H28.9363C28.6096 18.8228 28.3213 18.7171 28.0714 18.5057C27.8408 18.2943 27.7255 18.0156 27.7255 17.6696C27.7255 17.3429 27.8216 17.0642 28.0138 16.8336C28.2252 16.6029 28.475 16.4395 28.7633 16.3434C28.8402 16.3242 29.0324 16.3146 29.3399 16.3146C29.6475 16.2954 29.9742 16.2858 30.3202 16.2858C30.6853 16.2666 31.0217 16.257 31.3292 16.257C31.6559 16.257 31.877 16.257 31.9923 16.257H45.8019V16.1416V14.7001L45.7154 11.846V10.4045C45.7154 10.1162 45.725 9.7606 45.7442 9.33776C45.7634 8.91492 45.7346 8.56896 45.6577 8.29988C45.2157 8.26144 44.7736 8.23261 44.3315 8.21339C43.9087 8.19417 43.4762 8.18456 43.0342 8.18456C42.669 8.18456 42.3134 8.19417 41.9675 8.21339C41.6215 8.21339 41.2756 8.21339 40.9296 8.21339C39.565 8.21339 38.21 8.25183 36.8646 8.32871C35.5192 8.38637 34.1642 8.4152 32.7995 8.4152ZM31.5887 22.8302C31.5887 22.5419 31.6752 22.292 31.8481 22.0806C32.0211 21.85 32.2422 21.677 32.5112 21.5617C32.6266 21.504 32.9533 21.456 33.4915 21.4175C34.0296 21.3791 34.6543 21.3599 35.3654 21.3599C36.0958 21.3406 36.855 21.331 37.643 21.331C38.431 21.3118 39.1421 21.3022 39.7764 21.3022H46.0037C46.6572 21.3022 47.1857 21.3887 47.5893 21.5617C47.9929 21.7154 48.3005 21.9461 48.5119 22.2536C48.7425 22.5611 48.9059 22.9455 49.002 23.4068C49.1173 23.8489 49.2038 24.3582 49.2615 24.9348C49.3383 25.4922 49.396 26.0207 49.4344 26.5204C49.4729 27.0202 49.4921 27.5487 49.4921 28.1061C49.4921 28.5289 49.4537 28.9902 49.3768 29.4899C49.2999 29.9896 49.0885 30.3933 48.7425 30.7008C48.5119 30.893 48.2236 31.0371 47.8776 31.1332C47.1665 31.3062 46.4265 31.3927 45.6577 31.3927C44.9081 31.3927 44.1682 31.4023 43.4378 31.4215C42.2269 31.4408 41.0257 31.46 39.8341 31.4792C38.6424 31.4984 37.4412 31.508 36.2303 31.508C35.8459 31.508 35.4519 31.4984 35.0483 31.4792C34.6639 31.4792 34.2795 31.46 33.8951 31.4215C33.6068 31.4023 33.3569 31.3639 33.1455 31.3062C32.9341 31.2678 32.7419 31.1909 32.5689 31.0756C32.4151 30.9795 32.2806 30.8353 32.1653 30.6431C32.0692 30.4701 31.9923 30.2299 31.9346 29.9224C31.8578 29.5956 31.8001 29.2016 31.7617 28.7403C31.7424 28.2983 31.7232 27.837 31.704 27.3565C31.704 26.876 31.704 26.4051 31.704 25.9438C31.704 25.4633 31.6944 25.0309 31.6752 24.6465C31.6559 24.339 31.6367 24.0411 31.6175 23.7528C31.5983 23.4452 31.5887 23.1377 31.5887 22.8302ZM34.3275 23.8969C34.3467 24.0507 34.3564 24.1948 34.3564 24.3294C34.3564 24.4639 34.3564 24.608 34.3564 24.7618L34.414 26.4339C34.414 26.5877 34.414 26.7319 34.414 26.8664C34.4332 27.0009 34.4428 27.1451 34.4428 27.2988C34.4428 27.5679 34.4428 27.837 34.4428 28.1061C34.4621 28.3944 34.4909 28.6731 34.5293 28.9422C35.0098 28.9998 35.5096 29.0286 36.0285 29.0286C36.9511 29.0286 37.8736 29.019 38.7962 28.9998C39.7187 28.9806 40.6413 28.9518 41.5639 28.9133C42.448 28.8941 43.3225 28.8749 44.1874 28.8557C45.0523 28.8557 45.9268 28.8268 46.8109 28.7692V28.3367C46.8109 28.2022 46.7917 27.8947 46.7533 27.4142C46.734 26.9529 46.7052 26.4628 46.6668 25.9438C46.6283 25.4249 46.5803 24.9636 46.5226 24.56C46.465 24.1564 46.4073 23.9353 46.3496 23.8969C46.292 23.8777 46.0806 23.8681 45.7154 23.8681C45.3694 23.8489 44.985 23.8392 44.5622 23.8392C44.1393 23.8392 43.7357 23.8392 43.3513 23.8392C42.9669 23.8392 42.7074 23.8392 42.5729 23.8392C41.1891 23.8392 39.8148 23.8392 38.4502 23.8392C37.0856 23.8392 35.7114 23.8585 34.3275 23.8969ZM75.0587 29.8359C75.0587 30.2203 74.9049 30.5374 74.5974 30.7873C74.3091 31.0564 73.9824 31.1909 73.6172 31.1909C73.3289 31.1909 73.0694 31.1044 72.8388 30.9314C72.6081 30.7777 72.464 30.5566 72.4063 30.2683C72.3679 30.1146 72.3583 29.9512 72.3775 29.7782C72.3967 29.6052 72.4063 29.4323 72.4063 29.2593C72.3871 26.7991 72.3871 24.3486 72.4063 21.9076C72.4255 19.4475 72.3871 16.9873 72.291 14.5272C72.2526 13.6815 72.2141 12.8454 72.1757 12.0189C72.1565 11.1925 72.118 10.3564 72.0604 9.51074C72.0219 9.12634 71.9835 8.75155 71.945 8.38637C71.9066 8.00197 71.8874 7.61757 71.8874 7.23317C71.8874 6.84877 72.0315 6.53164 72.3198 6.28178C72.6274 6.0127 72.9637 5.87816 73.3289 5.87816C73.867 5.87816 74.2418 6.09919 74.4533 6.54125C74.5494 6.71423 74.5974 6.98331 74.5974 7.34849C74.6166 7.71367 74.6358 8.00197 74.6551 8.21339C74.7319 9.23205 74.7896 10.2507 74.828 11.2694C74.8665 12.2688 74.9049 13.2779 74.9434 14.2965L76.0389 14.2389C76.5194 14.2196 76.9903 14.2004 77.4516 14.1812C77.9129 14.162 78.3741 14.1524 78.8354 14.1524C79.1622 14.1524 79.4408 14.2581 79.6715 14.4695C79.9213 14.6809 80.0463 14.9596 80.0463 15.3056C80.0463 15.6323 79.931 15.9206 79.7003 16.1705C79.4697 16.4203 79.2006 16.5741 78.8931 16.6317C78.7201 16.6702 78.5471 16.6894 78.3741 16.6894C78.2204 16.6894 78.057 16.6894 77.884 16.6894L76.6443 16.7471C76.5675 16.7471 76.5002 16.7567 76.4425 16.7759C76.3849 16.7759 76.3176 16.7759 76.2407 16.7759H75.4046C75.3278 16.7759 75.2605 16.7855 75.2028 16.8047C75.1452 16.8047 75.0779 16.8047 75.001 16.8047C75.0202 17.7657 75.0299 18.7267 75.0299 19.6877C75.0491 20.6295 75.0587 21.5809 75.0587 22.5419V29.8359ZM59.404 9.45308C58.7121 9.49152 58.0202 9.53957 57.3282 9.59723C56.6555 9.65489 55.9732 9.68372 55.2813 9.68372C54.9546 9.68372 54.6663 9.57801 54.4164 9.36659C54.1858 9.15517 54.0704 8.87648 54.0704 8.53052C54.0704 8.29988 54.1473 8.05963 54.3011 7.80977C54.5125 7.48303 54.772 7.30044 55.0795 7.262C55.387 7.20434 55.7234 7.1659 56.0885 7.14668C56.742 7.10824 57.3955 7.0698 58.049 7.03136C58.7025 6.9737 59.3559 6.94487 60.0094 6.94487C60.4707 6.94487 60.8455 7.00253 61.1338 7.11785C61.3452 6.96409 61.5566 6.8776 61.7681 6.85838C61.9987 6.83916 62.2486 6.82955 62.5176 6.82955H63.7573C64.1994 6.81033 64.6318 6.79111 65.0547 6.77189C65.4967 6.75267 65.9388 6.74306 66.3809 6.74306C67.8992 6.74306 68.6584 7.50225 68.6584 9.02063C68.6584 9.23205 68.6488 9.45308 68.6296 9.68372C68.6104 9.89514 68.5912 10.1066 68.5719 10.318C68.5335 10.933 68.4758 11.5384 68.399 12.1343C68.3413 12.7109 68.274 13.3067 68.1971 13.9217C68.0434 15.1326 67.88 16.2666 67.707 17.3237C67.5341 18.3808 67.3034 19.3994 67.0151 20.3796C66.7268 21.3599 66.352 22.3305 65.8907 23.2915C65.4487 24.2525 64.8625 25.2423 64.1321 26.261C64.0168 26.4339 63.8919 26.6165 63.7573 26.8087C63.6228 27.0009 63.4786 27.1739 63.3249 27.3277C63.1711 27.5007 62.9981 27.6352 62.8059 27.7313C62.6137 27.8466 62.4023 27.9043 62.1717 27.9043C61.8449 27.9043 61.5566 27.7986 61.3068 27.5871C61.0761 27.3757 60.9608 27.1066 60.9608 26.7799C60.9608 26.6069 60.9993 26.4339 61.0761 26.261C61.1722 26.0688 61.2779 25.8862 61.3933 25.7132C61.5278 25.5402 61.6623 25.3768 61.7969 25.2231C61.9314 25.0693 62.0467 24.9252 62.1428 24.7906C62.335 24.5216 62.5176 24.2429 62.6906 23.9546C62.8828 23.6663 63.0558 23.3684 63.2096 23.0608C63.5747 22.3497 63.8823 21.6386 64.1321 20.9274C64.382 20.2163 64.5934 19.4955 64.7664 18.7652C64.9394 18.0156 65.0835 17.266 65.1988 16.5164C65.3141 15.7668 65.4199 14.998 65.516 14.21C65.6121 13.3836 65.7082 12.5667 65.8043 11.7595C65.9004 10.933 65.9676 10.1066 66.0061 9.2801C65.3526 9.29932 64.6991 9.31854 64.0456 9.33776C63.3921 9.35698 62.7387 9.36659 62.0852 9.36659C62.0852 9.57801 62.0852 9.77982 62.0852 9.97202C62.1044 10.145 62.114 10.3276 62.114 10.5198C62.114 11.5769 62.0756 12.6244 61.9987 13.6623C61.9218 14.7001 61.7681 15.738 61.5374 16.7759C61.3837 17.4294 61.1626 18.1213 60.8743 18.8517C60.6052 19.5628 60.2977 20.2835 59.9518 21.0139C59.6058 21.725 59.2406 22.4266 58.8562 23.1185C58.4718 23.7912 58.1066 24.4158 57.7607 24.9924C57.6261 25.2039 57.482 25.4441 57.3282 25.7132C57.1745 25.9631 57.0015 26.1649 56.8093 26.3186C56.5018 26.5685 56.175 26.6934 55.8291 26.6934C55.5023 26.6934 55.214 26.5877 54.9642 26.3763C54.7335 26.1649 54.6182 25.8958 54.6182 25.569C54.6182 25.2807 54.7047 25.0213 54.8777 24.7906C55.0507 24.56 55.214 24.3294 55.3678 24.0987C56.0789 22.984 56.742 21.8115 57.3571 20.5815C57.9721 19.3322 58.4622 18.0732 58.8274 16.8047C59.0965 15.8437 59.2598 14.8539 59.3175 13.8352C59.3944 12.7974 59.4328 11.7787 59.4328 10.7793C59.4328 10.5678 59.4328 10.3564 59.4328 10.145C59.4328 9.91436 59.4232 9.68372 59.404 9.45308ZM95.8649 25.7709C95.7688 25.7709 95.6823 25.7612 95.6055 25.742C95.5286 25.7228 95.4421 25.694 95.346 25.6555C95.1538 25.5787 94.9712 25.4826 94.7982 25.3672C94.6252 25.2519 94.4619 25.1366 94.3081 25.0213C93.5777 24.5216 92.8762 24.0026 92.2035 23.4645C91.55 22.9071 90.9158 22.3113 90.3007 21.677C89.7241 22.638 89.0803 23.5509 88.3691 24.4158C87.6772 25.2807 86.8892 26.088 86.0051 26.8376C85.8705 26.9529 85.7072 27.097 85.515 27.27C85.3228 27.4238 85.1113 27.5775 84.8807 27.7313C84.6693 27.8851 84.4579 28.01 84.2464 28.1061C84.035 28.2214 83.8332 28.2791 83.641 28.2791C83.3143 28.2791 83.026 28.1734 82.7761 27.9619C82.5455 27.7505 82.4301 27.4718 82.4301 27.1259C82.4301 26.8952 82.4878 26.6934 82.6031 26.5204C82.7377 26.3282 82.8914 26.1553 83.0644 26.0015C83.2374 25.8477 83.42 25.7132 83.6122 25.5979C83.8236 25.4633 84.0062 25.3288 84.1599 25.1943C84.775 24.6945 85.3516 24.1468 85.8897 23.5509C87.2928 21.9557 88.4172 20.1778 89.2629 18.2174C90.1278 16.2377 90.8101 14.2292 91.3098 12.1919C91.4059 11.7691 91.502 11.3366 91.5981 10.8946C91.7134 10.4525 91.7711 10.0105 91.7711 9.5684V9.51074C91.5596 9.49152 91.2137 9.4723 90.7332 9.45308C90.2527 9.43386 89.7145 9.41464 89.1187 9.39542C88.5421 9.3762 87.9367 9.35698 87.3024 9.33776C86.6682 9.31854 86.0819 9.29932 85.5438 9.2801C85.0056 9.26088 84.5443 9.24166 84.1599 9.22244C83.7755 9.184 83.5353 9.13595 83.4392 9.07829C82.9971 8.82843 82.7761 8.48247 82.7761 8.04041C82.7761 7.65601 82.9203 7.32927 83.2086 7.06019C83.4969 6.79111 83.8332 6.65657 84.2176 6.65657C84.4482 6.65657 84.6789 6.66618 84.9095 6.6854C85.1594 6.70462 85.3996 6.72384 85.6303 6.74306L87.9943 6.82955C88.8016 6.86799 89.6184 6.88721 90.4449 6.88721C91.2713 6.88721 92.0882 6.94487 92.8954 7.06019C93.0492 7.07941 93.1933 7.10824 93.3279 7.14668C93.4624 7.1659 93.597 7.22356 93.7315 7.31966C94.0006 7.49264 94.1832 7.7425 94.2793 8.06924C94.3946 8.39598 94.4523 8.71311 94.4523 9.02063C94.4523 9.75099 94.3754 10.4813 94.2216 11.2117C94.0679 11.9228 93.8949 12.634 93.7027 13.3451C93.4336 14.3446 93.1261 15.3248 92.7801 16.2858C92.4534 17.2276 92.0786 18.1597 91.6557 19.0823L91.7999 19.2264L92.0594 19.5724L92.2035 19.7166C92.8186 20.3893 93.472 21.0139 94.164 21.5905C94.7598 22.0902 95.394 22.5515 96.0667 22.9743C96.2205 23.0704 96.3839 23.1665 96.5568 23.2626C96.7298 23.3587 96.8836 23.4741 97.0181 23.6086C97.2103 23.8008 97.3064 24.0603 97.3064 24.387C97.3064 24.7714 97.1623 25.0982 96.874 25.3672C96.5857 25.6363 96.2493 25.7709 95.8649 25.7709ZM103.909 24.0122C103.909 24.8579 103.889 25.7036 103.851 26.5493C103.832 27.3757 103.822 28.2214 103.822 29.0863C103.822 29.2401 103.822 29.3842 103.822 29.5188C103.841 29.6725 103.832 29.8263 103.793 29.98C103.697 30.3068 103.514 30.5759 103.245 30.7873C102.996 31.0179 102.698 31.1332 102.352 31.1332C102.025 31.1332 101.737 31.0275 101.487 30.8161C101.256 30.6239 101.141 30.3548 101.141 30.0089V28.5674L101.227 25.6844C101.227 23.5317 101.218 21.3887 101.198 19.2553C101.198 17.1026 101.16 14.95 101.083 12.7974C101.045 11.8364 101.006 10.885 100.968 9.94319C100.929 9.00141 100.91 8.05002 100.91 7.08902C100.91 6.70462 101.054 6.38749 101.343 6.13763C101.65 5.86855 101.986 5.73401 102.352 5.73401C102.621 5.73401 102.851 5.80128 103.044 5.93582C103.255 6.05114 103.409 6.23373 103.505 6.48359C103.524 6.56047 103.543 6.74306 103.563 7.03136C103.582 7.30044 103.601 7.59835 103.62 7.92509C103.639 8.23261 103.649 8.54013 103.649 8.84765C103.649 9.13595 103.649 9.33776 103.649 9.45308C103.726 11.894 103.784 14.3157 103.822 16.7182C103.88 19.1207 103.909 21.5521 103.909 24.0122ZM137.826 31.1621C137.345 31.1621 137.028 31.0275 136.874 30.7584C136.72 30.4894 136.634 30.153 136.615 29.7494C136.576 28.9229 136.548 28.0965 136.528 27.27C136.528 26.4628 136.509 25.6459 136.471 24.8195C136.432 23.0897 136.384 21.3695 136.326 19.6589C136.288 17.9483 136.24 16.2281 136.182 14.4983L136.038 9.53957C136.019 9.13595 136 8.73233 135.981 8.32871C135.961 7.92509 135.952 7.51186 135.952 7.08902C135.952 6.70462 136.096 6.38749 136.384 6.13763C136.692 5.86855 137.038 5.73401 137.422 5.73401C137.922 5.73401 138.248 5.87816 138.402 6.16646C138.556 6.45476 138.633 6.79111 138.633 7.17551C138.71 9.71255 138.787 12.24 138.864 14.7578C138.94 17.2564 139.017 19.7646 139.094 22.2824C139.133 23.5509 139.171 24.8099 139.209 26.0592C139.248 27.2892 139.267 28.5385 139.267 29.8071C139.267 30.1915 139.113 30.5086 138.806 30.7584C138.518 31.0275 138.191 31.1621 137.826 31.1621ZM131.166 7.11785C131.166 6.73345 131.31 6.41632 131.598 6.16646C131.906 5.89738 132.252 5.76284 132.636 5.76284C133.04 5.76284 133.338 5.88777 133.53 6.13763C133.741 6.36827 133.847 6.67579 133.847 7.06019V12.5379L133.934 23.5221V28.9998C133.934 29.3842 133.78 29.711 133.472 29.98C133.184 30.2491 132.848 30.3837 132.463 30.3837C132.06 30.3837 131.752 30.2587 131.541 30.0089C131.349 29.7782 131.252 29.4707 131.252 29.0863V23.5798L131.195 16.6894L130.359 16.7182C129.917 16.7375 129.475 16.7567 129.032 16.7759C128.61 16.7951 128.177 16.8047 127.735 16.8047C127.408 16.8047 127.12 16.699 126.87 16.4876C126.64 16.2762 126.524 15.9975 126.524 15.6515C126.524 15.3824 126.601 15.1422 126.755 14.9308C126.986 14.604 127.245 14.4214 127.533 14.383C127.841 14.3253 128.177 14.2869 128.542 14.2677L129.782 14.21C129.84 14.21 129.897 14.21 129.955 14.21C130.013 14.1908 130.07 14.1812 130.128 14.1812H130.849C130.906 14.1812 130.964 14.1812 131.022 14.1812C131.079 14.162 131.137 14.1524 131.195 14.1524L131.166 12.5955V7.11785ZM123.757 9.48191C123.584 9.46269 123.295 9.45308 122.892 9.45308C122.488 9.43386 122.036 9.41464 121.537 9.39542C121.037 9.3762 120.508 9.35698 119.951 9.33776C119.394 9.31854 118.875 9.29932 118.394 9.2801C117.933 9.24166 117.529 9.21283 117.183 9.19361C116.837 9.15517 116.626 9.11673 116.549 9.07829C116.107 8.82843 115.886 8.48247 115.886 8.04041C115.886 7.65601 116.03 7.32927 116.318 7.06019C116.626 6.79111 116.972 6.65657 117.356 6.65657C117.568 6.65657 117.779 6.66618 117.991 6.6854C118.202 6.70462 118.413 6.72384 118.625 6.74306C119.048 6.7815 119.461 6.81033 119.865 6.82955C120.287 6.82955 120.71 6.83916 121.133 6.85838C121.767 6.8776 122.411 6.88721 123.065 6.88721C123.718 6.88721 124.362 6.94487 124.996 7.06019C125.15 7.07941 125.285 7.10824 125.4 7.14668C125.534 7.1659 125.659 7.22356 125.775 7.31966C126.044 7.49264 126.217 7.7425 126.294 8.06924C126.39 8.37676 126.438 8.67467 126.438 8.96297C126.438 9.65489 126.361 10.3372 126.207 11.0099C126.073 11.6826 125.928 12.3553 125.775 13.028C125.525 14.0467 125.237 15.0461 124.91 16.0263C124.602 17.0065 124.237 17.9771 123.814 18.9381L123.987 19.1976C124.295 19.5436 124.602 19.8895 124.91 20.2355C125.217 20.5815 125.534 20.9178 125.861 21.2445C126.169 21.5521 126.476 21.85 126.784 22.1383C127.11 22.4074 127.437 22.6764 127.764 22.9455C127.918 23.0608 128.071 23.1665 128.225 23.2626C128.398 23.3587 128.542 23.4837 128.658 23.6374C128.85 23.8681 128.946 24.1179 128.946 24.387C128.946 24.7714 128.792 25.0982 128.485 25.3672C128.196 25.6363 127.86 25.7709 127.476 25.7709C127.303 25.7709 127.101 25.7228 126.87 25.6267C126.678 25.5306 126.495 25.4153 126.322 25.2807C126.149 25.1462 125.986 25.0021 125.832 24.8483C125.217 24.3486 124.631 23.8296 124.074 23.2915C123.516 22.7533 122.978 22.1863 122.459 21.5905C121.979 22.3977 121.45 23.1665 120.874 23.8969C120.316 24.608 119.692 25.2904 119 25.9438C118.865 26.0592 118.711 26.2033 118.538 26.3763C118.365 26.53 118.183 26.6838 117.991 26.8376C117.798 26.9721 117.597 27.0874 117.385 27.1835C117.174 27.2796 116.972 27.3277 116.78 27.3277C116.453 27.3277 116.174 27.222 115.944 27.0105C115.713 26.7991 115.598 26.5204 115.598 26.1745C115.598 25.9438 115.646 25.7516 115.742 25.5979C115.857 25.4249 115.992 25.2711 116.145 25.1366C116.299 24.9828 116.463 24.8483 116.636 24.733C116.809 24.5984 116.972 24.4735 117.126 24.3582C117.356 24.1468 117.577 23.9353 117.789 23.7239C118 23.4933 118.202 23.2723 118.394 23.0608C119.105 22.2344 119.759 21.2638 120.355 20.149C120.97 19.0342 121.508 17.8714 121.969 16.6606C122.45 15.4305 122.844 14.2004 123.151 12.9703C123.459 11.721 123.661 10.5582 123.757 9.48191ZM151.014 16.5164C151.014 16.0359 151.052 15.5266 151.129 14.9884C151.206 14.4311 151.312 13.8833 151.446 13.3451C151.581 12.7877 151.735 12.2496 151.908 11.7306C152.1 11.2117 152.311 10.7408 152.542 10.318C152.83 9.77982 153.176 9.27049 153.58 8.78999C153.984 8.29027 154.426 7.85782 154.906 7.49264C155.406 7.12746 155.944 6.83916 156.521 6.62774C157.097 6.41632 157.703 6.31061 158.337 6.31061C159.298 6.31061 160.153 6.47398 160.903 6.80072C161.652 7.10824 162.296 7.53108 162.834 8.06924C163.392 8.6074 163.853 9.24166 164.218 9.97202C164.603 10.6832 164.91 11.4423 165.141 12.2496C165.371 13.0376 165.535 13.8545 165.631 14.7001C165.727 15.5458 165.775 16.3627 165.775 17.1507C165.775 18.1693 165.631 19.2553 165.343 20.4085C165.054 21.5617 164.612 22.6284 164.016 23.6086C163.421 24.5888 162.681 25.4057 161.796 26.0592C160.912 26.6934 159.865 27.0105 158.654 27.0105C157.27 27.0105 156.098 26.6838 155.137 26.0303C154.176 25.3768 153.388 24.5408 152.773 23.5221C152.158 22.4842 151.706 21.3503 151.418 20.1202C151.149 18.8709 151.014 17.6696 151.014 16.5164ZM158.106 8.81882C157.683 8.81882 157.328 8.8957 157.039 9.04946C156.77 9.184 156.482 9.38581 156.175 9.65489C155.752 10.0393 155.377 10.5006 155.05 11.0387C154.743 11.5577 154.483 12.115 154.272 12.7109C154.08 13.3067 153.935 13.9217 153.839 14.556C153.743 15.171 153.695 15.7572 153.695 16.3146C153.695 16.6414 153.705 16.9777 153.724 17.3237C153.743 17.6504 153.772 17.9771 153.811 18.3039C153.907 18.9766 154.08 19.6781 154.329 20.4085C154.579 21.1196 154.906 21.7827 155.31 22.3977C155.733 22.9936 156.232 23.4933 156.809 23.8969C157.405 24.2813 158.106 24.4735 158.913 24.4735C159.067 24.4735 159.211 24.4735 159.346 24.4735C159.5 24.4543 159.653 24.4158 159.807 24.3582C160.172 24.2236 160.509 24.0026 160.816 23.6951C161.124 23.3876 161.402 23.0416 161.652 22.6572C161.902 22.2728 162.114 21.8692 162.287 21.4464C162.479 21.0235 162.623 20.6391 162.719 20.2932C162.988 19.3129 163.123 18.3423 163.123 17.3813C163.123 16.5933 163.055 15.7092 162.921 14.729C162.786 13.7295 162.527 12.7974 162.142 11.9325C161.777 11.0483 161.268 10.3084 160.614 9.71255C159.961 9.11673 159.125 8.81882 158.106 8.81882ZM172.492 24.0122C172.492 24.8579 172.473 25.7036 172.435 26.5493C172.415 27.3757 172.406 28.2214 172.406 29.0863C172.406 29.2401 172.406 29.3842 172.406 29.5188C172.425 29.6725 172.415 29.8263 172.377 29.98C172.281 30.3068 172.098 30.5759 171.829 30.7873C171.579 31.0179 171.282 31.1332 170.936 31.1332C170.609 31.1332 170.321 31.0275 170.071 30.8161C169.84 30.6239 169.725 30.3548 169.725 30.0089V28.5674L169.811 25.6844C169.811 23.5317 169.802 21.3887 169.782 19.2553C169.782 17.1026 169.744 14.95 169.667 12.7974C169.629 11.8364 169.59 10.885 169.552 9.94319C169.513 9.00141 169.494 8.05002 169.494 7.08902C169.494 6.70462 169.638 6.38749 169.926 6.13763C170.234 5.86855 170.57 5.73401 170.936 5.73401C171.205 5.73401 171.435 5.80128 171.627 5.93582C171.839 6.05114 171.993 6.23373 172.089 6.48359C172.108 6.56047 172.127 6.74306 172.146 7.03136C172.166 7.30044 172.185 7.59835 172.204 7.92509C172.223 8.23261 172.233 8.54013 172.233 8.84765C172.233 9.13595 172.233 9.33776 172.233 9.45308C172.31 11.894 172.367 14.3157 172.406 16.7182C172.464 19.1207 172.492 21.5521 172.492 24.0122ZM197.594 21.2445V29.8359C197.594 30.2203 197.441 30.5374 197.133 30.7873C196.845 31.0564 196.518 31.1909 196.153 31.1909C195.864 31.1909 195.605 31.1044 195.374 30.9314C195.144 30.7777 195 30.5566 194.942 30.2683C194.903 30.1146 194.894 29.9512 194.913 29.7782C194.932 29.6052 194.942 29.4323 194.942 29.2593C194.923 26.7799 194.923 24.3101 194.942 21.85C194.961 19.3898 194.923 16.9104 194.827 14.4118C194.769 12.7205 194.682 11.0579 194.567 9.42425C194.529 9.05907 194.49 8.7035 194.452 8.35754C194.413 7.99236 194.394 7.61757 194.394 7.23317C194.394 6.84877 194.538 6.53164 194.827 6.28178C195.134 6.0127 195.47 5.87816 195.836 5.87816C196.374 5.87816 196.749 6.09919 196.96 6.54125C197.056 6.71423 197.104 6.9737 197.104 7.31966C197.123 7.66562 197.143 7.94431 197.162 8.15573C197.2 8.73233 197.229 9.30893 197.248 9.88553C197.287 10.4621 197.325 11.0387 197.364 11.6153H197.738L200.074 11.5577H201.227C201.554 11.5577 201.832 11.6634 202.063 11.8748C202.313 12.0862 202.438 12.3649 202.438 12.7109C202.438 13.2106 202.246 13.5662 201.861 13.7776C201.477 13.989 201.064 14.0947 200.621 14.0947H200.074L199.036 14.1235H197.479C197.517 14.8731 197.537 15.6227 197.537 16.3723C197.537 17.1219 197.546 17.881 197.565 18.6498C198.123 18.6691 198.671 18.6883 199.209 18.7075C199.747 18.7267 200.295 18.7556 200.852 18.794C201.064 18.794 201.275 18.8036 201.486 18.8228C201.698 18.842 201.89 18.8901 202.063 18.967C202.236 19.0439 202.38 19.1592 202.495 19.3129C202.611 19.4667 202.668 19.6781 202.668 19.9472C202.668 20.3316 202.515 20.6583 202.207 20.9274C201.919 21.1965 201.592 21.331 201.227 21.331C200.016 21.331 198.805 21.3022 197.594 21.2445ZM177.269 16.5164C177.269 15.5939 177.375 14.6233 177.586 13.6046C177.798 12.5667 178.086 11.6153 178.451 10.7504C178.682 10.193 178.98 9.64528 179.345 9.10712C179.729 8.56896 180.152 8.09807 180.613 7.69445C181.094 7.27161 181.622 6.93526 182.199 6.6854C182.776 6.41632 183.391 6.28178 184.044 6.28178C185.428 6.28178 186.562 6.64696 187.446 7.37732C188.33 8.08846 189.032 8.9918 189.551 10.0873C190.07 11.1637 190.425 12.3361 190.617 13.6046C190.81 14.8731 190.906 16.0551 190.906 17.1507C190.906 18.0925 190.781 19.14 190.531 20.2932C190.281 21.4271 189.887 22.4938 189.349 23.4933C188.811 24.4927 188.128 25.3288 187.302 26.0015C186.476 26.6742 185.486 27.0105 184.332 27.0105C183.237 27.0105 182.286 26.7703 181.478 26.2898C180.671 25.7901 179.979 25.1558 179.403 24.387C178.845 23.599 178.403 22.7245 178.076 21.7635C177.75 20.8025 177.529 19.8511 177.413 18.9093C177.356 18.5057 177.317 18.1117 177.298 17.7273C177.279 17.3237 177.269 16.92 177.269 16.5164ZM183.814 8.81882C183.468 8.81882 183.17 8.88609 182.92 9.02063C182.67 9.15517 182.43 9.34737 182.199 9.59723C181.795 9.98163 181.449 10.4525 181.161 11.0099C180.892 11.5481 180.661 12.1247 180.469 12.7397C180.277 13.3355 180.133 13.9409 180.037 14.556C179.96 15.171 179.922 15.7476 179.922 16.2858C179.922 16.6317 179.931 16.9777 179.95 17.3237C179.97 17.6504 179.998 17.9868 180.037 18.3327C180.114 18.9285 180.258 19.582 180.469 20.2932C180.681 21.0043 180.969 21.677 181.334 22.3113C181.699 22.9263 182.141 23.4452 182.66 23.8681C183.199 24.2717 183.833 24.4735 184.563 24.4735C184.659 24.4735 184.755 24.4735 184.851 24.4735C184.967 24.4735 185.072 24.4543 185.169 24.4158C185.515 24.3005 185.832 24.0891 186.12 23.7816C186.408 23.4548 186.668 23.0897 186.898 22.686C187.129 22.2824 187.321 21.8692 187.475 21.4464C187.648 21.0235 187.782 20.6487 187.879 20.322C187.994 19.8415 188.08 19.361 188.138 18.8805C188.215 18.3808 188.253 17.881 188.253 17.3813C188.253 16.6894 188.196 15.8533 188.08 14.8731C187.965 13.8929 187.744 12.9607 187.417 12.0766C187.11 11.1733 186.658 10.4045 186.062 9.77021C185.486 9.13595 184.736 8.81882 183.814 8.81882ZM223.244 25.6844C223.244 23.5317 223.234 21.3887 223.215 19.2553C223.215 17.1026 223.177 14.95 223.1 12.7974C223.061 11.8364 223.023 10.885 222.985 9.94319C222.946 9.00141 222.927 8.05002 222.927 7.08902C222.927 6.70462 223.071 6.37788 223.359 6.1088C223.667 5.83972 224.003 5.70518 224.368 5.70518C224.637 5.70518 224.868 5.77245 225.06 5.90699C225.272 6.04153 225.425 6.23373 225.522 6.48359C225.541 6.56047 225.56 6.73345 225.579 7.00253C225.598 7.27161 225.618 7.56952 225.637 7.89626C225.656 8.20378 225.666 8.5113 225.666 8.81882C225.666 9.10712 225.666 9.31854 225.666 9.45308C225.743 11.894 225.8 14.3253 225.839 16.7471C225.896 19.1496 225.925 21.5713 225.925 24.0122C225.925 24.8771 225.906 25.7324 225.868 26.5781C225.848 27.4046 225.839 28.2406 225.839 29.0863C225.839 29.2401 225.839 29.3938 225.839 29.5476C225.858 29.7013 225.848 29.8455 225.81 29.98C225.714 30.326 225.531 30.6047 225.262 30.8161C225.012 31.0467 224.714 31.1621 224.368 31.1621C224.042 31.1621 223.753 31.0564 223.503 30.8449C223.273 30.6335 223.157 30.3548 223.157 30.0089V28.5674L223.244 25.6844ZM205.456 9.65489C205.129 9.65489 204.841 9.54918 204.591 9.33776C204.36 9.12634 204.245 8.84765 204.245 8.50169C204.245 8.21339 204.332 7.95392 204.504 7.72328C204.677 7.49264 204.898 7.32927 205.168 7.23317C205.283 7.19473 205.456 7.1659 205.687 7.14668C205.936 7.12746 206.186 7.11785 206.436 7.11785C206.705 7.09863 206.965 7.08902 207.215 7.08902C207.464 7.08902 207.657 7.08902 207.791 7.08902H209.752C210.424 7.05058 211.097 7.01214 211.77 6.9737C212.442 6.93526 213.115 6.91604 213.788 6.91604C214.095 6.91604 214.412 6.92565 214.739 6.94487C215.066 6.96409 215.373 7.02175 215.662 7.11785C215.95 7.19473 216.209 7.32927 216.44 7.52147C216.69 7.69445 216.882 7.95392 217.017 8.29988C217.209 8.78038 217.305 9.23205 217.305 9.65489C217.305 10.3276 217.238 11.0003 217.103 11.673C216.969 12.3265 216.805 12.9799 216.613 13.6334C215.94 16.0936 214.97 18.4288 213.701 20.6391C212.452 22.8494 210.886 24.8291 209.002 26.5781C208.848 26.7126 208.685 26.8664 208.512 27.0394C208.339 27.2124 208.147 27.3757 207.935 27.5295C207.743 27.6832 207.541 27.8082 207.33 27.9043C207.118 28.0196 206.917 28.0773 206.724 28.0773C206.398 28.0773 206.109 27.9715 205.859 27.7601C205.629 27.5487 205.514 27.27 205.514 26.9241C205.514 26.6165 205.629 26.3282 205.859 26.0592C205.994 25.9054 206.148 25.7709 206.321 25.6555C206.494 25.5402 206.657 25.4153 206.811 25.2807C207.176 24.954 207.522 24.6177 207.849 24.2717C208.195 23.9257 208.531 23.5702 208.858 23.205C210.126 21.725 211.174 20.1394 212 18.448C212.846 16.7567 213.528 14.9788 214.047 13.1145C214.201 12.5955 214.336 12.0766 214.451 11.5577C214.566 11.0195 214.624 10.4813 214.624 9.94319C214.624 9.84709 214.614 9.77021 214.595 9.71255C214.595 9.63567 214.585 9.55879 214.566 9.48191C214.47 9.46269 214.384 9.45308 214.307 9.45308C214.23 9.45308 214.143 9.45308 214.047 9.45308H213.528C213.105 9.45308 212.683 9.46269 212.26 9.48191C211.856 9.50113 211.443 9.52035 211.02 9.53957C210.098 9.57801 209.165 9.60684 208.224 9.62606C207.301 9.64528 206.378 9.65489 205.456 9.65489ZM241.427 13.6334C242.503 13.6334 243.56 13.6238 244.598 13.6046C245.655 13.5662 246.722 13.5277 247.798 13.4893C248.221 13.4701 248.634 13.4508 249.038 13.4316C249.461 13.4124 249.883 13.4028 250.306 13.4028C250.633 13.4028 250.912 13.5085 251.142 13.7199C251.392 13.9313 251.517 14.2004 251.517 14.5272C251.517 14.8155 251.431 15.0749 251.258 15.3056C251.085 15.5362 250.864 15.6996 250.595 15.7957C250.479 15.8341 250.201 15.8726 249.759 15.911C249.317 15.9494 248.778 15.9783 248.144 15.9975C247.529 16.0167 246.856 16.0359 246.126 16.0551C245.415 16.0744 244.723 16.0936 244.05 16.1128C243.397 16.1128 242.811 16.1224 242.292 16.1416C241.773 16.1416 241.407 16.1416 241.196 16.1416C240.619 16.1416 240.043 16.1416 239.466 16.1416C238.909 16.1224 238.351 16.0936 237.794 16.0551C237.198 15.9975 236.718 15.9206 236.353 15.8245C236.007 15.7284 235.728 15.5843 235.517 15.3921C235.305 15.1806 235.142 14.9019 235.026 14.556C234.911 14.1908 234.796 13.7199 234.68 13.1433C234.604 12.7974 234.517 12.4418 234.421 12.0766C234.344 11.6922 234.306 11.327 234.306 10.9811C234.306 10.6735 234.402 10.4045 234.594 10.1738C234.786 9.94319 235.017 9.77982 235.286 9.68372C235.382 9.64528 235.526 9.61645 235.718 9.59723C235.93 9.57801 236.141 9.5684 236.353 9.5684C236.583 9.5684 236.795 9.5684 236.987 9.5684C237.198 9.5684 237.362 9.5684 237.477 9.5684H240.101L245.348 9.53957H247.971H248.548V9.13595L248.49 8.27105V7.86743H247.279H244.137L237.881 7.95392H234.738C234.411 7.95392 234.123 7.84821 233.873 7.63679C233.643 7.42537 233.527 7.15629 233.527 6.82955C233.527 6.52203 233.623 6.25295 233.816 6.02231C234.008 5.79167 234.238 5.6283 234.507 5.5322C234.604 5.49376 234.757 5.46493 234.969 5.44571C235.199 5.42649 235.44 5.41688 235.69 5.41688C235.939 5.41688 236.18 5.41688 236.41 5.41688C236.641 5.41688 236.824 5.41688 236.958 5.41688H239.783L245.434 5.33039H248.259C248.548 5.33039 248.836 5.34961 249.124 5.38805C249.432 5.40727 249.711 5.46493 249.96 5.56103C250.229 5.65713 250.46 5.80128 250.652 5.99348C250.864 6.16646 251.008 6.41632 251.085 6.74306C251.123 6.95448 251.142 7.1659 251.142 7.37732C251.142 7.56952 251.142 7.77133 251.142 7.98275C251.162 8.29027 251.181 8.59779 251.2 8.90531C251.239 9.21283 251.258 9.52035 251.258 9.82787C251.258 10.1738 251.181 10.4813 251.027 10.7504C250.893 11.0195 250.7 11.2501 250.45 11.4423C250.22 11.6345 249.951 11.7883 249.643 11.9036C249.355 11.9997 249.057 12.0478 248.75 12.0478C246.828 12.0478 244.906 12.0574 242.984 12.0766C241.081 12.0766 239.168 12.0862 237.246 12.1054C237.285 12.3361 237.323 12.5667 237.362 12.7974C237.4 13.028 237.458 13.249 237.535 13.4604C238.188 13.5565 238.832 13.6142 239.466 13.6334C240.12 13.6334 240.773 13.6334 241.427 13.6334ZM240.821 19.7454C240.61 19.7454 240.235 19.7454 239.697 19.7454C239.159 19.7454 238.534 19.7454 237.823 19.7454C237.131 19.7262 236.401 19.7069 235.632 19.6877C234.863 19.6685 234.142 19.6493 233.47 19.6301C232.816 19.6108 232.249 19.582 231.769 19.5436C231.307 19.5051 231.038 19.4667 230.961 19.4283C230.5 19.2168 230.269 18.8709 230.269 18.3904C230.269 18.006 230.414 17.6792 230.702 17.4102C231.009 17.1411 231.346 17.0065 231.711 17.0065C232.268 17.0065 232.826 17.0258 233.383 17.0642C233.96 17.1026 234.527 17.1315 235.084 17.1507C237.064 17.2083 239.063 17.2372 241.081 17.2372C242.407 17.2372 243.714 17.2276 245.002 17.2083C246.309 17.1891 247.616 17.1603 248.922 17.1219C249.672 17.1026 250.412 17.0834 251.142 17.0642C251.892 17.045 252.632 17.0354 253.362 17.0354C253.747 17.0354 254.093 17.1219 254.4 17.2948C254.708 17.4486 254.861 17.7465 254.861 18.1886C254.861 18.573 254.708 18.8997 254.4 19.1688C254.112 19.4379 253.785 19.5724 253.42 19.5724C252.613 19.5724 251.815 19.582 251.027 19.6012C250.258 19.6205 249.48 19.6397 248.692 19.6589C247.366 19.6973 246.049 19.7262 244.742 19.7454C243.454 19.7454 242.147 19.7454 240.821 19.7454ZM246.385 23.4068C245.136 23.4068 243.887 23.4356 242.638 23.4933C241.407 23.5317 240.168 23.5894 238.918 23.6663C238.303 23.7047 237.679 23.7528 237.045 23.8104C236.429 23.8681 235.814 23.8969 235.199 23.8969C234.911 23.8969 234.652 23.8104 234.421 23.6374C234.19 23.4452 234.075 23.1954 234.075 22.8879C234.075 22.5803 234.162 22.3113 234.335 22.0806C234.527 21.85 234.757 21.6866 235.026 21.5905C235.161 21.5328 235.497 21.4848 236.035 21.4464C236.593 21.3887 237.246 21.3406 237.996 21.3022C238.765 21.2445 239.591 21.1965 240.475 21.1581C241.359 21.1196 242.205 21.0908 243.012 21.0716C243.82 21.0523 244.54 21.0331 245.175 21.0139C245.809 20.9947 246.251 20.9851 246.501 20.9851C246.828 20.9851 247.145 20.9947 247.452 21.0139C247.76 21.0139 248.077 21.0235 248.404 21.0427C248.788 21.062 249.124 21.1004 249.413 21.1581C249.72 21.2157 249.97 21.3214 250.162 21.4752C250.374 21.6097 250.527 21.8115 250.623 22.0806C250.72 22.3497 250.768 22.7053 250.768 23.1473C250.768 23.3972 250.768 23.6855 250.768 24.0122C250.768 24.339 250.748 24.6657 250.71 24.9924C250.672 25.3 250.604 25.6075 250.508 25.915C250.431 26.2033 250.306 26.4436 250.133 26.6358C249.903 26.9048 249.614 27.1066 249.268 27.2412C248.922 27.3565 248.548 27.4334 248.144 27.4718C247.76 27.5295 247.366 27.5487 246.962 27.5295C246.578 27.5295 246.222 27.5295 245.895 27.5295H243.762L239.524 27.616H237.39C237.41 27.6929 237.419 27.789 237.419 27.9043C237.439 28.0388 237.448 28.1734 237.448 28.3079C237.467 28.4424 237.487 28.5674 237.506 28.6827C237.525 28.798 237.554 28.8845 237.592 28.9422C237.631 28.9998 237.861 29.0383 238.284 29.0575C238.707 29.0767 239.178 29.0959 239.697 29.1151C240.216 29.1344 240.716 29.144 241.196 29.144C241.677 29.144 241.984 29.144 242.119 29.144C243.099 29.144 244.06 29.1344 245.002 29.1151C245.943 29.0959 246.895 29.0671 247.856 29.0286C248.183 29.0094 248.5 28.9902 248.807 28.971C249.115 28.971 249.432 28.9518 249.759 28.9133C249.912 28.8941 250.066 28.8749 250.22 28.8557C250.393 28.8364 250.556 28.8268 250.71 28.8268C250.998 28.8268 251.258 28.9133 251.488 29.0863C251.719 29.2785 251.834 29.5284 251.834 29.8359C251.834 30.1242 251.748 30.3837 251.575 30.6143C251.402 30.8449 251.181 31.0083 250.912 31.1044C250.758 31.1813 250.46 31.2389 250.018 31.2774C249.576 31.335 249.057 31.3735 248.461 31.3927C247.865 31.4311 247.222 31.46 246.53 31.4792C245.838 31.4984 245.175 31.5176 244.54 31.5369C243.925 31.5561 243.358 31.5657 242.839 31.5657C242.34 31.5657 241.965 31.5657 241.715 31.5657C241.1 31.5657 240.495 31.5561 239.899 31.5369C239.303 31.5369 238.697 31.5176 238.082 31.4792C237.717 31.46 237.362 31.4215 237.016 31.3639C236.689 31.3254 236.381 31.2389 236.093 31.1044C235.824 30.9699 235.584 30.7777 235.372 30.5278C235.18 30.2972 235.036 29.9704 234.94 29.5476L234.853 29.0286L234.825 28.5097C234.786 28.2791 234.748 28.0484 234.709 27.8178C234.671 27.5871 234.652 27.3469 234.652 27.097C234.652 26.4243 234.853 25.9438 235.257 25.6555C235.68 25.348 236.208 25.1943 236.843 25.1943C238.726 25.1943 240.6 25.1846 242.465 25.1654C244.329 25.127 246.193 25.0885 248.058 25.0501C248.077 24.8002 248.096 24.5504 248.115 24.3005C248.134 24.0507 248.144 23.7912 248.144 23.5221L248.115 23.4645C247.846 23.426 247.558 23.4068 247.25 23.4068C246.962 23.4068 246.674 23.4068 246.385 23.4068ZM283.16 5.56103C283.487 5.56103 283.766 5.66674 283.996 5.87816C284.246 6.08958 284.371 6.36827 284.371 6.71423C284.371 7.02175 284.275 7.29083 284.083 7.52147C283.891 7.75211 283.66 7.91548 283.391 8.01158C283.199 8.06924 282.91 8.10768 282.526 8.1269C282.161 8.1269 281.872 8.1269 281.661 8.1269H279.037L273.819 8.09807H271.196L271.34 10.9811C271.359 11.2501 271.369 11.5192 271.369 11.7883C271.369 12.0574 271.388 12.3265 271.426 12.5955C272.003 12.6724 272.58 12.7205 273.156 12.7397C273.733 12.7589 274.309 12.7685 274.886 12.7685C276.039 12.7685 277.192 12.7589 278.346 12.7397C279.518 12.7013 280.69 12.6628 281.863 12.6244C282.266 12.6052 282.66 12.5859 283.045 12.5667C283.448 12.5475 283.852 12.5379 284.256 12.5379C284.582 12.5379 284.861 12.6436 285.092 12.855C285.342 13.0664 285.467 13.3451 285.467 13.6911C285.467 13.9794 285.38 14.2389 285.207 14.4695C285.034 14.7001 284.813 14.8635 284.544 14.9596C284.429 15.0173 284.131 15.0653 283.65 15.1038C283.189 15.123 282.632 15.1518 281.978 15.1902C281.325 15.2095 280.613 15.2287 279.845 15.2479C279.076 15.2479 278.346 15.2575 277.654 15.2767C276.962 15.2767 276.337 15.2767 275.78 15.2767C275.242 15.2767 274.857 15.2767 274.626 15.2767C274.338 15.2767 273.973 15.2767 273.531 15.2767C273.089 15.2767 272.628 15.2671 272.147 15.2479C271.686 15.2095 271.234 15.1614 270.792 15.1038C270.369 15.0461 270.042 14.9692 269.812 14.8731C269.658 14.8155 269.504 14.7386 269.351 14.6425C269.216 14.5272 269.101 14.383 269.005 14.21C268.947 14.0947 268.899 13.9313 268.86 13.7199C268.822 13.4893 268.784 13.2586 268.745 13.028C268.726 12.7781 268.707 12.5379 268.687 12.3072C268.687 12.0766 268.687 11.8844 268.687 11.7306C268.668 11.154 268.649 10.6351 268.63 10.1738C268.611 9.69333 268.582 9.17439 268.543 8.61701C268.524 8.32871 268.505 8.05002 268.486 7.78094C268.466 7.49264 268.457 7.21395 268.457 6.94487C268.457 6.56047 268.601 6.23373 268.889 5.96465C269.197 5.69557 269.533 5.56103 269.898 5.56103H283.16ZM274.972 19.3706C274.761 19.3706 274.386 19.3706 273.848 19.3706C273.31 19.3706 272.685 19.3706 271.974 19.3706C271.282 19.3514 270.552 19.3322 269.783 19.3129C269.014 19.2937 268.293 19.2745 267.621 19.2553C266.967 19.2361 266.4 19.2072 265.92 19.1688C265.459 19.1303 265.189 19.0919 265.113 19.0535C264.651 18.842 264.421 18.4961 264.421 18.0156C264.421 17.6312 264.565 17.3044 264.853 17.0354C265.161 16.7663 265.497 16.6317 265.862 16.6317C266.42 16.6317 266.977 16.651 267.534 16.6894C268.111 16.7278 268.678 16.7567 269.235 16.7759C271.215 16.8336 273.214 16.8624 275.232 16.8624C276.558 16.8624 277.865 16.8528 279.153 16.8336C280.46 16.8143 281.767 16.7855 283.074 16.7471C283.823 16.7278 284.563 16.7086 285.294 16.6894C286.043 16.6702 286.783 16.6606 287.513 16.6606C287.898 16.6606 288.244 16.7471 288.551 16.92C288.859 17.0738 289.013 17.3717 289.013 17.8138C289.013 18.1982 288.859 18.5249 288.551 18.794C288.263 19.0631 287.936 19.1976 287.571 19.1976C286.764 19.1976 285.966 19.2072 285.178 19.2264C284.409 19.2457 283.631 19.2649 282.843 19.2841C281.517 19.3225 280.2 19.3514 278.893 19.3706C277.606 19.3706 276.299 19.3706 274.972 19.3706ZM281.2 23.3203C279.816 23.3203 278.442 23.3491 277.077 23.4068C275.712 23.4452 274.338 23.5125 272.954 23.6086C272.57 23.6278 272.195 23.647 271.83 23.6663C271.465 23.6855 271.09 23.7143 270.706 23.7528C270.494 23.772 270.283 23.7912 270.071 23.8104C269.86 23.8296 269.648 23.8392 269.437 23.8392C269.11 23.8392 268.822 23.7335 268.572 23.5221C268.342 23.3107 268.226 23.032 268.226 22.686C268.226 22.417 268.303 22.1671 268.457 21.9365C268.63 21.7058 268.841 21.5425 269.091 21.4464C269.206 21.3887 269.533 21.331 270.071 21.2734C270.629 21.2157 271.292 21.1677 272.061 21.1292C272.829 21.0908 273.656 21.0523 274.54 21.0139C275.424 20.9562 276.27 20.9178 277.077 20.8986C277.903 20.8794 278.624 20.8601 279.239 20.8409C279.874 20.8217 280.316 20.8121 280.565 20.8121C280.892 20.8121 281.209 20.8121 281.517 20.8121C281.824 20.8121 282.141 20.8217 282.468 20.8409C282.891 20.8601 283.256 20.9082 283.564 20.9851C283.871 21.0427 284.131 21.1581 284.342 21.331C284.554 21.4848 284.707 21.7058 284.803 21.9941C284.919 22.2824 284.976 22.6572 284.976 23.1185C284.976 23.3876 284.976 23.6855 284.976 24.0122C284.976 24.3197 284.948 24.6369 284.89 24.9636C284.852 25.2711 284.784 25.569 284.688 25.8573C284.592 26.1456 284.457 26.3859 284.285 26.5781C284.112 26.7895 283.91 26.9529 283.679 27.0682C283.468 27.1643 283.227 27.2412 282.958 27.2988C282.42 27.4142 281.805 27.4622 281.113 27.443C280.421 27.4238 279.787 27.4238 279.21 27.443L271.599 27.5583C271.619 27.789 271.638 28.0196 271.657 28.2502C271.676 28.4809 271.724 28.7115 271.801 28.9422H272.089L272.637 29.0286H272.925C273.483 29.0671 274.031 29.0863 274.569 29.0863C275.107 29.1055 275.655 29.1151 276.212 29.1151C277.173 29.1151 278.125 29.1055 279.066 29.0863C280.027 29.0671 280.988 29.0286 281.949 28.971C282.276 28.9518 282.593 28.9325 282.901 28.9133C283.208 28.9133 283.516 28.8941 283.823 28.8557C283.977 28.8364 284.131 28.8172 284.285 28.798C284.457 28.7788 284.621 28.7692 284.775 28.7692C285.101 28.7692 285.38 28.8749 285.611 29.0863C285.861 29.2977 285.985 29.5764 285.985 29.9224C285.985 30.1915 285.899 30.4413 285.726 30.672C285.572 30.9026 285.37 31.066 285.121 31.1621C284.967 31.2389 284.669 31.2966 284.227 31.335C283.804 31.3927 283.285 31.4311 282.67 31.4504C282.074 31.4888 281.43 31.5176 280.738 31.5369C280.066 31.5561 279.412 31.5753 278.778 31.5945C278.144 31.6137 277.567 31.6233 277.048 31.6233C276.548 31.6233 276.183 31.6233 275.953 31.6233C275.338 31.6233 274.723 31.6137 274.108 31.5945C273.512 31.5945 272.906 31.5753 272.291 31.5369C271.907 31.5176 271.542 31.4792 271.196 31.4215C270.85 31.3639 270.542 31.2582 270.273 31.1044C270.004 30.9699 269.764 30.7777 269.552 30.5278C269.36 30.2779 269.216 29.932 269.12 29.4899C269.081 29.3169 269.053 29.1344 269.033 28.9422C269.014 28.7692 268.995 28.5866 268.976 28.3944C268.937 28.1253 268.899 27.8466 268.86 27.5583C268.822 27.27 268.803 26.9817 268.803 26.6934C268.803 26.1168 269.024 25.694 269.466 25.4249C269.908 25.1558 270.379 25.0213 270.879 25.0213C272.781 25.0213 274.675 25.0117 276.558 24.9924C278.442 24.954 280.335 24.9156 282.238 24.8771C282.257 24.608 282.266 24.3582 282.266 24.1275C282.286 23.8969 282.295 23.647 282.295 23.378C282.122 23.3587 281.94 23.3491 281.747 23.3491C281.574 23.3299 281.392 23.3203 281.2 23.3203ZM292.236 16.4876C292.236 15.565 292.342 14.5944 292.553 13.5758C292.765 12.5379 293.053 11.5865 293.418 10.7216C293.649 10.1642 293.947 9.61645 294.312 9.07829C294.696 8.54013 295.119 8.05963 295.58 7.63679C296.061 7.21395 296.589 6.8776 297.166 6.62774C297.743 6.35866 298.358 6.22412 299.011 6.22412C300.107 6.22412 301.039 6.45476 301.808 6.91604C302.596 7.37732 303.249 7.98275 303.768 8.73233C304.287 9.48191 304.7 10.3372 305.008 11.2982C305.315 12.24 305.536 13.1914 305.671 14.1524H305.873C306.219 14.1331 306.603 14.1235 307.026 14.1235C307.468 14.1043 307.92 14.0851 308.381 14.0659C308.842 14.0467 309.294 14.0274 309.736 14.0082C310.178 13.989 310.572 13.9698 310.918 13.9506H310.947L310.774 10.0873C310.735 9.58762 310.697 9.09751 310.658 8.61701C310.62 8.13651 310.601 7.6464 310.601 7.14668C310.601 6.76228 310.745 6.43554 311.033 6.16646C311.321 5.89738 311.658 5.76284 312.042 5.76284C312.542 5.76284 312.917 5.99348 313.167 6.45476C313.205 6.53164 313.243 6.80072 313.282 7.262C313.32 7.72328 313.359 8.29027 313.397 8.96297C313.436 9.63567 313.474 10.366 313.513 11.154C313.551 11.9228 313.58 12.6628 313.599 13.374C313.618 14.0851 313.637 14.7194 313.657 15.2767C313.676 15.8341 313.686 16.2089 313.686 16.4011V29.7782C313.686 30.1626 313.541 30.4894 313.253 30.7584C312.965 31.0275 312.628 31.1621 312.244 31.1621C311.86 31.1621 311.562 31.0371 311.35 30.7873C311.139 30.5566 311.033 30.2491 311.033 29.8647V20.8986C311.033 20.1682 311.033 19.4379 311.033 18.7075C311.033 17.9579 311.024 17.218 311.004 16.4876H310.803L308.813 16.5741L305.873 16.6894V17.1219C305.873 18.0636 305.748 19.1111 305.498 20.2643C305.248 21.3983 304.854 22.465 304.316 23.4645C303.778 24.4639 303.095 25.3 302.269 25.9727C301.442 26.6454 300.453 26.9817 299.299 26.9817C298.204 26.9817 297.252 26.7319 296.445 26.2321C295.638 25.7324 294.946 25.0982 294.369 24.3294C293.812 23.5413 293.37 22.6668 293.043 21.7058C292.716 20.7448 292.495 19.7934 292.38 18.8517C292.342 18.4673 292.303 18.0829 292.265 17.6985C292.246 17.2948 292.236 16.8912 292.236 16.4876ZM298.78 8.76116C298.454 8.76116 298.156 8.83804 297.887 8.9918C297.637 9.12634 297.397 9.30893 297.166 9.53957C296.782 9.92397 296.445 10.3949 296.157 10.9522C295.869 11.4904 295.628 12.067 295.436 12.682C295.244 13.2971 295.1 13.9121 295.004 14.5272C294.927 15.1422 294.888 15.7188 294.888 16.257C294.888 16.5837 294.898 16.92 294.917 17.266C294.936 17.612 294.965 17.9483 295.004 18.2751C295.081 18.8709 295.225 19.5244 295.436 20.2355C295.648 20.9466 295.926 21.6193 296.272 22.2536C296.637 22.8686 297.089 23.3876 297.627 23.8104C298.165 24.2333 298.8 24.4447 299.53 24.4447C299.626 24.4447 299.722 24.4447 299.818 24.4447C299.934 24.4447 300.039 24.4255 300.135 24.387C300.481 24.2717 300.798 24.0603 301.087 23.7528C301.375 23.426 301.635 23.0608 301.865 22.6572C302.096 22.2536 302.288 21.8404 302.442 21.4175C302.615 20.9947 302.749 20.6199 302.845 20.2932C302.98 19.8127 303.076 19.3322 303.134 18.8517C303.191 18.3519 303.22 17.8522 303.22 17.3525C303.22 16.8912 303.191 16.3627 303.134 15.7668C303.095 15.171 303.009 14.556 302.874 13.9217C302.759 13.2682 302.596 12.634 302.384 12.0189C302.173 11.4039 301.904 10.8561 301.577 10.3756C301.25 9.89514 300.856 9.51074 300.395 9.22244C299.934 8.91492 299.395 8.76116 298.78 8.76116ZM334.175 7.95392H333.771L332.964 7.98275H332.56L329.331 8.04041C329.062 8.04041 328.793 8.04041 328.524 8.04041C328.255 8.04041 327.986 8.05002 327.717 8.06924C327.198 8.08846 326.679 8.09807 326.16 8.09807C325.641 8.09807 325.122 8.11729 324.603 8.15573C324.372 8.17495 324.132 8.19417 323.882 8.21339C323.652 8.23261 323.421 8.24222 323.19 8.24222C322.864 8.24222 322.575 8.13651 322.325 7.92509C322.095 7.71367 321.98 7.43498 321.98 7.08902C321.98 6.7815 322.066 6.52203 322.239 6.31061C322.412 6.09919 322.633 5.93582 322.902 5.8205C322.998 5.78206 323.354 5.74362 323.969 5.70518C324.584 5.64752 325.324 5.60908 326.189 5.58986C327.073 5.55142 328.024 5.52259 329.043 5.50337C330.062 5.46493 331.032 5.44571 331.955 5.44571C332.896 5.42649 333.723 5.41688 334.434 5.41688C335.164 5.39766 335.664 5.38805 335.933 5.38805C336.164 5.38805 336.395 5.40727 336.625 5.44571C336.875 5.48415 337.086 5.55142 337.259 5.64752C337.452 5.74362 337.605 5.88777 337.721 6.07997C337.836 6.25295 337.894 6.48359 337.894 6.77189C337.894 7.13707 337.75 7.53108 337.461 7.95392C337.173 8.37676 336.827 8.78999 336.423 9.19361C336.039 9.59723 335.635 9.97202 335.212 10.318C334.79 10.6447 334.453 10.9042 334.203 11.0964C334.684 11.327 335.184 11.5769 335.703 11.846C336.241 12.0958 336.74 12.3553 337.202 12.6244C337.663 12.8742 338.057 13.1049 338.384 13.3163C338.73 13.5085 338.951 13.6623 339.047 13.7776C339.278 14.0082 339.393 14.2773 339.393 14.5848C339.393 14.9692 339.249 15.296 338.96 15.565C338.672 15.8341 338.336 15.9687 337.951 15.9687C337.663 15.9687 337.394 15.8918 337.144 15.738C336.913 15.5843 336.683 15.4305 336.452 15.2767C335.895 14.9308 335.318 14.604 334.722 14.2965C334.127 13.989 333.521 13.7007 332.906 13.4316C332.752 13.3547 332.541 13.2682 332.272 13.1721C332.003 13.0568 331.753 12.9511 331.522 12.855C330.58 13.4124 329.629 13.9313 328.668 14.4118C327.726 14.8731 326.813 15.296 325.929 15.6804C325.795 15.738 325.593 15.8245 325.324 15.9398C325.074 16.0551 324.805 16.1705 324.517 16.2858C324.247 16.4011 323.988 16.5068 323.738 16.6029C323.488 16.6798 323.296 16.7182 323.162 16.7182C322.835 16.7182 322.547 16.6125 322.297 16.4011C322.066 16.1897 321.951 15.911 321.951 15.565C321.951 15.123 322.153 14.7578 322.556 14.4695C322.748 14.335 322.96 14.2292 323.19 14.1524C323.44 14.0755 323.671 13.989 323.882 13.8929C324.267 13.7391 324.651 13.5758 325.036 13.4028C325.439 13.2298 325.833 13.0568 326.218 12.8838C326.89 12.5763 327.573 12.24 328.264 11.8748C328.976 11.5096 329.677 11.1252 330.369 10.7216C331.061 10.2988 331.724 9.8567 332.358 9.39542C333.012 8.93414 333.617 8.45364 334.175 7.95392ZM329.504 22.3977V21.9941H327.688L322.671 22.023H320.192C319.981 22.023 319.74 22.023 319.471 22.023C319.202 22.023 318.952 21.9941 318.722 21.9365C318.491 21.8788 318.299 21.7731 318.145 21.6193C317.991 21.4464 317.914 21.1965 317.914 20.8698C317.914 20.5622 318.011 20.2932 318.203 20.0625C318.395 19.8319 318.626 19.6685 318.895 19.5724C319.01 19.5147 319.145 19.4859 319.298 19.4859C319.913 19.4475 320.538 19.4379 321.172 19.4571C321.807 19.4763 322.431 19.4859 323.046 19.4859H326.045L332.012 19.4571H334.982C335.097 19.4571 335.337 19.4571 335.703 19.4571C336.068 19.4571 336.491 19.4571 336.971 19.4571C337.452 19.4571 337.961 19.4667 338.499 19.4859C339.037 19.4859 339.527 19.4955 339.969 19.5147C340.431 19.5147 340.825 19.5244 341.151 19.5436C341.478 19.5628 341.67 19.582 341.728 19.6012C342.228 19.8127 342.478 20.1682 342.478 20.6679C342.478 21.0523 342.334 21.3791 342.045 21.6482C341.757 21.9172 341.421 22.0518 341.036 22.0518H338.326L332.877 21.9941H332.185V23.0032C332.185 23.9834 332.185 24.9444 332.185 25.8862C332.185 26.8087 332.205 27.7601 332.243 28.7403C332.262 28.971 332.272 29.2016 332.272 29.4323C332.291 29.6629 332.301 29.8935 332.301 30.1242C332.301 30.5086 332.157 30.8353 331.868 31.1044C331.58 31.3735 331.244 31.508 330.859 31.508C330.629 31.508 330.407 31.4408 330.196 31.3062C329.985 31.1909 329.831 31.0275 329.735 30.8161C329.696 30.72 329.658 30.4701 329.619 30.0665C329.6 29.6821 329.581 29.2016 329.562 28.625C329.543 28.0676 329.523 27.4622 329.504 26.8087C329.504 26.1553 329.504 25.5402 329.504 24.9636C329.504 24.3678 329.504 23.8392 329.504 23.378C329.504 22.9167 329.504 22.5899 329.504 22.3977ZM357.867 21.0427C357.54 21.0427 357.252 20.937 357.002 20.7256C356.772 20.5142 356.656 20.2355 356.656 19.8895C356.656 19.6205 356.714 19.3994 356.829 19.2264C356.945 19.0342 357.098 18.8901 357.291 18.794C357.483 18.6787 357.685 18.6018 357.896 18.5634C358.127 18.5249 358.357 18.5057 358.588 18.5057C359.049 18.5057 359.511 18.5057 359.972 18.5057C360.433 18.4865 360.904 18.4769 361.384 18.4769C361.884 18.4576 362.365 18.448 362.826 18.448C363.306 18.4288 363.797 18.4096 364.296 18.3904C364.277 17.5255 364.258 16.6606 364.239 15.7957C364.239 14.9308 364.219 14.0659 364.181 13.201H364.037L361.586 13.3451L359.078 13.5181C358.867 13.5373 358.665 13.5565 358.473 13.5758C358.28 13.595 358.079 13.6046 357.867 13.6046C357.54 13.6046 357.252 13.4989 357.002 13.2875C356.772 13.076 356.656 12.7974 356.656 12.4514C356.656 12.1823 356.733 11.9325 356.887 11.7018C357.06 11.4712 357.271 11.3078 357.521 11.2117C357.733 11.1156 357.992 11.0676 358.3 11.0676C358.626 11.0483 358.915 11.0291 359.165 11.0099L361.615 10.8657L364.066 10.6928V10.5486L364.037 10.2315V10.0873C363.998 9.58762 363.96 9.09751 363.922 8.61701C363.883 8.13651 363.864 7.6464 363.864 7.14668C363.864 6.76228 364.008 6.43554 364.296 6.16646C364.604 5.89738 364.94 5.76284 365.305 5.76284C365.824 5.76284 366.199 5.99348 366.43 6.45476C366.468 6.53164 366.507 6.80072 366.545 7.262C366.584 7.72328 366.622 8.29027 366.66 8.96297C366.699 9.63567 366.737 10.366 366.776 11.154C366.814 11.9228 366.843 12.6628 366.862 13.374C366.881 14.0851 366.901 14.7194 366.92 15.2767C366.939 15.8341 366.949 16.2089 366.949 16.4011V29.7782C366.949 30.1626 366.795 30.4894 366.487 30.7584C366.199 31.0275 365.872 31.1621 365.507 31.1621C365.104 31.1621 364.796 31.0371 364.585 30.7873C364.392 30.5566 364.296 30.2491 364.296 29.8647V20.9274C363.797 20.9659 363.22 20.9947 362.567 21.0139C361.913 21.0139 361.269 21.0235 360.635 21.0427C360.02 21.0427 359.453 21.0427 358.934 21.0427C358.434 21.0427 358.079 21.0427 357.867 21.0427ZM344.577 26.9529C344.577 26.8568 344.586 26.7703 344.605 26.6934C344.625 26.5973 344.653 26.5012 344.692 26.4051C344.846 26.0592 345.028 25.7228 345.24 25.3961C345.47 25.0693 345.682 24.7426 345.874 24.4158C346.258 23.7431 346.624 23.0704 346.969 22.3977C347.335 21.725 347.681 21.0427 348.007 20.3508C348.565 19.0823 348.978 17.7465 349.247 16.3434C349.42 15.3248 349.564 14.3061 349.68 13.2875C349.814 12.2688 349.949 11.2405 350.083 10.2027C350.122 9.77982 350.16 9.35698 350.198 8.93414C350.237 8.5113 350.295 8.09807 350.371 7.69445C350.391 7.59835 350.439 7.47342 350.516 7.31966C350.65 7.0698 350.833 6.8776 351.063 6.74306C351.294 6.5893 351.544 6.51242 351.813 6.51242C352.14 6.51242 352.418 6.61813 352.649 6.82955C352.899 7.04097 353.024 7.31966 353.024 7.66562C353.024 7.87704 353.005 8.09807 352.966 8.32871C352.947 8.55935 352.918 8.78038 352.88 8.9918L352.563 11.6442C352.466 12.4898 352.37 13.2586 352.274 13.9506C352.178 14.6425 352.082 15.2863 351.986 15.8822C352.101 16.0359 352.207 16.1993 352.303 16.3723C352.399 16.5453 352.495 16.7086 352.591 16.8624C352.86 17.3044 353.13 17.7369 353.399 18.1597C353.687 18.5634 353.966 18.9766 354.235 19.3994C354.715 20.1298 355.186 20.8505 355.647 21.5617C356.109 22.2536 356.589 22.9455 357.089 23.6374C357.3 23.9642 357.521 24.2813 357.752 24.5888C358.002 24.8771 358.223 25.1846 358.415 25.5114C358.53 25.6844 358.588 25.8862 358.588 26.1168C358.588 26.5012 358.434 26.828 358.127 27.097C357.838 27.3661 357.512 27.5007 357.146 27.5007C356.781 27.5007 356.474 27.3757 356.224 27.1259C355.916 26.8183 355.59 26.4051 355.244 25.8862C354.917 25.348 354.619 24.8867 354.35 24.5023C353.793 23.6951 353.235 22.8879 352.678 22.0806C352.14 21.2542 351.602 20.4181 351.063 19.5724C350.756 20.4565 350.362 21.3791 349.881 22.3401C349.42 23.2819 348.805 24.4062 348.036 25.7132L347.373 26.8087C347.181 27.1355 346.979 27.4334 346.768 27.7025C346.556 27.9715 346.23 28.1061 345.787 28.1061C345.461 28.1061 345.172 28.0004 344.923 27.789C344.692 27.5775 344.577 27.2988 344.577 26.9529ZM392.31 31.1621C391.926 31.1621 391.628 31.0371 391.416 30.7873C391.205 30.5566 391.099 30.2491 391.099 29.8647V20.8986C391.099 20.1682 391.099 19.4379 391.099 18.7075C391.099 17.9579 391.09 17.2083 391.07 16.4588C390.571 16.4972 390.061 16.5164 389.542 16.5164C389.023 16.5164 388.514 16.526 388.014 16.5453L385.131 16.6317C384.882 16.651 384.641 16.6702 384.411 16.6894C384.18 16.7086 383.94 16.7182 383.69 16.7182C383.363 16.7182 383.075 16.6125 382.825 16.4011C382.594 16.1897 382.479 15.911 382.479 15.565C382.479 15.296 382.556 15.0461 382.71 14.8155C382.883 14.5848 383.094 14.4214 383.344 14.3253C383.459 14.2869 383.613 14.2485 383.805 14.21C384.536 14.1139 385.276 14.0755 386.025 14.0947C386.775 14.0947 387.515 14.0755 388.245 14.037L390.696 13.9506C390.83 13.9506 390.936 13.9409 391.013 13.9217L390.84 10.0873C390.801 9.58762 390.763 9.09751 390.724 8.61701C390.686 8.13651 390.667 7.6464 390.667 7.14668C390.667 6.76228 390.811 6.43554 391.099 6.16646C391.388 5.89738 391.724 5.76284 392.108 5.76284C392.608 5.76284 392.983 5.99348 393.233 6.45476C393.271 6.53164 393.31 6.80072 393.348 7.262C393.386 7.72328 393.425 8.29027 393.463 8.96297C393.502 9.63567 393.54 10.366 393.579 11.154C393.617 11.9228 393.646 12.6628 393.665 13.374C393.684 14.0851 393.704 14.7194 393.723 15.2767C393.742 15.8341 393.752 16.2089 393.752 16.4011V29.7782C393.752 30.1626 393.607 30.4894 393.319 30.7584C393.031 31.0275 392.694 31.1621 392.31 31.1621ZM383.921 27.4718C383.594 27.4718 383.286 27.3469 382.998 27.097C382.671 26.7895 382.345 26.3763 382.018 25.8573C381.691 25.3192 381.393 24.8579 381.124 24.4735C380.567 23.6663 380.019 22.859 379.481 22.0518C378.943 21.2253 378.404 20.3989 377.866 19.5724C377.559 20.4565 377.165 21.3695 376.684 22.3113C376.204 23.253 375.579 24.3774 374.81 25.6844L374.147 26.8087C374.051 26.9817 373.955 27.1451 373.859 27.2988C373.763 27.4526 373.657 27.5871 373.542 27.7025C373.426 27.8178 373.292 27.9139 373.138 27.9908C372.984 28.0676 372.792 28.1061 372.562 28.1061C372.235 28.1061 371.946 28.0004 371.697 27.789C371.466 27.5775 371.351 27.2988 371.351 26.9529C371.351 26.7415 371.389 26.5589 371.466 26.4051C371.62 26.0399 371.802 25.694 372.014 25.3672C372.244 25.0405 372.456 24.7138 372.648 24.387C373.032 23.7143 373.398 23.0416 373.744 22.3689C374.109 21.6962 374.455 21.0139 374.781 20.322C375.07 19.6685 375.32 19.015 375.531 18.3615C375.742 17.6888 375.906 17.0065 376.021 16.3146C376.194 15.2767 376.338 14.2485 376.454 13.2298C376.588 12.2111 376.723 11.1829 376.857 10.145C376.896 9.72216 376.924 9.30893 376.944 8.90531C376.982 8.48247 377.049 8.06924 377.145 7.66562C377.165 7.5503 377.213 7.42537 377.29 7.29083C377.424 7.06019 377.607 6.86799 377.837 6.71423C378.068 6.56047 378.318 6.48359 378.587 6.48359C378.914 6.48359 379.192 6.5893 379.423 6.80072C379.673 7.01214 379.798 7.29083 379.798 7.63679C379.798 7.86743 379.779 8.09807 379.74 8.32871C379.721 8.54013 379.692 8.75155 379.654 8.96297L379.337 11.6442C379.24 12.5091 379.144 13.2875 379.048 13.9794C378.952 14.6521 378.856 15.2863 378.76 15.8822L379.25 16.6894C379.5 17.093 379.75 17.4966 380 17.9003C380.269 18.2847 380.538 18.6691 380.807 19.0535C381.307 19.8223 381.806 20.5911 382.306 21.3599C382.825 22.1094 383.344 22.859 383.863 23.6086C384.074 23.9161 384.295 24.2236 384.526 24.5312C384.776 24.8387 384.997 25.1558 385.189 25.4826C385.304 25.694 385.362 25.8958 385.362 26.088C385.362 26.4724 385.218 26.7991 384.93 27.0682C384.641 27.3373 384.305 27.4718 383.921 27.4718ZM424.526 20.1202C423.988 20.1202 423.604 19.8799 423.373 19.3994C423.335 19.3225 423.296 19.0919 423.258 18.7075C423.239 18.3039 423.21 17.8234 423.171 17.266C423.152 16.6894 423.133 16.0744 423.114 15.4209C423.094 14.7482 423.075 14.1139 423.056 13.5181C423.037 12.9031 423.017 12.3553 422.998 11.8748C422.979 11.3943 422.969 11.0579 422.969 10.8657C422.95 10.4237 422.931 9.99124 422.912 9.5684C422.893 9.12634 422.864 8.68428 422.825 8.24222C422.806 7.99236 422.787 7.75211 422.768 7.52147C422.748 7.27161 422.739 7.02175 422.739 6.77189C422.739 6.38749 422.883 6.06075 423.171 5.79167C423.479 5.52259 423.815 5.38805 424.18 5.38805C424.699 5.38805 425.074 5.61869 425.305 6.07997C425.343 6.15685 425.372 6.34905 425.391 6.65657C425.43 6.96409 425.458 7.3581 425.478 7.8386C425.516 8.29988 425.545 8.82843 425.564 9.42425C425.603 10.0008 425.641 10.6063 425.679 11.2405H425.939L427.323 11.2694H429.168C429.302 11.2694 429.437 11.2694 429.571 11.2694C429.706 11.2501 429.841 11.2598 429.975 11.2982C430.263 11.3366 430.494 11.4616 430.667 11.673C430.859 11.8844 430.955 12.1343 430.955 12.4226C430.955 12.807 430.802 13.1337 430.494 13.4028C430.206 13.6719 429.879 13.8064 429.514 13.8064H428.822L427.438 13.7776H426.746L425.766 13.8064C425.804 14.5752 425.824 15.2575 425.824 15.8533C425.843 16.4299 425.862 16.8432 425.881 17.093C425.9 17.3621 425.92 17.6408 425.939 17.9291C425.958 18.1982 425.968 18.4673 425.968 18.7363C425.968 19.1207 425.814 19.4475 425.506 19.7166C425.218 19.9856 424.891 20.1202 424.526 20.1202ZM415.647 8.53052C414.34 8.54974 413.042 8.56896 411.755 8.58818C410.486 8.58818 409.208 8.58818 407.92 8.58818C407.709 8.58818 407.478 8.58818 407.228 8.58818C406.978 8.56896 406.748 8.53052 406.536 8.47286C406.325 8.39598 406.152 8.28066 406.017 8.1269C405.883 7.95392 405.816 7.71367 405.816 7.40615C405.816 7.11785 405.902 6.85838 406.075 6.62774C406.248 6.3971 406.469 6.23373 406.738 6.13763C406.95 6.04153 407.199 6.00309 407.488 6.02231C407.776 6.02231 408.026 6.02231 408.237 6.02231H415.964C416.252 6.02231 416.54 6.05114 416.829 6.1088C417.136 6.14724 417.405 6.23373 417.636 6.36827C417.886 6.48359 418.088 6.65657 418.241 6.88721C418.395 7.11785 418.472 7.40615 418.472 7.75211C418.472 8.09807 418.395 8.50169 418.241 8.96297C418.088 9.42425 417.943 9.81826 417.809 10.145C417.444 11.2021 417.04 12.1535 416.598 12.9992C416.156 13.8256 415.656 14.5944 415.099 15.3056C414.541 16.0167 413.898 16.6798 413.167 17.2948C412.456 17.8907 411.63 18.4865 410.688 19.0823C410.553 19.1784 410.39 19.2841 410.198 19.3994C410.025 19.5147 409.842 19.6301 409.65 19.7454C409.477 19.8415 409.294 19.928 409.102 20.0049C408.91 20.0817 408.737 20.1202 408.583 20.1202C408.257 20.1202 407.968 20.0145 407.718 19.803C407.488 19.5916 407.372 19.3129 407.372 18.967C407.372 18.7363 407.42 18.5441 407.517 18.3904C407.613 18.2174 407.738 18.0732 407.891 17.9579C408.064 17.8234 408.237 17.7081 408.41 17.612C408.602 17.4966 408.785 17.3909 408.958 17.2948C409.208 17.1411 409.458 16.9873 409.708 16.8336C409.957 16.6606 410.198 16.4972 410.428 16.3434C411.159 15.8245 411.793 15.2863 412.331 14.729C412.869 14.1524 413.34 13.5469 413.744 12.9127C414.147 12.2784 414.493 11.6057 414.782 10.8946C415.089 10.1642 415.378 9.3762 415.647 8.53052ZM426.054 23.5798C426.054 24.387 426.025 25.1943 425.968 26.0015C425.929 26.8087 425.91 27.616 425.91 28.4232C425.91 28.6923 425.92 28.971 425.939 29.2593C425.958 29.5668 425.929 29.8551 425.852 30.1242C425.776 30.4125 425.651 30.6335 425.478 30.7873C425.305 30.9603 425.103 31.0756 424.872 31.1332C424.661 31.2101 424.421 31.2582 424.151 31.2774C423.902 31.2966 423.661 31.3062 423.431 31.3062C421.605 31.3831 419.789 31.4504 417.982 31.508C416.175 31.5657 414.368 31.5945 412.562 31.5945C412.235 31.5945 411.879 31.5561 411.495 31.4792C411.13 31.4023 410.774 31.287 410.428 31.1332C410.082 30.9795 409.775 30.7681 409.506 30.499C409.256 30.2491 409.093 29.9512 409.016 29.6052C408.977 29.4707 408.948 29.2785 408.929 29.0286C408.91 28.7788 408.891 28.5193 408.872 28.2502C408.872 28.0004 408.862 27.7505 408.843 27.5007C408.843 27.2508 408.833 27.049 408.814 26.8952C408.775 26.2225 408.727 25.5498 408.67 24.8771C408.612 24.2044 408.583 23.5317 408.583 22.859C408.583 22.4746 408.727 22.1479 409.016 21.8788C409.323 21.6097 409.66 21.4752 410.025 21.4752H410.544L411.553 21.5328H412.072C413.629 21.5328 415.185 21.504 416.742 21.4464C418.299 21.3887 419.856 21.3406 421.413 21.3022C421.912 21.2638 422.393 21.2349 422.854 21.2157C423.335 21.1965 423.825 21.1869 424.324 21.1869C424.632 21.1869 424.891 21.2638 425.103 21.4175C425.333 21.5713 425.516 21.7635 425.651 21.9941C425.804 22.2248 425.91 22.4842 425.968 22.7725C426.025 23.0416 426.054 23.3107 426.054 23.5798ZM423.229 28.798C423.248 28.2983 423.258 27.789 423.258 27.27C423.258 26.7511 423.277 26.2321 423.315 25.7132C423.335 25.4057 423.344 25.0982 423.344 24.7906C423.363 24.4831 423.373 24.1756 423.373 23.8681V23.7239C422.105 23.7624 420.826 23.8008 419.539 23.8392C418.27 23.8777 417.002 23.9161 415.733 23.9546C415.08 23.993 414.426 24.0218 413.773 24.0411C413.138 24.0603 412.485 24.0699 411.812 24.0699H411.322C411.361 24.8579 411.409 25.6363 411.466 26.4051C411.524 27.1547 411.582 27.9235 411.639 28.7115C411.812 28.8653 411.995 28.9614 412.187 28.9998C412.379 29.0383 412.581 29.0575 412.792 29.0575C413.407 29.0575 414.023 29.0479 414.638 29.0286C415.272 29.0286 415.896 29.019 416.512 28.9998C417.645 28.9614 418.77 28.9325 419.885 28.9133C420.999 28.8941 422.114 28.8557 423.229 28.798ZM450.666 29.2881C450.647 26.7895 450.647 24.3101 450.666 21.85C450.685 19.3898 450.647 16.9104 450.551 14.4118C450.493 12.7781 450.407 11.1156 450.291 9.42425C450.253 9.05907 450.214 8.69389 450.176 8.32871C450.137 7.96353 450.118 7.59835 450.118 7.23317C450.118 6.84877 450.262 6.52203 450.551 6.25295C450.839 5.98387 451.175 5.84933 451.56 5.84933C451.79 5.84933 452.011 5.9166 452.223 6.05114C452.434 6.16646 452.588 6.32983 452.684 6.54125C452.78 6.71423 452.828 6.9737 452.828 7.31966C452.848 7.66562 452.867 7.94431 452.886 8.15573C452.982 9.19361 453.049 10.2988 453.088 11.4712C453.126 12.6244 453.165 13.7199 453.203 14.7578C453.587 14.7578 453.933 14.7482 454.241 14.729C454.568 14.7097 454.875 14.6905 455.164 14.6713C455.452 14.6521 455.75 14.6425 456.057 14.6425C456.384 14.6233 456.74 14.6136 457.124 14.6136C457.451 14.6136 457.729 14.7194 457.96 14.9308C458.21 15.1422 458.335 15.4209 458.335 15.7668C458.335 16.2858 458.133 16.651 457.729 16.8624C457.345 17.0546 456.932 17.1507 456.49 17.1507C456.163 17.1507 455.865 17.1603 455.596 17.1795C455.346 17.1795 455.106 17.1891 454.875 17.2083C454.645 17.2083 454.395 17.218 454.126 17.2372C453.876 17.2564 453.587 17.266 453.261 17.266C453.28 18.227 453.29 19.1111 453.29 19.9184C453.309 20.7064 453.318 21.5809 453.318 22.5419V29.8359C453.318 30.2203 453.174 30.547 452.886 30.8161C452.598 31.0852 452.261 31.2197 451.877 31.2197C451.493 31.2197 451.185 31.1044 450.954 30.8738C450.743 30.6431 450.637 30.3356 450.637 29.9512V29.7782L450.666 29.4611V29.2881ZM432.445 26.9529C432.445 26.7415 432.484 26.5589 432.561 26.4051C432.715 26.0592 432.897 25.7228 433.109 25.3961C433.339 25.0693 433.551 24.7426 433.743 24.4158C434.127 23.7431 434.492 23.0704 434.838 22.3977C435.204 21.725 435.55 21.0427 435.876 20.3508C436.165 19.6973 436.405 19.0342 436.597 18.3615C436.808 17.6888 436.981 17.0065 437.116 16.3146C437.308 15.2767 437.462 14.2485 437.577 13.2298C437.693 12.1919 437.817 11.154 437.952 10.1162C437.99 9.71255 438.019 9.30893 438.039 8.90531C438.077 8.50169 438.144 8.09807 438.24 7.69445C438.26 7.57913 438.308 7.4542 438.384 7.31966C438.519 7.08902 438.702 6.89682 438.932 6.74306C439.163 6.5893 439.413 6.51242 439.682 6.51242C440.009 6.51242 440.287 6.61813 440.518 6.82955C440.768 7.04097 440.893 7.31966 440.893 7.66562C440.893 7.87704 440.873 8.08846 440.835 8.29988C440.816 8.49208 440.787 8.69389 440.749 8.90531C440.729 9.02063 440.71 9.13595 440.691 9.25127C440.691 9.34737 440.681 9.45308 440.662 9.5684L440.518 10.8946C440.499 11.0099 440.479 11.1252 440.46 11.2405C440.46 11.3366 440.451 11.4423 440.431 11.5577C440.335 12.4226 440.239 13.2106 440.143 13.9217C440.047 14.6136 439.951 15.2671 439.855 15.8822C440.028 16.1128 440.191 16.3723 440.345 16.6606C440.499 16.9489 440.652 17.2083 440.806 17.439C441.248 18.1117 441.681 18.7748 442.104 19.4283C442.526 20.0817 442.959 20.7352 443.401 21.3887C443.689 21.8308 443.977 22.2728 444.266 22.7149C444.573 23.1377 444.881 23.5702 445.188 24.0122C445.361 24.2621 445.544 24.5119 445.736 24.7618C445.948 25.0117 446.13 25.2711 446.284 25.5402C446.38 25.7324 446.428 25.9246 446.428 26.1168C446.428 26.5012 446.284 26.828 445.996 27.097C445.707 27.3661 445.371 27.5007 444.987 27.5007C444.621 27.5007 444.314 27.3757 444.064 27.1259C443.968 27.049 443.833 26.8952 443.66 26.6646C443.507 26.4339 443.334 26.1841 443.141 25.915C442.968 25.6459 442.795 25.3865 442.622 25.1366C442.469 24.8867 442.344 24.6945 442.248 24.56C441.69 23.7528 441.143 22.9359 440.604 22.1094C440.066 21.283 439.518 20.4565 438.961 19.6301C438.654 20.5142 438.26 21.4367 437.779 22.3977C437.299 23.3395 436.674 24.4447 435.905 25.7132L435.242 26.8087C435.031 27.1355 434.819 27.4334 434.608 27.7025C434.416 27.9715 434.098 28.1061 433.656 28.1061C433.33 28.1061 433.041 28.0004 432.791 27.789C432.561 27.5775 432.445 27.2988 432.445 26.9529ZM465.216 5.35922C465.216 4.97482 465.36 4.64808 465.649 4.379C465.937 4.10992 466.273 3.97538 466.658 3.97538C466.984 3.97538 467.263 4.08109 467.494 4.29251C467.744 4.50393 467.869 4.78262 467.869 5.12858V7.14668C468.176 7.12746 468.484 7.11785 468.791 7.11785C469.099 7.11785 469.406 7.11785 469.714 7.11785H470.377L471.703 7.14668H472.366C472.577 7.14668 472.789 7.15629 473 7.17551C473.212 7.19473 473.394 7.25239 473.548 7.34849C473.721 7.42537 473.856 7.54069 473.952 7.69445C474.067 7.84821 474.125 8.05002 474.125 8.29988C474.125 8.68428 473.981 9.01102 473.692 9.2801C473.404 9.54918 473.068 9.68372 472.683 9.68372H471.847L470.117 9.65489C468.868 9.63567 467.628 9.65489 466.398 9.71255C465.187 9.77021 463.957 9.83748 462.708 9.91436C462.324 9.93358 461.949 9.96241 461.584 10.0008C461.218 10.0201 460.844 10.0297 460.459 10.0297C460.133 10.0297 459.844 9.92397 459.594 9.71255C459.364 9.50113 459.248 9.22244 459.248 8.87648C459.248 8.6074 459.325 8.36715 459.479 8.15573C459.652 7.92509 459.863 7.75211 460.113 7.63679C460.19 7.59835 460.325 7.55991 460.517 7.52147C461.036 7.44459 461.564 7.40615 462.103 7.40615C462.641 7.40615 463.179 7.38693 463.717 7.34849C463.967 7.32927 464.217 7.31966 464.467 7.31966C464.716 7.30044 464.966 7.28122 465.216 7.262V5.35922ZM478.507 19.5147C477.969 19.5147 477.584 19.2745 477.354 18.794C477.315 18.7171 477.277 18.4961 477.238 18.1309C477.219 17.7465 477.19 17.2852 477.152 16.7471C477.113 16.1897 477.075 15.5939 477.037 14.9596C476.998 14.3253 476.969 13.7199 476.95 13.1433C476.931 12.5667 476.902 12.0574 476.864 11.6153C476.844 11.154 476.835 10.8273 476.835 10.6351C476.835 10.5198 476.825 10.4141 476.806 10.318C476.806 10.2027 476.806 10.0969 476.806 10.0008L476.719 8.7035C476.719 8.58818 476.719 8.48247 476.719 8.38637C476.719 8.27105 476.71 8.16534 476.691 8.06924C476.671 7.8386 476.652 7.61757 476.633 7.40615C476.614 7.17551 476.604 6.94487 476.604 6.71423C476.604 6.34905 476.748 6.04153 477.037 5.79167C477.325 5.52259 477.661 5.38805 478.046 5.38805C478.565 5.38805 478.949 5.6283 479.199 6.1088C479.218 6.16646 479.247 6.36827 479.285 6.71423C479.324 7.06019 479.362 7.50225 479.401 8.04041C479.439 8.55935 479.468 9.14556 479.487 9.79904C479.526 10.4333 479.564 11.0868 479.602 11.7595H479.747L481.044 11.7018C481.524 11.6826 481.986 11.6538 482.428 11.6153C482.889 11.5769 483.36 11.5577 483.84 11.5577C484.167 11.5577 484.446 11.6634 484.676 11.8748C484.926 12.0862 485.051 12.3649 485.051 12.7109C485.051 13.0376 484.936 13.3259 484.705 13.5758C484.494 13.8256 484.225 13.989 483.898 14.0659C483.725 14.1043 483.552 14.1235 483.379 14.1235C483.206 14.1043 483.033 14.1043 482.86 14.1235L481.563 14.1812C481.236 14.2004 480.919 14.2196 480.611 14.2389C480.323 14.2581 480.025 14.2869 479.718 14.3253C479.756 14.8251 479.775 15.2671 479.775 15.6515C479.795 16.0167 479.814 16.305 479.833 16.5164C479.852 16.7855 479.871 17.0546 479.891 17.3237C479.929 17.5927 479.948 17.8618 479.948 18.1309C479.948 18.5153 479.804 18.842 479.516 19.1111C479.228 19.3802 478.891 19.5147 478.507 19.5147ZM465.245 24.4735C465.36 24.4543 465.466 24.4447 465.562 24.4447C465.677 24.4447 465.783 24.4351 465.879 24.4158C466.687 24.3582 467.475 24.3005 468.243 24.2429C469.031 24.166 469.829 24.1083 470.636 24.0699C471.559 24.0314 472.481 24.0026 473.404 23.9834C474.346 23.9642 475.278 23.9546 476.2 23.9546L477.037 23.9834H477.209V23.7528C477.209 23.5221 477.209 23.2915 477.209 23.0608C477.209 22.811 477.219 22.5707 477.238 22.3401C477.277 22.1094 477.344 21.898 477.44 21.7058C477.555 21.4944 477.719 21.3214 477.93 21.1869C478.199 21.0139 478.459 20.9274 478.709 20.9274C479.035 20.9274 479.314 21.0331 479.545 21.2445C479.795 21.456 479.92 21.7347 479.92 22.0806C479.92 22.3497 479.92 22.6092 479.92 22.859C479.92 23.1089 479.91 23.3684 479.891 23.6374L479.833 24.6753C479.814 24.9444 479.804 25.2039 479.804 25.4537C479.804 25.7036 479.804 25.9631 479.804 26.2321C479.804 26.655 479.804 27.0778 479.804 27.5007C479.804 27.9235 479.814 28.3463 479.833 28.7692C479.852 28.9614 479.871 29.144 479.891 29.3169C479.91 29.4899 479.92 29.6725 479.92 29.8647C479.92 30.153 479.833 30.4125 479.66 30.6431C479.487 30.8738 479.266 31.0371 478.997 31.1332C478.786 31.2101 478.507 31.2486 478.161 31.2486C477.815 31.2486 477.527 31.2486 477.296 31.2486C475.547 31.2486 473.817 31.2774 472.107 31.335C470.415 31.3927 468.695 31.4215 466.946 31.4215C466.504 31.4215 466.071 31.4023 465.649 31.3639C465.226 31.3254 464.832 31.2293 464.467 31.0756C464.121 30.941 463.813 30.7296 463.544 30.4413C463.294 30.153 463.112 29.7494 462.996 29.2305C462.919 28.9229 462.871 28.6154 462.852 28.3079C462.852 28.0196 462.833 27.7217 462.794 27.4142C462.718 26.6069 462.641 25.8189 462.564 25.0501C462.506 24.2621 462.477 23.4645 462.477 22.6572C462.477 22.2728 462.622 21.9461 462.91 21.677C463.198 21.4079 463.534 21.2734 463.919 21.2734C464.265 21.2734 464.524 21.3599 464.697 21.5328C464.87 21.6866 464.995 21.8884 465.072 22.1383C465.149 22.3881 465.187 22.6572 465.187 22.9455C465.187 23.2146 465.197 23.4741 465.216 23.7239V23.9257L465.245 24.2717V24.4735ZM476.2 26.4628C474.97 26.4628 473.74 26.482 472.51 26.5204C471.28 26.5397 470.05 26.5973 468.82 26.6934L465.533 26.9529L465.447 26.9817C465.447 27.1931 465.456 27.3853 465.476 27.5583C465.495 27.7505 465.524 27.9427 465.562 28.1349C465.581 28.231 465.61 28.3367 465.649 28.452C465.687 28.5674 465.706 28.6731 465.706 28.7692H465.735C465.85 28.8076 466.004 28.8364 466.196 28.8557C466.408 28.8749 466.619 28.8845 466.831 28.8845C467.061 28.9037 467.282 28.9133 467.494 28.9133C467.705 28.9133 467.878 28.9133 468.013 28.9133C469.512 28.9133 470.992 28.8749 472.453 28.798C473.913 28.7403 475.393 28.7115 476.892 28.7115H477.181C477.161 28.3463 477.142 27.9812 477.123 27.616C477.123 27.2508 477.123 26.8856 477.123 26.5204L476.2 26.4628ZM461.295 15.1902C461.295 14.4407 461.459 13.7776 461.785 13.201C462.131 12.6052 462.573 12.1054 463.112 11.7018C463.669 11.2982 464.284 10.9907 464.957 10.7793C465.629 10.5678 466.312 10.4621 467.004 10.4621C467.657 10.4621 468.291 10.5871 468.906 10.8369C469.541 11.0676 470.098 11.4039 470.579 11.846C471.059 12.2688 471.443 12.7685 471.732 13.3451C472.02 13.9217 472.164 14.556 472.164 15.2479C472.164 15.959 471.991 16.5933 471.645 17.1507C471.299 17.7081 470.857 18.1886 470.319 18.5922C469.8 18.9766 469.204 19.2745 468.532 19.4859C467.878 19.6781 467.234 19.7742 466.6 19.7742C466.273 19.7742 465.947 19.7646 465.62 19.7454C465.312 19.7069 464.995 19.6397 464.668 19.5436C463.631 19.2745 462.804 18.7556 462.189 17.9868C461.593 17.1987 461.295 16.2666 461.295 15.1902ZM466.773 12.9992C466.466 12.9992 466.148 13.0376 465.822 13.1145C465.495 13.1721 465.187 13.2779 464.899 13.4316C464.63 13.5854 464.409 13.7872 464.236 14.037C464.063 14.2869 463.977 14.5944 463.977 14.9596C463.977 15.3824 464.053 15.7476 464.207 16.0551C464.38 16.3434 464.592 16.5837 464.841 16.7759C465.11 16.9489 465.418 17.0738 465.764 17.1507C466.11 17.2276 466.466 17.266 466.831 17.266C467.081 17.266 467.359 17.2372 467.667 17.1795C467.974 17.1026 468.263 16.9969 468.532 16.8624C468.801 16.7086 469.031 16.5164 469.224 16.2858C469.416 16.0551 469.512 15.7861 469.512 15.4785C469.512 15.1326 469.425 14.8155 469.252 14.5272C469.099 14.2196 468.887 13.9602 468.618 13.7487C468.349 13.5181 468.051 13.3355 467.724 13.201C467.398 13.0664 467.081 12.9992 466.773 12.9992ZM487.493 21.9076C487.493 20.4469 487.512 18.9958 487.55 17.5543C487.589 16.0936 487.627 14.6329 487.666 13.1721C487.685 12.5763 487.695 11.9901 487.695 11.4135C487.714 10.8177 487.733 10.2123 487.752 9.59723C487.771 9.32815 487.771 9.04946 487.752 8.76116C487.752 8.47286 487.771 8.18456 487.81 7.89626C487.829 7.8386 487.839 7.78094 487.839 7.72328C487.839 7.66562 487.858 7.61757 487.896 7.57913C488.012 7.31005 488.185 7.08902 488.415 6.91604C488.665 6.72384 488.954 6.62774 489.28 6.62774C489.607 6.62774 489.886 6.73345 490.116 6.94487C490.366 7.15629 490.491 7.43498 490.491 7.78094C490.491 8.4152 490.472 9.04946 490.433 9.68372C490.414 10.2988 490.395 10.9234 490.376 11.5577C490.337 13.249 490.289 14.9308 490.232 16.6029C490.193 18.2558 490.174 19.928 490.174 21.6193C490.174 21.8884 490.193 22.1575 490.232 22.4266C490.289 22.6957 490.376 22.9359 490.491 23.1473C490.664 23.4741 490.914 23.6759 491.241 23.7528C491.587 23.8296 491.923 23.8681 492.25 23.8681C494.076 23.8681 495.892 23.8392 497.699 23.7816C499.525 23.7239 501.35 23.6278 503.176 23.4933C503.618 23.4548 504.051 23.426 504.474 23.4068C504.916 23.3684 505.358 23.3203 505.8 23.2626H505.857C505.857 19.7838 505.8 16.2954 505.685 12.7974C505.665 12.1823 505.646 11.5577 505.627 10.9234C505.608 10.2891 505.588 9.65489 505.569 9.02063C505.55 8.69389 505.531 8.37676 505.512 8.06924C505.492 7.7425 505.483 7.41576 505.483 7.08902C505.483 6.70462 505.627 6.38749 505.915 6.13763C506.223 5.86855 506.569 5.73401 506.953 5.73401C507.491 5.73401 507.866 5.96465 508.077 6.42593C508.116 6.52203 508.145 6.81994 508.164 7.31966C508.202 7.80016 508.231 8.42481 508.25 9.19361C508.289 9.96241 508.318 10.8369 508.337 11.8171C508.356 12.7781 508.375 13.768 508.395 14.7866C508.414 15.8053 508.433 16.8143 508.452 17.8138C508.471 18.8132 508.481 19.7358 508.481 20.5815C508.5 21.4079 508.51 22.1287 508.51 22.7437C508.51 23.3587 508.51 23.7816 508.51 24.0122V25.2807L508.423 27.8466V29.1151C508.423 29.2689 508.423 29.413 508.423 29.5476C508.443 29.7013 508.433 29.8455 508.395 29.98C508.298 30.3068 508.116 30.5759 507.847 30.7873C507.597 31.0179 507.299 31.1332 506.953 31.1332C506.626 31.1332 506.338 31.0275 506.088 30.8161C505.857 30.6239 505.742 30.3548 505.742 30.0089C505.742 29.6437 505.742 29.2785 505.742 28.9133C505.742 28.5674 505.752 28.2118 505.771 27.8466L505.829 26.4051V25.7709C503.541 26.0207 501.264 26.1841 498.996 26.261C496.728 26.3378 494.45 26.3763 492.163 26.3763C491.894 26.3763 491.615 26.3763 491.327 26.3763C491.058 26.3571 490.789 26.3186 490.52 26.261C489.982 26.1456 489.52 25.9534 489.136 25.6844C488.752 25.3961 488.435 25.0597 488.185 24.6753C487.954 24.2909 487.781 23.8681 487.666 23.4068C487.55 22.9263 487.493 22.4266 487.493 21.9076ZM531.132 29.2881C531.113 26.7895 531.113 24.3101 531.132 21.85C531.152 19.3898 531.113 16.9104 531.017 14.4118C530.959 12.7205 530.873 11.0579 530.758 9.42425C530.719 9.03985 530.681 8.67467 530.642 8.32871C530.604 7.96353 530.585 7.59835 530.585 7.23317C530.585 6.84877 530.729 6.52203 531.017 6.25295C531.325 5.98387 531.661 5.84933 532.026 5.84933C532.564 5.84933 532.939 6.07997 533.15 6.54125C533.247 6.71423 533.295 6.9737 533.295 7.31966C533.314 7.66562 533.333 7.94431 533.352 8.15573C533.429 9.19361 533.487 10.2219 533.525 11.2405C533.583 12.24 533.631 13.2586 533.669 14.2965C534.054 14.2965 534.39 14.2869 534.678 14.2677C534.986 14.2485 535.274 14.2292 535.543 14.21C535.832 14.1908 536.12 14.1812 536.408 14.1812C536.716 14.162 537.062 14.1524 537.446 14.1524C537.773 14.1524 538.052 14.2581 538.282 14.4695C538.532 14.6809 538.657 14.9596 538.657 15.3056C538.657 15.8245 538.455 16.1897 538.052 16.4011C537.667 16.5933 537.254 16.6894 536.812 16.6894C536.485 16.6894 536.197 16.699 535.947 16.7182C535.716 16.7182 535.486 16.7278 535.255 16.7471C535.044 16.7471 534.813 16.7567 534.563 16.7759C534.333 16.7951 534.054 16.8047 533.727 16.8047C533.746 17.7657 533.756 18.7267 533.756 19.6877C533.775 20.6295 533.785 21.5809 533.785 22.5419V29.8359C533.785 30.2203 533.631 30.547 533.323 30.8161C533.035 31.0852 532.708 31.2197 532.343 31.2197C531.959 31.2197 531.651 31.1044 531.421 30.8738C531.209 30.6431 531.104 30.3356 531.104 29.9512V29.7782L531.132 29.4611V29.2881ZM517.957 24.1852C518.38 24.1852 518.793 24.166 519.197 24.1275C519.62 24.0699 520.042 24.0218 520.465 23.9834C521.907 23.8489 523.348 23.6759 524.79 23.4645C525.174 23.426 525.559 23.3684 525.943 23.2915C526.347 23.2146 526.741 23.1762 527.125 23.1762C527.452 23.1762 527.73 23.2819 527.961 23.4933C528.211 23.7047 528.336 23.9834 528.336 24.3294C528.336 24.5984 528.259 24.8387 528.105 25.0501C527.951 25.2615 527.75 25.4345 527.5 25.569C527.404 25.6075 527.115 25.6651 526.635 25.742C526.174 25.8189 525.607 25.9054 524.934 26.0015C524.28 26.0784 523.569 26.1649 522.801 26.261C522.032 26.3378 521.301 26.4147 520.609 26.4916C519.918 26.5493 519.302 26.6069 518.764 26.6646C518.226 26.703 517.871 26.7222 517.698 26.7222C517.121 26.7222 516.631 26.6069 516.227 26.3763C515.824 26.1264 515.487 25.8093 515.218 25.4249C514.968 25.0213 514.767 24.5792 514.613 24.0987C514.478 23.6182 514.373 23.1377 514.296 22.6572C514.219 22.0998 514.18 21.5425 514.18 20.9851C514.18 20.4085 514.171 19.8415 514.152 19.2841C514.113 18.4192 514.084 17.5735 514.065 16.7471C514.046 15.9206 514.036 15.0749 514.036 14.21C514.036 13.9409 514.036 13.6719 514.036 13.4028C514.055 13.1337 514.065 12.8646 514.065 12.5955V11.5L514.036 9.33776V8.27105C514.036 7.88665 514.18 7.55991 514.469 7.29083C514.776 7.02175 515.113 6.88721 515.478 6.88721C515.708 6.88721 516.112 6.89682 516.689 6.91604C517.284 6.91604 517.957 6.93526 518.707 6.9737C519.475 6.99292 520.273 7.02175 521.1 7.06019C521.926 7.09863 522.695 7.13707 523.406 7.17551C524.117 7.21395 524.723 7.262 525.222 7.31966C525.722 7.3581 526.029 7.40615 526.145 7.46381C526.587 7.67523 526.808 8.02119 526.808 8.50169C526.808 8.88609 526.654 9.21283 526.347 9.48191C526.058 9.75099 525.732 9.88553 525.366 9.88553C525.213 9.88553 525.068 9.87592 524.934 9.8567C524.799 9.83748 524.655 9.81826 524.501 9.79904C524.156 9.7606 523.81 9.74138 523.464 9.74138C523.118 9.72216 522.781 9.70294 522.455 9.68372C521.474 9.62606 520.513 9.58762 519.572 9.5684C518.63 9.52996 517.678 9.49152 516.717 9.45308C516.717 9.9528 516.717 10.4429 516.717 10.9234C516.737 11.4039 516.746 11.8844 516.746 12.3649V12.7685L516.717 13.5758C516.717 14.556 516.727 15.517 516.746 16.4588C516.765 17.4005 516.794 18.3615 516.833 19.3418C516.852 19.8415 516.862 20.3508 516.862 20.8698C516.862 21.3887 516.91 21.898 517.006 22.3977C517.025 22.5131 517.054 22.6668 517.092 22.859C517.131 23.0512 517.188 23.253 517.265 23.4645C517.342 23.6567 517.438 23.8296 517.553 23.9834C517.669 24.1179 517.803 24.1852 517.957 24.1852ZM543.693 28.3944C543.693 28.9325 543.482 29.3266 543.059 29.5764C542.636 29.8455 542.184 29.98 541.704 29.98C541.339 29.98 541.022 29.8647 540.753 29.6341C540.503 29.4034 540.378 29.0959 540.378 28.7115C540.378 28.231 540.57 27.8274 540.954 27.5007C541.339 27.1739 541.762 27.0105 542.223 27.0105C542.607 27.0105 542.944 27.1355 543.232 27.3853C543.54 27.6352 543.693 27.9715 543.693 28.3944Z" fill="black"/>
</svg>
