<svg width="188" height="141" viewBox="0 0 188 141" fill="none" xmlns="http://www.w3.org/2000/svg">
<path d="M19.5307 1H48.7507C53.6068 1 58.264 2.92908 61.6978 6.36287C65.1316 9.79667 67.0607 14.4539 67.0607 19.31V21.69H1.2207V19.31C1.2207 14.4539 3.14979 9.79667 6.58358 6.36287C10.0174 2.92908 14.6746 1 19.5307 1Z" fill="#EADEA4" stroke="#231F20" stroke-width="2" stroke-linecap="round" stroke-linejoin="round"/>
<path d="M186.831 17.2998H1.2207V139.58H186.831V17.2998Z" fill="#FFF5B8" stroke="#231F20" stroke-width="2" stroke-linecap="round" stroke-linejoin="round"/>
<path d="M65.1207 106C64.3392 106 63.5582 105.96 62.7807 105.88C61.0407 105.705 59.3302 105.309 57.6907 104.7C56.0853 104.131 54.617 103.232 53.3807 102.06C52.6914 101.417 52.0926 100.684 51.6007 99.88C51.0429 98.997 50.6467 98.0218 50.4307 97C50.2063 95.9268 50.2649 94.8137 50.6007 93.77C51.0595 92.5542 51.9692 91.5621 53.1407 91C53.8118 90.5861 54.5824 90.3615 55.3707 90.35C55.8118 90.3503 56.2491 90.4316 56.6607 90.59C57.5454 90.9442 58.3585 91.4558 59.0607 92.1L60.9807 93.83C61.3901 94.2251 61.9034 94.4956 62.4607 94.61C63.1531 94.7931 63.8647 94.8938 64.5807 94.91C65.0255 94.9166 65.4682 94.849 65.8907 94.71C66.647 94.4539 67.3043 93.9679 67.7707 93.32C68.3223 92.5084 68.7033 91.5932 68.8907 90.63C69.1513 89.4354 69.3119 88.2212 69.3707 87C69.4307 85.74 69.4407 84.49 69.3707 83.29C69.3007 82.09 69.3707 80.92 69.3707 80.02C69.3707 77.84 69.3707 75.62 69.3707 73.48C69.3707 71.57 69.3107 69.61 69.3107 67.63H69.1007C68.3141 67.63 67.4541 67.63 66.5207 67.63C65.5207 67.63 64.6707 67.63 63.8307 67.63H62.2407H59.8007V67.29L58.8907 67.06C57.884 66.7726 56.9879 66.1868 56.3207 65.38C55.8998 64.8971 55.6166 64.3099 55.5007 63.68C55.3424 63.1328 55.2484 62.569 55.2207 62V61.29C55.2171 60.9018 55.2814 60.516 55.4107 60.15C55.629 59.2731 56.1631 58.5075 56.9107 58C57.4375 57.6172 58.031 57.3357 58.6607 57.17C59.0145 57.0665 59.3755 56.9896 59.7407 56.94L60.7407 56.81C61.1017 56.7578 61.466 56.731 61.8307 56.73H69.8307C70.1207 56.73 70.4507 56.73 70.8307 56.73H75.9107C77.5107 56.73 79.1207 56.73 80.6907 56.79H81.0307C81.5207 56.79 82.0307 56.79 82.4807 56.79C82.9307 56.79 83.3407 56.79 83.7807 56.79H83.8507C84.9362 56.8291 86.0075 57.0488 87.0207 57.44C87.986 57.694 88.8381 58.2644 89.4407 59.06C90.0299 59.7628 90.3802 60.6349 90.4407 61.55C90.4823 61.9422 90.4823 62.3377 90.4407 62.73C90.43 63.1026 90.3899 63.4737 90.3207 63.84V63.91L90.2207 64C89.978 64.7752 89.5244 65.4677 88.9107 66C88.6953 66.205 88.4609 66.3892 88.2107 66.55C87.8962 66.736 87.5604 66.8837 87.2107 66.99C86.8423 67.1176 86.4593 67.1982 86.0707 67.23C85.8507 67.23 85.6007 67.23 85.3307 67.31C85.0607 67.39 84.6907 67.4 84.4107 67.42C84.1307 67.44 83.7907 67.42 83.4107 67.42H81.4207C81.4207 71.06 81.4207 74.73 81.6507 78.42C81.8424 82.3187 81.809 86.2252 81.5507 90.12C81.4107 91.5 81.2107 92.87 80.9507 94.24C80.682 95.6893 80.2177 97.0955 79.5707 98.42C78.9065 99.7328 78.0504 100.939 77.0307 102C75.8595 103.19 74.4387 104.106 72.8707 104.68C71.3111 105.257 69.6906 105.653 68.0407 105.86C67.0716 105.971 66.0961 106.018 65.1207 106Z" fill="#EAC52A" stroke="black" stroke-width="2" stroke-linecap="round" stroke-linejoin="round"/>
<path d="M110.741 105.49C110.071 105.49 109.401 105.49 108.741 105.41C105.91 105.233 103.151 104.448 100.651 103.11C99.1678 102.304 97.8322 101.252 96.7006 99.9998C95.6231 98.7911 94.7086 97.4463 93.9806 95.9998C93.6274 95.3253 93.41 94.5881 93.3406 93.8298C93.2573 93.0232 93.332 92.2079 93.5606 91.4298C93.7867 90.6536 94.1753 89.9344 94.7006 89.3198C95.3362 88.6068 96.1789 88.1103 97.1106 87.8998H97.1806C97.7571 87.7875 98.3434 87.7339 98.9306 87.7398C99.6076 87.7425 100.281 87.8401 100.931 88.0298C101.622 88.2451 102.27 88.5839 102.841 89.0298C103.48 89.5227 103.988 90.1648 104.321 90.8998C104.733 91.6631 105.286 92.3416 105.951 92.8998C106.67 93.5152 107.463 94.0391 108.311 94.4598C109.279 94.7756 110.292 94.9376 111.311 94.9398H111.881C113.03 94.8812 114.157 94.6029 115.201 94.1198C116.097 93.7208 116.878 93.1016 117.471 92.3198C117.987 91.6469 118.259 90.8179 118.241 89.9698C118.269 89.3285 118.163 88.6882 117.931 88.0898C117.744 87.6601 117.46 87.28 117.101 86.9798C116.65 86.6197 116.148 86.3298 115.611 86.1198C114.881 85.8349 114.133 85.601 113.371 85.4198C112.423 85.2245 111.465 85.0876 110.501 85.0098C109.441 84.9298 108.361 84.8198 107.271 84.6898C106.181 84.5598 105.061 84.3698 104.011 84.1498C102.87 83.9136 101.757 83.5583 100.691 83.0898C98.5445 82.2441 96.7281 80.7292 95.5106 78.7698C94.395 76.9486 93.7109 74.8962 93.5106 72.7698C93.2538 70.5378 93.4963 68.2766 94.2206 66.1498C94.8675 64.0746 96.0337 62.1989 97.6088 60.7009C99.1839 59.2028 101.116 58.1319 103.221 57.5898C105.397 56.9975 107.636 56.6619 109.891 56.5898H110.891C111.891 56.5898 112.891 56.5898 113.961 56.7398C115.309 56.8659 116.646 57.0932 117.961 57.4198C119.216 57.7198 120.441 58.1349 121.621 58.6598C122.729 59.145 123.766 59.781 124.701 60.5498C125.406 61.1147 126.041 61.7627 126.591 62.4798C127.235 63.2771 127.748 64.1715 128.111 65.1298C128.495 66.101 128.623 67.155 128.481 68.1898C128.382 68.8156 128.143 69.4108 127.781 69.9305C127.419 70.4502 126.944 70.8808 126.391 71.1898C125.637 71.6912 124.756 71.9686 123.851 71.9898H123.441C122.601 71.9002 121.79 71.6344 121.061 71.2098C120.409 70.8178 119.794 70.3695 119.221 69.8698L117.841 68.7298C116.77 67.995 115.545 67.516 114.261 67.3298C113.317 67.1576 112.36 67.0706 111.401 67.0698C110.903 67.0658 110.405 67.0925 109.911 67.1498C109.141 67.2575 108.384 67.4417 107.651 67.6998C107.072 67.9068 106.536 68.2187 106.071 68.6198C105.691 69.0128 105.401 69.4837 105.221 69.9998C104.996 70.5611 104.917 71.1699 104.991 71.7698C104.99 72.0945 105.088 72.4117 105.271 72.6798C105.507 72.9831 105.803 73.2349 106.141 73.4198C106.582 73.6646 107.052 73.8528 107.541 73.9798C108.106 74.1316 108.68 74.2451 109.261 74.3198C111.141 74.5698 113.041 74.7598 114.921 74.8898C117.013 75.0329 119.071 75.4984 121.021 76.2698C122.941 77.0031 124.705 78.0922 126.221 79.4798C127.732 80.8844 128.849 82.6599 129.461 84.6298C129.716 85.3665 129.897 86.127 130.001 86.8998C130.229 88.5587 130.229 90.241 130.001 91.8998C129.899 92.6407 129.742 93.3727 129.531 94.0898C128.761 96.7855 127.136 99.158 124.901 100.85C122.657 102.589 120.091 103.867 117.351 104.61C115.197 105.2 112.974 105.496 110.741 105.49Z" fill="#EAC52A" stroke="black" stroke-width="2" stroke-linecap="round" stroke-linejoin="round"/>
</svg>
