<svg width="70" height="58" viewBox="0 0 70 58" fill="none" xmlns="http://www.w3.org/2000/svg">
<path d="M13.6679 22.1065C13.7197 21.98 13.8296 21.8922 13.9975 21.8428C14.1654 21.7935 14.2859 21.806 14.3588 21.8802C14.792 22.2645 15.7333 23.3372 17.1826 25.0981C17.3584 25.3178 17.558 25.5695 17.7814 25.8531C18.0153 26.1114 18.2037 26.3364 18.3467 26.5279C18.5001 26.6942 18.6006 26.8092 18.6483 26.8731C18.8643 27.1389 19.1265 27.4901 19.4349 27.9266C19.791 28.4271 20.0285 28.6943 20.1475 28.7283C20.2591 28.7445 20.5026 28.6007 20.8783 28.2968C21.2925 27.9349 21.5767 27.6378 21.731 27.4057C22.7958 25.7449 23.4681 25.0235 23.748 25.2416C23.9117 25.3826 23.9285 25.6479 23.7983 26.0377C23.6784 26.4021 23.2466 27.3475 22.5026 28.874C22.4508 29.0005 22.3656 29.1723 22.247 29.3896C22.0973 29.6827 21.9966 29.8925 21.9447 30.0189C21.8854 30.1275 21.8522 30.2985 21.8452 30.532C21.8306 30.7475 21.8331 30.9036 21.8526 31.0002C21.8899 31.0894 22.0062 31.2921 22.2014 31.6085C22.3967 31.9248 22.5822 32.1929 22.758 32.4126C22.9263 32.6146 23.2302 32.9902 23.6696 33.5396C23.9884 33.9509 24.2394 34.2753 24.4226 34.5129C24.4956 34.5871 24.62 34.7341 24.7957 34.9539C24.9715 35.1736 25.0907 35.3333 25.1533 35.4328C25.8058 36.291 26.2929 36.9043 26.6146 37.2724C28.3902 39.4625 29.291 40.8139 29.3171 41.3268C29.3112 41.413 29.2704 41.4406 29.1945 41.4095C28.9968 41.3875 28.145 40.5288 26.6394 38.8334C26.486 38.6671 26.276 38.4408 26.0094 38.1542C25.6699 37.7935 24.9372 36.9688 23.8112 35.6802C23.2632 35.0715 22.9363 34.716 22.8306 34.6135C22.6846 34.4651 22.3592 34.088 21.8543 33.4822C21.3419 32.8586 21.0708 32.5112 21.0409 32.4399C21.0036 32.3507 20.9321 32.255 20.8264 32.1525C20.7178 32.0932 20.5443 31.904 20.3059 31.5847C19.5804 30.6522 18.9526 29.8779 18.4224 29.2618C18.3821 29.2158 18.225 29.0406 17.951 28.7362C17.6948 28.4244 17.5064 28.1995 17.3857 28.0614C17.0267 27.6041 16.8018 27.3421 16.711 27.2753C16.6381 27.2011 16.4221 26.9353 16.0631 26.478C15.9022 26.2939 15.5656 25.8901 15.0532 25.2665C14.2817 24.3742 13.8013 23.7267 13.6118 23.3242C13.4327 22.8963 13.4514 22.4904 13.6679 22.1065ZM11.7482 28.0324C12.2781 27.4964 12.6785 27.2765 12.9492 27.3727C13.2199 27.4689 13.5165 27.9523 13.839 28.823C15.1692 32.3517 16.0448 35.1698 16.4659 37.2773C16.5032 37.3664 16.5608 37.6042 16.6387 37.9906C16.7092 38.3592 16.7564 38.6222 16.7804 38.7798C17.1281 40.5618 17.3494 42.2919 17.4442 43.9702C17.539 45.6485 17.4602 46.5614 17.2077 46.709C17.0903 46.7791 17.0056 46.7517 16.9533 46.6269C16.9189 46.4946 16.8377 45.9001 16.7097 44.8433C16.5817 43.7865 16.4053 42.7394 16.1807 41.702C15.7207 39.4014 15.1972 37.3997 14.6102 35.6969C14.301 34.7578 14.0892 34.3017 13.9748 34.3287C13.896 34.3407 13.7366 34.5855 13.4965 35.0631C12.1613 37.7798 11.1784 39.0607 10.5478 38.9056C10.3931 38.8865 10.271 38.77 10.1815 38.556C10.0472 38.2351 10.0578 37.885 10.2133 37.5056C10.3688 37.1263 10.7018 36.6203 11.2122 35.9877C11.5327 35.6021 11.7226 35.355 11.7819 35.2464C11.9465 34.989 12.4057 34.4092 13.1595 33.5071C13.4029 33.2376 13.5178 33.0114 13.5041 32.8286C13.483 32.6279 13.3246 32.1495 13.0291 31.3932C12.6739 30.4944 12.4568 30.0509 12.3781 30.0629C12.3602 30.0704 12.3283 30.0942 12.2823 30.1345C11.9883 30.3832 10.8404 31.6702 8.83856 33.9955C7.87992 35.1091 7.287 35.7448 7.05978 35.9028C6.75089 36.1158 6.48099 36.0717 6.25008 35.7702C6.01918 35.4688 5.98293 35.1069 6.14134 34.6844C6.2139 34.5074 7.02701 33.4966 8.58065 31.6522C10.1343 29.8078 11.1902 28.6012 11.7482 28.0324ZM31.1699 13.9331C31.8822 13.1322 32.3648 12.7836 32.6177 12.8872C32.8022 12.9776 32.6965 13.3257 32.3005 13.9314C32.0899 14.229 31.5402 14.9933 30.6517 16.2242C29.7556 17.4372 29.2319 18.1383 29.0806 18.3273C29.0524 18.3601 29.0049 18.4218 28.9382 18.5126C28.8639 18.5856 28.7653 18.7002 28.6421 18.8565C28.5293 18.9875 28.4217 19.1059 28.3193 19.2116C27.9528 19.6373 27.76 19.9275 27.7409 20.0822C27.7322 20.2115 27.8663 20.4068 28.1432 20.6681C28.5511 21.0421 28.825 21.2208 28.9647 21.2042C29.097 21.1698 29.3976 20.8868 29.8665 20.3554C31.1013 19.0006 31.9189 18.0508 32.3195 17.506C32.8357 16.7872 33.1855 16.5465 33.3687 16.7841C33.4968 16.94 33.4379 17.2999 33.192 17.8637C33.0469 18.2177 32.6732 18.8769 32.0712 19.8412C31.4795 20.7802 30.9989 21.4842 30.6295 21.9531C30.4499 22.1749 30.361 22.3378 30.3626 22.4419C30.3821 22.5385 30.4938 22.6803 30.6978 22.8673C30.8288 22.9801 31.0842 23.2398 31.4639 23.6466C31.7632 23.9613 31.9575 24.1 32.0466 24.0627C32.1536 24.0179 32.4457 23.5395 32.923 22.6274C34.5891 19.4998 35.5983 17.9565 35.9507 17.9976C36.0191 18.0109 36.0757 18.071 36.1205 18.178C36.1652 18.2849 36.1381 18.4953 36.039 18.8092C35.9502 19.0977 35.7311 19.6504 35.3815 20.4671C35.1741 20.9729 35.0172 21.3738 34.9106 21.6698C34.804 21.9658 34.7219 22.2202 34.6643 22.4329C34.6066 22.6456 34.5979 22.7749 34.6381 22.8209C34.6784 22.867 34.7401 22.9144 34.8235 22.9634C34.9097 22.9692 35.0154 23.0716 35.1406 23.2706C35.5668 23.8884 35.8661 24.2031 36.0385 24.2147C36.211 24.2263 36.5042 23.9256 36.918 23.3124C37.7576 22.1649 38.4356 21.2317 38.9518 20.5128C39.8939 19.2595 40.459 18.4573 40.6473 18.1062C40.9334 17.5884 41.1695 17.4267 41.3556 17.6212C41.4211 17.6775 41.4481 17.792 41.4365 17.9644C41.4398 18.1726 41.1686 18.726 40.6229 19.6248C40.2107 20.3421 39.8438 20.967 39.522 21.4998C39.2774 21.9164 39.1268 22.1575 39.0704 22.223C39.0319 22.2811 38.6626 22.8756 37.9627 24.0065C37.3192 25.072 36.9796 25.6122 36.9439 25.6271C36.7835 25.6943 36.1665 26.6229 35.0929 28.4131C34.4361 29.5469 33.9601 30.3118 33.6649 30.7078C33.38 31.0784 33.1217 31.3122 32.8899 31.4092C32.2912 31.6807 32.0597 31.4529 32.1953 30.7257C32.3621 29.9226 32.8794 28.9309 33.7472 27.7506C34.8331 26.2905 35.3425 25.4802 35.2754 25.3198C35.2381 25.2306 35.0468 25.0488 34.7014 24.7743C34.432 24.5309 34.2243 24.335 34.0783 24.1866C33.9651 24.0663 33.8544 24.1022 33.7462 24.2941C33.6766 24.4281 33.5343 24.739 33.3195 25.227C32.5433 26.9765 31.935 27.3253 31.4948 26.2735C31.4127 26.0774 31.158 25.744 30.7306 25.2734C30.2629 24.7568 29.1374 23.7194 27.3539 22.1612C26.9609 21.8228 26.6871 21.6441 26.5324 21.625C26.3703 21.5881 26.1854 21.6969 25.9777 21.9515C25.5369 22.4502 25.1291 22.6523 24.7544 22.5577C24.3899 22.4379 24.2674 22.0701 24.3869 21.4545C24.3956 21.3251 24.65 20.9568 25.15 20.3494C25.6501 19.7421 25.9714 19.4085 26.1141 19.3489C26.1957 19.2937 26.3123 19.1716 26.4636 18.9826C26.6328 18.7861 26.7582 18.6603 26.8399 18.6051C26.8934 18.5827 27.1212 18.3512 27.5234 17.9105C27.6258 17.8048 27.7334 17.6864 27.8462 17.5554C27.9768 17.417 28.0985 17.2822 28.2113 17.1512C28.3241 17.0202 28.3945 16.9383 28.4227 16.9056C28.4227 16.9056 28.5392 16.7835 28.7723 16.5393C29.0231 16.2877 29.2049 16.0964 29.3177 15.9654C29.7021 15.5321 29.9826 15.2262 30.1592 15.0475C30.4843 14.7229 30.8212 14.3514 31.1699 13.9331ZM40.9374 22.4788C41.2964 22.0352 41.4938 21.8059 41.5295 21.791C41.886 21.6418 42.3207 22.0046 42.8335 22.8794C44.044 24.9707 45.4157 27.4974 46.9486 30.4594C47.5377 31.6166 48.0275 32.5115 48.418 33.1442C48.9784 34.0829 49.1517 34.597 48.9377 34.6866C48.8308 34.7314 48.6552 34.6372 48.411 34.4042C48.1743 34.189 47.962 33.9322 47.7743 33.6336C47.0782 32.5212 46.4746 31.5796 45.9635 30.8088C45.0486 29.4738 43.9874 27.739 42.7798 25.6046C42.2073 24.5871 41.869 24.0792 41.765 24.0808C41.6862 24.0928 41.5556 24.2313 41.3732 24.4962C41.0572 24.9427 40.3747 25.815 39.3257 27.113C39.0408 27.4836 38.8175 27.7761 38.6558 27.9905C38.242 28.6036 37.8384 29.0659 37.4449 29.3772C37.0618 29.6632 36.7883 29.7358 36.6246 29.5948C36.0574 29.1408 36.225 28.3897 37.1272 27.3417C37.6837 26.6688 38.1095 26.1345 38.4047 25.7385C38.7846 25.2444 38.9834 24.9936 39.0012 24.9861C39.0369 24.9712 39.2742 24.6623 39.7133 24.0595C40.1985 23.4165 40.6065 22.8896 40.9374 22.4788ZM46.0672 20.6461L52.7796 17.8369C57.2545 15.9641 59.5819 15.0424 59.7618 15.0718C60.1499 15.098 60.4036 15.2537 60.523 15.5389C60.6349 15.8064 60.5603 16.0785 60.2991 16.3555C60.1788 16.4687 58.0328 17.3982 53.861 19.1442C49.707 20.8827 47.3655 21.8207 46.8364 21.9584C46.3862 22.0839 46.0814 22.1067 45.9222 22.0267C45.763 21.9467 45.6774 21.8673 45.6654 21.7885C45.6712 21.7022 45.7363 21.5074 45.8607 21.2039L46.0672 20.6461Z" fill="#191504"/>
</svg>
