<svg width="119" height="83" viewBox="0 0 119 83" fill="none" xmlns="http://www.w3.org/2000/svg">
<g clip-path="url(#clip0_493_7083)">
<path d="M22.4882 14.1218C22.6243 13.9152 22.8501 13.7973 23.1655 13.7681C23.481 13.7389 23.6906 13.8029 23.7944 13.9601C24.4304 14.7937 25.7294 17.0267 27.6915 20.6593C27.9273 21.1108 28.1944 21.6274 28.4927 22.2089C28.8182 22.7492 29.0746 23.2143 29.2621 23.6044C29.4767 23.9531 29.6153 24.1925 29.6778 24.3225C29.969 24.8698 30.3127 25.5849 30.7087 26.4679C31.1672 27.4808 31.4963 28.0382 31.6958 28.14C31.8883 28.2076 32.3711 28.0367 33.1442 27.6276C34.006 27.1288 34.6142 26.6999 34.969 26.3412C37.4385 23.7611 38.8839 22.7135 39.3051 23.1984C39.547 23.5058 39.4845 23.983 39.1176 24.63C38.7779 25.2358 37.6817 26.7651 35.8291 29.2182C35.693 29.4248 35.4818 29.7005 35.1956 30.0451C34.8277 30.5138 34.5757 30.8514 34.4396 31.058C34.2965 31.2303 34.178 31.5226 34.0843 31.9348C33.9835 32.3128 33.9335 32.591 33.9345 32.7694C33.9698 32.9407 34.1058 33.3413 34.3427 33.9713C34.5795 34.6012 34.8158 35.142 35.0516 35.5935C35.2804 36.0108 35.6895 36.7839 36.279 37.9127C36.7023 38.7543 37.0354 39.418 37.2782 39.9038C37.382 40.0611 37.5518 40.3655 37.7877 40.817C38.0235 41.2686 38.1797 41.5936 38.2563 41.7922C39.1169 43.5439 39.7689 44.8028 40.2123 45.5688C42.6047 50.0772 43.7349 52.7915 43.6028 53.7117C43.5625 53.8629 43.4803 53.8977 43.3564 53.816C43.0127 53.7081 41.7983 51.8863 39.7132 48.3505C39.4986 48.0018 39.2043 47.5266 38.8304 46.9248C38.3527 46.1659 37.3379 44.4459 35.786 41.7648C35.0241 40.4928 34.567 39.7475 34.4149 39.5287C34.2073 39.2143 33.7603 38.4311 33.074 37.1793C32.3807 35.8932 32.0199 35.1816 31.9917 35.0445C31.9564 34.8732 31.8627 34.6781 31.7105 34.4594C31.5382 34.3163 31.2958 33.9197 30.9834 33.2696C30.019 31.3606 29.173 29.7666 28.4454 28.4875C28.39 28.3918 28.1718 28.0259 27.7908 27.3899C27.4442 26.7469 27.1877 26.2817 27.0214 25.9944C26.5427 25.0571 26.2344 24.5133 26.0963 24.3631C25.9925 24.2059 25.7012 23.6586 25.2226 22.7212C25.0008 22.3382 24.5433 21.5037 23.85 20.2176C22.7898 18.364 22.1615 17.0467 21.965 16.2656C21.7957 15.4431 21.9701 14.7285 22.4882 14.1218ZM17.0163 23.9816C18.1442 23.2136 18.9319 22.9622 19.3793 23.2273C19.8268 23.4924 20.1856 24.4545 20.4556 26.1135C21.591 32.8452 22.1662 38.1562 22.1811 42.0466C22.2163 42.218 22.2359 42.6605 22.2399 43.374C22.2369 44.0533 22.2293 44.5371 22.2172 44.8254C22.2149 48.1121 22.0061 51.2627 21.5907 54.2772C21.1752 57.2918 20.7176 58.8862 20.2176 59.0606C19.9848 59.1442 19.8437 59.0661 19.7943 58.8262C19.7792 58.5793 19.8418 57.4948 19.982 55.5728C20.1222 53.6508 20.1732 51.7292 20.1351 49.8082C20.1182 45.561 19.8846 41.8228 19.4343 38.5935C19.2117 36.8176 18.994 35.9337 18.7814 35.9417C18.6372 35.9356 18.2688 36.3151 17.6761 37.08C14.3589 41.4419 12.1672 43.3754 11.1009 42.8805C10.8328 42.7928 10.6564 42.5433 10.5718 42.1321C10.4448 41.5153 10.5855 40.8969 10.9937 40.2771C11.4019 39.6573 12.1695 38.8742 13.2963 37.9279C13.9999 37.3544 14.4232 36.9816 14.5663 36.8092C14.9484 36.4091 15.9659 35.5389 17.6189 34.1985C18.145 33.8045 18.4278 33.4426 18.4671 33.1131C18.4994 32.7492 18.3845 31.8441 18.1226 30.3978C17.8042 28.6773 17.5729 27.8141 17.4288 27.808C17.3945 27.8151 17.3295 27.8463 17.2338 27.9017C16.625 28.2414 14.1379 30.1285 9.77257 33.563C7.68212 35.2078 6.4076 36.1309 5.949 36.3324C5.32611 36.6035 4.86199 36.4312 4.55665 35.8153C4.2513 35.1995 4.31282 34.5439 4.74121 33.8485C4.93172 33.5592 6.72786 32.0465 10.1296 29.3103C13.5314 26.5741 15.827 24.7979 17.0163 23.9816ZM56.4246 5.6905C57.9688 4.51541 58.9475 4.06394 59.3607 4.33609C59.657 4.56087 59.348 5.1424 58.4338 6.08068C57.9561 6.53621 56.7138 7.70275 54.707 9.58031C52.6931 11.4236 51.5189 12.4868 51.1842 12.77C51.1227 12.8184 51.0169 12.9116 50.8667 13.0497C50.7095 13.1535 50.4943 13.3228 50.2211 13.5576C49.9752 13.7511 49.7429 13.924 49.5242 14.0761C48.7249 14.705 48.2814 15.1535 48.1937 15.4216C48.1332 15.6483 48.3035 16.0419 48.7046 16.6023C49.2992 17.4087 49.7235 17.8214 49.9775 17.8406C50.2244 17.8255 50.8569 17.4274 51.8749 16.6464C54.5398 14.6691 56.3229 13.2662 57.224 12.4378C58.3912 11.3403 59.0962 11.0345 59.3391 11.5203C59.5124 11.8418 59.2826 12.4606 58.6496 13.3767C58.2685 13.9552 57.3755 14.9963 55.9704 16.5C54.5925 17.9623 53.4939 19.0457 52.6744 19.7502C52.2783 20.0818 52.0636 20.3403 52.0303 20.5257C52.0313 20.7041 52.1805 20.9949 52.4778 21.3981C52.6713 21.644 53.0346 22.1943 53.5677 23.049C53.99 23.7123 54.2868 24.0262 54.4581 23.991C54.6637 23.9486 55.3491 23.2003 56.5143 21.746C60.5623 16.7694 62.8922 14.3788 63.5039 14.5744C63.6208 14.6218 63.7005 14.7483 63.7428 14.9539C63.7851 15.1595 63.6636 15.5238 63.3784 16.0469C63.1203 16.5287 62.5387 17.4342 61.6335 18.7635C61.0892 19.59 60.6709 20.2476 60.3786 20.7364C60.0863 21.2252 59.8519 21.6485 59.6755 22.0063C59.4991 22.3641 59.4386 22.5908 59.4941 22.6866C59.5495 22.7823 59.6427 22.8882 59.7737 23.0041C59.9249 23.0444 60.0771 23.2631 60.2303 23.6602C60.7724 24.906 61.1947 25.5692 61.497 25.6499C61.7994 25.7305 62.4248 25.2982 63.3733 24.3529C65.2642 22.6063 66.7932 21.1843 67.9604 20.0868C70.07 18.1881 71.3532 16.9596 71.8098 16.4012C72.4982 15.5808 72.9739 15.3758 73.237 15.786C73.3337 15.909 73.3418 16.1216 73.2611 16.424C73.1946 16.7949 72.5202 17.6838 71.2381 19.0907C70.2564 20.2215 69.387 21.2041 68.63 22.0386C68.0505 22.6937 67.6992 23.0696 67.5762 23.1663C67.4875 23.256 66.6247 24.1837 64.9878 25.9494C63.4739 27.6184 62.6826 28.4599 62.6141 28.474C62.3057 28.5375 60.8865 29.9726 58.3565 32.7794C56.7952 34.5653 55.6835 35.7586 55.0212 36.3592C54.3862 36.9185 53.846 37.2441 53.4005 37.3357C52.2424 37.6098 51.9104 37.1245 52.4043 35.8798C52.9799 34.5111 54.2439 32.9293 56.1963 31.1344C58.6334 28.9183 59.8203 27.656 59.7568 27.3475C59.7216 27.1762 59.4449 26.7866 58.9269 26.1789C58.5329 25.6527 58.232 25.2324 58.0244 24.9179C57.8652 24.665 57.6561 24.6901 57.397 24.9935C57.2267 25.2072 56.8658 25.7101 56.3145 26.5022C54.3267 29.3403 53.1248 29.7484 52.7087 27.7266C52.6311 27.3496 52.2945 26.6688 51.6989 25.684C51.0479 24.6035 49.4092 22.369 46.7829 18.9803C46.2024 18.2425 45.7781 17.8297 45.51 17.742C45.2349 17.6201 44.8685 17.7491 44.4109 18.129C43.4544 18.8617 42.6597 19.0788 42.0267 18.7804C41.421 18.4407 41.3314 17.7448 41.7578 16.6926C41.8183 16.4658 42.3983 15.8999 43.498 14.9949C44.5976 14.0899 45.2845 13.6092 45.5587 13.5528C45.723 13.4833 45.9724 13.3069 46.3071 13.0237C46.676 12.7335 46.9426 12.5536 47.1069 12.484C47.2097 12.4629 47.695 12.1308 48.5628 11.4878C48.7815 11.3357 49.0139 11.1628 49.2598 10.9693C49.54 10.7688 49.8031 10.5717 50.049 10.3783C50.2949 10.1848 50.4486 10.0638 50.5101 10.0154C50.5101 10.0154 50.7596 9.83908 51.2585 9.48635C51.7917 9.12657 52.1813 8.84994 52.4272 8.65644C53.2608 8.02052 53.8655 7.57457 54.2415 7.31859C54.9319 6.85501 55.6596 6.31231 56.4246 5.6905ZM70.8039 24.2702C71.5961 23.607 72.0265 23.2684 72.0951 23.2543C72.7804 23.1133 73.4264 23.909 74.0331 25.6416C75.4559 29.778 77.0138 34.744 78.7067 40.5394C79.3506 42.8001 79.9093 44.5604 80.3829 45.8203C81.0521 47.6829 81.181 48.6565 80.7698 48.7411C80.5642 48.7835 80.285 48.5552 79.9323 48.0562C79.5866 47.5916 79.2989 47.0614 79.0691 46.4657C78.2196 44.2473 77.4749 42.3646 76.835 40.8174C75.6741 38.1273 74.3923 34.6763 72.9896 30.4642C72.3265 28.4575 71.9023 27.4375 71.7168 27.4042C71.5727 27.3982 71.2925 27.5987 70.8762 28.0059C70.1596 28.6892 68.6437 30.0014 66.3284 31.9424C65.6934 32.5017 65.195 32.9436 64.8331 33.2682C63.8847 34.2135 63.0068 34.8943 62.1994 35.3105C61.4193 35.6853 60.9083 35.7191 60.6664 35.4117C59.8169 34.4078 60.3758 33.1318 62.3433 31.5838C63.5659 30.5821 64.5083 29.7809 65.1705 29.1802C66.0172 28.4344 66.4577 28.058 66.4919 28.051C66.5605 28.0369 67.0897 27.5708 68.0794 26.6526C69.165 25.6791 70.0731 24.8849 70.8039 24.2702ZM80.5549 22.7991L93.457 20.1436C102.058 18.3733 106.514 17.5456 106.823 17.6605C107.503 17.842 107.9 18.2069 108.013 18.7552C108.119 19.2692 107.891 19.7268 107.331 20.1279C107.078 20.2871 102.942 21.1919 94.9233 22.8423C86.9387 24.4857 82.4526 25.3375 81.4649 25.3979C80.6213 25.4644 80.072 25.3989 79.817 25.2013C79.562 25.0037 79.4375 24.8329 79.4436 24.6888C79.4839 24.5376 79.6674 24.2141 79.994 23.7182L80.5549 22.7991Z" fill="#191504"/>
</g>
<defs>
<clipPath id="clip0_493_7083">
<rect width="118.26" height="82.38" fill="white"/>
</clipPath>
</defs>
</svg>
