<svg width="106" height="89" viewBox="0 0 106 89" fill="none" xmlns="http://www.w3.org/2000/svg">
<g clip-path="url(#clip0_493_7087)">
<path d="M42.9883 6.85866C43.1878 6.79527 43.3992 6.83801 43.6222 6.98688C43.8452 7.13575 43.949 7.28954 43.9335 7.44826C43.9077 8.33529 43.5723 10.496 42.9274 13.9305C42.8419 14.3531 42.7424 14.8352 42.6287 15.3766C42.555 15.9053 42.4758 16.3479 42.3913 16.7043C42.3467 17.048 42.3103 17.2793 42.2821 17.3981C42.182 17.9132 42.027 18.5667 41.8171 19.3584C41.579 20.2689 41.4984 20.8108 41.5754 20.984C41.6661 21.131 42.0746 21.2759 42.801 21.4187C43.6336 21.5497 44.2621 21.5918 44.6866 21.5448C47.6854 21.1637 49.1941 21.2447 49.2129 21.788C49.2082 22.1191 48.9128 22.3996 48.3268 22.6297C47.7806 22.8471 46.2449 23.269 43.7194 23.8953C43.5199 23.9587 43.2341 24.0274 42.8622 24.1016C42.3706 24.2138 42.0249 24.3016 41.8254 24.365C41.6394 24.4021 41.4058 24.5312 41.1245 24.7524C40.8568 24.9473 40.6758 25.1036 40.5814 25.2215C40.5133 25.353 40.3893 25.6889 40.2095 26.2294C40.0296 26.7699 39.8969 27.2515 39.8114 27.6741C39.7396 28.0704 39.5968 28.7968 39.3831 29.8534C39.2131 30.6324 39.0785 31.2464 38.9794 31.6953C38.9639 31.854 38.9134 32.1447 38.8279 32.5673C38.7425 32.9899 38.672 33.2869 38.6166 33.4583C38.2493 35.069 38.0074 36.2443 37.891 36.9844C37.0624 41.2242 36.3596 43.6115 35.7825 44.1463C35.6754 44.2242 35.6029 44.2033 35.5648 44.0836C35.3963 43.8296 35.5682 41.9843 36.0807 38.548C36.1253 38.2043 36.1849 37.7349 36.2596 37.14C36.3498 36.3863 36.5988 34.7144 37.0065 32.1242C37.1831 30.8817 37.2796 30.148 37.296 29.923C37.327 29.6056 37.4503 28.8524 37.6659 27.6634C37.8951 26.4482 38.037 25.7879 38.0914 25.6827C38.1595 25.5513 38.2018 25.3731 38.2183 25.1481C38.1812 24.9622 38.2331 24.5722 38.374 23.9782C38.7567 22.2088 39.0496 20.7097 39.2525 19.4808C39.2671 19.3883 39.3185 19.0314 39.4068 18.4102C39.5214 17.8025 39.6005 17.36 39.6442 17.0825C39.8288 16.2109 39.9157 15.689 39.9049 15.5167C39.9204 15.3579 40.0204 14.8428 40.205 13.9713C40.2633 13.6012 40.407 12.8086 40.6362 11.5933C40.9265 9.80942 41.2151 8.60824 41.502 7.98982C41.8289 7.35871 42.3243 6.98166 42.9883 6.85866ZM34.1363 10.4281C35.2873 10.5239 35.9393 10.7782 36.0923 11.191C36.2454 11.6037 35.9688 12.4276 35.2625 13.6626C32.4227 18.6949 29.9714 22.4944 27.9084 25.0611C27.8403 25.1926 27.6175 25.494 27.2399 25.9655C26.876 26.4106 26.6132 26.7248 26.4517 26.9079C24.6991 29.0684 22.8832 31.0292 21.0039 32.7906C19.1245 34.5519 17.974 35.3567 17.5523 35.205C17.3547 35.136 17.3035 35.0094 17.3988 34.8253C17.5204 34.6549 18.1394 33.975 19.2556 32.7856C20.3718 31.5962 21.4292 30.3596 22.4275 29.0758C24.6793 26.2734 26.5173 23.6903 27.9416 21.3265C28.7414 20.0399 29.0692 19.3426 28.925 19.2346C28.8335 19.1538 28.389 19.2071 27.5917 19.3944C23.086 20.4959 20.6144 20.5998 20.1767 19.7062C20.0471 19.5056 20.0641 19.2476 20.2275 18.9321C20.4726 18.4587 20.8946 18.127 21.4933 17.9368C22.092 17.7467 23.014 17.6406 24.2594 17.6186C25.0276 17.6162 25.5047 17.5965 25.6906 17.5595C26.1551 17.4998 27.2879 17.4696 29.0892 17.4687C29.6452 17.4899 30.0239 17.4026 30.2254 17.2067C30.4405 16.9846 30.8471 16.3282 31.4454 15.2374C32.1527 13.9362 32.4605 13.2452 32.3689 13.1645C32.3426 13.1508 32.2832 13.1367 32.1907 13.1222C31.6094 13.0212 28.9683 12.9373 24.2673 12.8704C22.0161 12.8384 20.686 12.7665 20.277 12.6547C19.7229 12.5011 19.5095 12.1405 19.6368 11.5728C19.7641 11.0051 20.1539 10.6066 20.8061 10.3775C21.0855 10.2888 23.0728 10.2508 26.7679 10.2636C30.463 10.2765 32.9192 10.3313 34.1363 10.4281ZM69.8002 19.3941C71.4419 19.444 72.3261 19.6685 72.4529 20.0676C72.528 20.3733 72.015 20.5912 70.9138 20.7212C70.3569 20.7663 68.9183 20.8716 66.5981 21.0373C64.2915 21.1767 62.9527 21.2503 62.5818 21.2583C62.5156 21.2574 62.3963 21.2623 62.2239 21.2731C62.0652 21.2576 61.8335 21.2543 61.5287 21.2632C61.2639 21.2594 61.019 21.2493 60.7941 21.2329C59.9333 21.2206 59.4027 21.2793 59.2022 21.4089C59.0416 21.5258 58.9439 21.8754 58.9091 22.4577C58.8706 23.3048 58.9297 23.8024 59.0866 23.9503C59.257 24.0719 59.8851 24.1471 60.9708 24.1758C63.777 24.2951 65.6971 24.3224 66.7311 24.2577C68.0835 24.1577 68.7101 24.3322 68.611 24.7811C68.5537 25.0849 68.0729 25.3695 67.1684 25.6347C66.6096 25.8122 65.4676 26.0211 63.7424 26.2615C62.057 26.4892 60.7572 26.6164 59.843 26.6431C59.4058 26.6501 59.1268 26.7058 59.0062 26.81C58.9118 26.9279 58.8549 27.1986 58.8357 27.6221C58.8319 27.887 58.7776 28.4425 58.6729 29.2887C58.5973 29.9498 58.6252 30.3145 58.7567 30.3826C58.9144 30.4643 59.7639 30.3373 61.3051 30.0016C66.6189 28.8852 69.4249 28.5542 69.7231 29.0088C69.7747 29.1022 69.7597 29.2278 69.678 29.3856C69.5963 29.5434 69.3222 29.7183 68.8559 29.9103C68.4296 30.0897 67.5646 30.3754 66.261 30.7675C65.4627 31.021 64.8372 31.2306 64.3845 31.3964C63.9319 31.5621 63.5522 31.7157 63.2456 31.857C62.9389 31.9983 62.7783 32.1152 62.7638 32.2078C62.7492 32.3003 62.7541 32.4195 62.7785 32.5656C62.8565 32.6726 62.84 32.8976 62.7292 33.2404C62.4221 34.3486 62.3464 35.0097 62.5023 35.2239C62.6582 35.438 63.2999 35.4868 64.4274 35.3704C66.6015 35.2292 68.3648 35.1086 69.7172 35.0086C72.1163 34.8838 73.6147 34.7594 74.2125 34.6355C75.1024 34.4627 75.5245 34.5813 75.4789 34.9912C75.4771 35.1236 75.369 35.2678 75.1549 35.4237C74.9135 35.6322 73.9964 35.8575 72.4036 36.0998C71.1555 36.3204 70.0602 36.5035 69.1177 36.6491C68.3875 36.7711 67.9562 36.8312 67.8238 36.8293C67.7176 36.8411 66.6559 36.9915 64.6386 37.2807C62.7537 37.5718 61.7849 37.7037 61.7323 37.6764C61.4957 37.5539 59.7977 37.7416 56.6383 38.2397C54.66 38.5824 53.293 38.7749 52.5375 38.8171C51.8218 38.8467 51.2931 38.773 50.9512 38.5959C50.0435 38.1592 50.0837 37.6631 51.0717 37.1076C52.1795 36.5141 53.8536 36.1472 56.0939 36.0069C58.8776 35.8478 60.3307 35.6499 60.4533 35.4132C60.5214 35.2818 60.547 34.8782 60.5301 34.2024C60.5513 33.6465 60.5774 33.2097 60.6084 32.8923C60.6384 32.6411 60.4875 32.5462 60.1555 32.6077C59.9296 32.6575 59.4243 32.796 58.6396 33.0232C55.8203 33.8308 54.8123 33.4589 55.6158 31.9074C55.7656 31.6181 55.907 30.991 56.0399 30.026C56.1874 28.9686 56.3002 26.6258 56.3783 22.9979C56.3896 22.2033 56.3305 21.7058 56.2009 21.5053C56.0849 21.2785 55.7752 21.1681 55.2718 21.1742C54.2524 21.1465 53.614 20.8659 53.3567 20.3324C53.1393 19.7863 53.4511 19.2808 54.2921 18.8159C54.4527 18.699 55.1357 18.6359 56.3412 18.6265C57.5466 18.6172 58.2545 18.667 58.4648 18.776C58.6099 18.8177 58.868 18.8347 59.2389 18.8267C59.6362 18.8323 59.9074 18.8561 60.0525 18.8979C60.1314 18.9387 60.6275 18.9789 61.5408 19.0184C61.7657 19.0348 62.0106 19.0449 62.2755 19.0487C62.5666 19.0661 62.8446 19.0767 63.1094 19.0804C63.3743 19.0842 63.5398 19.0865 63.606 19.0875C63.606 19.0875 63.864 19.1044 64.3801 19.1382C64.9225 19.1857 65.3261 19.2113 65.5909 19.2151C66.478 19.2409 67.1133 19.2698 67.4969 19.3018C68.198 19.3647 68.9658 19.3955 69.8002 19.3941ZM69.3585 39.275C70.2329 39.2609 70.6963 39.2675 70.7489 39.2947C71.2748 39.5671 71.2757 40.4347 70.7516 41.8974C69.4836 45.376 67.8625 49.4721 65.8882 54.1856C65.1072 56.0155 64.5368 57.471 64.1771 58.5519C63.6248 60.1335 63.1909 60.8425 62.8753 60.6791C62.7175 60.5974 62.6556 60.2985 62.6894 59.7824C62.7096 59.2926 62.8028 58.7907 62.9691 58.2765C63.5923 56.3649 64.1056 54.7298 64.509 53.3713C65.1788 50.9835 66.1744 48.0309 67.4959 44.5133C68.129 42.8402 68.3934 41.9433 68.2892 41.8226C68.1976 41.7419 67.9065 41.7245 67.4157 41.7705C66.5804 41.8381 64.8842 41.8934 62.3274 41.9365C61.6117 41.966 61.0485 41.9911 60.6376 42.0118C59.5101 42.1282 58.57 42.1082 57.8173 41.9518C57.1045 41.7827 56.7504 41.5327 56.7551 41.2016C56.7312 40.0887 57.7786 39.5473 59.8974 39.5775C61.2352 39.57 62.2819 39.5452 63.0375 39.5029C63.9917 39.4635 64.4819 39.4506 64.5082 39.4642C64.5608 39.4915 65.1572 39.4668 66.2973 39.3904C67.5299 39.3284 68.5503 39.29 69.3585 39.275ZM76.5555 43.5026L86.4559 48.6301C93.0562 52.0484 96.4275 53.8778 96.5697 54.1182C96.9205 54.6 96.9869 55.0513 96.769 55.472C96.5647 55.8665 96.1714 56.0463 95.5892 56.0115C95.3379 55.9815 92.1357 54.373 85.9825 51.1862C79.8555 48.013 76.4511 46.1832 75.7693 45.6967C75.1791 45.2909 74.8527 44.9552 74.7903 44.6894C74.7278 44.4236 74.737 44.2449 74.8178 44.1533C74.9248 44.0754 75.2179 43.9604 75.6968 43.8082L76.5555 43.5026Z" fill="#191504"/>
</g>
<defs>
<clipPath id="clip0_493_7087">
<rect width="105.26" height="88.55" fill="white"/>
</clipPath>
</defs>
</svg>
