<svg width="149" height="186" viewBox="0 0 149 186" fill="none" xmlns="http://www.w3.org/2000/svg">
<g clip-path="url(#clip0_493_6143)">
<path d="M23.8209 4H129.881L147.721 19.85V152.47C147.718 153.302 147.387 154.099 146.798 154.687C146.21 155.276 145.413 155.607 144.581 155.61H4.10086C3.30521 155.61 2.54215 155.294 1.97954 154.731C1.41693 154.169 1.10086 153.406 1.10086 152.61V6.94C1.09556 6.55581 1.16666 6.1744 1.31002 5.81793C1.45339 5.46146 1.66616 5.13702 1.93598 4.86348C2.2058 4.58994 2.52729 4.37275 2.88176 4.22451C3.23624 4.07628 3.61664 3.99996 4.00086 4H19.3809C19.9113 4 20.42 4.21071 20.7951 4.58579C21.1701 4.96086 21.3809 5.46957 21.3809 6C21.3809 5.46957 21.5916 4.96086 21.9666 4.58579C22.3417 4.21071 22.8504 4 23.3809 4H23.8209Z" fill="#3688AE" stroke="black" stroke-width="2" stroke-linecap="round" stroke-linejoin="round"/>
<path d="M127.771 155.61V84.5599C127.771 83.3045 127.273 82.1004 126.386 81.2118C125.499 80.3232 124.296 79.8226 123.041 79.8199H27.7106C26.2227 79.8199 24.7958 80.411 23.7437 81.4631C22.6916 82.5152 22.1006 83.9421 22.1006 85.4299V155.61H127.771Z" fill="white" stroke="black" stroke-width="2" stroke-linecap="round" stroke-linejoin="round"/>
<path d="M29.3311 1V44.91C29.3416 46.2636 29.8867 47.5582 30.8477 48.5116C31.8086 49.4651 33.1074 50 34.4611 50H113.391C114.717 50 115.989 49.4732 116.927 48.5355C117.864 47.5979 118.391 46.3261 118.391 45V1H29.3311ZM58.1011 45.15H42.2111V9.73H46.4211V7.26H54.3511V9.73H58.1011V45.15Z" fill="#C9D1D3" stroke="black" stroke-width="2" stroke-linecap="round" stroke-linejoin="round"/>
<path d="M112.791 8.25H106.851V11.22H112.791V8.25Z" fill="black"/>
<path d="M29.3311 97.86V134.26C29.3363 135.255 29.7362 136.208 30.4429 136.909C31.1496 137.61 32.1056 138.003 33.1011 138H120.731V103.38C120.731 101.916 120.149 100.512 119.114 99.4768C118.079 98.4416 116.675 97.86 115.211 97.86H29.3311Z" fill="white" stroke="black" stroke-width="2" stroke-linecap="round" stroke-linejoin="round"/>
<path d="M54.3512 102.36H35.5312V131.09H54.3512V102.36Z" fill="#8AAAE5" stroke="black" stroke-width="2" stroke-linecap="round" stroke-linejoin="round"/>
<path d="M59.8008 107.81H102.861" stroke="black" stroke-width="2" stroke-linecap="round" stroke-linejoin="round"/>
<path d="M59.8008 115.66H112.801" stroke="black" stroke-width="2" stroke-linecap="round" stroke-linejoin="round"/>
<path d="M59.8008 123.16H112.801" stroke="black" stroke-width="2" stroke-linecap="round" stroke-linejoin="round"/>
<path d="M59.8008 130.1H112.801" stroke="black" stroke-width="2" stroke-linecap="round" stroke-linejoin="round"/>
<path d="M41.2207 110.92V114.98" stroke="black" stroke-width="2" stroke-linecap="round" stroke-linejoin="round"/>
<path d="M48.1611 110.92V114.98" stroke="black" stroke-width="2" stroke-linecap="round" stroke-linejoin="round"/>
<path d="M40.7305 118.87C40.8426 119.762 41.2866 120.58 41.974 121.16C42.6614 121.74 43.542 122.04 44.4405 122C44.4405 122 47.9105 122.63 48.9005 118.66" stroke="black" stroke-width="2" stroke-linecap="round" stroke-linejoin="round"/>
<path d="M26.8659 179.151H25.7216V178.007H26.8659V179.151ZM32.5878 166.563H33.7322V182.584H32.5878V166.563ZM19.9997 178.007V179.151H18.8553V178.007H19.9997ZM19.9997 178.007V176.862H21.1441V178.007H19.9997ZM25.7216 178.007H24.5772V176.862H25.7216V178.007ZM21.1441 176.862V174.574H22.2884V176.862H21.1441ZM24.5772 176.862H23.4328V175.718V174.574H24.5772V176.862ZM22.2884 174.574V168.852H23.4328V174.574H22.2884ZM52.0422 182.584H41.7428V181.44H52.0422V182.584ZM53.1866 171.141H50.8978V175.718H49.7534V166.563H50.8978V169.996H53.1866V171.141ZM41.7428 181.44H40.5984V180.296V179.151V178.007V176.862H41.7428V178.007V179.151V181.44ZM39.4541 174.574V175.718H38.3097V174.574H39.4541ZM39.4541 174.574V173.429H41.7428V174.574H39.4541ZM41.7428 173.429V172.285H42.8872V173.429H41.7428ZM42.8872 172.285V171.141H44.0316V172.285H42.8872ZM44.0316 171.141V168.852H38.3097V167.707H45.1759V171.141H44.0316ZM71.4966 172.285H69.2078V175.718H68.0634V166.563H69.2078V168.852H71.4966V169.996H69.2078V171.141H71.4966V172.285ZM68.0634 178.007H58.9084V176.862H69.2078V182.584H68.0634V178.007ZM56.6197 173.429H62.3416V174.574H56.6197V173.429ZM56.6197 173.429H55.4753V172.285V171.141V169.996V168.852H56.6197V169.996V171.141V173.429ZM62.3416 173.429V168.852H63.4859V173.429H62.3416ZM56.6197 168.852V167.707H62.3416V168.852H56.6197ZM88.6622 175.718H73.7853V174.574H80.6516V172.285H81.7959V174.574H88.6622V175.718ZM87.5178 172.285H85.2291V171.141H87.5178V172.285ZM86.3734 178.007H74.9297V176.862H87.5178V182.584H86.3734V178.007ZM77.2184 171.141V172.285H74.9297V171.141H77.2184ZM77.2184 171.141V169.996H79.5072V171.141H77.2184ZM85.2291 171.141H82.9403V169.996H85.2291V171.141ZM79.5072 169.996V168.852H80.6516V169.996H79.5072ZM82.9403 169.996H81.7959V168.852H82.9403V169.996ZM80.6516 168.852V166.563H81.7959V168.852H80.6516ZM93.2397 179.151H95.5284V181.44H93.2397V179.151ZM108.117 173.429H106.972V174.574H105.828V175.718H104.683V176.862H103.539V178.007H105.828V176.862H108.117V179.151H100.106V178.007H101.25V176.862H102.395V175.718H103.539V174.574H104.683V173.429H102.395V174.574H100.106V172.285H108.117V173.429ZM116.127 179.151H111.55V178.007H112.694V173.429H111.55V172.285H114.983V178.007H116.127V179.151ZM112.694 168.852H114.983V171.141H112.694V168.852ZM122.993 181.44H118.416V180.296H119.56V173.429H118.416V172.285H120.705V173.429H121.849V172.285H125.282V173.429H126.427V176.862H125.282V178.007H121.849V180.296H122.993V181.44ZM121.849 176.862H124.138V175.718V174.574V173.429H121.849V174.574V176.862Z" fill="#1F2223"/>
</g>
<defs>
<clipPath id="clip0_493_6143">
<rect width="148.62" height="185.04" fill="white" transform="translate(0.100586)"/>
</clipPath>
</defs>
</svg>
