<svg width="449" height="88" viewBox="0 0 449 88" fill="none" xmlns="http://www.w3.org/2000/svg">
<g clip-path="url(#clip0_493_7091)">
<path d="M30.0445 30.541C27.9061 30.541 25.7796 30.5054 23.665 30.4341C21.5503 30.3866 19.4238 30.3628 17.2854 30.3628C15.5747 30.3628 13.864 30.3391 12.1532 30.2916C10.4425 30.2678 8.7318 30.2322 7.02108 30.1846C6.26076 30.1609 5.50044 30.149 4.74012 30.149C3.9798 30.149 3.21948 30.1252 2.45916 30.0777C2.079 30.0302 1.75824 29.8758 1.49688 29.6144C1.23552 29.3768 1.10484 29.056 1.10484 28.6521C1.10484 28.1769 1.28304 27.773 1.63944 27.4404C2.0196 27.1077 2.4354 26.9414 2.88684 26.9414C4.95396 26.9414 6.99732 26.9889 9.01692 27.084C11.0603 27.2028 13.1155 27.2622 15.1826 27.2622H22.7383L22.9165 26.3712C22.9878 25.6584 23.0472 24.9456 23.0947 24.2328C23.166 23.4962 23.2254 22.7715 23.2729 22.0587C23.3917 20.443 23.4749 18.8392 23.5224 17.2473C23.5937 15.6554 23.6531 14.0397 23.7006 12.4003C23.7481 11.3548 23.7956 10.3213 23.8432 9.2996C23.8907 8.25416 23.9144 7.20872 23.9144 6.16328C23.9144 5.9732 23.9026 5.75936 23.8788 5.52176C23.855 5.2604 23.8075 5.05844 23.7362 4.91588C23.5224 4.82084 23.1304 4.74956 22.5601 4.70204C22.0136 4.65452 21.4078 4.61888 20.7425 4.59512C20.101 4.57136 19.4832 4.55948 18.8892 4.55948C18.2952 4.55948 17.8556 4.55948 17.5705 4.55948C16.24 4.55948 14.9094 4.55948 13.5788 4.55948C12.272 4.55948 10.9415 4.61888 9.58716 4.73768L7.44876 4.95152C7.23492 4.97528 7.02108 5.01092 6.80724 5.05844C6.61716 5.0822 6.42708 5.09408 6.237 5.09408C5.83308 5.09408 5.47668 4.9634 5.1678 4.70204C4.88268 4.44068 4.74012 4.09616 4.74012 3.66848C4.74012 3.33584 4.83516 3.03884 5.02524 2.77748C5.21532 2.49236 5.4648 2.27852 5.77368 2.13596C6.03504 2.01716 6.30828 1.95776 6.5934 1.95776C6.87852 1.934 7.16364 1.89836 7.44876 1.85084C9.37332 1.66076 11.2741 1.54196 13.1512 1.49444C15.0282 1.44692 16.929 1.42316 18.8536 1.42316C19.2337 1.42316 19.7327 1.43504 20.3504 1.4588C20.9682 1.4588 21.5978 1.48256 22.2394 1.53008C22.8809 1.5776 23.4868 1.64888 24.057 1.74392C24.651 1.8152 25.1143 1.934 25.447 2.10032C26.1598 2.43296 26.635 2.95568 26.8726 3.66848C26.9914 4.00112 27.0745 4.35752 27.122 4.73768C27.1696 5.09408 27.1933 5.46236 27.1933 5.84252C27.1933 6.29396 27.1814 7.03052 27.1577 8.0522C27.1339 9.07388 27.0983 10.25 27.0508 11.5806C27.0032 12.9111 26.9438 14.3367 26.8726 15.8574C26.8013 17.3542 26.7181 18.8274 26.6231 20.2767C26.5518 21.7023 26.4686 23.0329 26.3736 24.2684C26.2786 25.5039 26.1835 26.5137 26.0885 27.2978C27.3478 27.3216 28.4288 27.3453 29.3317 27.3691C30.2584 27.4166 30.7811 27.4641 30.8999 27.5116C31.5176 27.773 31.8265 28.2126 31.8265 28.8303C31.8265 29.3055 31.6364 29.7094 31.2563 30.0421C30.8999 30.3747 30.496 30.541 30.0445 30.541ZM61.3295 15.7504C61.1632 16.0593 60.9256 16.3088 60.6167 16.4989C60.3316 16.689 60.0227 16.784 59.69 16.784C59.2861 16.784 58.9297 16.6533 58.6208 16.392C58.3357 16.1306 58.1932 15.7861 58.1932 15.3584C58.1932 15.0733 58.205 14.7882 58.2288 14.503C58.2526 14.2179 58.2763 13.9209 58.3001 13.612C58.3476 12.8755 58.3832 12.1389 58.407 11.4024C58.4545 10.6658 58.4902 9.92924 58.5139 9.19268H53.0966C52.6927 9.19268 52.3363 9.062 52.0274 8.80064C51.7423 8.53928 51.5998 8.19476 51.5998 7.76708C51.5998 7.19684 51.8255 6.76916 52.2769 6.48404C52.7284 6.19892 53.2036 6.05636 53.7025 6.05636H55.2707L58.4426 6.02072H58.5496C58.5258 5.28416 58.4783 4.5476 58.407 3.81104C58.3595 3.07448 58.3357 2.32604 58.3357 1.56572C58.3357 1.09052 58.5139 0.686597 58.8703 0.353957C59.2505 0.0213171 59.6663 -0.145003 60.1177 -0.145003C60.4504 -0.145003 60.7474 -0.0499634 61.0087 0.140116C61.2938 0.330196 61.4839 0.603436 61.579 0.959836C61.6027 1.1024 61.6265 1.2806 61.6502 1.49444C61.674 1.68452 61.6859 1.89836 61.6859 2.13596C61.6859 2.3498 61.6859 2.56364 61.6859 2.77748C61.7096 2.99132 61.7215 3.16952 61.7215 3.31208C61.7453 3.8348 61.769 4.35752 61.7928 4.88024C61.8166 5.3792 61.8284 5.90192 61.8284 6.4484C61.8284 6.85232 61.8166 7.26812 61.7928 7.6958C61.7928 8.09972 61.7809 8.51552 61.7572 8.9432L61.6502 11.4736C61.6265 12.0914 61.6146 12.7329 61.6146 13.3982C61.6384 14.0397 61.5908 14.6694 61.472 15.2871C61.4245 15.4772 61.377 15.6316 61.3295 15.7504ZM46.824 7.05428C46.824 6.93548 46.8121 6.70976 46.7884 6.37712C46.7646 6.04448 46.729 5.68808 46.6814 5.30792C46.6577 4.92776 46.622 4.59512 46.5745 4.31C46.5508 4.00112 46.5032 3.82292 46.432 3.7754C46.3607 3.72788 46.0993 3.69224 45.6479 3.66848C45.1964 3.62096 44.6381 3.5972 43.9728 3.5972C43.3313 3.57344 42.6304 3.56156 41.87 3.56156C41.1097 3.56156 40.385 3.54968 39.696 3.52592C39.007 3.50216 38.4011 3.4784 37.8784 3.45464C37.3794 3.40712 37.0468 3.34772 36.8804 3.27644C36.334 3.01508 36.0607 2.5874 36.0607 1.9934C36.0607 1.5182 36.2389 1.11428 36.5953 0.781636C36.9755 0.448996 37.3913 0.282676 37.8427 0.282676C38.2229 0.282676 38.5912 0.294556 38.9476 0.318315C39.3277 0.342076 39.696 0.365837 40.0524 0.389597H40.3375L40.8721 0.425236H41.1572H43.3313H43.6164L44.151 0.460876H44.4361C45.0301 0.484637 45.6241 0.508397 46.2181 0.532157C46.8121 0.555917 47.3467 0.662837 47.8219 0.852917C48.3209 1.01924 48.7486 1.30436 49.105 1.70828C49.4614 2.08844 49.7108 2.63492 49.8534 3.34772C49.9009 3.60908 49.9247 3.87044 49.9247 4.1318C49.9484 4.39316 49.9722 4.65452 49.996 4.91588C50.0197 5.39108 50.0554 5.8544 50.1029 6.30584C50.1742 6.75728 50.2098 7.20872 50.2098 7.66016C50.2098 8.49176 49.9366 9.13328 49.3901 9.58472C48.8674 10.0124 48.214 10.2262 47.4299 10.2262H46.432L44.4005 10.1193H42.369L40.3732 10.155H39.3752C39.399 10.5589 39.4228 11.046 39.4465 11.6162C39.494 12.1627 39.601 12.626 39.7673 13.0062C40.0049 13.1012 40.2781 13.1844 40.587 13.2556C40.9196 13.3032 41.2523 13.3507 41.5849 13.3982C41.9413 13.422 42.2858 13.4457 42.6185 13.4695C42.9511 13.4695 43.2481 13.4695 43.5095 13.4695C44.4124 13.4695 45.3034 13.4576 46.1825 13.4338C47.0616 13.3863 47.9526 13.315 48.8555 13.22C49.402 13.1725 49.9484 13.1131 50.4949 13.0418C51.0652 12.9468 51.6235 12.8992 52.17 12.8992C52.5739 12.8992 52.9184 13.0299 53.2036 13.2913C53.5124 13.5526 53.6669 13.8972 53.6669 14.3248C53.6669 14.6575 53.5718 14.9664 53.3818 15.2515C53.1917 15.5128 52.9422 15.7148 52.6333 15.8574C52.467 15.9286 52.1462 15.9999 51.671 16.0712C51.2196 16.1425 50.685 16.2019 50.0672 16.2494C49.4495 16.2969 48.7961 16.3444 48.107 16.392C47.418 16.4395 46.7408 16.4751 46.0756 16.4989C45.434 16.5226 44.8519 16.5464 44.3292 16.5702C43.8065 16.5702 43.4144 16.5702 43.1531 16.5702C42.7492 16.5702 42.2858 16.5583 41.7631 16.5345C41.2404 16.5108 40.7058 16.4632 40.1593 16.392C39.6366 16.3207 39.1258 16.2138 38.6268 16.0712C38.1516 15.9286 37.7596 15.7267 37.4507 15.4653C37.1656 15.2277 36.928 14.9188 36.7379 14.5387C36.5716 14.1348 36.4409 13.719 36.3458 13.2913C36.2508 12.8398 36.1795 12.3884 36.132 11.937C36.1082 11.4855 36.0964 11.0816 36.0964 10.7252C36.0964 10.5826 36.0964 10.4401 36.0964 10.2975C36.0964 10.155 36.0845 10.0124 36.0607 9.86984C36.037 9.67976 35.9894 9.50156 35.9182 9.33524C35.8706 9.14516 35.8469 8.95508 35.8469 8.765C35.8469 8.43236 35.9538 8.12348 36.1676 7.83836C36.429 7.4582 36.726 7.23248 37.0586 7.1612C37.415 7.08992 37.8071 7.05428 38.2348 7.05428C39.2802 7.05428 40.3138 7.05428 41.3354 7.05428C42.3809 7.03052 43.4382 7.01864 44.5074 7.01864C44.9113 7.01864 45.3034 7.01864 45.6835 7.01864C46.0637 7.01864 46.4438 7.03052 46.824 7.05428ZM40.9434 23.3418C40.5395 23.3418 40.1831 23.2111 39.8742 22.9497C39.5891 22.6884 39.4465 22.3438 39.4465 21.9162C39.4465 21.5122 39.5653 21.1796 39.8029 20.9182C40.0405 20.6569 40.3256 20.4549 40.6583 20.3124C40.7533 20.2886 41.0266 20.2648 41.478 20.2411C41.9294 20.1936 42.4997 20.1579 43.1887 20.1342C43.8778 20.1104 44.6618 20.0866 45.541 20.0629C46.4201 20.0391 47.3348 20.0272 48.2852 20.0272C48.214 19.7184 48.1783 19.3857 48.1783 19.0293C48.1783 18.5541 48.3565 18.1621 48.7129 17.8532C49.0931 17.5206 49.5089 17.3542 49.9603 17.3542C50.3167 17.3542 50.59 17.4255 50.78 17.5681C50.9939 17.6869 51.1483 17.8532 51.2434 18.067C51.3622 18.2809 51.4453 18.5185 51.4928 18.7798C51.5404 19.0412 51.5879 19.3144 51.6354 19.5996C51.6354 19.6233 51.6354 19.6471 51.6354 19.6708C51.6592 19.6708 51.671 19.6827 51.671 19.7065V19.8847C51.671 19.9084 51.671 19.9322 51.671 19.956C51.6948 19.956 51.7067 19.9678 51.7067 19.9916C53.061 19.9678 54.2728 19.956 55.342 19.956C56.4112 19.956 57.1477 19.956 57.5516 19.956C58.0981 19.9322 58.6327 19.9084 59.1554 19.8847C59.6782 19.8372 60.2009 19.8134 60.7236 19.8134C61.1275 19.8134 61.472 19.9441 61.7572 20.2054C62.066 20.4668 62.2205 20.8113 62.2205 21.239C62.2205 21.6429 62.1017 21.9756 61.8641 22.2369C61.6265 22.4983 61.3414 22.7002 61.0087 22.8428C60.8899 22.8903 60.486 22.9378 59.797 22.9854C59.1317 23.0091 58.3238 23.0448 57.3734 23.0923C56.423 23.116 55.3895 23.1398 54.2728 23.1636C53.156 23.1636 52.0868 23.1754 51.0652 23.1992C50.0672 23.1992 49.1644 23.1992 48.3565 23.1992C47.5487 23.1992 46.9903 23.1992 46.6814 23.1992C45.7073 23.223 44.745 23.2586 43.7946 23.3061C42.868 23.3299 41.9176 23.3418 40.9434 23.3418ZM41.6206 28.367C41.6206 28.1769 41.6443 27.975 41.6918 27.7611C41.7631 27.5473 41.8463 27.3453 41.9413 27.1552C42.274 26.4187 42.8204 25.8484 43.5808 25.4445C44.3648 25.0406 45.2202 24.7436 46.1468 24.5535C47.0735 24.3634 48.012 24.2565 48.9624 24.2328C49.9128 24.1852 50.7325 24.1615 51.4216 24.1615C51.8255 24.1615 52.3244 24.1852 52.9184 24.2328C53.5124 24.2565 54.1302 24.3159 54.7717 24.411C55.437 24.4822 56.0904 24.6129 56.7319 24.803C57.3734 24.9693 57.9556 25.195 58.4783 25.4802C59.001 25.7415 59.4168 26.086 59.7257 26.5137C60.0583 26.9176 60.2246 27.4047 60.2246 27.975C60.2246 28.3789 60.1415 28.7472 59.9752 29.0798C59.8326 29.4124 59.6306 29.7213 59.3693 30.0064C58.8703 30.5767 58.2526 31.0281 57.516 31.3608C56.8032 31.7172 56.0429 31.9785 55.235 32.1448C54.451 32.3349 53.6431 32.4537 52.8115 32.5012C51.9799 32.5488 51.2077 32.5725 50.4949 32.5725C49.8059 32.5725 48.9505 32.5369 47.9288 32.4656C46.9309 32.3943 45.9568 32.2161 45.0064 31.931C44.0797 31.6459 43.2838 31.2182 42.6185 30.648C41.9532 30.1015 41.6206 29.3412 41.6206 28.367ZM56.5181 28.0819C56.2092 27.9156 55.8053 27.773 55.3063 27.6542C54.8311 27.5592 54.3203 27.476 53.7738 27.4047C53.2511 27.3334 52.7402 27.2859 52.2413 27.2622C51.7661 27.2384 51.3859 27.2265 51.1008 27.2265C50.7444 27.2265 50.3048 27.2265 49.7821 27.2265C49.2594 27.2503 48.7129 27.2859 48.1427 27.3334C47.5962 27.4047 47.0616 27.4879 46.5389 27.5829C46.0162 27.678 45.5766 27.8086 45.2202 27.975C45.1252 28.0225 45.0658 28.0938 45.042 28.1888C45.0182 28.2838 45.042 28.3551 45.1133 28.4026C45.3271 28.6165 45.7073 28.7947 46.2538 28.9372C46.8002 29.0798 47.3705 29.1867 47.9645 29.258C48.5822 29.353 49.1525 29.4124 49.6752 29.4362C50.1979 29.4837 50.5662 29.5075 50.78 29.5075C51.1602 29.5075 51.6116 29.4956 52.1344 29.4718C52.6571 29.4718 53.1798 29.4362 53.7025 29.3649C54.249 29.2936 54.7717 29.1867 55.2707 29.0442C55.7696 28.9254 56.1973 28.7472 56.5537 28.5096C56.72 28.3432 56.7082 28.2007 56.5181 28.0819ZM94.8199 31.6815C94.2259 31.6815 93.8339 31.5152 93.6438 31.1826C93.4537 30.8499 93.3468 30.4341 93.3231 29.9352C93.2755 28.9135 93.2399 27.8918 93.2161 26.8701C93.2161 25.8722 93.1924 24.8624 93.1449 23.8407C93.1211 23.2942 93.0973 22.7715 93.0736 22.2726C93.0736 21.7498 93.0617 21.2152 93.0379 20.6688L92.8597 14.2536C92.836 13.7071 92.8122 13.1844 92.7885 12.6854C92.7885 12.1627 92.7766 11.6281 92.7528 11.0816L92.539 4.95152C92.5152 4.45256 92.4915 3.9536 92.4677 3.45464C92.4439 2.95568 92.4321 2.44484 92.4321 1.92212C92.4321 1.44692 92.6103 1.05488 92.9667 0.745996C93.3468 0.413356 93.7745 0.247036 94.2497 0.247036C94.8675 0.247036 95.2595 0.425236 95.4258 0.781636C95.6159 1.13804 95.7228 1.55384 95.7466 2.02904C95.8416 5.16536 95.9367 8.2898 96.0317 11.4024C96.1505 14.4912 96.2574 17.5918 96.3525 20.7044C96.4 22.2726 96.4475 23.8288 96.495 25.3732C96.5663 26.8939 96.6019 28.4383 96.6019 30.0064C96.6019 30.4816 96.4119 30.8737 96.0317 31.1826C95.6753 31.5152 95.2714 31.6815 94.8199 31.6815ZM86.1594 1.95776C86.1594 1.48256 86.3376 1.09052 86.694 0.781636C87.0742 0.448996 87.49 0.282676 87.9414 0.282676C88.4641 0.282676 88.8443 0.437116 89.0819 0.745996C89.3195 1.03112 89.4383 1.41128 89.4383 1.88648V8.65808L89.4739 12.0082V12.0795L89.5452 22.2369V29.0085C89.5452 29.4837 89.3551 29.8876 88.975 30.2203C88.6186 30.5529 88.2147 30.7192 87.7632 30.7192C87.2643 30.7192 86.8841 30.5648 86.6227 30.2559C86.3851 29.9708 86.2663 29.5906 86.2663 29.1154V22.3082L86.1951 13.7546C85.2447 13.7784 84.2943 13.814 83.3439 13.8615C82.3935 13.909 81.4431 13.9328 80.4927 13.9328C79.5898 16.2138 78.4731 18.3878 77.1425 20.4549C75.8119 22.4983 74.2438 24.3516 72.438 26.0148C72.2717 26.1811 72.0697 26.3712 71.8321 26.585C71.6183 26.7751 71.3807 26.9652 71.1193 27.1552C70.8817 27.3453 70.6323 27.4998 70.3709 27.6186C70.1095 27.7611 69.8601 27.8324 69.6225 27.8324C69.2185 27.8324 68.8621 27.7017 68.5533 27.4404C68.2681 27.179 68.1256 26.8464 68.1256 26.4424C68.1256 26.0623 68.2681 25.694 68.5533 25.3376C68.7196 25.1475 68.9097 24.9812 69.1235 24.8386C69.3373 24.6961 69.5393 24.5416 69.7294 24.3753C70.1808 23.9952 70.6085 23.5912 71.0124 23.1636C71.4401 22.7359 71.8559 22.2844 72.2598 21.8092C73.828 19.9797 75.1229 18.0195 76.1446 15.9286C77.19 13.8378 78.0335 11.64 78.675 9.33524C78.8651 8.71748 79.0195 8.07596 79.1383 7.41068C79.2809 6.7454 79.3522 6.08012 79.3522 5.41484C79.3522 5.15348 79.3284 4.9634 79.2809 4.8446C79.1859 4.79708 79.0908 4.77332 78.9958 4.77332C78.9007 4.77332 78.8057 4.77332 78.7107 4.77332C78.0454 4.77332 77.3801 4.79708 76.7148 4.8446C76.0495 4.86836 75.3843 4.904 74.719 4.95152C72.8657 5.0228 71.0124 5.05844 69.1591 5.05844C68.7552 5.05844 68.3988 4.92776 68.0899 4.6664C67.8048 4.40504 67.6623 4.06052 67.6623 3.63284C67.6623 3.3002 67.7335 3.02696 67.8761 2.81312C68.0187 2.57552 68.2087 2.39732 68.4463 2.27852C68.6839 2.13596 68.9453 2.04092 69.2304 1.9934C69.5155 1.94588 69.7888 1.92212 70.0501 1.92212C70.6679 1.92212 71.2738 1.92212 71.8678 1.92212C72.4618 1.92212 73.0677 1.91024 73.6854 1.88648C74.4695 1.83896 75.2417 1.79144 76.002 1.74392C76.7861 1.6964 77.5702 1.67264 78.3543 1.67264C78.7344 1.67264 79.1265 1.68452 79.5304 1.70828C79.9343 1.73204 80.3145 1.80332 80.6709 1.92212C81.0273 2.01716 81.348 2.18348 81.6331 2.42108C81.942 2.63492 82.1796 2.95568 82.3459 3.38336C82.5598 3.92984 82.6667 4.4882 82.6667 5.05844C82.6667 5.89004 82.5835 6.72164 82.4172 7.55324C82.2509 8.36108 82.0489 9.16892 81.8113 9.97676C81.8113 10.0243 81.7876 10.0956 81.7401 10.1906L81.6331 10.5826C81.6094 10.6302 81.5975 10.6658 81.5975 10.6896C81.5975 10.7133 81.5856 10.749 81.5619 10.7965C81.7519 10.7965 81.942 10.7965 82.1321 10.7965C82.3222 10.7727 82.5123 10.7608 82.7023 10.7608L85.0546 10.6896C85.2447 10.6896 85.4347 10.6896 85.6248 10.6896C85.8149 10.6658 86.005 10.6539 86.1951 10.6539L86.1594 8.72936V1.95776ZM134.111 4.98716L123.669 5.0228C123.431 5.0228 123.027 5.0228 122.457 5.0228C121.887 5.0228 121.233 5.0228 120.497 5.0228C119.784 4.99904 119.024 4.98716 118.216 4.98716C117.432 4.9634 116.695 4.93964 116.006 4.91588C115.341 4.89212 114.759 4.86836 114.26 4.8446C113.761 4.79708 113.452 4.73768 113.333 4.6664C112.787 4.40504 112.514 3.97736 112.514 3.38336C112.514 2.90816 112.692 2.50424 113.048 2.1716C113.428 1.83896 113.844 1.67264 114.296 1.67264C114.771 1.67264 115.246 1.6964 115.721 1.74392C116.196 1.76768 116.672 1.79144 117.147 1.8152C118.05 1.83896 118.952 1.86272 119.855 1.88648C120.758 1.88648 121.661 1.88648 122.564 1.88648L122.635 1.38752L122.671 0.674717C122.695 0.555917 122.707 0.448997 122.707 0.353957C122.73 0.235157 122.754 0.116357 122.778 -0.00244264C122.897 -0.382603 123.11 -0.691484 123.419 -0.929083C123.752 -1.19044 124.12 -1.32112 124.524 -1.32112C124.928 -1.32112 125.273 -1.19044 125.558 -0.929083C125.867 -0.667724 126.021 -0.323204 126.021 0.104476C126.021 0.389597 125.997 0.686597 125.95 0.995477C125.926 1.30436 125.89 1.60136 125.843 1.88648C127.34 1.88648 128.825 1.8746 130.298 1.85084C131.771 1.82708 133.256 1.8152 134.753 1.8152C135.014 1.8152 135.287 1.82708 135.573 1.85084C135.881 1.85084 136.155 1.89836 136.392 1.9934C136.654 2.08844 136.868 2.231 137.034 2.42108C137.2 2.61116 137.283 2.89628 137.283 3.27644C137.283 3.63284 137.176 3.9536 136.963 4.23872C136.749 4.52384 136.475 4.7258 136.143 4.8446C135.881 4.9634 135.537 5.0228 135.109 5.0228C134.705 4.99904 134.373 4.98716 134.111 4.98716ZM140.099 18.958C140.099 19.4808 139.885 19.8966 139.457 20.2054C139.03 20.4906 138.578 20.6331 138.103 20.6331C133.589 20.6331 129.098 20.7044 124.631 20.847C120.164 20.9658 115.674 21.0252 111.159 21.0252C110.779 21.0252 110.446 20.9064 110.161 20.6688C109.9 20.4074 109.769 20.0748 109.769 19.6708C109.769 19.1244 109.983 18.7086 110.411 18.4234C110.838 18.1383 111.29 17.9958 111.765 17.9958C113.571 17.9958 115.365 17.9839 117.147 17.9601C118.929 17.9364 120.723 17.9007 122.528 17.8532V17.3542L122.457 15.7504C121.435 15.7029 120.449 15.596 119.499 15.4297C119 15.3346 118.489 15.1802 117.966 14.9664C117.444 14.7525 116.969 14.4793 116.541 14.1466C116.113 13.814 115.757 13.422 115.472 12.9705C115.21 12.5191 115.08 12.0082 115.08 11.438C115.08 10.2738 115.4 9.32336 116.042 8.5868C116.707 7.82648 117.527 7.24436 118.501 6.84044C119.475 6.41276 120.521 6.12764 121.637 5.98508C122.754 5.81876 123.764 5.7356 124.667 5.7356C125.237 5.7356 125.938 5.77124 126.77 5.84252C127.625 5.89004 128.468 6.00884 129.3 6.19892C130.155 6.36524 130.939 6.60284 131.652 6.91172C132.365 7.2206 132.9 7.6364 133.256 8.15912C133.47 8.49176 133.612 8.8244 133.684 9.15704C133.779 9.48968 133.826 9.84608 133.826 10.2262C133.826 10.6539 133.743 11.0697 133.577 11.4736C133.434 11.8776 133.244 12.2458 133.007 12.5785C132.626 13.1487 132.187 13.612 131.688 13.9684C131.189 14.3248 130.642 14.6218 130.048 14.8594C129.478 15.0733 128.884 15.2396 128.266 15.3584C127.649 15.4534 127.019 15.5247 126.377 15.5722C126.259 15.596 126.152 15.6079 126.057 15.6079C125.962 15.6079 125.855 15.6198 125.736 15.6435V16.285L125.807 17.7819C127.969 17.7344 130.12 17.6988 132.258 17.675C134.396 17.6275 136.547 17.6037 138.709 17.6037C139.089 17.6037 139.41 17.7344 139.671 17.9958C139.956 18.2334 140.099 18.5541 140.099 18.958ZM124.382 8.87192C124.049 8.87192 123.598 8.89568 123.027 8.9432C122.481 8.96696 121.911 9.03824 121.317 9.15704C120.746 9.25208 120.212 9.39464 119.713 9.58472C119.238 9.75104 118.893 9.97676 118.679 10.2619C118.489 10.4995 118.394 10.7727 118.394 11.0816C118.394 11.2242 118.442 11.343 118.537 11.438C118.632 11.533 118.727 11.6162 118.822 11.6875C119.131 11.9251 119.487 12.1033 119.891 12.2221C120.319 12.3409 120.758 12.4359 121.21 12.5072C121.661 12.5547 122.101 12.5904 122.528 12.6141C122.98 12.6141 123.396 12.6141 123.776 12.6141C124.203 12.6141 124.714 12.6022 125.308 12.5785C125.926 12.5547 126.544 12.5072 127.162 12.4359C127.803 12.3409 128.397 12.1983 128.944 12.0082C129.49 11.8182 129.906 11.5449 130.191 11.1885C130.286 11.0935 130.369 10.9866 130.44 10.8678C130.512 10.7252 130.547 10.5945 130.547 10.4757C130.547 10.3094 130.524 10.1787 130.476 10.0837C130.429 10.0362 130.357 9.98864 130.262 9.94112C130.167 9.86984 130.096 9.82232 130.048 9.79856C129.692 9.60848 129.264 9.45404 128.765 9.33524C128.29 9.21644 127.791 9.1214 127.268 9.05012C126.77 8.97884 126.259 8.93132 125.736 8.90756C125.237 8.8838 124.786 8.87192 124.382 8.87192ZM115.044 27.5116V24.6248C115.044 24.0783 115.222 23.6269 115.579 23.2705C115.935 22.9141 116.386 22.7359 116.933 22.7359C117.574 22.7359 117.966 22.9616 118.109 23.413C118.275 23.8407 118.358 24.3159 118.358 24.8386C118.358 25.0287 118.347 25.2901 118.323 25.6227C118.323 25.9554 118.323 26.2999 118.323 26.6563C118.323 27.0127 118.323 27.3453 118.323 27.6542C118.347 27.9631 118.382 28.165 118.43 28.2601C118.501 28.4264 118.608 28.5452 118.751 28.6165C118.893 28.7115 119.059 28.7828 119.249 28.8303C119.44 28.8778 119.63 28.9016 119.82 28.9016C120.034 28.9254 120.224 28.9372 120.39 28.9372C122.861 28.9372 125.32 28.9016 127.767 28.8303C130.215 28.7828 132.674 28.759 135.145 28.759C135.549 28.759 135.881 28.8778 136.143 29.1154C136.404 29.3768 136.535 29.7094 136.535 30.1134C136.535 30.4698 136.404 30.7905 136.143 31.0756C135.905 31.3608 135.62 31.5627 135.287 31.6815C135.145 31.729 134.943 31.7647 134.682 31.7884C134.42 31.8122 134.147 31.8241 133.862 31.8241C133.577 31.8478 133.292 31.8597 133.007 31.8597C132.745 31.8597 132.531 31.8597 132.365 31.8597C130.369 31.8597 128.397 31.8716 126.449 31.8954C124.5 31.9429 122.54 31.9666 120.568 31.9666C119.665 31.9666 118.822 31.9072 118.038 31.7884C117.277 31.6934 116.576 31.3251 115.935 30.6836C115.507 30.2559 115.246 29.757 115.151 29.1867C115.08 28.6165 115.044 28.0581 115.044 27.5116ZM167.749 7.80272H173.13C173.534 7.80272 173.879 7.9334 174.164 8.19476C174.473 8.45612 174.627 8.80064 174.627 9.22832C174.627 9.84608 174.401 10.2856 173.95 10.547C173.498 10.8084 173.011 10.939 172.489 10.939H167.749C167.749 13.0299 167.784 15.1446 167.855 17.283C167.879 17.7344 167.903 18.1858 167.927 18.6373C167.951 19.065 167.962 19.5164 167.962 19.9916C167.962 20.4668 167.772 20.8707 167.392 21.2034C167.036 21.536 166.632 21.7023 166.18 21.7023C165.539 21.7023 165.076 21.4172 164.79 20.847C164.719 20.7282 164.66 20.3599 164.612 19.7421C164.588 19.1244 164.565 18.3997 164.541 17.5681C164.517 16.7127 164.493 15.8217 164.47 14.8951C164.47 13.9447 164.47 13.0893 164.47 12.329V8.26604L164.505 4.45256V2.56364C164.505 2.32604 164.493 2.08844 164.47 1.85084C164.47 1.61324 164.493 1.38752 164.541 1.17368C164.636 0.769757 164.85 0.425236 165.182 0.140116C165.539 -0.145004 165.919 -0.287563 166.323 -0.287563C166.727 -0.287563 167.071 -0.156883 167.357 0.104476C167.665 0.365837 167.82 0.710357 167.82 1.13804V3.16952L167.749 7.19684V7.80272ZM153.314 3.63284C152.863 3.63284 152.411 3.63284 151.96 3.63284C151.532 3.63284 151.081 3.64472 150.606 3.66848L148.788 3.73976C148.337 3.76352 147.885 3.7754 147.434 3.7754C146.982 3.7754 146.519 3.7754 146.044 3.7754C145.782 3.7754 145.509 3.76352 145.224 3.73976C144.963 3.716 144.725 3.6566 144.511 3.56156C144.297 3.46652 144.119 3.32396 143.977 3.13388C143.834 2.92004 143.763 2.6468 143.763 2.31416C143.763 1.83896 143.941 1.43504 144.297 1.1024C144.678 0.769756 145.093 0.603436 145.545 0.603436H146.293L147.755 0.639075H148.503C149.263 0.615316 150.035 0.591556 150.82 0.567796C151.604 0.544037 152.376 0.532157 153.136 0.532157C154.015 0.532157 154.752 0.555917 155.346 0.603436C155.964 0.650957 156.463 0.805397 156.843 1.06676C157.247 1.30436 157.556 1.6964 157.769 2.24288C157.983 2.7656 158.15 3.50216 158.268 4.45256C158.34 5.16536 158.411 5.87816 158.482 6.59096C158.553 7.28 158.589 7.98092 158.589 8.69372C158.589 9.16892 158.399 9.57284 158.019 9.90548C157.662 10.2381 157.259 10.4044 156.807 10.4044H154.811L150.784 10.3332H148.503L147.897 10.3688H147.612C147.612 10.7965 147.612 11.236 147.612 11.6875C147.612 12.1389 147.671 12.5785 147.79 13.0062C147.79 13.0062 147.802 13.0299 147.826 13.0774V13.1844C147.826 13.2081 147.826 13.22 147.826 13.22C147.85 13.22 147.861 13.2319 147.861 13.2556L148.004 13.6833C148.052 13.7784 148.075 13.8615 148.075 13.9328C148.289 14.0516 148.562 14.1466 148.895 14.2179C149.228 14.2654 149.584 14.313 149.964 14.3605C150.344 14.3842 150.701 14.3961 151.033 14.3961C151.39 14.3961 151.699 14.3961 151.96 14.3961C152.815 14.3961 153.659 14.3605 154.49 14.2892C155.346 14.2179 156.189 14.1348 157.021 14.0397C157.33 14.016 157.639 13.9803 157.948 13.9328C158.256 13.8853 158.565 13.8615 158.874 13.8615C159.278 13.8615 159.623 13.9922 159.908 14.2536C160.217 14.5149 160.371 14.8594 160.371 15.2871C160.371 15.691 160.229 16.0474 159.943 16.3563C159.682 16.6414 159.373 16.8315 159.017 16.9266C158.827 16.9741 158.589 17.0216 158.304 17.0691C158.043 17.0929 157.757 17.1166 157.449 17.1404C157.14 17.1642 156.843 17.1879 156.558 17.2117C156.296 17.2117 156.071 17.2236 155.88 17.2473C155.191 17.2948 154.49 17.3542 153.778 17.4255C153.065 17.4968 152.364 17.5324 151.675 17.5324C150.392 17.5324 149.287 17.4849 148.36 17.3899C147.434 17.2711 146.673 16.9978 146.079 16.5702C145.485 16.1425 145.046 15.5128 144.761 14.6812C144.476 13.8496 144.333 12.721 144.333 11.2954C144.333 10.9153 144.321 10.5351 144.297 10.155C144.274 9.7748 144.262 9.38276 144.262 8.97884C144.262 8.57492 144.404 8.21852 144.689 7.90964C144.975 7.60076 145.307 7.3988 145.687 7.30376C145.854 7.28 146.091 7.26812 146.4 7.26812C146.709 7.24436 147.03 7.23248 147.362 7.23248C147.695 7.23248 148.016 7.23248 148.325 7.23248C148.657 7.23248 148.919 7.23248 149.109 7.23248C150.131 7.23248 151.14 7.23248 152.138 7.23248C153.16 7.23248 154.182 7.24436 155.203 7.26812C155.18 7.1018 155.156 6.84044 155.132 6.48404C155.108 6.12764 155.073 5.75936 155.025 5.3792C155.001 4.99904 154.966 4.65452 154.918 4.34564C154.871 4.013 154.811 3.78728 154.74 3.66848C154.502 3.64472 154.265 3.63284 154.027 3.63284C153.813 3.63284 153.576 3.63284 153.314 3.63284ZM151.069 32.0023C150.142 32.0023 149.418 31.8122 148.895 31.432C148.372 31.0756 147.98 30.6004 147.719 30.0064C147.458 29.4362 147.279 28.7947 147.184 28.0819C147.113 27.3691 147.054 26.6563 147.006 25.9435C146.959 25.2544 146.911 24.5892 146.864 23.9476C146.816 23.2824 146.792 22.6052 146.792 21.9162C146.792 21.441 146.97 21.037 147.327 20.7044C147.707 20.3718 148.123 20.2054 148.574 20.2054C149.026 20.2054 149.358 20.3124 149.572 20.5262C149.786 20.74 149.929 21.0014 150 21.3103C150.095 21.6192 150.142 21.9637 150.142 22.3438C150.142 22.7002 150.154 23.0329 150.178 23.3418C150.178 23.5556 150.19 23.9476 150.214 24.5179C150.237 25.0644 150.273 25.6465 150.321 26.2642C150.392 26.8582 150.475 27.4047 150.57 27.9037C150.665 28.4026 150.772 28.6996 150.891 28.7947C150.962 28.8422 151.045 28.866 151.14 28.866C151.259 28.8897 151.354 28.9016 151.425 28.9016H152.031L153.243 28.8303H153.849C154.514 28.8066 155.18 28.7947 155.845 28.7947C156.51 28.7947 157.175 28.7947 157.841 28.7947C159.052 28.7947 160.252 28.8066 161.44 28.8303C162.628 28.8541 163.828 28.866 165.04 28.866H165.539L166.501 28.8303H166.964C167.25 28.8303 167.558 28.8303 167.891 28.8303C168.224 28.8303 168.533 28.866 168.818 28.9372C169.127 29.0323 169.376 29.1748 169.566 29.3649C169.78 29.5788 169.887 29.8876 169.887 30.2916C169.887 30.7668 169.697 31.1707 169.317 31.5033C168.96 31.836 168.556 32.0023 168.105 32.0023H165.289L159.623 31.8954H156.771C156.225 31.8954 155.69 31.8954 155.168 31.8954C154.645 31.8954 154.11 31.9072 153.564 31.931C153.16 31.9548 152.744 31.9666 152.316 31.9666C151.889 31.9904 151.473 32.0023 151.069 32.0023ZM179.285 18.3878C179.285 17.9839 179.392 17.6869 179.606 17.4968C179.843 17.283 180.093 17.0454 180.354 16.784C180.52 16.6414 180.663 16.4989 180.782 16.3563C180.924 16.19 181.067 16.0237 181.209 15.8574C182.896 13.9328 184.393 11.9607 185.7 9.94112C187.007 7.92152 188.04 5.6762 188.801 3.20516C188.872 2.9438 188.955 2.69432 189.05 2.45672C189.145 2.19536 189.264 1.96964 189.407 1.77956C189.549 1.56572 189.727 1.3994 189.941 1.2806C190.155 1.1618 190.428 1.1024 190.761 1.1024C191.165 1.1024 191.509 1.23308 191.794 1.49444C192.103 1.7558 192.258 2.10032 192.258 2.528C192.258 2.67056 192.198 2.93192 192.08 3.31208C191.985 3.69224 191.866 4.09616 191.723 4.52384C191.581 4.92776 191.438 5.3198 191.295 5.69996C191.153 6.08012 191.046 6.34148 190.975 6.48404C191.022 6.53156 191.082 6.5672 191.153 6.59096C191.224 6.61472 191.284 6.65036 191.331 6.69788L191.973 7.1612C192.02 7.20872 192.08 7.24436 192.151 7.26812C192.222 7.29188 192.282 7.32752 192.329 7.37504L201.239 12.7567C201.572 12.9705 201.916 13.1725 202.273 13.3626C202.629 13.5526 202.95 13.7784 203.235 14.0397C203.544 14.3248 203.698 14.6812 203.698 15.1089C203.698 15.5841 203.52 15.988 203.164 16.3207C202.807 16.6533 202.391 16.8196 201.916 16.8196C201.702 16.8196 201.453 16.7602 201.168 16.6414C200.764 16.4514 200.384 16.2256 200.027 15.9643C199.671 15.6792 199.303 15.4178 198.922 15.1802C197.426 14.2536 195.929 13.3626 194.432 12.5072C192.959 11.6281 191.474 10.7252 189.977 9.79856C189.953 9.7748 189.929 9.76292 189.906 9.76292C189.906 9.76292 189.894 9.75104 189.87 9.72728L189.656 9.62036C189.609 9.57284 189.573 9.54908 189.549 9.54908C189.335 9.92924 189.038 10.4163 188.658 11.0103C188.278 11.6043 187.85 12.2458 187.375 12.9349C186.9 13.6002 186.401 14.2773 185.878 14.9664C185.355 15.6554 184.833 16.3088 184.31 16.9266C183.811 17.5443 183.336 18.0908 182.884 18.566C182.433 19.0174 182.053 19.3382 181.744 19.5283C181.435 19.7184 181.114 19.8134 180.782 19.8134C180.378 19.8134 180.021 19.6827 179.712 19.4214C179.427 19.16 179.285 18.8155 179.285 18.3878ZM204.625 30.541C202.486 30.541 200.36 30.5054 198.245 30.4341C196.131 30.3866 194.004 30.3628 191.866 30.3628C190.155 30.3628 188.444 30.3391 186.734 30.2916C185.023 30.2678 183.312 30.2322 181.601 30.1846C180.841 30.1609 180.081 30.149 179.32 30.149C178.56 30.1728 177.8 30.149 177.039 30.0777C176.659 30.0302 176.339 29.8758 176.077 29.6144C175.816 29.3768 175.685 29.056 175.685 28.6521C175.685 28.1769 175.863 27.773 176.22 27.4404C176.576 27.1077 176.992 26.9414 177.467 26.9414C179.534 26.9414 181.578 26.9889 183.597 27.084C185.641 27.2028 187.696 27.2622 189.763 27.2622C190.072 27.2622 190.666 27.2622 191.545 27.2622C192.424 27.2622 193.422 27.2622 194.539 27.2622C195.679 27.2622 196.867 27.2622 198.103 27.2622C199.338 27.2859 200.479 27.3097 201.524 27.3334C202.593 27.3572 203.496 27.381 204.233 27.4047C204.969 27.4285 205.385 27.4641 205.48 27.5116C206.098 27.773 206.407 28.2126 206.407 28.8303C206.407 29.3055 206.229 29.7094 205.872 30.0421C205.516 30.3747 205.1 30.541 204.625 30.541ZM234.948 31.6459C234.472 31.6459 234.104 31.5033 233.843 31.2182C233.581 30.9331 233.451 30.5529 233.451 30.0777V18.9937C233.451 18.067 233.451 17.1404 233.451 16.2138C233.451 15.2871 233.439 14.3724 233.415 13.4695H233.344L233.166 13.5051H233.094C232.191 13.5764 231.241 13.6477 230.243 13.719C229.269 13.7902 228.33 13.8259 227.427 13.8259C227.024 13.8259 226.667 13.6952 226.358 13.4338C226.073 13.1725 225.931 12.828 225.931 12.4003C225.931 11.9964 226.073 11.64 226.358 11.3311C226.643 11.0222 226.976 10.8202 227.356 10.7252C227.618 10.6777 227.855 10.6539 228.069 10.6539C228.307 10.6539 228.556 10.6539 228.817 10.6539L230.849 10.547C231.229 10.5232 231.597 10.5114 231.954 10.5114C232.31 10.4876 232.678 10.452 233.059 10.4044H233.13L233.272 10.3688H233.344C233.296 8.77688 233.225 7.19684 233.13 5.62868C233.082 5.01092 233.035 4.40504 232.987 3.81104C232.94 3.21704 232.916 2.61116 232.916 1.9934C232.916 1.5182 233.094 1.12616 233.451 0.817277C233.831 0.484636 234.258 0.318315 234.734 0.318315C235.351 0.318315 235.803 0.591555 236.088 1.13804C236.136 1.23308 236.183 1.56572 236.231 2.13596C236.302 2.7062 236.361 3.40712 236.409 4.23872C236.456 5.07032 236.504 5.9732 236.551 6.94736C236.599 7.89776 236.634 8.81252 236.658 9.69164C236.682 10.5708 236.706 11.3548 236.73 12.0439C236.753 12.7329 236.765 13.1962 236.765 13.4338V29.9708C236.765 30.446 236.575 30.838 236.195 31.1469C235.839 31.4796 235.423 31.6459 234.948 31.6459ZM221.689 6.76916C221.689 6.69788 221.689 6.59096 221.689 6.4484C221.689 6.28208 221.678 6.11576 221.654 5.94944C221.654 5.78312 221.642 5.64056 221.618 5.52176C221.594 5.3792 221.559 5.28416 221.511 5.23664C221.464 5.18912 221.274 5.15348 220.941 5.12972C220.608 5.0822 220.395 5.04656 220.299 5.0228C219.207 4.85648 218.102 4.73768 216.985 4.6664C215.868 4.59512 214.752 4.55948 213.635 4.55948C213.35 4.55948 213.041 4.55948 212.708 4.55948C212.376 4.55948 212.055 4.52384 211.746 4.45256C211.461 4.38128 211.211 4.2506 210.997 4.06052C210.807 3.84668 210.712 3.5378 210.712 3.13388C210.712 2.65868 210.891 2.25476 211.247 1.92212C211.627 1.58948 212.055 1.42316 212.53 1.42316C213.076 1.42316 213.837 1.43504 214.811 1.4588C215.809 1.48256 216.831 1.53008 217.876 1.60136C218.945 1.67264 219.943 1.76768 220.87 1.88648C221.82 2.00528 222.521 2.14784 222.972 2.31416C223.424 2.50424 223.78 2.74184 224.042 3.02696C224.327 3.31208 224.541 3.64472 224.683 4.02488C224.826 4.38128 224.909 4.77332 224.933 5.201C224.98 5.60492 225.004 6.02072 225.004 6.4484C225.004 7.44632 224.98 8.43236 224.933 9.40652C224.909 10.3807 224.873 11.3667 224.826 12.3646C224.802 12.6735 224.79 12.9824 224.79 13.2913C224.814 13.5764 224.802 13.8615 224.754 14.1466C224.683 14.5506 224.529 14.8594 224.291 15.0733C224.054 15.2634 223.78 15.4059 223.471 15.501C223.186 15.5722 222.866 15.6198 222.509 15.6435C222.177 15.6435 221.856 15.6435 221.547 15.6435C220.81 15.6673 220.086 15.691 219.373 15.7148C218.66 15.7386 217.935 15.7504 217.199 15.7504C216.605 15.7504 216.011 15.7504 215.417 15.7504C214.847 15.7267 214.253 15.7029 213.635 15.6792V16.9978C213.635 17.1404 213.635 17.4136 213.635 17.8176C213.659 18.1977 213.67 18.6373 213.67 19.1362C213.694 19.6114 213.718 20.1223 213.742 20.6688C213.765 21.1915 213.789 21.6904 213.813 22.1656C213.861 22.6171 213.908 22.9972 213.956 23.3061C214.003 23.5912 214.051 23.7457 214.098 23.7694C214.241 23.7932 214.371 23.817 214.49 23.8407C214.633 23.8407 214.775 23.8407 214.918 23.8407C216.13 23.8407 217.425 23.7813 218.803 23.6625C220.181 23.52 221.499 23.4012 222.759 23.3061C223.139 23.2586 223.519 23.223 223.899 23.1992C224.279 23.1517 224.671 23.1279 225.075 23.1279C225.479 23.1279 225.824 23.2586 226.109 23.52C226.418 23.7813 226.572 24.1258 226.572 24.5535C226.572 24.8862 226.465 25.195 226.251 25.4802C226.061 25.7415 225.824 25.9316 225.539 26.0504C225.444 26.0979 225.348 26.1336 225.253 26.1573C225.182 26.1811 225.087 26.2048 224.968 26.2286C224.208 26.3474 223.436 26.4306 222.652 26.4781C221.891 26.5018 221.131 26.5375 220.371 26.585C219.444 26.6563 218.517 26.7394 217.591 26.8345C216.688 26.9058 215.773 26.9414 214.847 26.9414C213.92 26.9414 213.183 26.8701 212.637 26.7276C212.114 26.5612 211.71 26.3118 211.425 25.9791C211.14 25.6227 210.938 25.1594 210.819 24.5892C210.7 24.0189 210.605 23.3061 210.534 22.4508C210.463 21.4528 210.415 20.4668 210.392 19.4926C210.368 18.4947 210.356 17.4968 210.356 16.4989C210.356 16.095 210.344 15.6554 210.32 15.1802C210.32 14.6812 210.344 14.2417 210.392 13.8615C210.487 13.4576 210.7 13.125 211.033 12.8636C211.389 12.5785 211.77 12.4359 212.174 12.4359C212.506 12.4359 212.815 12.4597 213.1 12.5072C213.409 12.531 213.73 12.5547 214.062 12.5785C214.633 12.6022 215.203 12.626 215.773 12.6498C216.367 12.6498 216.949 12.6498 217.52 12.6498C218.209 12.6498 218.874 12.6379 219.515 12.6141C220.181 12.5904 220.858 12.5666 221.547 12.5428V12.3646L221.583 12.0439V11.8657V10.547V10.3688L221.618 10.048V9.86984C221.642 9.34712 221.654 8.83628 221.654 8.33732C221.678 7.8146 221.689 7.29188 221.689 6.76916ZM256.427 -0.465763C257.14 -0.465763 257.912 -0.430124 258.744 -0.358844C259.599 -0.311324 260.443 -0.204404 261.274 -0.0380843C262.13 0.128236 262.938 0.353956 263.698 0.639075C264.482 0.924196 265.159 1.29248 265.729 1.74392C266.418 2.33792 266.953 3.03884 267.333 3.84668C267.523 4.22684 267.666 4.61888 267.761 5.0228C267.88 5.42672 267.939 5.83064 267.939 6.23456C267.939 7.6364 267.618 8.78876 266.977 9.69164C266.359 10.5945 265.551 11.3192 264.553 11.8657C263.579 12.3884 262.486 12.7567 261.274 12.9705C260.086 13.1606 258.922 13.2556 257.782 13.2556C256.855 13.2556 255.905 13.22 254.93 13.1487C253.956 13.0774 253.018 12.9111 252.115 12.6498C251.212 12.3884 250.357 12.0082 249.549 11.5093C248.765 11.0103 248.076 10.345 247.482 9.51344C247.22 9.15704 246.995 8.74124 246.804 8.26604C246.614 7.79084 246.519 7.3394 246.519 6.91172C246.519 6.5078 246.555 6.11576 246.626 5.7356C246.721 5.35544 246.828 4.97528 246.947 4.59512C247.303 3.64472 247.826 2.84876 248.515 2.20724C249.204 1.56572 249.976 1.05488 250.832 0.674717C251.711 0.270797 252.638 -0.0143239 253.612 -0.180645C254.586 -0.370724 255.524 -0.465763 256.427 -0.465763ZM256.107 2.67056C255.227 2.67056 254.42 2.74184 253.683 2.8844C252.97 3.02696 252.234 3.31208 251.473 3.73976C251.283 3.85856 251.105 3.96548 250.939 4.06052C250.796 4.15556 250.665 4.28624 250.547 4.45256C250.333 4.71392 250.155 5.04656 250.012 5.45048C249.87 5.8544 249.798 6.22268 249.798 6.55532C249.798 6.69788 249.858 6.89984 249.976 7.1612C250.119 7.3988 250.238 7.577 250.333 7.6958C250.761 8.26604 251.283 8.71748 251.901 9.05012C252.519 9.38276 253.172 9.63224 253.861 9.79856C254.574 9.94112 255.287 10.0362 256 10.0837C256.736 10.1074 257.425 10.1193 258.067 10.1193C258.447 10.1193 258.91 10.0956 259.457 10.048C260.027 10.0005 260.597 9.92924 261.167 9.8342C261.738 9.7154 262.26 9.56096 262.736 9.37088C263.235 9.1808 263.627 8.9432 263.912 8.65808C264.173 8.37296 264.351 8.0522 264.446 7.6958C264.565 7.31564 264.624 6.94736 264.624 6.59096C264.624 6.37712 264.589 6.17516 264.518 5.98508C264.47 5.77124 264.411 5.56928 264.339 5.3792C264.221 5.16536 264.09 4.9634 263.947 4.77332C263.829 4.55948 263.674 4.38128 263.484 4.23872C263.08 3.92984 262.557 3.66848 261.916 3.45464C261.298 3.2408 260.645 3.08636 259.956 2.99132C259.267 2.87252 258.578 2.78936 257.889 2.74184C257.199 2.69432 256.605 2.67056 256.107 2.67056ZM256.641 24.2684C256.641 23.3893 256.641 22.4983 256.641 21.5954C256.641 20.6925 256.653 19.8015 256.677 18.9224H254.039L247.838 18.958H244.773C244.512 18.958 244.215 18.958 243.882 18.958C243.549 18.958 243.24 18.9224 242.955 18.8511C242.67 18.7798 242.433 18.6492 242.243 18.4591C242.052 18.2452 241.957 17.9364 241.957 17.5324C241.957 17.1523 242.076 16.8196 242.314 16.5345C242.551 16.2494 242.837 16.0474 243.169 15.9286C243.312 15.8574 243.478 15.8217 243.668 15.8217C244.428 15.7742 245.201 15.7623 245.985 15.7861C246.769 15.8098 247.541 15.8217 248.301 15.8217H252.008L259.385 15.7861H263.056C263.199 15.7861 263.496 15.7861 263.947 15.7861C264.399 15.7861 264.921 15.7861 265.515 15.7861C266.109 15.7861 266.739 15.798 267.404 15.8217C268.07 15.8217 268.676 15.8336 269.222 15.8574C269.792 15.8574 270.279 15.8692 270.683 15.893C271.087 15.9168 271.325 15.9405 271.396 15.9643C272.014 16.2256 272.323 16.6652 272.323 17.283C272.323 17.7582 272.145 18.1621 271.788 18.4947C271.432 18.8274 271.016 18.9937 270.541 18.9937H267.191L260.455 18.9224H259.991C259.991 19.5877 259.991 20.2767 259.991 20.9895C259.991 21.6786 259.979 22.3557 259.956 23.021C259.956 23.2111 259.956 23.413 259.956 23.6269C259.979 23.8407 259.968 24.0427 259.92 24.2328C259.849 24.6367 259.635 24.9812 259.278 25.2663C258.922 25.5514 258.542 25.694 258.138 25.694C257.734 25.694 257.378 25.5633 257.069 25.302C256.784 25.0406 256.641 24.6961 256.641 24.2684ZM247.268 26.7276L247.232 23.2705C247.232 22.7478 247.398 22.2963 247.731 21.9162C248.064 21.536 248.503 21.3459 249.05 21.3459C249.406 21.3459 249.679 21.4172 249.87 21.5598C250.083 21.6786 250.238 21.8449 250.333 22.0587C250.452 22.2488 250.523 22.4864 250.547 22.7715C250.57 23.0329 250.582 23.3061 250.582 23.5912C250.582 23.8526 250.57 24.1971 250.547 24.6248C250.547 25.0525 250.547 25.5039 250.547 25.9791C250.547 26.4306 250.559 26.8582 250.582 27.2622C250.606 27.6661 250.654 27.9512 250.725 28.1175C250.82 28.3789 251.034 28.5927 251.366 28.759C251.556 28.8303 251.758 28.866 251.972 28.866C252.21 28.8897 252.424 28.9016 252.614 28.9016C255.061 28.9016 257.496 28.866 259.92 28.7947C262.367 28.7234 264.815 28.6878 267.262 28.6878C267.666 28.6878 268.01 28.8184 268.295 29.0798C268.604 29.3412 268.759 29.6857 268.759 30.1134C268.759 30.4698 268.652 30.7905 268.438 31.0756C268.224 31.3608 267.951 31.5627 267.618 31.6815C267.428 31.7528 267.226 31.7884 267.012 31.7884C266.799 31.8122 266.585 31.8241 266.371 31.8241C264.019 31.8241 261.678 31.8478 259.35 31.8954C257.021 31.9666 254.681 32.0023 252.329 32.0023C251.188 32.0023 250.155 31.7766 249.228 31.3251C248.325 30.8974 247.731 30.1134 247.446 28.9729C247.351 28.5927 247.292 28.2126 247.268 27.8324C247.268 27.476 247.268 27.1077 247.268 26.7276ZM299.536 8.0522C298.253 8.02844 296.97 8.01656 295.687 8.01656C294.404 7.9928 293.121 7.98092 291.838 7.98092L288.238 8.01656H286.421C286.159 8.01656 285.898 8.00468 285.637 7.98092C285.375 7.95716 285.138 7.89776 284.924 7.80272C284.71 7.70768 284.532 7.56512 284.389 7.37504C284.247 7.18496 284.176 6.9236 284.176 6.59096C284.176 5.9732 284.401 5.53364 284.853 5.27228C285.304 5.01092 285.803 4.88024 286.35 4.88024H289.272H291.945C291.945 4.76144 291.933 4.64264 291.909 4.52384C291.909 4.40504 291.909 4.29812 291.909 4.20308C291.862 3.68036 291.814 3.15764 291.767 2.63492C291.743 2.1122 291.731 1.58948 291.731 1.06676C291.731 0.591557 291.909 0.187637 292.266 -0.145003C292.646 -0.477643 293.062 -0.643963 293.513 -0.643963C293.846 -0.643963 294.155 -0.548923 294.44 -0.358844C294.725 -0.168764 294.903 0.0925961 294.974 0.425236C295.022 0.591557 295.046 0.757877 295.046 0.924196C295.046 1.06676 295.046 1.20932 295.046 1.35188L295.153 2.84876C295.176 3.1814 295.2 3.52592 295.224 3.88232C295.248 4.21496 295.271 4.5476 295.295 4.88024C296.151 4.88024 296.994 4.89212 297.826 4.91588C298.657 4.91588 299.418 4.92776 300.107 4.95152C300.796 4.95152 301.366 4.97528 301.817 5.0228C302.293 5.04656 302.59 5.0822 302.708 5.12972C303.255 5.41484 303.528 5.84252 303.528 6.41276C303.528 6.88796 303.338 7.29188 302.958 7.62452C302.601 7.95716 302.197 8.12348 301.746 8.12348C301.366 8.12348 300.986 8.1116 300.606 8.08784C300.249 8.06408 299.893 8.0522 299.536 8.0522ZM310.015 30.0421C310.015 30.5173 309.824 30.9093 309.444 31.2182C309.088 31.5508 308.684 31.7172 308.233 31.7172C307.876 31.7172 307.555 31.6102 307.27 31.3964C306.985 31.2063 306.807 30.9331 306.736 30.5767C306.688 30.3866 306.676 30.1846 306.7 29.9708C306.724 29.757 306.736 29.5431 306.736 29.3293C306.712 26.288 306.712 23.2586 306.736 20.2411C306.759 17.1998 306.712 14.1585 306.593 11.1172C306.546 10.0718 306.498 9.03824 306.451 8.01656C306.427 6.99488 306.379 5.96132 306.308 4.91588C306.26 4.44068 306.213 3.97736 306.165 3.52592C306.118 3.05072 306.094 2.57552 306.094 2.10032C306.094 1.62512 306.272 1.23308 306.629 0.924196C307.009 0.591556 307.425 0.425236 307.876 0.425236C308.541 0.425236 309.005 0.698476 309.266 1.24496C309.385 1.4588 309.444 1.79144 309.444 2.24288C309.468 2.69432 309.492 3.05072 309.516 3.31208C309.634 4.80896 309.718 6.30584 309.765 7.80272C309.813 9.27584 309.86 10.7608 309.908 12.2577L311.119 12.1864C311.69 12.1627 312.248 12.1389 312.794 12.1152C313.365 12.0914 313.935 12.0795 314.505 12.0795C314.909 12.0795 315.254 12.2102 315.539 12.4716C315.848 12.7329 316.002 13.0774 316.002 13.5051C316.002 13.7902 315.907 14.0872 315.717 14.3961C315.456 14.8 315.135 15.0376 314.755 15.1089C314.374 15.1564 313.959 15.1921 313.507 15.2158L311.903 15.2871C311.571 15.3109 311.25 15.3228 310.941 15.3228C310.632 15.3228 310.312 15.3346 309.979 15.3584C310.003 16.3088 310.015 17.2592 310.015 18.2096C310.015 19.1362 310.015 20.0748 310.015 21.0252V30.0421ZM286.029 18.2452C286.029 17.2948 286.148 16.285 286.385 15.2158C286.647 14.1466 287.039 13.1606 287.561 12.2577C288.084 11.3311 288.749 10.5708 289.557 9.97676C290.389 9.38276 291.375 9.08576 292.515 9.08576C294.25 9.08576 295.83 9.5372 297.255 10.4401C298.705 11.3192 299.786 12.5547 300.499 14.1466C300.76 14.7644 300.962 15.4772 301.105 16.285C301.247 17.0691 301.318 17.7938 301.318 18.4591C301.318 19.6471 301.164 20.8351 300.855 22.0231C300.57 23.2111 300.107 24.2922 299.465 25.2663C298.847 26.2167 298.051 26.9889 297.077 27.5829C296.103 28.2007 294.939 28.5096 293.584 28.5096C292.064 28.5096 290.816 28.2126 289.842 27.6186C288.868 27.0246 288.096 26.2524 287.526 25.302C286.955 24.3278 286.563 23.2348 286.35 22.0231C286.136 20.7876 286.029 19.5283 286.029 18.2452ZM292.23 12.2221C291.684 12.2221 291.22 12.4478 290.84 12.8992C290.46 13.3269 290.151 13.8496 289.914 14.4674C289.7 15.0852 289.545 15.7148 289.45 16.3563C289.355 16.9978 289.308 17.5324 289.308 17.9601C289.308 18.4116 289.331 18.9462 289.379 19.5639C289.45 20.1579 289.545 20.7638 289.664 21.3816C289.807 21.9993 289.985 22.5814 290.199 23.1279C290.436 23.6744 290.721 24.1021 291.054 24.411C291.434 24.7674 291.862 25.0287 292.337 25.195C292.836 25.3376 293.347 25.4089 293.87 25.4089C294.202 25.4089 294.547 25.3614 294.903 25.2663C295.26 25.1713 295.568 25.0287 295.83 24.8386C296.02 24.7198 296.174 24.5773 296.293 24.411C296.436 24.2209 296.566 24.0308 296.685 23.8407C297.184 23.0804 297.529 22.2844 297.719 21.4528C297.909 20.5975 298.004 19.7184 298.004 18.8155C298.004 18.2928 297.956 17.7463 297.861 17.176C297.766 16.6058 297.624 16.0831 297.434 15.6079C297.006 14.5624 296.305 13.7427 295.331 13.1487C294.38 12.531 293.347 12.2221 292.23 12.2221ZM324.331 3.02696C323.927 3.02696 323.57 2.89628 323.261 2.63492C322.976 2.37356 322.834 2.02904 322.834 1.60136C322.834 1.24496 322.941 0.936077 323.155 0.674717C323.368 0.389597 323.642 0.175756 323.974 0.0331969C324.117 -0.0380836 324.521 -0.0856037 325.186 -0.109363C325.875 -0.133123 326.612 -0.145003 327.396 -0.145003C328.18 -0.168764 328.916 -0.180645 329.605 -0.180645C330.318 -0.180645 330.793 -0.180645 331.031 -0.180645C332.29 -0.180645 333.538 -0.180645 334.773 -0.180645C336.009 -0.180645 337.244 -0.156884 338.48 -0.109363C338.955 -0.0856037 339.359 -0.061844 339.692 -0.0380843C340.024 -0.0380843 340.309 0.0331962 340.547 0.175757C340.784 0.294557 340.963 0.496517 341.081 0.781636C341.224 1.043 341.331 1.43504 341.402 1.95776C341.45 2.43296 341.485 2.92004 341.509 3.419C341.557 3.8942 341.58 4.3694 341.58 4.8446C341.58 5.201 341.569 5.60492 341.545 6.05636C341.521 6.48404 341.45 6.89984 341.331 7.30376C341.212 7.68392 341.034 8.02844 340.796 8.33732C340.559 8.6462 340.214 8.84816 339.763 8.9432C339.359 9.03824 338.896 9.08576 338.373 9.08576C337.565 9.08576 336.769 9.08576 335.985 9.08576C335.201 9.08576 334.405 9.07388 333.597 9.05012L330.425 8.97884C329.617 8.95508 328.821 8.9432 328.037 8.9432C327.253 8.9432 326.457 8.9432 325.649 8.9432C325.649 9.03824 325.626 9.1808 325.578 9.37088L325.471 10.2619C325.424 10.642 325.376 11.0103 325.329 11.3667C325.305 11.7231 325.293 12.0914 325.293 12.4716C325.317 12.5191 325.388 12.5547 325.507 12.5785C325.626 12.6022 325.756 12.626 325.899 12.6498C326.041 12.6735 326.172 12.6854 326.291 12.6854C326.433 12.6854 326.528 12.6854 326.576 12.6854C328.287 12.6854 329.986 12.6735 331.673 12.6498C333.383 12.626 335.094 12.5904 336.805 12.5428C337.541 12.5191 338.278 12.4953 339.014 12.4716C339.751 12.4478 340.487 12.4359 341.224 12.4359C341.628 12.4359 341.972 12.5666 342.258 12.828C342.566 13.0893 342.721 13.422 342.721 13.8259C342.721 14.206 342.614 14.5387 342.4 14.8238C342.186 15.0852 341.913 15.2871 341.58 15.4297C341.343 15.4772 341.177 15.5128 341.081 15.5366C340.82 15.5604 340.559 15.5722 340.297 15.5722C340.036 15.5722 339.775 15.5722 339.513 15.5722L336.27 15.6435C334.654 15.691 333.051 15.7267 331.459 15.7504C329.867 15.7742 328.263 15.7861 326.647 15.7861C326.243 15.7861 325.839 15.7742 325.436 15.7504C325.032 15.7267 324.64 15.6673 324.259 15.5722C323.879 15.4534 323.523 15.2871 323.19 15.0733C322.858 14.8594 322.584 14.5624 322.37 14.1823C322.133 13.7784 322.014 13.3863 322.014 13.0062C322.014 12.7686 322.038 12.3646 322.085 11.7944C322.133 11.2004 322.18 10.5826 322.228 9.94112C322.299 9.2996 322.37 8.7056 322.442 8.15912C322.513 7.61264 322.584 7.24436 322.656 7.05428C322.774 6.69788 322.988 6.40088 323.297 6.16328C323.63 5.92568 323.986 5.80688 324.366 5.80688C325.174 5.80688 325.982 5.80688 326.79 5.80688C327.598 5.80688 328.406 5.81876 329.213 5.84252L332.457 5.9138C333.264 5.93756 334.072 5.94944 334.88 5.94944C335.688 5.94944 336.496 5.94944 337.304 5.94944H338.266C338.266 5.83064 338.266 5.7356 338.266 5.66432C338.29 5.56928 338.302 5.47424 338.302 5.3792C338.302 4.97528 338.29 4.58324 338.266 4.20308C338.242 3.82292 338.207 3.43088 338.159 3.02696C336.52 2.95568 334.868 2.92004 333.205 2.92004C332.207 2.92004 331.197 2.92004 330.176 2.92004C329.178 2.92004 328.168 2.93192 327.146 2.95568C326.671 2.97944 326.196 3.0032 325.721 3.02696C325.269 3.02696 324.806 3.02696 324.331 3.02696ZM331.28 22.7002V21.7736C329.356 21.7736 327.467 21.7855 325.614 21.8092C323.784 21.8092 321.943 21.8092 320.09 21.8092C319.828 21.8092 319.531 21.8092 319.199 21.8092C318.866 21.8092 318.557 21.7736 318.272 21.7023C317.987 21.631 317.749 21.5004 317.559 21.3103C317.369 21.0964 317.274 20.7876 317.274 20.3836C317.274 20.0035 317.393 19.6708 317.63 19.3857C317.892 19.1006 318.189 18.8986 318.521 18.7798C318.593 18.7323 318.664 18.7086 318.735 18.7086C318.83 18.7086 318.925 18.6967 319.02 18.6729C319.781 18.6254 320.541 18.6135 321.301 18.6373C322.085 18.661 322.869 18.6729 323.654 18.6729H327.36L334.738 18.6373H338.408C338.551 18.6373 338.848 18.6373 339.299 18.6373C339.751 18.6373 340.274 18.6373 340.868 18.6373C341.462 18.6373 342.079 18.6492 342.721 18.6729C343.386 18.6729 344.004 18.6848 344.574 18.7086C345.144 18.7086 345.632 18.7204 346.035 18.7442C346.439 18.768 346.677 18.7917 346.748 18.8155C347.033 18.9343 347.259 19.1006 347.425 19.3144C347.615 19.5283 347.711 19.8015 347.711 20.1342C347.711 20.6094 347.52 21.0133 347.14 21.3459C346.76 21.6786 346.332 21.8449 345.857 21.8449H342.4L335.45 21.7736H334.631V22.8072V27.0127L334.738 29.258V30.3985C334.738 30.8737 334.547 31.2776 334.167 31.6102C333.811 31.9429 333.395 32.1092 332.92 32.1092C332.635 32.1092 332.362 32.0379 332.1 31.8954C331.863 31.7528 331.684 31.539 331.566 31.2538C331.518 31.1588 331.471 30.9093 331.423 30.5054C331.399 30.1015 331.376 29.6025 331.352 29.0085C331.328 28.4383 331.316 27.8205 331.316 27.1552C331.316 26.5137 331.304 25.896 331.28 25.302C331.28 24.6842 331.28 24.1496 331.28 23.6982C331.28 23.223 331.28 22.8903 331.28 22.7002ZM365.63 8.0522C364.347 8.02844 363.064 8.01656 361.781 8.01656C360.498 7.9928 359.215 7.98092 357.932 7.98092L354.333 8.01656H352.515C352.254 8.01656 351.992 8.00468 351.731 7.98092C351.47 7.95716 351.232 7.89776 351.018 7.80272C350.804 7.70768 350.626 7.56512 350.483 7.37504C350.341 7.18496 350.27 6.9236 350.27 6.59096C350.27 5.9732 350.495 5.53364 350.947 5.27228C351.398 5.01092 351.897 4.88024 352.444 4.88024H355.366H358.039C358.039 4.76144 358.027 4.64264 358.004 4.52384C358.004 4.40504 358.004 4.29812 358.004 4.20308C357.956 3.68036 357.908 3.15764 357.861 2.63492C357.837 2.1122 357.825 1.58948 357.825 1.06676C357.825 0.591557 358.004 0.187637 358.36 -0.145003C358.74 -0.477643 359.156 -0.643963 359.607 -0.643963C359.94 -0.643963 360.249 -0.548923 360.534 -0.358844C360.819 -0.168764 360.997 0.0925961 361.069 0.425236C361.116 0.591557 361.14 0.757877 361.14 0.924196C361.14 1.06676 361.14 1.20932 361.14 1.35188L361.247 2.84876C361.271 3.1814 361.294 3.52592 361.318 3.88232C361.342 4.21496 361.366 4.5476 361.389 4.88024C362.245 4.88024 363.088 4.89212 363.92 4.91588C364.751 4.91588 365.512 4.92776 366.201 4.95152C366.89 4.95152 367.46 4.97528 367.911 5.0228C368.387 5.04656 368.684 5.0822 368.802 5.12972C369.349 5.41484 369.622 5.84252 369.622 6.41276C369.622 6.88796 369.432 7.29188 369.052 7.62452C368.696 7.95716 368.292 8.12348 367.84 8.12348C367.46 8.12348 367.08 8.1116 366.7 8.08784C366.343 8.06408 365.987 8.0522 365.63 8.0522ZM376.109 30.0421C376.109 30.5173 375.919 30.9093 375.538 31.2182C375.182 31.5508 374.778 31.7172 374.327 31.7172C373.97 31.7172 373.649 31.6102 373.364 31.3964C373.079 31.2063 372.901 30.9331 372.83 30.5767C372.782 30.3866 372.77 30.1846 372.794 29.9708C372.818 29.757 372.83 29.5431 372.83 29.3293C372.806 26.288 372.806 23.2586 372.83 20.2411C372.854 17.1998 372.806 14.1585 372.687 11.1172C372.64 10.0718 372.592 9.03824 372.545 8.01656C372.521 6.99488 372.473 5.96132 372.402 4.91588C372.355 4.44068 372.307 3.97736 372.26 3.52592C372.212 3.05072 372.188 2.57552 372.188 2.10032C372.188 1.62512 372.366 1.23308 372.723 0.924196C373.103 0.591556 373.519 0.425236 373.97 0.425236C374.636 0.425236 375.099 0.698476 375.36 1.24496C375.479 1.4588 375.538 1.79144 375.538 2.24288C375.562 2.69432 375.586 3.05072 375.61 3.31208C375.728 4.80896 375.812 6.30584 375.859 7.80272C375.907 9.27584 375.954 10.7608 376.002 12.2577L377.213 12.1864C377.784 12.1627 378.342 12.1389 378.889 12.1152C379.459 12.0914 380.029 12.0795 380.599 12.0795C381.003 12.0795 381.348 12.2102 381.633 12.4716C381.942 12.7329 382.096 13.0774 382.096 13.5051C382.096 13.7902 382.001 14.0872 381.811 14.3961C381.55 14.8 381.229 15.0376 380.849 15.1089C380.469 15.1564 380.053 15.1921 379.601 15.2158L377.998 15.2871C377.665 15.3109 377.344 15.3228 377.035 15.3228C376.726 15.3228 376.406 15.3346 376.073 15.3584C376.097 16.3088 376.109 17.2592 376.109 18.2096C376.109 19.1362 376.109 20.0748 376.109 21.0252V30.0421ZM352.123 18.2452C352.123 17.2948 352.242 16.285 352.479 15.2158C352.741 14.1466 353.133 13.1606 353.655 12.2577C354.178 11.3311 354.843 10.5708 355.651 9.97676C356.483 9.38276 357.469 9.08576 358.609 9.08576C360.344 9.08576 361.924 9.5372 363.35 10.4401C364.799 11.3192 365.88 12.5547 366.593 14.1466C366.854 14.7644 367.056 15.4772 367.199 16.285C367.341 17.0691 367.412 17.7938 367.412 18.4591C367.412 19.6471 367.258 20.8351 366.949 22.0231C366.664 23.2111 366.201 24.2922 365.559 25.2663C364.941 26.2167 364.145 26.9889 363.171 27.5829C362.197 28.2007 361.033 28.5096 359.679 28.5096C358.158 28.5096 356.911 28.2126 355.936 27.6186C354.962 27.0246 354.19 26.2524 353.62 25.302C353.05 24.3278 352.658 23.2348 352.444 22.0231C352.23 20.7876 352.123 19.5283 352.123 18.2452ZM358.324 12.2221C357.778 12.2221 357.314 12.4478 356.934 12.8992C356.554 13.3269 356.245 13.8496 356.008 14.4674C355.794 15.0852 355.639 15.7148 355.544 16.3563C355.449 16.9978 355.402 17.5324 355.402 17.9601C355.402 18.4116 355.426 18.9462 355.473 19.5639C355.544 20.1579 355.639 20.7638 355.758 21.3816C355.901 21.9993 356.079 22.5814 356.293 23.1279C356.53 23.6744 356.816 24.1021 357.148 24.411C357.528 24.7674 357.956 25.0287 358.431 25.195C358.93 25.3376 359.441 25.4089 359.964 25.4089C360.296 25.4089 360.641 25.3614 360.997 25.2663C361.354 25.1713 361.663 25.0287 361.924 24.8386C362.114 24.7198 362.268 24.5773 362.387 24.411C362.53 24.2209 362.66 24.0308 362.779 23.8407C363.278 23.0804 363.623 22.2844 363.813 21.4528C364.003 20.5975 364.098 19.7184 364.098 18.8155C364.098 18.2928 364.05 17.7463 363.955 17.176C363.86 16.6058 363.718 16.0831 363.528 15.6079C363.1 14.5624 362.399 13.7427 361.425 13.1487C360.475 12.531 359.441 12.2221 358.324 12.2221ZM390.425 3.02696C390.021 3.02696 389.664 2.89628 389.356 2.63492C389.07 2.37356 388.928 2.02904 388.928 1.60136C388.928 1.24496 389.035 0.936077 389.249 0.674717C389.463 0.389597 389.736 0.175756 390.068 0.0331969C390.211 -0.0380836 390.615 -0.0856037 391.28 -0.109363C391.969 -0.133123 392.706 -0.145003 393.49 -0.145003C394.274 -0.168764 395.01 -0.180645 395.7 -0.180645C396.412 -0.180645 396.888 -0.180645 397.125 -0.180645C398.384 -0.180645 399.632 -0.180645 400.867 -0.180645C402.103 -0.180645 403.338 -0.156884 404.574 -0.109363C405.049 -0.0856037 405.453 -0.061844 405.786 -0.0380843C406.118 -0.0380843 406.403 0.0331962 406.641 0.175757C406.879 0.294557 407.057 0.496517 407.176 0.781636C407.318 1.043 407.425 1.43504 407.496 1.95776C407.544 2.43296 407.58 2.92004 407.603 3.419C407.651 3.8942 407.675 4.3694 407.675 4.8446C407.675 5.201 407.663 5.60492 407.639 6.05636C407.615 6.48404 407.544 6.89984 407.425 7.30376C407.306 7.68392 407.128 8.02844 406.89 8.33732C406.653 8.6462 406.308 8.84816 405.857 8.9432C405.453 9.03824 404.99 9.08576 404.467 9.08576C403.659 9.08576 402.863 9.08576 402.079 9.08576C401.295 9.08576 400.499 9.07388 399.691 9.05012L396.519 8.97884C395.711 8.95508 394.915 8.9432 394.131 8.9432C393.347 8.9432 392.551 8.9432 391.743 8.9432C391.743 9.03824 391.72 9.1808 391.672 9.37088L391.565 10.2619C391.518 10.642 391.47 11.0103 391.423 11.3667C391.399 11.7231 391.387 12.0914 391.387 12.4716C391.411 12.5191 391.482 12.5547 391.601 12.5785C391.72 12.6022 391.85 12.626 391.993 12.6498C392.136 12.6735 392.266 12.6854 392.385 12.6854C392.528 12.6854 392.623 12.6854 392.67 12.6854C394.381 12.6854 396.08 12.6735 397.767 12.6498C399.477 12.626 401.188 12.5904 402.899 12.5428C403.635 12.5191 404.372 12.4953 405.108 12.4716C405.845 12.4478 406.582 12.4359 407.318 12.4359C407.722 12.4359 408.067 12.5666 408.352 12.828C408.661 13.0893 408.815 13.422 408.815 13.8259C408.815 14.206 408.708 14.5387 408.494 14.8238C408.28 15.0852 408.007 15.2871 407.675 15.4297C407.437 15.4772 407.271 15.5128 407.176 15.5366C406.914 15.5604 406.653 15.5722 406.392 15.5722C406.13 15.5722 405.869 15.5722 405.607 15.5722L402.364 15.6435C400.749 15.691 399.145 15.7267 397.553 15.7504C395.961 15.7742 394.357 15.7861 392.741 15.7861C392.337 15.7861 391.934 15.7742 391.53 15.7504C391.126 15.7267 390.734 15.6673 390.354 15.5722C389.973 15.4534 389.617 15.2871 389.284 15.0733C388.952 14.8594 388.678 14.5624 388.465 14.1823C388.227 13.7784 388.108 13.3863 388.108 13.0062C388.108 12.7686 388.132 12.3646 388.179 11.7944C388.227 11.2004 388.275 10.5826 388.322 9.94112C388.393 9.2996 388.465 8.7056 388.536 8.15912C388.607 7.61264 388.678 7.24436 388.75 7.05428C388.869 6.69788 389.082 6.40088 389.391 6.16328C389.724 5.92568 390.08 5.80688 390.46 5.80688C391.268 5.80688 392.076 5.80688 392.884 5.80688C393.692 5.80688 394.5 5.81876 395.307 5.84252L398.551 5.9138C399.359 5.93756 400.166 5.94944 400.974 5.94944C401.782 5.94944 402.59 5.94944 403.398 5.94944H404.36C404.36 5.83064 404.36 5.7356 404.36 5.66432C404.384 5.56928 404.396 5.47424 404.396 5.3792C404.396 4.97528 404.384 4.58324 404.36 4.20308C404.336 3.82292 404.301 3.43088 404.253 3.02696C402.614 2.95568 400.962 2.92004 399.299 2.92004C398.301 2.92004 397.291 2.92004 396.27 2.92004C395.272 2.92004 394.262 2.93192 393.24 2.95568C392.765 2.97944 392.29 3.0032 391.815 3.02696C391.363 3.02696 390.9 3.02696 390.425 3.02696ZM397.375 22.7002V21.7736C395.45 21.7736 393.561 21.7855 391.708 21.8092C389.878 21.8092 388.037 21.8092 386.184 21.8092C385.922 21.8092 385.625 21.8092 385.293 21.8092C384.96 21.8092 384.651 21.7736 384.366 21.7023C384.081 21.631 383.843 21.5004 383.653 21.3103C383.463 21.0964 383.368 20.7876 383.368 20.3836C383.368 20.0035 383.487 19.6708 383.724 19.3857C383.986 19.1006 384.283 18.8986 384.615 18.7798C384.687 18.7323 384.758 18.7086 384.829 18.7086C384.924 18.7086 385.019 18.6967 385.114 18.6729C385.875 18.6254 386.635 18.6135 387.395 18.6373C388.179 18.661 388.964 18.6729 389.748 18.6729H393.454L400.832 18.6373H404.503C404.645 18.6373 404.942 18.6373 405.394 18.6373C405.845 18.6373 406.368 18.6373 406.962 18.6373C407.556 18.6373 408.174 18.6492 408.815 18.6729C409.48 18.6729 410.098 18.6848 410.668 18.7086C411.239 18.7086 411.726 18.7204 412.13 18.7442C412.533 18.768 412.771 18.7917 412.842 18.8155C413.127 18.9343 413.353 19.1006 413.52 19.3144C413.71 19.5283 413.805 19.8015 413.805 20.1342C413.805 20.6094 413.615 21.0133 413.234 21.3459C412.854 21.6786 412.427 21.8449 411.951 21.8449H408.494L401.544 21.7736H400.725V22.8072V27.0127L400.832 29.258V30.3985C400.832 30.8737 400.642 31.2776 400.261 31.6102C399.905 31.9429 399.489 32.1092 399.014 32.1092C398.729 32.1092 398.456 32.0379 398.194 31.8954C397.957 31.7528 397.779 31.539 397.66 31.2538C397.612 31.1588 397.565 30.9093 397.517 30.5054C397.493 30.1015 397.47 29.6025 397.446 29.0085C397.422 28.4383 397.41 27.8205 397.41 27.1552C397.41 26.5137 397.398 25.896 397.375 25.302C397.375 24.6842 397.375 24.1496 397.375 23.6982C397.375 23.223 397.375 22.8903 397.375 22.7002ZM430.121 10.0124C431.451 10.0124 432.758 10.0005 434.041 9.97676C435.348 9.92924 436.667 9.88172 437.997 9.8342C438.52 9.81044 439.031 9.78668 439.53 9.76292C440.052 9.73916 440.575 9.72728 441.098 9.72728C441.502 9.72728 441.846 9.85796 442.131 10.1193C442.44 10.3807 442.595 10.7133 442.595 11.1172C442.595 11.4736 442.488 11.7944 442.274 12.0795C442.06 12.3646 441.787 12.5666 441.454 12.6854C441.312 12.7329 440.967 12.7804 440.421 12.828C439.874 12.8755 439.209 12.9111 438.425 12.9349C437.665 12.9586 436.833 12.9824 435.93 13.0062C435.051 13.0299 434.196 13.0537 433.364 13.0774C432.556 13.0774 431.831 13.0893 431.19 13.1131C430.548 13.1131 430.097 13.1131 429.836 13.1131C429.123 13.1131 428.41 13.1131 427.697 13.1131C427.008 13.0893 426.319 13.0537 425.63 13.0062C424.894 12.9349 424.3 12.8398 423.848 12.721C423.42 12.6022 423.076 12.424 422.815 12.1864C422.553 11.9251 422.351 11.5806 422.209 11.1529C422.066 10.7014 421.924 10.1193 421.781 9.40652C421.686 8.97884 421.579 8.53928 421.46 8.08784C421.365 7.61264 421.318 7.1612 421.318 6.73352C421.318 6.35336 421.436 6.02072 421.674 5.7356C421.912 5.45048 422.197 5.24852 422.529 5.12972C422.648 5.0822 422.826 5.04656 423.064 5.0228C423.325 4.99904 423.587 4.98716 423.848 4.98716C424.133 4.98716 424.395 4.98716 424.632 4.98716C424.894 4.98716 425.096 4.98716 425.238 4.98716H428.481L434.968 4.95152H438.211H438.924V4.45256L438.853 3.38336V2.8844H437.356H433.471L425.737 2.99132H421.852C421.448 2.99132 421.092 2.86064 420.783 2.59928C420.498 2.33792 420.355 2.00528 420.355 1.60136C420.355 1.2212 420.474 0.888556 420.712 0.603436C420.949 0.318317 421.235 0.116357 421.567 -0.00244264C421.686 -0.0499634 421.876 -0.0856037 422.137 -0.109363C422.423 -0.133123 422.72 -0.145003 423.028 -0.145003C423.337 -0.145003 423.634 -0.145003 423.919 -0.145003C424.205 -0.145003 424.43 -0.145003 424.597 -0.145003H428.089L435.075 -0.251924H438.567C438.924 -0.251924 439.28 -0.228164 439.637 -0.180645C440.017 -0.156883 440.361 -0.085603 440.67 0.0331969C441.003 0.151997 441.288 0.330197 441.526 0.567796C441.787 0.781636 441.965 1.09052 442.06 1.49444C442.108 1.7558 442.131 2.01716 442.131 2.27852C442.131 2.51612 442.131 2.7656 442.131 3.02696C442.155 3.40712 442.179 3.78728 442.203 4.16744C442.25 4.5476 442.274 4.92776 442.274 5.30792C442.274 5.7356 442.179 6.11576 441.989 6.4484C441.823 6.78104 441.585 7.06616 441.276 7.30376C440.991 7.54136 440.658 7.73144 440.278 7.874C439.922 7.9928 439.553 8.0522 439.173 8.0522C436.797 8.0522 434.421 8.06408 432.045 8.08784C429.693 8.08784 427.329 8.09972 424.953 8.12348C425 8.4086 425.048 8.69372 425.096 8.97884C425.143 9.26396 425.214 9.5372 425.309 9.79856C426.117 9.91736 426.913 9.98864 427.697 10.0124C428.505 10.0124 429.313 10.0124 430.121 10.0124ZM429.372 17.5681C429.111 17.5681 428.648 17.5681 427.982 17.5681C427.317 17.5681 426.545 17.5681 425.666 17.5681C424.81 17.5443 423.908 17.5206 422.957 17.4968C422.007 17.473 421.116 17.4493 420.284 17.4255C419.476 17.4018 418.775 17.3661 418.181 17.3186C417.611 17.2711 417.278 17.2236 417.183 17.176C416.613 16.9147 416.328 16.487 416.328 15.893C416.328 15.4178 416.506 15.0139 416.863 14.6812C417.243 14.3486 417.659 14.1823 418.11 14.1823C418.799 14.1823 419.488 14.206 420.177 14.2536C420.89 14.3011 421.591 14.3367 422.28 14.3605C424.727 14.4318 427.198 14.4674 429.693 14.4674C431.333 14.4674 432.948 14.4555 434.54 14.4318C436.156 14.408 437.771 14.3724 439.387 14.3248C440.314 14.3011 441.229 14.2773 442.131 14.2536C443.058 14.2298 443.973 14.2179 444.876 14.2179C445.351 14.2179 445.779 14.3248 446.159 14.5387C446.539 14.7288 446.729 15.097 446.729 15.6435C446.729 16.1187 446.539 16.5226 446.159 16.8553C445.802 17.1879 445.398 17.3542 444.947 17.3542C443.949 17.3542 442.963 17.3661 441.989 17.3899C441.038 17.4136 440.076 17.4374 439.102 17.4612C437.463 17.5087 435.835 17.5443 434.219 17.5681C432.627 17.5681 431.012 17.5681 429.372 17.5681ZM436.251 22.0944C434.706 22.0944 433.162 22.13 431.618 22.2013C430.097 22.2488 428.564 22.3201 427.02 22.4151C426.26 22.4626 425.488 22.522 424.703 22.5933C423.943 22.6646 423.183 22.7002 422.423 22.7002C422.066 22.7002 421.745 22.5933 421.46 22.3795C421.175 22.1419 421.033 21.833 421.033 21.4528C421.033 21.0727 421.139 20.74 421.353 20.4549C421.591 20.1698 421.876 19.9678 422.209 19.849C422.375 19.7778 422.791 19.7184 423.456 19.6708C424.145 19.5996 424.953 19.5402 425.88 19.4926C426.83 19.4214 427.852 19.362 428.945 19.3144C430.038 19.2669 431.083 19.2313 432.081 19.2075C433.079 19.1838 433.97 19.16 434.754 19.1362C435.538 19.1125 436.085 19.1006 436.393 19.1006C436.797 19.1006 437.189 19.1125 437.57 19.1362C437.95 19.1362 438.342 19.1481 438.746 19.1719C439.221 19.1956 439.637 19.2432 439.993 19.3144C440.373 19.3857 440.682 19.5164 440.92 19.7065C441.181 19.8728 441.371 20.1223 441.49 20.4549C441.609 20.7876 441.668 21.2271 441.668 21.7736C441.668 22.0825 441.668 22.4389 441.668 22.8428C441.668 23.2467 441.644 23.6506 441.597 24.0546C441.549 24.4347 441.466 24.8149 441.347 25.195C441.252 25.5514 441.098 25.8484 440.884 26.086C440.599 26.4187 440.243 26.6682 439.815 26.8345C439.387 26.977 438.924 27.0721 438.425 27.1196C437.95 27.1909 437.463 27.2146 436.964 27.1909C436.488 27.1909 436.049 27.1909 435.645 27.1909H433.008L427.769 27.2978H425.131C425.155 27.3928 425.167 27.5116 425.167 27.6542C425.191 27.8205 425.202 27.9868 425.202 28.1532C425.226 28.3195 425.25 28.4739 425.274 28.6165C425.297 28.759 425.333 28.866 425.381 28.9372C425.428 29.0085 425.713 29.056 426.236 29.0798C426.759 29.1036 427.341 29.1273 427.982 29.1511C428.624 29.1748 429.242 29.1867 429.836 29.1867C430.43 29.1867 430.81 29.1867 430.976 29.1867C432.188 29.1867 433.376 29.1748 434.54 29.1511C435.704 29.1273 436.88 29.0917 438.068 29.0442C438.472 29.0204 438.864 28.9966 439.245 28.9729C439.625 28.9729 440.017 28.9491 440.421 28.9016C440.611 28.8778 440.801 28.8541 440.991 28.8303C441.205 28.8066 441.407 28.7947 441.597 28.7947C441.953 28.7947 442.274 28.9016 442.559 29.1154C442.844 29.353 442.987 29.6619 442.987 30.0421C442.987 30.3985 442.88 30.7192 442.666 31.0044C442.452 31.2895 442.179 31.4914 441.846 31.6102C441.656 31.7053 441.288 31.7766 440.741 31.8241C440.195 31.8954 439.553 31.9429 438.817 31.9666C438.08 32.0142 437.284 32.0498 436.429 32.0736C435.574 32.0973 434.754 32.1211 433.97 32.1448C433.21 32.1686 432.509 32.1805 431.867 32.1805C431.249 32.1805 430.786 32.1805 430.477 32.1805C429.717 32.1805 428.968 32.1686 428.232 32.1448C427.495 32.1448 426.747 32.1211 425.987 32.0736C425.535 32.0498 425.096 32.0023 424.668 31.931C424.264 31.8835 423.884 31.7766 423.527 31.6102C423.195 31.4439 422.898 31.2063 422.636 30.8974C422.399 30.6123 422.221 30.2084 422.102 29.6857L421.995 29.0442L421.959 28.4026C421.912 28.1175 421.864 27.8324 421.817 27.5473C421.769 27.2622 421.745 26.9652 421.745 26.6563C421.745 25.8247 421.995 25.2307 422.494 24.8743C423.017 24.4941 423.67 24.304 424.454 24.304C426.782 24.304 429.099 24.2922 431.404 24.2684C433.709 24.2209 436.013 24.1734 438.318 24.1258C438.342 23.817 438.365 23.5081 438.389 23.1992C438.413 22.8903 438.425 22.5696 438.425 22.2369L438.389 22.1656C438.057 22.1181 437.7 22.0944 437.32 22.0944C436.964 22.0944 436.607 22.0944 436.251 22.0944Z" fill="black"/>
<path d="M120.713 75.5166H125.382C125.524 75.5166 125.821 75.5166 126.273 75.5166C126.724 75.5166 127.247 75.5166 127.841 75.5166C128.435 75.5166 129.065 75.5166 129.73 75.5166C130.395 75.5403 131.001 75.5522 131.548 75.5522C132.118 75.576 132.605 75.5997 133.009 75.6235C133.413 75.6472 133.65 75.671 133.722 75.6948C134.339 75.9561 134.648 76.3957 134.648 77.0134C134.648 77.4886 134.47 77.8926 134.114 78.2252C133.757 78.5578 133.342 78.7242 132.866 78.7242H129.516L122.78 78.6529H116.365L110.164 78.6885H107.099C106.837 78.6885 106.54 78.6885 106.208 78.6885C105.875 78.6885 105.566 78.6529 105.281 78.5816C104.996 78.5103 104.758 78.3678 104.568 78.1539C104.378 77.9638 104.283 77.6668 104.283 77.2629C104.283 76.8828 104.402 76.5501 104.639 76.265C104.877 75.9799 105.162 75.7779 105.495 75.6591C105.637 75.5878 105.804 75.5522 105.994 75.5522C106.754 75.5047 107.526 75.4928 108.31 75.5166C109.094 75.5403 109.867 75.5522 110.627 75.5522H117.363V75.4809L117.399 72.4515V70.9546C117.399 70.6933 117.387 70.3369 117.363 69.8854C117.339 69.434 117.339 68.9944 117.363 68.5668C116.674 68.5905 115.973 68.6143 115.26 68.638C114.571 68.638 113.87 68.638 113.157 68.638C112.611 68.638 111.993 68.6024 111.304 68.5311C110.639 68.4361 110.104 68.1747 109.7 67.747C109.51 67.5332 109.332 67.1174 109.166 66.4996C108.999 65.8819 108.857 65.1572 108.738 64.3256C108.619 63.494 108.5 62.603 108.382 61.6526C108.287 60.6784 108.203 59.7518 108.132 58.8727C108.061 57.9698 108.001 57.162 107.954 56.4492C107.906 55.7126 107.871 55.1542 107.847 54.7741C107.8 54.3702 107.752 53.9662 107.704 53.5623C107.681 53.1346 107.645 52.7188 107.598 52.3149C107.574 52.1011 107.55 51.8991 107.526 51.709C107.503 51.4952 107.491 51.2932 107.491 51.1032C107.491 50.628 107.669 50.224 108.025 49.8914C108.382 49.535 108.797 49.3568 109.273 49.3568C109.938 49.3568 110.401 49.6419 110.663 50.2122C110.71 50.3072 110.758 50.4854 110.805 50.7468C110.853 51.0081 110.888 51.2932 110.912 51.6021C110.936 51.8872 110.96 52.1724 110.983 52.4575C111.007 52.7426 111.019 52.9564 111.019 53.099C111.067 53.3841 111.09 53.6811 111.09 53.99C111.114 54.2751 111.138 54.5602 111.162 54.8454L111.304 56.5204C112.944 56.6392 114.571 56.7224 116.187 56.7699C117.802 56.7937 119.43 56.8056 121.069 56.8056L125.097 56.7699H126.736V56.3422L126.665 54.2395C126.641 53.693 126.629 53.1703 126.629 52.6713C126.629 52.1486 126.629 51.614 126.629 51.0675C126.629 50.5923 126.808 50.1884 127.164 49.8558C127.52 49.5231 127.936 49.3568 128.411 49.3568C129.029 49.3568 129.492 49.6538 129.801 50.2478C129.849 50.3428 129.884 50.6161 129.908 51.0675C129.932 51.4952 129.956 52.0298 129.979 52.6713C130.003 53.3128 130.015 54.0138 130.015 54.7741C130.039 55.5106 130.051 56.2234 130.051 56.9125C130.051 57.6015 130.051 58.2074 130.051 58.7301C130.051 59.2528 130.051 59.6211 130.051 59.835C130.051 60.4765 130.051 61.118 130.051 61.7595C130.051 62.3773 130.027 62.995 129.979 63.6128C129.956 64.0167 129.92 64.4919 129.873 65.0384C129.825 65.5849 129.718 66.1076 129.552 66.6066C129.409 67.1055 129.184 67.5332 128.875 67.8896C128.566 68.2222 128.126 68.3886 127.556 68.3886C125.275 68.3886 122.994 68.4242 120.713 68.4955V69.3865L120.677 72.4515V73.9128C120.677 74.1028 120.677 74.3404 120.677 74.6256C120.701 74.9107 120.713 75.2077 120.713 75.5166ZM126.772 59.9419C126.415 59.9419 125.881 59.9419 125.168 59.9419C124.479 59.9419 123.683 59.9419 122.78 59.9419C121.901 59.9419 120.951 59.9419 119.929 59.9419C118.907 59.9419 117.898 59.9419 116.9 59.9419C115.902 59.9181 114.939 59.8944 114.013 59.8706C113.086 59.8468 112.278 59.8112 111.589 59.7637V59.835L111.625 60.0488V60.1201C111.696 61.023 111.767 61.9377 111.839 62.8644C111.91 63.791 112.076 64.6582 112.338 65.4661C112.552 65.4898 112.765 65.5017 112.979 65.5017C113.217 65.5017 113.454 65.5017 113.692 65.5017C115.854 65.5017 117.993 65.478 120.107 65.4304C122.246 65.3829 124.396 65.3354 126.558 65.2879C126.653 64.4563 126.712 63.589 126.736 62.6862C126.76 61.7833 126.772 60.8685 126.772 59.9419ZM138.312 68.5311C138.312 67.6282 138.312 66.7254 138.312 65.8225C138.336 64.8958 138.36 63.9811 138.384 63.0782L138.49 57.6253C138.514 56.8887 138.526 56.164 138.526 55.4512C138.55 54.7147 138.574 53.99 138.597 53.2772C138.621 52.9446 138.621 52.6 138.597 52.2436C138.597 51.8872 138.621 51.5427 138.669 51.2101C138.669 51.0913 138.692 50.9606 138.74 50.818C138.883 50.4854 139.108 50.2122 139.417 49.9983C139.726 49.7607 140.071 49.6419 140.451 49.6419C140.855 49.6419 141.199 49.7726 141.484 50.034C141.793 50.2953 141.948 50.6398 141.948 51.0675C141.948 51.8278 141.936 52.6 141.912 53.3841C141.888 54.1682 141.864 54.9523 141.841 55.7364C141.793 57.8272 141.746 59.9062 141.698 61.9734C141.651 64.0167 141.627 66.0838 141.627 68.1747C141.627 68.3886 141.639 68.638 141.662 68.9232C141.686 69.1845 141.734 69.4459 141.805 69.7072C141.876 69.9686 141.983 70.2062 142.126 70.42C142.268 70.6339 142.458 70.7764 142.696 70.8477C142.839 70.8952 143.052 70.9309 143.338 70.9546C143.623 70.9546 143.86 70.9546 144.05 70.9546C145.666 70.9546 147.27 70.919 148.862 70.8477C150.477 70.7527 152.093 70.6339 153.709 70.4913C154.113 70.4438 154.505 70.3963 154.885 70.3488C155.265 70.3012 155.645 70.2537 156.025 70.2062V50.6398C156.025 50.1646 156.204 49.7607 156.56 49.4281C156.94 49.0954 157.368 48.9291 157.843 48.9291C158.247 48.9291 158.591 49.0598 158.877 49.3212C159.185 49.5825 159.34 49.9152 159.34 50.3191V60.5478H159.518L160.944 60.4408C161.205 60.4171 161.478 60.4052 161.763 60.4052C162.049 60.3814 162.322 60.3577 162.583 60.3339C162.559 58.6707 162.536 57.0075 162.512 55.3443C162.512 53.6811 162.512 52.006 162.512 50.3191C162.512 49.8439 162.69 49.4518 163.046 49.143C163.427 48.8103 163.842 48.644 164.294 48.644C164.983 48.644 165.458 48.9529 165.719 49.5706C165.767 49.6657 165.803 50.129 165.826 50.9606C165.85 51.7684 165.862 52.7782 165.862 53.99C165.886 55.2018 165.898 56.5204 165.898 57.946C165.921 59.3479 165.933 60.6903 165.933 61.9734C165.933 63.2564 165.933 64.3969 165.933 65.3948C165.933 66.369 165.933 67.0224 165.933 67.355V69.4221L165.898 73.4851V75.5522C165.898 75.7423 165.898 75.9918 165.898 76.3006C165.898 76.6333 165.898 76.9659 165.898 77.2986C165.898 77.6312 165.886 77.952 165.862 78.2608C165.838 78.5697 165.791 78.7954 165.719 78.938C165.553 79.2706 165.316 79.532 165.007 79.7221C164.722 79.9122 164.401 80.0072 164.044 80.0072C163.64 80.0072 163.284 79.8765 162.975 79.6152C162.69 79.3776 162.547 79.0449 162.547 78.6172V76.0155L162.619 70.8121V68.2104V66.9986L162.583 64.6464V63.4346L161.478 63.5059C161.383 63.5059 161.288 63.5178 161.193 63.5415C161.122 63.5415 161.039 63.5415 160.944 63.5415L159.874 63.6128C159.779 63.6128 159.684 63.6247 159.589 63.6484C159.518 63.6484 159.435 63.6484 159.34 63.6484V77.2986C159.34 77.7738 159.15 78.1777 158.77 78.5103C158.413 78.843 157.997 79.0093 157.522 79.0093C157.118 79.0093 156.762 78.8786 156.453 78.6172C156.168 78.3559 156.025 78.0114 156.025 77.5837V73.3069C153.934 73.5682 151.855 73.7583 149.788 73.8771C147.721 73.9959 145.642 74.0553 143.551 74.0553C143.219 74.0553 142.898 74.0553 142.589 74.0553C142.304 74.0316 141.995 73.984 141.662 73.9128C141.045 73.7464 140.522 73.4851 140.094 73.1287C139.667 72.7723 139.322 72.3565 139.061 71.8813C138.799 71.3823 138.609 70.8477 138.49 70.2775C138.372 69.7072 138.312 69.1251 138.312 68.5311ZM197.535 68.9588C197.392 69.2914 197.167 69.5647 196.858 69.7785C196.549 69.9686 196.216 70.0636 195.86 70.0636C195.456 70.0636 195.099 69.933 194.791 69.6716C194.505 69.4102 194.363 69.0657 194.363 68.638C194.363 68.2579 194.375 67.8777 194.399 67.4976C194.422 67.1174 194.446 66.7372 194.47 66.3571C194.494 65.4067 194.505 64.4682 194.505 63.5415C194.529 62.5911 194.565 61.6526 194.612 60.726C194.636 60.2508 194.648 59.7756 194.648 59.3004C194.672 58.8014 194.684 58.3143 194.684 57.8391H186.059C185.655 57.8391 185.298 57.7084 184.99 57.4471C184.704 57.1857 184.562 56.8412 184.562 56.4135C184.562 55.9383 184.728 55.5463 185.061 55.2374C185.417 54.9285 185.821 54.7503 186.273 54.7028C186.486 54.679 186.7 54.679 186.914 54.7028C187.152 54.7028 187.377 54.7028 187.591 54.7028L194.684 54.6672L194.577 52.2436C194.553 51.8397 194.529 51.4477 194.505 51.0675C194.505 50.6636 194.505 50.2597 194.505 49.8558C194.505 49.3806 194.684 48.9766 195.04 48.644C195.42 48.3114 195.836 48.145 196.287 48.145C196.644 48.145 196.953 48.252 197.214 48.4658C197.499 48.6559 197.689 48.9291 197.784 49.2855C197.808 49.4281 197.82 49.6419 197.82 49.927C197.844 50.1884 197.856 50.4735 197.856 50.7824C197.856 51.0913 197.856 51.3883 197.856 51.6734C197.879 51.9348 197.891 52.1486 197.891 52.3149C197.915 52.9564 197.939 53.6098 197.963 54.2751C197.986 54.9166 197.998 55.5582 197.998 56.1997C197.998 57.3164 197.974 58.4212 197.927 59.5142C197.903 60.6072 197.879 61.7001 197.856 62.7931C197.808 63.7435 197.784 64.6939 197.784 65.6443C197.808 66.5947 197.761 67.5451 197.642 68.4955C197.642 68.5668 197.63 68.6499 197.606 68.745C197.582 68.8162 197.559 68.8875 197.535 68.9588ZM184.847 49.2499C185.251 49.2499 185.595 49.3806 185.881 49.6419C186.189 49.9033 186.344 50.2478 186.344 50.6755C186.344 51.0081 186.249 51.3051 186.059 51.5665C185.774 51.9942 185.441 52.2436 185.061 52.3149C184.681 52.3624 184.253 52.3862 183.778 52.3862H182.138C181.521 52.41 180.891 52.4218 180.249 52.4218C179.632 52.4218 179.014 52.4218 178.396 52.4218C177.968 52.4218 177.541 52.4218 177.113 52.4218C176.685 52.3981 176.246 52.3862 175.794 52.3862C175.818 53.004 175.818 53.6098 175.794 54.2038C175.794 54.7978 175.794 55.3918 175.794 55.9858C175.794 56.9838 175.806 57.9817 175.83 58.9796C175.854 59.9775 175.889 60.9754 175.937 61.9734C176.341 62.0209 176.733 62.0446 177.113 62.0446C177.517 62.0446 177.921 62.0446 178.325 62.0446C179.846 62.0446 181.366 61.9852 182.887 61.8664C184.407 61.7476 185.928 61.6882 187.449 61.6882C187.853 61.6882 188.197 61.8189 188.482 62.0803C188.791 62.3416 188.946 62.6862 188.946 63.1138C188.946 63.4465 188.839 63.7554 188.625 64.0405C188.435 64.3256 188.185 64.5276 187.876 64.6464C187.71 64.7414 187.52 64.7889 187.306 64.7889C187.045 64.8364 186.795 64.8602 186.558 64.8602C186.32 64.8364 186.083 64.8246 185.845 64.8246L183.065 64.9315C182.091 64.979 181.129 65.0265 180.178 65.074C179.252 65.1216 178.289 65.1453 177.291 65.1453C177.03 65.1453 176.721 65.1453 176.365 65.1453C176.008 65.1216 175.64 65.0978 175.26 65.074C174.88 65.0265 174.511 64.9671 174.155 64.8958C173.822 64.8008 173.561 64.6701 173.371 64.5038C173.062 64.2662 172.872 63.9573 172.801 63.5772C172.611 62.8644 172.516 62.1278 172.516 61.3675C172.539 60.6072 172.551 59.8706 172.551 59.1578C172.527 57.946 172.516 56.7462 172.516 55.5582C172.516 54.3702 172.516 53.1703 172.516 51.9585V50.8893C172.516 50.4141 172.694 50.0102 173.05 49.6776C173.43 49.3449 173.846 49.1786 174.298 49.1786C174.559 49.1786 174.832 49.1786 175.117 49.1786C175.402 49.1786 175.676 49.1905 175.937 49.2142L177.042 49.2855C177.303 49.3093 177.576 49.3212 177.862 49.3212C178.147 49.3212 178.42 49.3212 178.681 49.3212C179.727 49.3212 180.76 49.3093 181.782 49.2855C182.804 49.2618 183.825 49.2499 184.847 49.2499ZM179.608 80.2923C178.681 80.2923 177.957 80.1022 177.434 79.7221C176.911 79.3657 176.519 78.8905 176.258 78.2965C175.996 77.7262 175.818 77.0847 175.723 76.3719C175.652 75.6591 175.592 74.9463 175.545 74.2335C175.497 73.5445 175.45 72.8792 175.402 72.2377C175.355 71.5724 175.331 70.8952 175.331 70.2062C175.331 69.731 175.509 69.3271 175.866 68.9944C176.246 68.6618 176.662 68.4955 177.113 68.4955C177.565 68.4955 177.897 68.6024 178.111 68.8162C178.325 69.0301 178.467 69.2914 178.539 69.6003C178.634 69.9092 178.681 70.2537 178.681 70.6339C178.681 70.9903 178.693 71.3229 178.717 71.6318C178.717 71.8456 178.729 72.2377 178.753 72.8079C178.776 73.3544 178.812 73.9365 178.859 74.5543C178.931 75.1483 179.014 75.6948 179.109 76.1937C179.204 76.6927 179.311 76.9897 179.43 77.0847C179.501 77.1322 179.584 77.156 179.679 77.156C179.798 77.1798 179.893 77.1916 179.964 77.1916H180.57L181.782 77.1204H182.388C183.053 77.0966 183.718 77.0847 184.384 77.0847C185.049 77.0847 185.714 77.0847 186.38 77.0847C187.591 77.0847 188.791 77.0966 189.979 77.1204C191.167 77.1441 192.367 77.156 193.579 77.156H194.078L195.04 77.1204H195.503C195.788 77.1204 196.097 77.1204 196.43 77.1204C196.763 77.1204 197.072 77.156 197.357 77.2273C197.666 77.3223 197.915 77.4649 198.105 77.655C198.319 77.8688 198.426 78.1777 198.426 78.5816C198.426 79.0568 198.236 79.4607 197.856 79.7934C197.499 80.126 197.095 80.2923 196.644 80.2923H193.828L188.162 80.1854H185.31C184.764 80.1854 184.229 80.1854 183.707 80.1854C183.184 80.1854 182.649 80.1973 182.103 80.221C181.699 80.2448 181.283 80.2567 180.855 80.2567C180.428 80.2804 180.012 80.2923 179.608 80.2923ZM214.159 61.8308C214.159 60.6903 214.29 59.4904 214.551 58.2312C214.813 56.9481 215.169 55.772 215.62 54.7028C215.906 54.0138 216.274 53.3366 216.725 52.6713C217.2 52.006 217.723 51.412 218.293 50.8893C218.887 50.3666 219.541 49.9508 220.254 49.6419C220.966 49.3093 221.727 49.143 222.535 49.143C223.889 49.143 225.041 49.4281 225.992 49.9983C226.966 50.5686 227.774 51.317 228.415 52.2436C229.057 53.1703 229.568 54.2276 229.948 55.4156C230.328 56.5798 230.601 57.756 230.767 58.944H231.017C231.445 58.9202 231.92 58.9083 232.443 58.9083C232.989 58.8846 233.547 58.8608 234.118 58.837C234.688 58.8133 235.246 58.7895 235.793 58.7658C236.339 58.742 236.826 58.7182 237.254 58.6945H237.29L237.076 53.9187C237.028 53.301 236.981 52.6951 236.933 52.1011C236.886 51.5071 236.862 50.9012 236.862 50.2834C236.862 49.8082 237.04 49.4043 237.396 49.0717C237.753 48.739 238.169 48.5727 238.644 48.5727C239.262 48.5727 239.725 48.8578 240.034 49.4281C240.081 49.5231 240.129 49.8558 240.176 50.426C240.224 50.9962 240.271 51.6972 240.319 52.5288C240.366 53.3604 240.414 54.2632 240.462 55.2374C240.509 56.1878 240.545 57.1026 240.568 57.9817C240.592 58.8608 240.616 59.6449 240.64 60.3339C240.663 61.023 240.675 61.4863 240.675 61.7239V78.2608C240.675 78.736 240.497 79.14 240.141 79.4726C239.784 79.8052 239.369 79.9716 238.893 79.9716C238.418 79.9716 238.05 79.8171 237.789 79.5082C237.527 79.2231 237.396 78.843 237.396 78.3678V67.2837C237.396 66.3808 237.396 65.478 237.396 64.5751C237.396 63.6484 237.385 62.7337 237.361 61.8308H237.111L234.652 61.9377L231.017 62.0803V62.6149C231.017 63.7791 230.862 65.074 230.554 66.4996C230.245 67.9015 229.758 69.2202 229.092 70.4557C228.427 71.6912 227.584 72.7248 226.562 73.5564C225.54 74.388 224.317 74.8038 222.891 74.8038C221.537 74.8038 220.361 74.4949 219.363 73.8771C218.365 73.2594 217.509 72.4753 216.797 71.5249C216.108 70.5507 215.561 69.4696 215.157 68.2816C214.753 67.0936 214.48 65.9175 214.337 64.7533C214.29 64.2781 214.242 63.8029 214.195 63.3277C214.171 62.8287 214.159 62.3298 214.159 61.8308ZM222.249 52.2793C221.846 52.2793 221.477 52.3743 221.145 52.5644C220.836 52.7307 220.539 52.9564 220.254 53.2416C219.778 53.7168 219.363 54.2989 219.006 54.9879C218.65 55.6532 218.353 56.366 218.115 57.1263C217.878 57.8866 217.699 58.647 217.581 59.4073C217.486 60.1676 217.438 60.8804 217.438 61.5457C217.438 61.9496 217.45 62.3654 217.474 62.7931C217.497 63.2208 217.533 63.6366 217.581 64.0405C217.676 64.777 217.854 65.5849 218.115 66.464C218.377 67.3431 218.721 68.1747 219.149 68.9588C219.6 69.7191 220.159 70.3606 220.824 70.8834C221.489 71.4061 222.273 71.6674 223.176 71.6674C223.295 71.6674 223.414 71.6674 223.533 71.6674C223.675 71.6674 223.806 71.6437 223.925 71.5962C224.352 71.4536 224.744 71.1922 225.101 70.8121C225.457 70.4082 225.778 69.9567 226.063 69.4578C226.348 68.9588 226.586 68.448 226.776 67.9252C226.99 67.4025 227.156 66.9392 227.275 66.5353C227.441 65.9413 227.56 65.3473 227.631 64.7533C227.702 64.1355 227.738 63.5178 227.738 62.9C227.738 62.3298 227.702 61.6764 227.631 60.9398C227.584 60.2032 227.477 59.4429 227.31 58.6588C227.168 57.851 226.966 57.0669 226.704 56.3066C226.443 55.5463 226.11 54.8691 225.707 54.2751C225.303 53.6811 224.816 53.2059 224.245 52.8495C223.675 52.4694 223.01 52.2793 222.249 52.2793ZM259.66 67.4263C259.09 67.4263 258.413 67.4025 257.629 67.355C256.869 67.3075 256.096 67.2124 255.312 67.0699C254.528 66.9036 253.804 66.666 253.138 66.3571C252.473 66.0244 251.986 65.5849 251.677 65.0384C251.463 64.682 251.285 64.1593 251.142 63.4702C251.024 62.7574 250.917 61.9615 250.822 61.0824C250.75 60.2032 250.691 59.2766 250.643 58.3024C250.62 57.3045 250.596 56.3541 250.572 55.4512C250.572 54.5246 250.572 53.6811 250.572 52.9208C250.596 52.1367 250.608 51.5071 250.608 51.0319C250.608 50.5567 250.786 50.1528 251.142 49.8201C251.523 49.4875 251.938 49.3212 252.39 49.3212C252.746 49.3212 253.055 49.4281 253.316 49.6419C253.602 49.832 253.792 50.1052 253.887 50.4616C253.91 50.628 253.922 50.8537 253.922 51.1388C253.946 51.4002 253.958 51.6734 253.958 51.9585C253.958 52.2436 253.946 52.5169 253.922 52.7782C253.922 53.0396 253.922 53.2534 253.922 53.4198C253.922 53.6574 253.922 54.0494 253.922 54.5959C253.922 55.1424 253.922 55.772 253.922 56.4848C253.946 57.1738 253.97 57.8985 253.994 58.6588C254.041 59.3954 254.089 60.0963 254.136 60.7616C254.184 61.4031 254.243 61.9615 254.314 62.4367C254.409 62.9119 254.516 63.2208 254.635 63.3633C254.801 63.5534 255.122 63.7197 255.597 63.8623C256.096 63.9811 256.619 64.0761 257.166 64.1474C257.736 64.2187 258.282 64.2662 258.805 64.29C259.351 64.3137 259.755 64.3256 260.017 64.3256C261.371 64.3256 262.725 64.3018 264.08 64.2543C265.458 64.2068 266.836 64.1593 268.214 64.1118C268.76 64.088 269.319 64.0524 269.889 64.0048C270.459 63.9573 271.018 63.9336 271.564 63.9336C271.968 63.9336 272.313 64.0642 272.598 64.3256C272.907 64.587 273.061 64.9315 273.061 65.3592C273.061 65.6918 272.954 66.0007 272.74 66.2858C272.55 66.5709 272.301 66.7729 271.992 66.8917C271.825 66.963 271.445 67.0342 270.851 67.1055C270.281 67.153 269.592 67.2006 268.784 67.2481C267.976 67.2718 267.097 67.2956 266.147 67.3194C265.196 67.3431 264.294 67.3669 263.438 67.3906C262.583 67.3906 261.811 67.4025 261.122 67.4263C260.433 67.4263 259.945 67.4263 259.66 67.4263ZM274.665 78.8311C272.526 78.8311 270.4 78.7954 268.285 78.7242C266.171 78.6766 264.044 78.6529 261.906 78.6529C260.195 78.6529 258.484 78.6291 256.774 78.5816C255.063 78.5578 253.352 78.5222 251.641 78.4747C250.881 78.4509 250.121 78.439 249.36 78.439C248.6 78.439 247.84 78.4153 247.079 78.3678C246.699 78.3202 246.379 78.1658 246.117 77.9044C245.856 77.6668 245.725 77.3461 245.725 76.9422C245.725 76.467 245.903 76.063 246.26 75.7304C246.64 75.3978 247.056 75.2314 247.507 75.2314C249.574 75.2314 251.618 75.279 253.637 75.374C255.681 75.4928 257.736 75.5522 259.803 75.5522C260.112 75.5522 260.694 75.5522 261.549 75.5522C262.428 75.5522 263.426 75.5522 264.543 75.5522C265.684 75.5522 266.872 75.5522 268.107 75.5522C269.366 75.576 270.519 75.5997 271.564 75.6235C272.633 75.6472 273.536 75.671 274.273 75.6948C275.009 75.7185 275.425 75.7542 275.52 75.8017C276.138 76.063 276.447 76.5026 276.447 77.1204C276.447 77.5956 276.257 77.9995 275.877 78.3321C275.52 78.6648 275.116 78.8311 274.665 78.8311ZM287.346 63.6128C286.894 63.6128 286.443 63.589 285.991 63.5415C285.54 63.4702 285.088 63.3871 284.637 63.292C283.948 63.1495 283.378 62.9832 282.926 62.7931C282.499 62.5792 282.142 62.306 281.857 61.9734C281.572 61.6407 281.346 61.2368 281.18 60.7616C281.037 60.2864 280.93 59.7162 280.859 59.0509C280.788 58.5044 280.74 58.0292 280.717 57.6253C280.693 57.1976 280.657 56.7105 280.61 56.164C280.562 55.475 280.515 54.7741 280.467 54.0613C280.443 53.3485 280.408 52.6357 280.36 51.9229C280.336 51.6378 280.301 51.3645 280.253 51.1032C280.23 50.818 280.218 50.5329 280.218 50.2478C280.218 49.7726 280.396 49.3687 280.752 49.036C281.132 48.7034 281.548 48.5371 282 48.5371C282.594 48.5371 283.045 48.7984 283.354 49.3212C283.449 49.4875 283.532 49.8439 283.603 50.3904C283.675 50.9368 283.722 51.5784 283.746 52.3149C283.794 53.0515 283.841 53.8356 283.889 54.6672C283.936 55.475 283.972 56.2472 283.996 56.9838C284.043 57.6966 284.102 58.3143 284.174 58.837C284.245 59.3598 284.328 59.6805 284.423 59.7993C284.518 59.9181 284.708 60.025 284.993 60.1201C285.302 60.1914 285.623 60.2626 285.956 60.3339C286.312 60.3814 286.657 60.429 286.989 60.4765C287.322 60.5002 287.56 60.5121 287.702 60.5121C289.389 60.5121 291.064 60.4884 292.727 60.4408C294.391 60.3696 296.066 60.2864 297.753 60.1914L299.677 60.0844C299.867 60.0607 300.057 60.0488 300.247 60.0488C300.461 60.025 300.663 60.0132 300.853 60.0132C300.829 59.7756 300.818 59.5498 300.818 59.336C300.818 59.0984 300.806 58.8727 300.782 58.6588L300.639 56.0571C300.616 55.8433 300.604 55.6294 300.604 55.4156C300.604 55.178 300.592 54.9404 300.568 54.7028L300.354 51.4952C300.331 51.2101 300.307 50.9368 300.283 50.6755C300.259 50.3904 300.247 50.1052 300.247 49.8201C300.247 49.3449 300.426 48.941 300.782 48.6084C301.162 48.2757 301.578 48.1094 302.029 48.1094C302.671 48.1094 303.134 48.3945 303.419 48.9648C303.491 49.1073 303.562 49.6419 303.633 50.5686C303.704 51.4952 303.776 52.5763 303.847 53.8118H304.132L305.736 53.7405C306.306 53.7168 306.876 53.693 307.447 53.6692C308.041 53.6217 308.623 53.598 309.193 53.598C309.597 53.598 309.941 53.7286 310.227 53.99C310.535 54.2514 310.69 54.5959 310.69 55.0236C310.69 55.4275 310.547 55.7839 310.262 56.0928C309.977 56.4016 309.644 56.6036 309.264 56.6986C309.05 56.7462 308.837 56.7699 308.623 56.7699C308.409 56.7462 308.195 56.7462 307.981 56.7699L306.377 56.8412L304.025 56.9481C304.073 57.9936 304.108 58.8727 304.132 59.5855C304.18 60.2983 304.215 60.821 304.239 61.1536C304.263 61.4625 304.287 61.7714 304.31 62.0803C304.358 62.3892 304.382 62.698 304.382 63.0069C304.382 63.4821 304.192 63.886 303.811 64.2187C303.455 64.5513 303.051 64.7176 302.6 64.7176C302.124 64.7176 301.744 64.5751 301.459 64.29C301.198 63.9811 301.067 63.589 301.067 63.1138C300.568 63.1614 299.915 63.2089 299.107 63.2564C298.299 63.2802 297.42 63.3158 296.47 63.3633C295.543 63.3871 294.592 63.4227 293.618 63.4702C292.644 63.494 291.729 63.5178 290.874 63.5415C290.019 63.5653 289.27 63.589 288.629 63.6128C288.011 63.6128 287.583 63.6128 287.346 63.6128ZM301.637 69.3508C300.022 69.3508 298.418 69.3508 296.826 69.3508C295.258 69.3271 293.666 69.3271 292.05 69.3508C291.052 69.3746 290.054 69.4102 289.056 69.4578C288.082 69.4815 287.096 69.4934 286.098 69.4934C285.694 69.4934 285.338 69.3627 285.029 69.1014C284.744 68.84 284.601 68.4955 284.601 68.0678C284.601 67.7114 284.708 67.3906 284.922 67.1055C285.136 66.8204 285.409 66.6184 285.742 66.4996C285.861 66.4521 286.193 66.4165 286.74 66.3927C287.286 66.3452 287.928 66.3096 288.664 66.2858C289.425 66.262 290.233 66.2502 291.088 66.2502C291.943 66.2264 292.763 66.2145 293.547 66.2145C294.331 66.2145 295.02 66.2145 295.614 66.2145C296.208 66.2145 296.624 66.2145 296.862 66.2145H301.994C302.635 66.2145 303.146 66.3214 303.526 66.5353C303.93 66.7491 304.239 67.0342 304.453 67.3906C304.667 67.747 304.809 68.1747 304.881 68.6737C304.952 69.1489 304.987 69.6597 304.987 70.2062C304.987 70.4676 304.976 70.717 304.952 70.9546C304.952 71.1685 304.94 71.3942 304.916 71.6318C304.869 72.0832 304.821 72.4872 304.774 72.8436C304.726 73.2 304.619 73.5088 304.453 73.7702C304.287 74.0078 304.049 74.1979 303.74 74.3404C303.431 74.4592 303.004 74.5186 302.457 74.5186C300.604 74.5186 298.762 74.5543 296.933 74.6256C295.103 74.6968 293.262 74.7325 291.409 74.7325C290.791 74.7325 290.173 74.7325 289.555 74.7325C288.938 74.7087 288.32 74.7206 287.702 74.7681C287.726 75.1245 287.761 75.4809 287.809 75.8373C287.88 76.1937 287.975 76.5382 288.094 76.8709C288.26 76.9659 288.486 77.0372 288.771 77.0847C289.056 77.1322 289.365 77.1679 289.698 77.1916C290.031 77.2154 290.351 77.2273 290.66 77.2273C290.969 77.251 291.219 77.2629 291.409 77.2629H293.69L298.252 77.1916H303.598C303.859 77.1916 304.12 77.2035 304.382 77.2273C304.643 77.251 304.869 77.3104 305.059 77.4055C305.273 77.5005 305.439 77.6431 305.558 77.8332C305.7 78.0232 305.772 78.2846 305.772 78.6172C305.772 79.0924 305.581 79.4964 305.201 79.829C304.845 80.1616 304.441 80.328 303.99 80.328C301.827 80.328 299.677 80.3398 297.539 80.3636C295.4 80.3874 293.25 80.3992 291.088 80.3992C290.636 80.3992 290.114 80.3874 289.52 80.3636C288.949 80.3398 288.379 80.2686 287.809 80.1498C287.263 80.031 286.752 79.8528 286.276 79.6152C285.801 79.3776 285.433 79.033 285.172 78.5816C284.982 78.2965 284.851 77.9876 284.78 77.655C284.708 77.3461 284.649 77.0253 284.601 76.6927C284.554 76.4313 284.506 76.17 284.459 75.9086C284.411 75.6472 284.388 75.374 284.388 75.0889C284.388 74.1385 284.673 73.3544 285.243 72.7366C285.837 72.1189 286.621 71.7625 287.595 71.6674C287.785 71.6437 287.963 71.6318 288.13 71.6318C288.296 71.6318 288.474 71.6318 288.664 71.6318C290.85 71.6318 293.012 71.6199 295.151 71.5962C297.313 71.5486 299.475 71.5011 301.637 71.4536C301.661 71.216 301.673 70.9903 301.673 70.7764C301.697 70.5388 301.709 70.3012 301.709 70.0636C301.709 69.9448 301.709 69.826 301.709 69.7072C301.709 69.5884 301.685 69.4696 301.637 69.3508ZM316.951 76.5501C316.951 77.2154 316.69 77.7025 316.167 78.0114C315.645 78.344 315.086 78.5103 314.492 78.5103C314.041 78.5103 313.649 78.3678 313.316 78.0826C313.007 77.7975 312.853 77.4174 312.853 76.9422C312.853 76.3482 313.09 75.8492 313.566 75.4453C314.041 75.0414 314.563 74.8394 315.134 74.8394C315.609 74.8394 316.025 74.9938 316.381 75.3027C316.761 75.6116 316.951 76.0274 316.951 76.5501ZM325.339 76.5501C325.339 77.2154 325.078 77.7025 324.555 78.0114C324.033 78.344 323.474 78.5103 322.88 78.5103C322.429 78.5103 322.037 78.3678 321.704 78.0826C321.395 77.7975 321.241 77.4174 321.241 76.9422C321.241 76.3482 321.478 75.8492 321.954 75.4453C322.429 75.0414 322.951 74.8394 323.522 74.8394C323.997 74.8394 324.413 74.9938 324.769 75.3027C325.149 75.6116 325.339 76.0274 325.339 76.5501ZM333.727 76.5501C333.727 77.2154 333.466 77.7025 332.943 78.0114C332.42 78.344 331.862 78.5103 331.268 78.5103C330.817 78.5103 330.425 78.3678 330.092 78.0826C329.783 77.7975 329.629 77.4174 329.629 76.9422C329.629 76.3482 329.866 75.8492 330.341 75.4453C330.817 75.0414 331.339 74.8394 331.91 74.8394C332.385 74.8394 332.801 74.9938 333.157 75.3027C333.537 75.6116 333.727 76.0274 333.727 76.5501Z" fill="black"/>
</g>
<defs>
<clipPath id="clip0_493_7091">
<rect width="448.19" height="87.03" fill="white"/>
</clipPath>
</defs>
</svg>
