<svg width="189" height="141" viewBox="0 0 189 141" fill="none" xmlns="http://www.w3.org/2000/svg">
<g clip-path="url(#clip0_505_565)">
<path d="M19.9204 1H49.1404C53.9965 1 58.6537 2.92908 62.0875 6.36287C65.5213 9.79667 67.4503 14.4539 67.4503 19.31V21.69H1.61035V19.31C1.61035 14.4539 3.53944 9.79667 6.97323 6.36287C10.407 2.92908 15.0642 1 19.9204 1Z" fill="#EADEA4" stroke="#231F20" stroke-width="2" stroke-linecap="round" stroke-linejoin="round"/>
<path d="M187.22 17.2998H1.61035V139.58H187.22V17.2998Z" fill="#FFF5B8" stroke="#231F20" stroke-width="2" stroke-linecap="round" stroke-linejoin="round"/>
<path d="M55.2207 105.9C51.8016 105.84 48.4355 105.045 45.3507 103.57C43.7826 102.817 42.3119 101.877 40.9707 100.77C39.3224 99.4068 37.9914 97.7004 37.0707 95.7699C36.1524 93.8907 35.4802 91.901 35.0707 89.8499C34.6682 87.8071 34.454 85.7318 34.4307 83.6499C34.4307 81.6499 34.4307 79.7099 34.6007 77.9199C34.7457 76.1359 35.081 74.3726 35.6007 72.6599C36.1647 70.804 36.9257 69.0138 37.8707 67.3199C38.8598 65.5635 40.0513 63.9291 41.4207 62.4499C42.8708 60.8966 44.5585 59.5835 46.4207 58.5599C47.9542 57.6905 49.6304 57.1013 51.3707 56.8199C52.5235 56.6233 53.6912 56.5262 54.8607 56.5299C55.4907 56.5299 56.1207 56.5299 56.7607 56.6099C58.5431 56.7632 60.2961 57.1603 61.9707 57.7899C63.5851 58.3882 65.0714 59.2874 66.3507 60.4399C67.2465 61.2569 68.0391 62.1804 68.7107 63.1899C69.5361 64.3257 70.1773 65.5844 70.6107 66.9199C71.045 68.2452 71.045 69.6746 70.6107 70.9999C70.3234 71.7844 69.83 72.477 69.1824 73.005C68.5348 73.5329 67.757 73.8766 66.9307 73.9999C66.4661 74.136 65.9848 74.2067 65.5007 74.2099C65.1945 74.2123 64.889 74.1787 64.5907 74.1099C63.9203 73.9638 63.2871 73.6812 62.7307 73.2799C62.2411 72.9005 61.7921 72.4715 61.3907 71.9999C61.0407 71.5899 60.6907 71.1799 60.3907 70.7699C59.6609 69.8432 58.6778 69.1484 57.5607 68.7699C56.4988 68.397 55.3589 68.304 54.2507 68.4999C53.1201 68.7096 52.0547 69.1823 51.1407 69.8799C50.1735 70.5981 49.4059 71.5516 48.9107 72.6499C48.2442 74.0747 47.7314 75.5665 47.3807 77.0999C46.9968 78.7066 46.779 80.3486 46.7307 81.9999C46.6871 83.6055 46.8382 85.2106 47.1807 86.7799C47.4614 88.1609 48.0193 89.4707 48.8207 90.6299C49.3616 91.4578 50.0702 92.1629 50.9007 92.6999C51.7275 93.2475 52.6451 93.6437 53.6107 93.8699C54.1815 94.0005 54.7651 94.0676 55.3507 94.0699C55.7519 94.0774 56.1531 94.054 56.5507 93.9999C57.5723 93.8419 58.5577 93.5033 59.4607 92.9999C59.7781 92.8364 60.0765 92.6386 60.3507 92.4099L61.5907 91.4099C62.0507 91.0399 62.5207 90.6899 63.0107 90.4099C63.5812 90.0247 64.2138 89.7405 64.8807 89.5699C65.3818 89.41 65.9047 89.329 66.4307 89.3299C67.0768 89.3371 67.7178 89.445 68.3307 89.6499C68.9854 89.86 69.5897 90.2029 70.1059 90.6571C70.6221 91.1114 71.039 91.6672 71.3307 92.2899V92.3499C71.6969 93.1092 71.8929 93.9393 71.905 94.7822C71.9171 95.625 71.7449 96.4604 71.4007 97.2299C70.7547 98.6738 69.8027 99.9601 68.6107 101C67.3547 102.099 65.9635 103.033 64.4707 103.78C63.0683 104.509 61.5846 105.069 60.0507 105.45C58.5744 105.761 57.0693 105.915 55.5607 105.91L55.2207 105.9Z" fill="#6FC1EF" stroke="black" stroke-width="2" stroke-linecap="round" stroke-linejoin="round"/>
<path d="M93.2406 105.49C92.5806 105.49 91.9006 105.49 91.2406 105.41C88.4103 105.232 85.6514 104.448 83.1506 103.11C81.6712 102.299 80.3364 101.248 79.2006 100C78.1263 98.789 77.2121 97.4446 76.4806 96.0002C76.1274 95.3257 75.91 94.5884 75.8406 93.8302C75.7573 93.0235 75.832 92.2083 76.0606 91.4302C76.2908 90.6557 76.679 89.9373 77.2006 89.3202C77.8234 88.5739 78.6674 88.0451 79.6106 87.8102H79.6906C80.2636 87.6974 80.8467 87.6438 81.4306 87.6502C82.1076 87.6521 82.781 87.7497 83.4306 87.9402C84.1225 88.1555 84.7696 88.4943 85.3406 88.9402C85.9798 89.4353 86.4908 90.0766 86.8306 90.8102C87.2424 91.5713 87.7917 92.2494 88.4506 92.8102C89.1717 93.4233 89.9641 93.9471 90.8106 94.3702C91.7794 94.686 92.7917 94.848 93.8106 94.8502H94.3806C95.5325 94.7902 96.6626 94.5119 97.7106 94.0302C98.6042 93.6312 99.3818 93.0119 99.9706 92.2302C100.487 91.5572 100.759 90.7283 100.741 89.8802C100.769 89.2388 100.663 88.5986 100.431 88.0002C100.26 87.533 99.979 87.1142 99.6106 86.7802C99.1548 86.4226 98.6495 86.133 98.1106 85.9202C97.3816 85.6338 96.633 85.3999 95.8706 85.2202C94.9233 85.0249 93.9648 84.8879 93.0006 84.8102C91.9406 84.7302 90.8606 84.6202 89.7806 84.4902C88.7006 84.3602 87.6106 84.1702 86.5206 84.0002C85.3828 83.7654 84.2732 83.4101 83.2106 82.9402C81.0619 82.0944 79.2423 80.5798 78.0206 78.6202C76.9086 76.7973 76.2247 74.7458 76.0206 72.6202C75.8123 70.4644 76.0681 68.289 76.7706 66.2402C77.4597 64.1471 78.6471 62.2527 80.2306 60.7202C81.8258 59.3019 83.7294 58.2748 85.7906 57.7202C87.9674 57.1279 90.2059 56.7923 92.4606 56.7202H93.4606C94.4606 56.7202 95.4606 56.7202 96.5206 56.8702C97.869 56.9976 99.206 57.2249 100.521 57.5502C101.776 57.8516 103.001 58.2666 104.181 58.7902C105.288 59.2776 106.324 59.9134 107.261 60.6802C107.966 61.2451 108.601 61.8931 109.151 62.6102C109.759 63.3736 110.251 64.2228 110.611 65.1302C110.993 66.1018 111.124 67.1545 110.991 68.1902C110.888 68.8145 110.647 69.408 110.286 69.9271C109.924 70.4462 109.451 70.8778 108.901 71.1902C108.143 71.6919 107.259 71.9692 106.351 71.9902H105.951C105.108 71.8998 104.294 71.6342 103.561 71.2102C102.92 70.8373 102.312 70.4126 101.741 69.9402L100.361 68.8002C99.2904 68.0653 98.0655 67.5863 96.7806 67.4002C95.8403 67.2286 94.8865 67.1416 93.9306 67.1402C93.4295 67.1364 92.9285 67.1631 92.4306 67.2202C91.6632 67.323 90.909 67.5074 90.1806 67.7702C89.5996 67.9721 89.0631 68.2845 88.6006 68.6902C88.1701 69.0514 87.828 69.5063 87.6006 70.0202C87.3762 70.5814 87.2971 71.1903 87.3706 71.7902C87.373 72.1159 87.4742 72.4332 87.6606 72.7002C87.8927 73.0079 88.1897 73.2605 88.5306 73.4402C88.9677 73.6865 89.4349 73.8748 89.9206 74.0002C90.4893 74.151 91.0672 74.2646 91.6506 74.3402C93.5206 74.5902 95.4206 74.7802 97.3006 74.9102C99.3929 75.0533 101.451 75.5188 103.401 76.2902C105.358 77.0307 107.157 78.1371 108.701 79.5502C110.205 80.958 111.318 82.7327 111.931 84.7002C112.186 85.4369 112.367 86.1974 112.471 86.9702C112.713 88.6281 112.713 90.3123 112.471 91.9702C112.373 92.7117 112.216 93.4441 112.001 94.1602C111.231 96.8559 109.606 99.2284 107.371 100.92C105.127 102.66 102.561 103.938 99.8206 104.68C97.6736 105.244 95.4604 105.517 93.2406 105.49Z" fill="#6FC1EF" stroke="black" stroke-width="2" stroke-linecap="round" stroke-linejoin="round"/>
<path d="M134.611 105.49C133.951 105.49 133.281 105.49 132.611 105.41C129.783 105.232 127.028 104.447 124.531 103.11C123.058 102.301 121.733 101.25 120.611 99.9999C119.53 98.7914 118.612 97.4467 117.881 95.9999C117.531 95.3247 117.317 94.5874 117.251 93.8299C117.164 93.0238 117.235 92.2086 117.461 91.4299C117.683 90.623 118.075 89.8728 118.611 89.2299C119.245 88.5152 120.088 88.0184 121.021 87.8099H121.091C121.667 87.6971 122.253 87.6435 122.841 87.6499C123.518 87.6508 124.191 87.7485 124.841 87.9399C125.534 88.1509 126.182 88.4901 126.751 88.9399C127.395 89.4294 127.907 90.0722 128.241 90.8099C128.653 91.5735 129.206 92.2521 129.871 92.8099C130.588 93.4227 131.377 93.9466 132.221 94.3699C133.19 94.6839 134.202 94.8458 135.221 94.8499H135.781C136.933 94.7925 138.063 94.5141 139.111 94.0299C140.007 93.6308 140.788 93.0116 141.381 92.2299C141.893 91.5547 142.164 90.7273 142.151 89.8799C142.174 89.2388 142.068 88.5996 141.841 87.9999C141.651 87.5718 141.368 87.1923 141.011 86.8899C140.56 86.5297 140.058 86.2398 139.521 86.0299C138.788 85.7436 138.036 85.5097 137.271 85.3299C136.327 85.1338 135.371 84.9969 134.411 84.9199C133.351 84.8399 132.261 84.7299 131.181 84.5999C130.101 84.4699 128.971 84.2799 127.911 84.0599C126.772 83.7876 125.666 83.3954 124.611 82.8899C122.462 82.0441 120.642 80.5295 119.421 78.5699C118.313 76.7451 117.629 74.6945 117.421 72.5699C117.212 70.4141 117.468 68.2386 118.171 66.1899C118.817 64.1146 119.984 62.239 121.559 60.7409C123.134 59.2428 125.065 58.172 127.171 57.6299C129.344 57.0375 131.579 56.7019 133.831 56.6299H134.831C135.831 56.6299 136.881 56.6299 137.901 56.7799C139.249 56.9068 140.586 57.1341 141.901 57.4599C143.156 57.7612 144.381 58.1763 145.561 58.6999C146.657 59.175 147.683 59.7974 148.611 60.5499C149.316 61.1148 149.951 61.7628 150.501 62.4799C151.137 63.282 151.65 64.1753 152.021 65.1299C152.4 66.1023 152.528 67.155 152.391 68.1899C152.292 68.8156 152.053 69.4108 151.691 69.9305C151.329 70.4502 150.853 70.8809 150.301 71.1899C149.544 71.6931 148.659 71.9705 147.751 71.9899H147.351C146.511 71.9002 145.7 71.6344 144.971 71.2099C144.329 70.8392 143.72 70.4143 143.151 69.9399L141.761 68.7999C140.694 68.0652 139.472 67.5861 138.191 67.3999C137.247 67.2281 136.29 67.1411 135.331 67.1399C134.833 67.1358 134.335 67.1625 133.841 67.2199C133.07 67.3216 132.312 67.5059 131.581 67.7699C131.002 67.9768 130.466 68.2887 130.001 68.6899C129.594 69.0594 129.273 69.5134 129.061 70.0199C128.833 70.5802 128.75 71.1891 128.821 71.7899C128.823 72.1156 128.924 72.4329 129.111 72.6999C129.347 73.0031 129.643 73.2549 129.981 73.4399C130.422 73.6847 130.892 73.8728 131.381 73.9999C131.946 74.1516 132.52 74.2652 133.101 74.3399C134.971 74.5899 136.881 74.7799 138.761 74.9099C140.853 75.053 142.91 75.5185 144.861 76.2899C146.815 77.0304 148.61 78.1368 150.151 79.5499C151.655 80.9597 152.771 82.7334 153.391 84.6999C153.641 85.4379 153.822 86.198 153.931 86.9699C154.159 88.6287 154.159 90.3111 153.931 91.9699C153.828 92.7105 153.671 93.4425 153.461 94.1599C152.686 96.8534 151.062 99.2245 148.831 100.92C146.587 102.659 144.021 103.937 141.281 104.68C139.104 105.25 136.86 105.523 134.611 105.49Z" fill="#6FC1EF" stroke="black" stroke-width="2" stroke-linecap="round" stroke-linejoin="round"/>
</g>
<defs>
<clipPath id="clip0_505_565">
<rect width="187.61" height="140.58" fill="white" transform="translate(0.610352)"/>
</clipPath>
</defs>
</svg>
