<svg width="159" height="103" viewBox="0 0 159 103" fill="none" xmlns="http://www.w3.org/2000/svg">
<path fill-rule="evenodd" clip-rule="evenodd" d="M79.5557 93.3676C36.1707 93.3676 1.00015 72.6904 1.00015 47.1838C1.00015 21.6772 36.1707 1 79.5557 1C122.941 1 158.111 21.6772 158.111 47.1838C158.111 63.4794 143.756 77.8038 122.074 86.0244C120.132 90.8508 115.805 96.5809 107.176 101.747C107.041 101.863 106.899 101.948 106.75 102C106.893 101.916 107.035 101.832 107.176 101.747C108.61 100.517 109.184 95.8195 108.872 90.0441C99.8139 92.1877 89.9192 93.3676 79.5557 93.3676Z" fill="white"/>
<path d="M122.074 86.0244L121.379 85.7444C121.457 85.5501 121.613 85.3974 121.808 85.3231L122.074 86.0244ZM106.75 102L106.997 102.708C106.633 102.836 106.231 102.666 106.069 102.315C105.907 101.965 106.037 101.549 106.37 101.353L106.75 102ZM108.872 90.0441L108.7 89.3142C108.916 89.2631 109.144 89.3104 109.322 89.4435C109.5 89.5766 109.609 89.7818 109.621 90.0036L108.872 90.0441ZM1.75015 47.1838C1.75015 59.5625 10.2896 70.9051 24.3887 79.1941C38.4703 87.4729 57.9731 92.6176 79.5557 92.6176V94.1176C57.7533 94.1176 37.9783 88.9236 23.6284 80.4872C9.29598 72.061 0.250145 60.3116 0.250145 47.1838H1.75015ZM79.5557 1.75C57.9731 1.75 38.4703 6.89467 24.3887 15.1735C10.2896 23.4625 1.75015 34.805 1.75015 47.1838H0.250145C0.250145 34.0559 9.29598 22.3066 23.6284 13.8804C37.9783 5.44392 57.7533 0.25 79.5557 0.25V1.75ZM157.361 47.1838C157.361 34.805 148.822 23.4625 134.723 15.1735C120.641 6.89467 101.138 1.75 79.5557 1.75V0.25C101.358 0.25 121.133 5.44392 135.483 13.8804C149.815 22.3066 158.861 34.0559 158.861 47.1838H157.361ZM121.808 85.3231C143.393 77.1393 157.361 63.0018 157.361 47.1838H158.861C158.861 63.957 144.119 78.4683 122.34 86.7257L121.808 85.3231ZM106.791 101.104C115.301 96.0082 119.506 90.3966 121.379 85.7444L122.77 86.3045C120.757 91.305 116.308 97.1537 107.561 102.391L106.791 101.104ZM106.502 101.292C106.551 101.275 106.614 101.242 106.688 101.178L107.664 102.317C107.469 102.484 107.247 102.621 106.997 102.708L106.502 101.292ZM107.561 102.391C107.418 102.476 107.274 102.562 107.129 102.647L106.37 101.353C106.511 101.27 106.652 101.187 106.791 101.104L107.561 102.391ZM109.621 90.0036C109.779 92.9214 109.714 95.5906 109.422 97.703C109.276 98.7584 109.07 99.6955 108.796 100.463C108.528 101.216 108.168 101.884 107.664 102.317L106.688 101.178C106.901 100.995 107.15 100.615 107.383 99.9602C107.611 99.3209 107.798 98.492 107.936 97.4973C108.211 95.5095 108.278 92.9422 108.124 90.0845L109.621 90.0036ZM79.5557 92.6176C89.8629 92.6176 99.6995 91.4441 108.7 89.3142L109.045 90.7739C99.9282 92.9314 89.9755 94.1176 79.5557 94.1176V92.6176Z" fill="black"/>
<path d="M38.2412 38.447V43.513C38.2412 43.7397 38.1505 43.9267 37.9692 44.074C37.7992 44.2327 37.6065 44.312 37.3912 44.312C37.2212 44.312 37.0682 44.261 36.9322 44.159C36.7962 44.0683 36.7112 43.938 36.6772 43.768C36.6545 43.6773 36.6489 43.581 36.6602 43.479C36.6715 43.377 36.6772 43.275 36.6772 43.173C36.6659 41.711 36.6659 40.2547 36.6772 38.804C36.6885 37.3533 36.6659 35.8913 36.6092 34.418C36.5752 33.4207 36.5242 32.4403 36.4562 31.477C36.4335 31.2617 36.4109 31.052 36.3882 30.848C36.3655 30.6327 36.3542 30.4117 36.3542 30.185C36.3542 29.9583 36.4392 29.7713 36.6092 29.624C36.7905 29.4653 36.9889 29.386 37.2042 29.386C37.5215 29.386 37.7425 29.5163 37.8672 29.777C37.9239 29.879 37.9522 30.032 37.9522 30.236C37.9635 30.44 37.9749 30.6043 37.9862 30.729C38.0089 31.069 38.0259 31.409 38.0372 31.749C38.0599 32.089 38.0825 32.429 38.1052 32.769H38.3262L39.7032 32.735H40.3832C40.5759 32.735 40.7402 32.7973 40.8762 32.922C41.0235 33.0467 41.0972 33.211 41.0972 33.415C41.0972 33.7097 40.9839 33.9193 40.7572 34.044C40.5305 34.1687 40.2869 34.231 40.0262 34.231H39.7032L39.0912 34.248H38.1732C38.1959 34.69 38.2072 35.132 38.2072 35.574C38.2072 36.016 38.2129 36.4637 38.2242 36.917C38.5529 36.9283 38.8759 36.9397 39.1932 36.951C39.5105 36.9623 39.8335 36.9793 40.1622 37.002C40.2869 37.002 40.4115 37.0077 40.5362 37.019C40.6609 37.0303 40.7742 37.0587 40.8762 37.104C40.9782 37.1493 41.0632 37.2173 41.1312 37.308C41.1992 37.3987 41.2332 37.5233 41.2332 37.682C41.2332 37.9087 41.1425 38.1013 40.9612 38.26C40.7912 38.4187 40.5985 38.498 40.3832 38.498C39.6692 38.498 38.9552 38.481 38.2412 38.447ZM26.2562 35.659C26.2562 35.115 26.3185 34.5427 26.4432 33.942C26.5679 33.33 26.7379 32.769 26.9532 32.259C27.0892 31.9303 27.2649 31.6073 27.4802 31.29C27.7069 30.9727 27.9562 30.695 28.2282 30.457C28.5115 30.2077 28.8232 30.0093 29.1632 29.862C29.5032 29.7033 29.8659 29.624 30.2512 29.624C31.0672 29.624 31.7359 29.8393 32.2572 30.27C32.7785 30.6893 33.1922 31.222 33.4982 31.868C33.8042 32.5027 34.0139 33.194 34.1272 33.942C34.2405 34.69 34.2972 35.387 34.2972 36.033C34.2972 36.5883 34.2235 37.206 34.0762 37.886C33.9289 38.5547 33.6965 39.1837 33.3792 39.773C33.0619 40.3623 32.6595 40.8553 32.1722 41.252C31.6849 41.6487 31.1012 41.847 30.4212 41.847C29.7752 41.847 29.2142 41.7053 28.7382 41.422C28.2622 41.1273 27.8542 40.7533 27.5142 40.3C27.1855 39.8353 26.9249 39.3197 26.7322 38.753C26.5395 38.1863 26.4092 37.6253 26.3412 37.07C26.3072 36.832 26.2845 36.5997 26.2732 36.373C26.2619 36.135 26.2562 35.897 26.2562 35.659ZM30.1152 31.12C29.9112 31.12 29.7355 31.1597 29.5882 31.239C29.4409 31.3183 29.2992 31.4317 29.1632 31.579C28.9252 31.8057 28.7212 32.0833 28.5512 32.412C28.3925 32.7293 28.2565 33.0693 28.1432 33.432C28.0299 33.7833 27.9449 34.1403 27.8882 34.503C27.8429 34.8657 27.8202 35.2057 27.8202 35.523C27.8202 35.727 27.8259 35.931 27.8372 36.135C27.8485 36.3277 27.8655 36.526 27.8882 36.73C27.9335 37.0813 28.0185 37.4667 28.1432 37.886C28.2679 38.3053 28.4379 38.702 28.6532 39.076C28.8685 39.4387 29.1292 39.7447 29.4352 39.994C29.7525 40.232 30.1265 40.351 30.5572 40.351C30.6139 40.351 30.6705 40.351 30.7272 40.351C30.7952 40.351 30.8575 40.3397 30.9142 40.317C31.1182 40.249 31.3052 40.1243 31.4752 39.943C31.6452 39.7503 31.7982 39.535 31.9342 39.297C32.0702 39.059 32.1835 38.8153 32.2742 38.566C32.3762 38.3167 32.4555 38.0957 32.5122 37.903C32.5802 37.6197 32.6312 37.3363 32.6652 37.053C32.7105 36.7583 32.7332 36.4637 32.7332 36.169C32.7332 35.761 32.6992 35.268 32.6312 34.69C32.5632 34.112 32.4329 33.5623 32.2402 33.041C32.0589 32.5083 31.7925 32.055 31.4412 31.681C31.1012 31.307 30.6592 31.12 30.1152 31.12ZM49.2479 34.69C49.0552 34.69 48.8852 34.6277 48.7379 34.503C48.6019 34.3783 48.5339 34.214 48.5339 34.01C48.5339 33.7947 48.6132 33.6133 48.7719 33.466C48.9306 33.3187 49.1119 33.2337 49.3159 33.211C49.3839 33.1997 49.4519 33.194 49.5199 33.194C49.5879 33.194 49.6559 33.194 49.7239 33.194C50.8232 33.194 51.9112 33.177 52.9879 33.143C54.0646 33.109 55.1526 33.092 56.2519 33.092C56.5806 33.092 56.8412 33.143 57.0339 33.245C57.2266 33.347 57.3739 33.4887 57.4759 33.67C57.5892 33.8513 57.6629 34.061 57.6969 34.299C57.7422 34.537 57.7706 34.792 57.7819 35.064C57.7932 35.2453 57.7989 35.4267 57.7989 35.608C57.7989 35.7893 57.7989 35.9707 57.7989 36.152C57.7989 36.254 57.7989 36.4297 57.7989 36.679C57.7989 36.917 57.7989 37.189 57.7989 37.495C57.7989 37.801 57.7932 38.124 57.7819 38.464C57.7819 38.7927 57.7762 39.1043 57.7649 39.399C57.7536 39.6823 57.7366 39.926 57.7139 40.13C57.7026 40.334 57.6856 40.4643 57.6629 40.521C57.5949 40.6797 57.4872 40.81 57.3399 40.912C57.1926 41.0027 57.0339 41.048 56.8639 41.048C56.6712 41.048 56.5012 40.9857 56.3539 40.861C56.2179 40.7363 56.1499 40.572 56.1499 40.368C56.1499 40.1867 56.1499 40.011 56.1499 39.841C56.1612 39.6597 56.1726 39.4783 56.1839 39.297C56.1839 39.2403 56.1839 39.1837 56.1839 39.127C56.1952 39.0703 56.2009 39.0137 56.2009 38.957V38.294C56.2009 38.2373 56.2009 38.1807 56.2009 38.124C56.2122 38.0673 56.2179 38.0107 56.2179 37.954C56.0139 37.9653 55.7816 37.9767 55.5209 37.988C55.2716 37.9993 55.0222 38.0107 54.7729 38.022C54.5236 38.022 54.2969 38.0277 54.0929 38.039C53.9002 38.039 53.7586 38.039 53.6679 38.039L50.9139 38.141C50.6872 38.1523 50.4662 38.1637 50.2509 38.175C50.0356 38.1863 49.8146 38.192 49.5879 38.192C49.3952 38.192 49.2252 38.1297 49.0779 38.005C48.9419 37.8803 48.8739 37.716 48.8739 37.512C48.8739 37.342 48.9249 37.189 49.0269 37.053C49.1289 36.917 49.2592 36.8207 49.4179 36.764C49.4972 36.73 49.7012 36.7073 50.0299 36.696C50.3699 36.6733 50.7212 36.6563 51.0839 36.645C51.4579 36.6223 51.7922 36.611 52.0869 36.611C52.3816 36.5997 52.5346 36.594 52.5459 36.594C53.1579 36.5713 53.7699 36.5487 54.3819 36.526C55.0052 36.492 55.6229 36.4693 56.2349 36.458V35.829C56.2349 35.625 56.2292 35.421 56.2179 35.217C56.2066 35.013 56.1782 34.809 56.1329 34.605H55.4699C54.4272 34.605 53.3902 34.622 52.3589 34.656C51.3276 34.6787 50.2906 34.69 49.2479 34.69ZM64.5545 34.69C64.3619 34.69 64.1919 34.6277 64.0445 34.503C63.9085 34.3783 63.8405 34.214 63.8405 34.01C63.8405 33.7947 63.9199 33.6133 64.0785 33.466C64.2372 33.3187 64.4185 33.2337 64.6225 33.211C64.6905 33.1997 64.7585 33.194 64.8265 33.194C64.8945 33.194 64.9625 33.194 65.0305 33.194C66.1299 33.194 67.2179 33.177 68.2945 33.143C69.3712 33.109 70.4592 33.092 71.5585 33.092C71.8872 33.092 72.1479 33.143 72.3405 33.245C72.5332 33.347 72.6805 33.4887 72.7825 33.67C72.8959 33.8513 72.9695 34.061 73.0035 34.299C73.0489 34.537 73.0772 34.792 73.0885 35.064C73.0999 35.2453 73.1055 35.4267 73.1055 35.608C73.1055 35.7893 73.1055 35.9707 73.1055 36.152C73.1055 36.254 73.1055 36.4297 73.1055 36.679C73.1055 36.917 73.1055 37.189 73.1055 37.495C73.1055 37.801 73.0999 38.124 73.0885 38.464C73.0885 38.7927 73.0829 39.1043 73.0715 39.399C73.0602 39.6823 73.0432 39.926 73.0205 40.13C73.0092 40.334 72.9922 40.4643 72.9695 40.521C72.9015 40.6797 72.7939 40.81 72.6465 40.912C72.4992 41.0027 72.3405 41.048 72.1705 41.048C71.9779 41.048 71.8079 40.9857 71.6605 40.861C71.5245 40.7363 71.4565 40.572 71.4565 40.368C71.4565 40.1867 71.4565 40.011 71.4565 39.841C71.4679 39.6597 71.4792 39.4783 71.4905 39.297C71.4905 39.2403 71.4905 39.1837 71.4905 39.127C71.5019 39.0703 71.5075 39.0137 71.5075 38.957V38.294C71.5075 38.2373 71.5075 38.1807 71.5075 38.124C71.5189 38.0673 71.5245 38.0107 71.5245 37.954C71.3205 37.9653 71.0882 37.9767 70.8275 37.988C70.5782 37.9993 70.3289 38.0107 70.0795 38.022C69.8302 38.022 69.6035 38.0277 69.3995 38.039C69.2069 38.039 69.0652 38.039 68.9745 38.039L66.2205 38.141C65.9939 38.1523 65.7729 38.1637 65.5575 38.175C65.3422 38.1863 65.1212 38.192 64.8945 38.192C64.7019 38.192 64.5319 38.1297 64.3845 38.005C64.2485 37.8803 64.1805 37.716 64.1805 37.512C64.1805 37.342 64.2315 37.189 64.3335 37.053C64.4355 36.917 64.5659 36.8207 64.7245 36.764C64.8039 36.73 65.0079 36.7073 65.3365 36.696C65.6765 36.6733 66.0279 36.6563 66.3905 36.645C66.7645 36.6223 67.0989 36.611 67.3935 36.611C67.6882 36.5997 67.8412 36.594 67.8525 36.594C68.4645 36.5713 69.0765 36.5487 69.6885 36.526C70.3119 36.492 70.9295 36.4693 71.5415 36.458V35.829C71.5415 35.625 71.5359 35.421 71.5245 35.217C71.5132 35.013 71.4849 34.809 71.4395 34.605H70.7765C69.7339 34.605 68.6969 34.622 67.6655 34.656C66.6342 34.6787 65.5972 34.69 64.5545 34.69ZM79.8612 34.69C79.6685 34.69 79.4985 34.6277 79.3512 34.503C79.2152 34.3783 79.1472 34.214 79.1472 34.01C79.1472 33.7947 79.2265 33.6133 79.3852 33.466C79.5439 33.3187 79.7252 33.2337 79.9292 33.211C79.9972 33.1997 80.0652 33.194 80.1332 33.194C80.2012 33.194 80.2692 33.194 80.3372 33.194C81.4365 33.194 82.5245 33.177 83.6012 33.143C84.6779 33.109 85.7659 33.092 86.8652 33.092C87.1939 33.092 87.4545 33.143 87.6472 33.245C87.8399 33.347 87.9872 33.4887 88.0892 33.67C88.2025 33.8513 88.2762 34.061 88.3102 34.299C88.3555 34.537 88.3839 34.792 88.3952 35.064C88.4065 35.2453 88.4122 35.4267 88.4122 35.608C88.4122 35.7893 88.4122 35.9707 88.4122 36.152C88.4122 36.254 88.4122 36.4297 88.4122 36.679C88.4122 36.917 88.4122 37.189 88.4122 37.495C88.4122 37.801 88.4065 38.124 88.3952 38.464C88.3952 38.7927 88.3895 39.1043 88.3782 39.399C88.3669 39.6823 88.3499 39.926 88.3272 40.13C88.3159 40.334 88.2989 40.4643 88.2762 40.521C88.2082 40.6797 88.1005 40.81 87.9532 40.912C87.8059 41.0027 87.6472 41.048 87.4772 41.048C87.2845 41.048 87.1145 40.9857 86.9672 40.861C86.8312 40.7363 86.7632 40.572 86.7632 40.368C86.7632 40.1867 86.7632 40.011 86.7632 39.841C86.7745 39.6597 86.7859 39.4783 86.7972 39.297C86.7972 39.2403 86.7972 39.1837 86.7972 39.127C86.8085 39.0703 86.8142 39.0137 86.8142 38.957V38.294C86.8142 38.2373 86.8142 38.1807 86.8142 38.124C86.8255 38.0673 86.8312 38.0107 86.8312 37.954C86.6272 37.9653 86.3949 37.9767 86.1342 37.988C85.8849 37.9993 85.6355 38.0107 85.3862 38.022C85.1369 38.022 84.9102 38.0277 84.7062 38.039C84.5135 38.039 84.3719 38.039 84.2812 38.039L81.5272 38.141C81.3005 38.1523 81.0795 38.1637 80.8642 38.175C80.6489 38.1863 80.4279 38.192 80.2012 38.192C80.0085 38.192 79.8385 38.1297 79.6912 38.005C79.5552 37.8803 79.4872 37.716 79.4872 37.512C79.4872 37.342 79.5382 37.189 79.6402 37.053C79.7422 36.917 79.8725 36.8207 80.0312 36.764C80.1105 36.73 80.3145 36.7073 80.6432 36.696C80.9832 36.6733 81.3345 36.6563 81.6972 36.645C82.0712 36.6223 82.4055 36.611 82.7002 36.611C82.9949 36.5997 83.1479 36.594 83.1592 36.594C83.7712 36.5713 84.3832 36.5487 84.9952 36.526C85.6185 36.492 86.2362 36.4693 86.8482 36.458V35.829C86.8482 35.625 86.8425 35.421 86.8312 35.217C86.8199 35.013 86.7915 34.809 86.7462 34.605H86.0832C85.0405 34.605 84.0035 34.622 82.9722 34.656C81.9409 34.6787 80.9039 34.69 79.8612 34.69ZM94.6918 32.752C94.6918 32.2873 94.7825 31.8283 94.9638 31.375C95.1452 30.9217 95.4115 30.542 95.7628 30.236C95.8988 30.1113 96.0405 30.0093 96.1878 29.93C96.3352 29.8393 96.4882 29.7487 96.6468 29.658C96.8622 29.5447 97.0775 29.4483 97.2928 29.369C97.5082 29.2897 97.7292 29.2217 97.9558 29.165C98.2505 29.1083 98.5508 29.0687 98.8568 29.046C99.1628 29.012 99.4688 28.995 99.7748 28.995C100.353 28.995 100.925 29.0573 101.492 29.182C102.058 29.3067 102.568 29.5107 103.022 29.794C103.475 30.0773 103.838 30.4513 104.11 30.916C104.393 31.3693 104.535 31.9303 104.535 32.599C104.535 32.837 104.501 33.075 104.433 33.313C104.365 33.5397 104.28 33.7607 104.178 33.976C103.974 34.3727 103.719 34.7013 103.413 34.962C103.107 35.2227 102.767 35.4323 102.393 35.591C102.03 35.7383 101.639 35.846 101.22 35.914C100.812 35.9707 100.404 35.999 99.9958 35.999C99.4972 35.999 98.9418 35.948 98.3298 35.846C97.7178 35.744 97.1398 35.5683 96.5958 35.319C96.0632 35.0697 95.6098 34.741 95.2358 34.333C94.8732 33.9137 94.6918 33.3867 94.6918 32.752ZM99.6218 30.474C99.1912 30.474 98.7832 30.508 98.3978 30.576C98.0125 30.644 97.6215 30.7743 97.2248 30.967C97.1342 31.0237 97.0435 31.0803 96.9528 31.137C96.8622 31.1823 96.7828 31.2447 96.7148 31.324C96.5675 31.4827 96.4542 31.681 96.3748 31.919C96.2955 32.157 96.2558 32.378 96.2558 32.582C96.2558 32.9673 96.4032 33.2847 96.6978 33.534C97.0038 33.7833 97.3608 33.9817 97.7688 34.129C98.1882 34.265 98.6188 34.3613 99.0608 34.418C99.5028 34.4747 99.8655 34.503 100.149 34.503C100.341 34.503 100.551 34.4973 100.778 34.486C101.016 34.4633 101.248 34.4237 101.475 34.367C101.701 34.3103 101.911 34.231 102.104 34.129C102.308 34.027 102.472 33.891 102.597 33.721C102.699 33.5737 102.784 33.4207 102.852 33.262C102.92 33.092 102.954 32.9107 102.954 32.718C102.954 32.4687 102.914 32.2307 102.835 32.004C102.755 31.766 102.631 31.5507 102.461 31.358C102.313 31.1993 102.121 31.0633 101.883 30.95C101.645 30.8367 101.395 30.746 101.135 30.678C100.874 30.61 100.608 30.559 100.336 30.525C100.075 30.491 99.8372 30.474 99.6218 30.474ZM98.8908 39.467V39.229C97.9728 39.229 97.0548 39.2347 96.1368 39.246C95.2302 39.246 94.3178 39.246 93.3998 39.246C93.2752 39.246 93.1335 39.246 92.9748 39.246C92.8162 39.246 92.6688 39.229 92.5328 39.195C92.3968 39.161 92.2835 39.0987 92.1928 39.008C92.1022 38.906 92.0568 38.7587 92.0568 38.566C92.0568 38.3847 92.1135 38.226 92.2268 38.09C92.3402 37.954 92.4762 37.8577 92.6348 37.801C92.6802 37.7783 92.7198 37.767 92.7538 37.767C92.7992 37.767 92.8388 37.7613 92.8728 37.75C93.2355 37.7273 93.6038 37.7217 93.9778 37.733C94.3518 37.7443 94.7202 37.75 95.0828 37.75H96.8508L100.37 37.733H102.121C102.189 37.733 102.33 37.733 102.546 37.733C102.761 37.733 103.01 37.733 103.294 37.733C103.577 37.733 103.872 37.7387 104.178 37.75C104.495 37.75 104.79 37.7557 105.062 37.767C105.334 37.767 105.566 37.7727 105.759 37.784C105.951 37.7953 106.065 37.8067 106.099 37.818C106.393 37.9427 106.541 38.1523 106.541 38.447C106.541 38.6737 106.45 38.8663 106.269 39.025C106.099 39.1837 105.906 39.263 105.691 39.263C104.818 39.263 103.945 39.2573 103.073 39.246C102.211 39.2347 101.344 39.229 100.472 39.229V39.773C100.472 40.317 100.472 40.8497 100.472 41.371C100.472 41.8923 100.483 42.4193 100.506 42.952C100.517 43.0767 100.523 43.1957 100.523 43.309C100.534 43.4337 100.54 43.5583 100.54 43.683C100.54 43.9097 100.449 44.1023 100.268 44.261C100.098 44.4197 99.9052 44.499 99.6898 44.499C99.5538 44.499 99.4235 44.465 99.2988 44.397C99.1742 44.329 99.0835 44.227 99.0268 44.091C99.0042 44.0343 98.9815 43.8927 98.9588 43.666C98.9475 43.4507 98.9362 43.19 98.9248 42.884C98.9135 42.578 98.9022 42.2493 98.8908 41.898C98.8908 41.5353 98.8908 41.1953 98.8908 40.878C98.8908 40.5493 98.8908 40.2603 98.8908 40.011C98.8908 39.7503 98.8908 39.569 98.8908 39.467ZM108.442 38.838C108.442 37.9653 108.447 37.104 108.459 36.254C108.481 35.3927 108.504 34.5257 108.527 33.653L108.578 31.562C108.589 31.4033 108.589 31.239 108.578 31.069C108.578 30.899 108.589 30.7347 108.612 30.576C108.612 30.508 108.629 30.4457 108.663 30.389C108.731 30.2303 108.833 30.1 108.969 29.998C109.116 29.8847 109.28 29.828 109.462 29.828C109.654 29.828 109.819 29.8903 109.955 30.015C110.102 30.1397 110.176 30.304 110.176 30.508C110.176 30.8707 110.17 31.239 110.159 31.613C110.147 31.987 110.136 32.361 110.125 32.735C110.102 33.7323 110.079 34.724 110.057 35.71C110.034 36.6847 110.023 37.6707 110.023 38.668C110.023 38.804 110.028 38.9513 110.04 39.11C110.062 39.2687 110.102 39.4103 110.159 39.535C110.249 39.7277 110.346 39.8467 110.448 39.892C110.561 39.9373 110.72 39.9657 110.924 39.977C111.014 39.9883 111.105 39.994 111.196 39.994C111.286 39.994 111.377 39.994 111.468 39.994C112.386 39.994 113.292 39.9657 114.188 39.909C115.094 39.841 116.001 39.7673 116.908 39.688C117.134 39.6653 117.355 39.6427 117.571 39.62C117.797 39.586 118.024 39.5577 118.251 39.535H118.285C118.285 38.1863 118.268 36.8433 118.234 35.506C118.211 34.1687 118.154 32.8257 118.064 31.477C118.041 31.2617 118.018 31.052 117.996 30.848C117.973 30.6327 117.962 30.4117 117.962 30.185C117.962 29.9583 118.047 29.7713 118.217 29.624C118.398 29.4653 118.596 29.386 118.812 29.386C119.129 29.386 119.35 29.5163 119.475 29.777C119.531 29.879 119.56 30.032 119.56 30.236C119.571 30.44 119.582 30.6043 119.594 30.729C119.616 31.069 119.633 31.409 119.645 31.749C119.667 32.089 119.69 32.429 119.713 32.769H119.985L121.498 32.735H122.246C122.438 32.735 122.603 32.7973 122.739 32.922C122.886 33.0467 122.96 33.211 122.96 33.415C122.96 33.585 122.926 33.721 122.858 33.823C122.79 33.925 122.699 34.01 122.586 34.078C122.472 34.1347 122.348 34.1743 122.212 34.197C122.076 34.2197 121.94 34.231 121.804 34.231H121.481L120.835 34.248H119.781C119.803 34.69 119.815 35.132 119.815 35.574C119.815 36.016 119.82 36.4637 119.832 36.917C120.194 36.9283 120.551 36.9397 120.903 36.951C121.254 36.9623 121.605 36.9793 121.957 37.002C122.081 37.002 122.212 37.0077 122.348 37.019C122.484 37.019 122.603 37.0417 122.705 37.087C122.818 37.1323 122.909 37.2003 122.977 37.291C123.056 37.3817 123.096 37.512 123.096 37.682C123.096 37.9087 123.005 38.1013 122.824 38.26C122.654 38.4187 122.461 38.498 122.246 38.498C121.441 38.498 120.642 38.481 119.849 38.447V43.513C119.849 43.7397 119.758 43.9267 119.577 44.074C119.407 44.2327 119.214 44.312 118.999 44.312C118.829 44.312 118.676 44.261 118.54 44.159C118.404 44.0683 118.319 43.938 118.285 43.768C118.262 43.6773 118.256 43.581 118.268 43.479C118.279 43.377 118.285 43.275 118.285 43.173V41.031C117.956 41.0763 117.571 41.1217 117.129 41.167C116.698 41.201 116.233 41.235 115.735 41.269C115.247 41.303 114.754 41.3313 114.256 41.354C113.757 41.3767 113.287 41.3993 112.845 41.422C112.414 41.4333 112.023 41.4447 111.672 41.456C111.332 41.4673 111.071 41.473 110.89 41.473C110.04 41.473 109.416 41.2407 109.02 40.776C108.634 40.3 108.442 39.654 108.442 38.838ZM125.742 33.228C125.742 33.3527 125.765 33.4773 125.81 33.602C125.856 33.7267 125.878 33.8513 125.878 33.976C125.878 34.2027 125.793 34.3953 125.623 34.554C125.453 34.7127 125.255 34.792 125.028 34.792C124.756 34.792 124.569 34.707 124.467 34.537C124.365 34.367 124.286 34.1687 124.229 33.942C124.207 33.8513 124.19 33.7663 124.178 33.687C124.167 33.5963 124.161 33.5057 124.161 33.415C124.161 32.7917 124.263 32.242 124.467 31.766C124.683 31.29 124.977 30.8933 125.351 30.576C125.725 30.2587 126.167 30.0207 126.677 29.862C127.187 29.7033 127.743 29.624 128.343 29.624C128.944 29.624 129.499 29.6977 130.009 29.845C130.519 29.9923 130.956 30.219 131.318 30.525C131.692 30.8197 131.981 31.1993 132.185 31.664C132.401 32.1287 132.508 32.684 132.508 33.33C132.508 33.4547 132.491 33.585 132.457 33.721C132.435 33.8457 132.401 33.9703 132.355 34.095C132.253 34.3783 132.112 34.622 131.93 34.826C131.749 35.0187 131.545 35.1943 131.318 35.353C131.092 35.5117 130.854 35.659 130.604 35.795C130.355 35.9197 130.111 36.0557 129.873 36.203C129.783 36.2597 129.669 36.3333 129.533 36.424C129.409 36.5147 129.318 36.6053 129.261 36.696C129.216 36.7753 129.188 36.849 129.176 36.917C129.165 36.985 129.159 37.0643 129.159 37.155C129.159 37.393 129.165 37.6367 129.176 37.886C129.188 38.124 129.205 38.362 129.227 38.6C129.239 38.736 129.25 38.8777 129.261 39.025C129.273 39.161 129.278 39.297 129.278 39.433C129.278 39.6597 129.193 39.8523 129.023 40.011C128.853 40.1697 128.655 40.249 128.428 40.249C128.27 40.249 128.122 40.2037 127.986 40.113C127.862 40.011 127.777 39.8807 127.731 39.722C127.697 39.586 127.675 39.4217 127.663 39.229C127.663 39.025 127.658 38.8493 127.646 38.702C127.612 38.226 127.595 37.7557 127.595 37.291C127.595 36.8717 127.675 36.5147 127.833 36.22C128.003 35.914 128.213 35.659 128.462 35.455C128.712 35.2397 128.978 35.0583 129.261 34.911C129.556 34.7523 129.828 34.5993 130.077 34.452C130.327 34.3047 130.531 34.1573 130.689 34.01C130.859 33.8513 130.944 33.6643 130.944 33.449C130.944 32.8597 130.82 32.3893 130.57 32.038C130.321 31.6867 129.907 31.4317 129.329 31.273C128.955 31.171 128.57 31.12 128.173 31.12C127.811 31.12 127.476 31.1597 127.17 31.239C126.876 31.307 126.621 31.426 126.405 31.596C126.201 31.7547 126.037 31.97 125.912 32.242C125.799 32.5027 125.742 32.8313 125.742 33.228ZM128.394 43.343C128.292 43.343 128.168 43.3147 128.02 43.258C127.828 43.2127 127.669 43.1277 127.544 43.003C127.42 42.8897 127.357 42.731 127.357 42.527C127.357 42.2437 127.471 42.0113 127.697 41.83C127.935 41.6373 128.185 41.541 128.445 41.541C128.695 41.541 128.904 41.626 129.074 41.796C129.244 41.966 129.329 42.1813 129.329 42.442C129.329 42.6913 129.233 42.901 129.04 43.071C128.859 43.2523 128.644 43.343 128.394 43.343ZM18.6484 53.752C18.6484 53.2873 18.739 52.8283 18.9204 52.375C19.1017 51.9217 19.368 51.542 19.7194 51.236C19.8554 51.1113 19.997 51.0093 20.1444 50.93C20.2917 50.8393 20.4447 50.7487 20.6034 50.658C20.8187 50.5447 21.034 50.4483 21.2494 50.369C21.4647 50.2897 21.6857 50.2217 21.9124 50.165C22.207 50.1083 22.5074 50.0687 22.8134 50.046C23.1194 50.012 23.4254 49.995 23.7314 49.995C24.3094 49.995 24.8817 50.0573 25.4484 50.182C26.015 50.3067 26.525 50.5107 26.9784 50.794C27.4317 51.0773 27.7944 51.4513 28.0664 51.916C28.3497 52.3693 28.4914 52.9303 28.4914 53.599C28.4914 53.837 28.4574 54.075 28.3894 54.313C28.3214 54.5397 28.2364 54.7607 28.1344 54.976C27.9304 55.3727 27.6754 55.7013 27.3694 55.962C27.0634 56.2227 26.7234 56.4323 26.3494 56.591C25.9867 56.7383 25.5957 56.846 25.1764 56.914C24.7684 56.9707 24.3604 56.999 23.9524 56.999C23.4537 56.999 22.8984 56.948 22.2864 56.846C21.6744 56.744 21.0964 56.5683 20.5524 56.319C20.0197 56.0697 19.5664 55.741 19.1924 55.333C18.8297 54.9137 18.6484 54.3867 18.6484 53.752ZM23.5784 51.474C23.1477 51.474 22.7397 51.508 22.3544 51.576C21.969 51.644 21.578 51.7743 21.1814 51.967C21.0907 52.0237 21 52.0803 20.9094 52.137C20.8187 52.1823 20.7394 52.2447 20.6714 52.324C20.524 52.4827 20.4107 52.681 20.3314 52.919C20.252 53.157 20.2124 53.378 20.2124 53.582C20.2124 53.9673 20.3597 54.2847 20.6544 54.534C20.9604 54.7833 21.3174 54.9817 21.7254 55.129C22.1447 55.265 22.5754 55.3613 23.0174 55.418C23.4594 55.4747 23.822 55.503 24.1054 55.503C24.298 55.503 24.5077 55.4973 24.7344 55.486C24.9724 55.4633 25.2047 55.4237 25.4314 55.367C25.658 55.3103 25.8677 55.231 26.0604 55.129C26.2644 55.027 26.4287 54.891 26.5534 54.721C26.6554 54.5737 26.7404 54.4207 26.8084 54.262C26.8764 54.092 26.9104 53.9107 26.9104 53.718C26.9104 53.4687 26.8707 53.2307 26.7914 53.004C26.712 52.766 26.5874 52.5507 26.4174 52.358C26.27 52.1993 26.0774 52.0633 25.8394 51.95C25.6014 51.8367 25.352 51.746 25.0914 51.678C24.8307 51.61 24.5644 51.559 24.2924 51.525C24.0317 51.491 23.7937 51.474 23.5784 51.474ZM22.8474 60.467V60.229C21.9294 60.229 21.0114 60.2347 20.0934 60.246C19.1867 60.246 18.2744 60.246 17.3564 60.246C17.2317 60.246 17.09 60.246 16.9314 60.246C16.7727 60.246 16.6254 60.229 16.4894 60.195C16.3534 60.161 16.24 60.0987 16.1494 60.008C16.0587 59.906 16.0134 59.7587 16.0134 59.566C16.0134 59.3847 16.07 59.226 16.1834 59.09C16.2967 58.954 16.4327 58.8577 16.5914 58.801C16.6367 58.7783 16.6764 58.767 16.7104 58.767C16.7557 58.767 16.7954 58.7613 16.8294 58.75C17.192 58.7273 17.5604 58.7217 17.9344 58.733C18.3084 58.7443 18.6767 58.75 19.0394 58.75H20.8074L24.3264 58.733H26.0774C26.1454 58.733 26.287 58.733 26.5024 58.733C26.7177 58.733 26.967 58.733 27.2504 58.733C27.5337 58.733 27.8284 58.7387 28.1344 58.75C28.4517 58.75 28.7464 58.7557 29.0184 58.767C29.2904 58.767 29.5227 58.7727 29.7154 58.784C29.908 58.7953 30.0214 58.8067 30.0554 58.818C30.35 58.9427 30.4974 59.1523 30.4974 59.447C30.4974 59.6737 30.4067 59.8663 30.2254 60.025C30.0554 60.1837 29.8627 60.263 29.6474 60.263C28.7747 60.263 27.902 60.2573 27.0294 60.246C26.168 60.2347 25.301 60.229 24.4284 60.229V60.773C24.4284 61.317 24.4284 61.8497 24.4284 62.371C24.4284 62.8923 24.4397 63.4193 24.4624 63.952C24.4737 64.0767 24.4794 64.1957 24.4794 64.309C24.4907 64.4337 24.4964 64.5583 24.4964 64.683C24.4964 64.9097 24.4057 65.1023 24.2244 65.261C24.0544 65.4197 23.8617 65.499 23.6464 65.499C23.5104 65.499 23.38 65.465 23.2554 65.397C23.1307 65.329 23.04 65.227 22.9834 65.091C22.9607 65.0343 22.938 64.8927 22.9154 64.666C22.904 64.4507 22.8927 64.19 22.8814 63.884C22.87 63.578 22.8587 63.2493 22.8474 62.898C22.8474 62.5353 22.8474 62.1953 22.8474 61.878C22.8474 61.5493 22.8474 61.2603 22.8474 61.011C22.8474 60.7503 22.8474 60.569 22.8474 60.467ZM32.398 59.838C32.398 58.9653 32.4037 58.104 32.415 57.254C32.4377 56.3927 32.4604 55.5257 32.483 54.653L32.534 52.562C32.5454 52.4033 32.5454 52.239 32.534 52.069C32.534 51.899 32.5454 51.7347 32.568 51.576C32.568 51.508 32.585 51.4457 32.619 51.389C32.687 51.2303 32.789 51.1 32.925 50.998C33.0724 50.8847 33.2367 50.828 33.418 50.828C33.6107 50.828 33.775 50.8903 33.911 51.015C34.0584 51.1397 34.132 51.304 34.132 51.508C34.132 51.8707 34.1264 52.239 34.115 52.613C34.1037 52.987 34.0924 53.361 34.081 53.735C34.0584 54.7323 34.0357 55.724 34.013 56.71C33.9904 57.6847 33.979 58.6707 33.979 59.668C33.979 59.804 33.9847 59.9513 33.996 60.11C34.0187 60.2687 34.0584 60.4103 34.115 60.535C34.2057 60.7277 34.302 60.8467 34.404 60.892C34.5174 60.9373 34.676 60.9657 34.88 60.977C34.9707 60.9883 35.0614 60.994 35.152 60.994C35.2427 60.994 35.3334 60.994 35.424 60.994C36.342 60.994 37.2487 60.9657 38.144 60.909C39.0507 60.841 39.9574 60.7673 40.864 60.688C41.0907 60.6653 41.3117 60.6427 41.527 60.62C41.7537 60.586 41.9804 60.5577 42.207 60.535H42.241C42.241 59.1863 42.224 57.8433 42.19 56.506C42.1674 55.1687 42.1107 53.8257 42.02 52.477C41.9974 52.2617 41.9747 52.052 41.952 51.848C41.9294 51.6327 41.918 51.4117 41.918 51.185C41.918 50.9583 42.003 50.7713 42.173 50.624C42.3544 50.4653 42.5527 50.386 42.768 50.386C43.0854 50.386 43.3064 50.5163 43.431 50.777C43.4877 50.879 43.516 51.032 43.516 51.236C43.5274 51.44 43.5387 51.6043 43.55 51.729C43.5727 52.069 43.5897 52.409 43.601 52.749C43.6237 53.089 43.6464 53.429 43.669 53.769H43.941L45.454 53.735H46.202C46.3947 53.735 46.559 53.7973 46.695 53.922C46.8424 54.0467 46.916 54.211 46.916 54.415C46.916 54.585 46.882 54.721 46.814 54.823C46.746 54.925 46.6554 55.01 46.542 55.078C46.4287 55.1347 46.304 55.1743 46.168 55.197C46.032 55.2197 45.896 55.231 45.76 55.231H45.437L44.791 55.248H43.737C43.7597 55.69 43.771 56.132 43.771 56.574C43.771 57.016 43.7767 57.4637 43.788 57.917C44.1507 57.9283 44.5077 57.9397 44.859 57.951C45.2104 57.9623 45.5617 57.9793 45.913 58.002C46.0377 58.002 46.168 58.0077 46.304 58.019C46.44 58.019 46.559 58.0417 46.661 58.087C46.7744 58.1323 46.865 58.2003 46.933 58.291C47.0124 58.3817 47.052 58.512 47.052 58.682C47.052 58.9087 46.9614 59.1013 46.78 59.26C46.61 59.4187 46.4174 59.498 46.202 59.498C45.3974 59.498 44.5984 59.481 43.805 59.447V64.513C43.805 64.7397 43.7144 64.9267 43.533 65.074C43.363 65.2327 43.1704 65.312 42.955 65.312C42.785 65.312 42.632 65.261 42.496 65.159C42.36 65.0683 42.275 64.938 42.241 64.768C42.2184 64.6773 42.2127 64.581 42.224 64.479C42.2354 64.377 42.241 64.275 42.241 64.173V62.031C41.9124 62.0763 41.527 62.1217 41.085 62.167C40.6544 62.201 40.1897 62.235 39.691 62.269C39.2037 62.303 38.7107 62.3313 38.212 62.354C37.7134 62.3767 37.243 62.3993 36.801 62.422C36.3704 62.4333 35.9794 62.4447 35.628 62.456C35.288 62.4673 35.0274 62.473 34.846 62.473C33.996 62.473 33.3727 62.2407 32.976 61.776C32.5907 61.3 32.398 60.654 32.398 59.838ZM56.0907 52.341C55.3087 52.341 54.5324 52.341 53.7617 52.341C52.9911 52.341 52.2147 52.3637 51.4327 52.409C51.1721 52.4317 50.9114 52.46 50.6507 52.494C50.3901 52.5167 50.1294 52.528 49.8687 52.528C49.6761 52.528 49.5061 52.4657 49.3587 52.341C49.2227 52.2163 49.1547 52.052 49.1547 51.848C49.1547 51.678 49.2001 51.5307 49.2907 51.406C49.3927 51.2813 49.5174 51.185 49.6647 51.117C49.7441 51.083 49.9084 51.0547 50.1577 51.032C50.4071 50.998 50.7017 50.9697 51.0417 50.947C51.3817 50.9243 51.7444 50.9073 52.1297 50.896C52.5151 50.8847 52.8834 50.879 53.2347 50.879C53.5974 50.8677 53.9204 50.862 54.2037 50.862C54.4871 50.862 54.6967 50.862 54.8327 50.862C55.2294 50.862 55.6147 50.862 55.9887 50.862C56.3741 50.862 56.7651 50.8733 57.1617 50.896C57.4677 50.896 57.7794 50.9017 58.0967 50.913C58.4254 50.9243 58.7144 50.981 58.9637 51.083C59.2244 51.1737 59.4341 51.3323 59.5927 51.559C59.7627 51.7743 59.8477 52.0917 59.8477 52.511C59.8477 52.6923 59.8364 52.9927 59.8137 53.412C59.8024 53.8313 59.7797 54.313 59.7457 54.857C59.7231 55.3897 59.6891 55.9507 59.6437 56.54C59.6097 57.118 59.5644 57.662 59.5077 58.172C59.4624 58.682 59.4114 59.124 59.3547 59.498C59.3094 59.872 59.2584 60.11 59.2017 60.212C59.1224 60.3593 59.0091 60.4783 58.8617 60.569C58.7257 60.6597 58.5784 60.705 58.4197 60.705C58.2271 60.705 58.0571 60.6427 57.9097 60.518C57.7737 60.3933 57.7057 60.229 57.7057 60.025C57.7057 59.9003 57.7171 59.787 57.7397 59.685C57.7624 59.5717 57.7851 59.4527 57.8077 59.328C57.8417 59.09 57.8701 58.852 57.8927 58.614C57.9267 58.3647 57.9551 58.121 57.9777 57.883C58.0344 57.3503 58.0741 56.8233 58.0967 56.302C58.1307 55.7807 58.1591 55.248 58.1817 54.704C58.2044 54.364 58.2271 54.024 58.2497 53.684C58.2724 53.344 58.2837 53.004 58.2837 52.664V52.613L58.2667 52.511V52.46C57.9041 52.4033 57.5414 52.3693 57.1787 52.358C56.8161 52.3467 56.4534 52.341 56.0907 52.341ZM54.7647 64.666C53.7674 64.666 52.7814 64.666 51.8067 64.666C50.8434 64.6773 49.8687 64.683 48.8827 64.683C48.7581 64.683 48.6164 64.683 48.4577 64.683C48.2991 64.683 48.1517 64.666 48.0157 64.632C47.8797 64.598 47.7664 64.53 47.6757 64.428C47.5851 64.3373 47.5397 64.1957 47.5397 64.003C47.5397 63.8217 47.5964 63.663 47.7097 63.527C47.8231 63.391 47.9591 63.2947 48.1177 63.238C48.1631 63.2153 48.2027 63.204 48.2367 63.204C48.2821 63.204 48.3217 63.1983 48.3557 63.187C48.7184 63.1643 49.0867 63.1587 49.4607 63.17C49.8347 63.1813 50.2031 63.187 50.5657 63.187H52.9287C52.9287 62.473 52.9287 61.7703 52.9287 61.079C52.9401 60.3763 52.9514 59.668 52.9627 58.954C52.9627 58.852 52.9571 58.75 52.9457 58.648C52.9457 58.546 52.9514 58.444 52.9627 58.342C52.9854 58.138 53.0817 57.9623 53.2517 57.815C53.4217 57.6677 53.6087 57.594 53.8127 57.594C54.0054 57.594 54.1697 57.6563 54.3057 57.781C54.4531 57.9057 54.5267 58.07 54.5267 58.274C54.5267 59.056 54.5211 59.838 54.5097 60.62C54.5097 61.402 54.5041 62.184 54.4927 62.966V63.17H57.6037C57.6717 63.17 57.8134 63.17 58.0287 63.17C58.2441 63.17 58.4934 63.17 58.7767 63.17C59.0601 63.17 59.3547 63.17 59.6607 63.17C59.9781 63.1813 60.2727 63.187 60.5447 63.187C60.8167 63.1983 61.0491 63.2097 61.2417 63.221C61.4344 63.2323 61.5477 63.2437 61.5817 63.255C61.8764 63.3797 62.0237 63.5893 62.0237 63.884C62.0237 64.1107 61.9331 64.3033 61.7517 64.462C61.5817 64.6207 61.3891 64.7 61.1737 64.7C60.0971 64.7 59.0261 64.6943 57.9607 64.683C56.8954 64.6717 55.8301 64.666 54.7647 64.666ZM70.7884 55.69C70.5958 55.69 70.4258 55.6277 70.2784 55.503C70.1424 55.3783 70.0744 55.214 70.0744 55.01C70.0744 54.7947 70.1538 54.6133 70.3124 54.466C70.4711 54.3187 70.6524 54.2337 70.8564 54.211C70.9244 54.1997 70.9924 54.194 71.0604 54.194C71.1284 54.194 71.1964 54.194 71.2644 54.194C72.3638 54.194 73.4518 54.177 74.5284 54.143C75.6051 54.109 76.6931 54.092 77.7924 54.092C78.1211 54.092 78.3818 54.143 78.5744 54.245C78.7671 54.347 78.9144 54.4887 79.0164 54.67C79.1298 54.8513 79.2034 55.061 79.2374 55.299C79.2828 55.537 79.3111 55.792 79.3224 56.064C79.3338 56.2453 79.3394 56.4267 79.3394 56.608C79.3394 56.7893 79.3394 56.9707 79.3394 57.152C79.3394 57.254 79.3394 57.4297 79.3394 57.679C79.3394 57.917 79.3394 58.189 79.3394 58.495C79.3394 58.801 79.3338 59.124 79.3224 59.464C79.3224 59.7927 79.3168 60.1043 79.3054 60.399C79.2941 60.6823 79.2771 60.926 79.2544 61.13C79.2431 61.334 79.2261 61.4643 79.2034 61.521C79.1354 61.6797 79.0278 61.81 78.8804 61.912C78.7331 62.0027 78.5744 62.048 78.4044 62.048C78.2118 62.048 78.0418 61.9857 77.8944 61.861C77.7584 61.7363 77.6904 61.572 77.6904 61.368C77.6904 61.1867 77.6904 61.011 77.6904 60.841C77.7018 60.6597 77.7131 60.4783 77.7244 60.297C77.7244 60.2403 77.7244 60.1837 77.7244 60.127C77.7358 60.0703 77.7414 60.0137 77.7414 59.957V59.294C77.7414 59.2373 77.7414 59.1807 77.7414 59.124C77.7528 59.0673 77.7584 59.0107 77.7584 58.954C77.5544 58.9653 77.3221 58.9767 77.0614 58.988C76.8121 58.9993 76.5628 59.0107 76.3134 59.022C76.0641 59.022 75.8374 59.0277 75.6334 59.039C75.4408 59.039 75.2991 59.039 75.2084 59.039L72.4544 59.141C72.2278 59.1523 72.0068 59.1637 71.7914 59.175C71.5761 59.1863 71.3551 59.192 71.1284 59.192C70.9358 59.192 70.7658 59.1297 70.6184 59.005C70.4824 58.8803 70.4144 58.716 70.4144 58.512C70.4144 58.342 70.4654 58.189 70.5674 58.053C70.6694 57.917 70.7998 57.8207 70.9584 57.764C71.0378 57.73 71.2418 57.7073 71.5704 57.696C71.9104 57.6733 72.2618 57.6563 72.6244 57.645C72.9984 57.6223 73.3328 57.611 73.6274 57.611C73.9221 57.5997 74.0751 57.594 74.0864 57.594C74.6984 57.5713 75.3104 57.5487 75.9224 57.526C76.5458 57.492 77.1634 57.4693 77.7754 57.458V56.829C77.7754 56.625 77.7698 56.421 77.7584 56.217C77.7471 56.013 77.7188 55.809 77.6734 55.605H77.0104C75.9678 55.605 74.9308 55.622 73.8994 55.656C72.8681 55.6787 71.8311 55.69 70.7884 55.69ZM86.0951 55.69C85.9024 55.69 85.7324 55.6277 85.5851 55.503C85.4491 55.3783 85.3811 55.214 85.3811 55.01C85.3811 54.7947 85.4604 54.6133 85.6191 54.466C85.7777 54.3187 85.9591 54.2337 86.1631 54.211C86.2311 54.1997 86.2991 54.194 86.3671 54.194C86.4351 54.194 86.5031 54.194 86.5711 54.194C87.6704 54.194 88.7584 54.177 89.8351 54.143C90.9117 54.109 91.9997 54.092 93.0991 54.092C93.4277 54.092 93.6884 54.143 93.8811 54.245C94.0737 54.347 94.2211 54.4887 94.3231 54.67C94.4364 54.8513 94.5101 55.061 94.5441 55.299C94.5894 55.537 94.6177 55.792 94.6291 56.064C94.6404 56.2453 94.6461 56.4267 94.6461 56.608C94.6461 56.7893 94.6461 56.9707 94.6461 57.152C94.6461 57.254 94.6461 57.4297 94.6461 57.679C94.6461 57.917 94.6461 58.189 94.6461 58.495C94.6461 58.801 94.6404 59.124 94.6291 59.464C94.6291 59.7927 94.6234 60.1043 94.6121 60.399C94.6007 60.6823 94.5837 60.926 94.5611 61.13C94.5497 61.334 94.5327 61.4643 94.5101 61.521C94.4421 61.6797 94.3344 61.81 94.1871 61.912C94.0397 62.0027 93.8811 62.048 93.7111 62.048C93.5184 62.048 93.3484 61.9857 93.2011 61.861C93.0651 61.7363 92.9971 61.572 92.9971 61.368C92.9971 61.1867 92.9971 61.011 92.9971 60.841C93.0084 60.6597 93.0197 60.4783 93.0311 60.297C93.0311 60.2403 93.0311 60.1837 93.0311 60.127C93.0424 60.0703 93.0481 60.0137 93.0481 59.957V59.294C93.0481 59.2373 93.0481 59.1807 93.0481 59.124C93.0594 59.0673 93.0651 59.0107 93.0651 58.954C92.8611 58.9653 92.6287 58.9767 92.3681 58.988C92.1187 58.9993 91.8694 59.0107 91.6201 59.022C91.3707 59.022 91.1441 59.0277 90.9401 59.039C90.7474 59.039 90.6057 59.039 90.5151 59.039L87.7611 59.141C87.5344 59.1523 87.3134 59.1637 87.0981 59.175C86.8827 59.1863 86.6617 59.192 86.4351 59.192C86.2424 59.192 86.0724 59.1297 85.9251 59.005C85.7891 58.8803 85.7211 58.716 85.7211 58.512C85.7211 58.342 85.7721 58.189 85.8741 58.053C85.9761 57.917 86.1064 57.8207 86.2651 57.764C86.3444 57.73 86.5484 57.7073 86.8771 57.696C87.2171 57.6733 87.5684 57.6563 87.9311 57.645C88.3051 57.6223 88.6394 57.611 88.9341 57.611C89.2287 57.5997 89.3817 57.594 89.3931 57.594C90.0051 57.5713 90.6171 57.5487 91.2291 57.526C91.8524 57.492 92.4701 57.4693 93.0821 57.458V56.829C93.0821 56.625 93.0764 56.421 93.0651 56.217C93.0537 56.013 93.0254 55.809 92.9801 55.605H92.3171C91.2744 55.605 90.2374 55.622 89.2061 55.656C88.1747 55.6787 87.1377 55.69 86.0951 55.69ZM101.402 55.69C101.209 55.69 101.039 55.6277 100.892 55.503C100.756 55.3783 100.688 55.214 100.688 55.01C100.688 54.7947 100.767 54.6133 100.926 54.466C101.084 54.3187 101.266 54.2337 101.47 54.211C101.538 54.1997 101.606 54.194 101.674 54.194C101.742 54.194 101.81 54.194 101.878 54.194C102.977 54.194 104.065 54.177 105.142 54.143C106.218 54.109 107.306 54.092 108.406 54.092C108.734 54.092 108.995 54.143 109.188 54.245C109.38 54.347 109.528 54.4887 109.63 54.67C109.743 54.8513 109.817 55.061 109.851 55.299C109.896 55.537 109.924 55.792 109.936 56.064C109.947 56.2453 109.953 56.4267 109.953 56.608C109.953 56.7893 109.953 56.9707 109.953 57.152C109.953 57.254 109.953 57.4297 109.953 57.679C109.953 57.917 109.953 58.189 109.953 58.495C109.953 58.801 109.947 59.124 109.936 59.464C109.936 59.7927 109.93 60.1043 109.919 60.399C109.907 60.6823 109.89 60.926 109.868 61.13C109.856 61.334 109.839 61.4643 109.817 61.521C109.749 61.6797 109.641 61.81 109.494 61.912C109.346 62.0027 109.188 62.048 109.018 62.048C108.825 62.048 108.655 61.9857 108.508 61.861C108.372 61.7363 108.304 61.572 108.304 61.368C108.304 61.1867 108.304 61.011 108.304 60.841C108.315 60.6597 108.326 60.4783 108.338 60.297C108.338 60.2403 108.338 60.1837 108.338 60.127C108.349 60.0703 108.355 60.0137 108.355 59.957V59.294C108.355 59.2373 108.355 59.1807 108.355 59.124C108.366 59.0673 108.372 59.0107 108.372 58.954C108.168 58.9653 107.935 58.9767 107.675 58.988C107.425 58.9993 107.176 59.0107 106.927 59.022C106.677 59.022 106.451 59.0277 106.247 59.039C106.054 59.039 105.912 59.039 105.822 59.039L103.068 59.141C102.841 59.1523 102.62 59.1637 102.405 59.175C102.189 59.1863 101.968 59.192 101.742 59.192C101.549 59.192 101.379 59.1297 101.232 59.005C101.096 58.8803 101.028 58.716 101.028 58.512C101.028 58.342 101.079 58.189 101.181 58.053C101.283 57.917 101.413 57.8207 101.572 57.764C101.651 57.73 101.855 57.7073 102.184 57.696C102.524 57.6733 102.875 57.6563 103.238 57.645C103.612 57.6223 103.946 57.611 104.241 57.611C104.535 57.5997 104.688 57.594 104.7 57.594C105.312 57.5713 105.924 57.5487 106.536 57.526C107.159 57.492 107.777 57.4693 108.389 57.458V56.829C108.389 56.625 108.383 56.421 108.372 56.217C108.36 56.013 108.332 55.809 108.287 55.605H107.624C106.581 55.605 105.544 55.622 104.513 55.656C103.481 55.6787 102.444 55.69 101.402 55.69ZM116.708 55.69C116.516 55.69 116.346 55.6277 116.198 55.503C116.062 55.3783 115.994 55.214 115.994 55.01C115.994 54.7947 116.074 54.6133 116.232 54.466C116.391 54.3187 116.572 54.2337 116.776 54.211C116.844 54.1997 116.912 54.194 116.98 54.194C117.048 54.194 117.116 54.194 117.184 54.194C118.284 54.194 119.372 54.177 120.448 54.143C121.525 54.109 122.613 54.092 123.712 54.092C124.041 54.092 124.302 54.143 124.494 54.245C124.687 54.347 124.834 54.4887 124.936 54.67C125.05 54.8513 125.123 55.061 125.157 55.299C125.203 55.537 125.231 55.792 125.242 56.064C125.254 56.2453 125.259 56.4267 125.259 56.608C125.259 56.7893 125.259 56.9707 125.259 57.152C125.259 57.254 125.259 57.4297 125.259 57.679C125.259 57.917 125.259 58.189 125.259 58.495C125.259 58.801 125.254 59.124 125.242 59.464C125.242 59.7927 125.237 60.1043 125.225 60.399C125.214 60.6823 125.197 60.926 125.174 61.13C125.163 61.334 125.146 61.4643 125.123 61.521C125.055 61.6797 124.948 61.81 124.8 61.912C124.653 62.0027 124.494 62.048 124.324 62.048C124.132 62.048 123.962 61.9857 123.814 61.861C123.678 61.7363 123.61 61.572 123.61 61.368C123.61 61.1867 123.61 61.011 123.61 60.841C123.622 60.6597 123.633 60.4783 123.644 60.297C123.644 60.2403 123.644 60.1837 123.644 60.127C123.656 60.0703 123.661 60.0137 123.661 59.957V59.294C123.661 59.2373 123.661 59.1807 123.661 59.124C123.673 59.0673 123.678 59.0107 123.678 58.954C123.474 58.9653 123.242 58.9767 122.981 58.988C122.732 58.9993 122.483 59.0107 122.233 59.022C121.984 59.022 121.757 59.0277 121.553 59.039C121.361 59.039 121.219 59.039 121.128 59.039L118.374 59.141C118.148 59.1523 117.927 59.1637 117.711 59.175C117.496 59.1863 117.275 59.192 117.048 59.192C116.856 59.192 116.686 59.1297 116.538 59.005C116.402 58.8803 116.334 58.716 116.334 58.512C116.334 58.342 116.385 58.189 116.487 58.053C116.589 57.917 116.72 57.8207 116.878 57.764C116.958 57.73 117.162 57.7073 117.49 57.696C117.83 57.6733 118.182 57.6563 118.544 57.645C118.918 57.6223 119.253 57.611 119.547 57.611C119.842 57.5997 119.995 57.594 120.006 57.594C120.618 57.5713 121.23 57.5487 121.842 57.526C122.466 57.492 123.083 57.4693 123.695 57.458V56.829C123.695 56.625 123.69 56.421 123.678 56.217C123.667 56.013 123.639 55.809 123.593 55.605H122.93C121.888 55.605 120.851 55.622 119.819 55.656C118.788 55.6787 117.751 55.69 116.708 55.69ZM132.015 55.69C131.822 55.69 131.652 55.6277 131.505 55.503C131.369 55.3783 131.301 55.214 131.301 55.01C131.301 54.7947 131.38 54.6133 131.539 54.466C131.698 54.3187 131.879 54.2337 132.083 54.211C132.151 54.1997 132.219 54.194 132.287 54.194C132.355 54.194 132.423 54.194 132.491 54.194C133.59 54.194 134.678 54.177 135.755 54.143C136.832 54.109 137.92 54.092 139.019 54.092C139.348 54.092 139.608 54.143 139.801 54.245C139.994 54.347 140.141 54.4887 140.243 54.67C140.356 54.8513 140.43 55.061 140.464 55.299C140.509 55.537 140.538 55.792 140.549 56.064C140.56 56.2453 140.566 56.4267 140.566 56.608C140.566 56.7893 140.566 56.9707 140.566 57.152C140.566 57.254 140.566 57.4297 140.566 57.679C140.566 57.917 140.566 58.189 140.566 58.495C140.566 58.801 140.56 59.124 140.549 59.464C140.549 59.7927 140.543 60.1043 140.532 60.399C140.521 60.6823 140.504 60.926 140.481 61.13C140.47 61.334 140.453 61.4643 140.43 61.521C140.362 61.6797 140.254 61.81 140.107 61.912C139.96 62.0027 139.801 62.048 139.631 62.048C139.438 62.048 139.268 61.9857 139.121 61.861C138.985 61.7363 138.917 61.572 138.917 61.368C138.917 61.1867 138.917 61.011 138.917 60.841C138.928 60.6597 138.94 60.4783 138.951 60.297C138.951 60.2403 138.951 60.1837 138.951 60.127C138.962 60.0703 138.968 60.0137 138.968 59.957V59.294C138.968 59.2373 138.968 59.1807 138.968 59.124C138.979 59.0673 138.985 59.0107 138.985 58.954C138.781 58.9653 138.549 58.9767 138.288 58.988C138.039 58.9993 137.789 59.0107 137.54 59.022C137.291 59.022 137.064 59.0277 136.86 59.039C136.667 59.039 136.526 59.039 136.435 59.039L133.681 59.141C133.454 59.1523 133.233 59.1637 133.018 59.175C132.803 59.1863 132.582 59.192 132.355 59.192C132.162 59.192 131.992 59.1297 131.845 59.005C131.709 58.8803 131.641 58.716 131.641 58.512C131.641 58.342 131.692 58.189 131.794 58.053C131.896 57.917 132.026 57.8207 132.185 57.764C132.264 57.73 132.468 57.7073 132.797 57.696C133.137 57.6733 133.488 57.6563 133.851 57.645C134.225 57.6223 134.559 57.611 134.854 57.611C135.149 57.5997 135.302 57.594 135.313 57.594C135.925 57.5713 136.537 57.5487 137.149 57.526C137.772 57.492 138.39 57.4693 139.002 57.458V56.829C139.002 56.625 138.996 56.421 138.985 56.217C138.974 56.013 138.945 55.809 138.9 55.605H138.237C137.194 55.605 136.157 55.622 135.126 55.656C134.095 55.6787 133.058 55.69 132.015 55.69Z" fill="black"/>
</svg>
