<svg width="114" height="74" viewBox="0 0 114 74" fill="none" xmlns="http://www.w3.org/2000/svg">
<path fill-rule="evenodd" clip-rule="evenodd" d="M57 66.8462C26.0721 66.8462 1 52.106 1 33.9231C1 15.7402 26.0721 1 57 1C87.9279 1 113 15.7402 113 33.9231C113 45.5399 102.766 55.7515 87.3096 61.6117C85.9246 65.0522 82.8402 69.1369 76.6892 72.8197C76.5932 72.9021 76.4919 72.9626 76.3852 73C76.4873 72.94 76.5887 72.8799 76.6892 72.8197C77.7113 71.9428 78.1209 68.5941 77.8985 64.4771C71.441 66.0051 64.3876 66.8462 57 66.8462Z" fill="white"/>
<path d="M87.3096 61.6117L86.6139 61.3316C86.6921 61.1374 86.8479 60.9847 87.0437 60.9104L87.3096 61.6117ZM76.3852 73L76.6329 73.7078C76.2686 73.8354 75.8669 73.6655 75.7046 73.3151C75.5424 72.9648 75.6726 72.5486 76.0055 72.3531L76.3852 73ZM77.8985 64.4771L77.7258 63.7472C77.942 63.6961 78.1698 63.7434 78.3477 63.8765C78.5257 64.0096 78.6354 64.2147 78.6474 64.4366L77.8985 64.4771ZM1.75 33.9231C1.75 42.64 7.76481 50.6674 17.7821 56.5567C27.782 62.4357 41.6459 66.0962 57 66.0962V67.5962C41.4261 67.5962 27.29 63.8865 17.0219 57.8497C6.77121 51.8232 0.25 43.3891 0.25 33.9231H1.75ZM57 1.75C41.6459 1.75 27.782 5.41042 17.7821 11.2895C7.76481 17.1788 1.75 25.2062 1.75 33.9231H0.25C0.25 24.4571 6.77121 16.0229 17.0219 9.9964C27.29 3.95966 41.4261 0.25 57 0.25V1.75ZM112.25 33.9231C112.25 25.2062 106.235 17.1788 96.2179 11.2895C86.218 5.41042 72.3541 1.75 57 1.75V0.25C72.5739 0.25 86.71 3.95966 96.9781 9.9964C107.229 16.0229 113.75 24.4571 113.75 33.9231H112.25ZM87.0437 60.9104C102.403 55.087 112.25 45.0623 112.25 33.9231H113.75C113.75 46.0175 103.129 56.416 87.5755 62.313L87.0437 60.9104ZM76.3039 72.1763C82.3368 68.5642 85.299 64.598 86.6139 61.3316L88.0054 61.8918C86.5503 65.5064 83.3436 69.7096 77.0745 73.4632L76.3039 72.1763ZM76.1374 72.2921C76.1439 72.2898 76.1653 72.281 76.2008 72.2505L77.1776 73.3889C77.0212 73.5231 76.8399 73.6354 76.6329 73.7078L76.1374 72.2921ZM77.0745 73.4632C76.9721 73.5245 76.8689 73.5857 76.7648 73.6468L76.0055 72.3531C76.1058 72.2943 76.2053 72.2353 76.3039 72.1763L77.0745 73.4632ZM78.6474 64.4366C78.7602 66.5252 78.7144 68.4425 78.5034 69.9663C78.3981 70.7273 78.2487 71.4109 78.0471 71.9768C77.8511 72.5271 77.5786 73.0449 77.1776 73.3889L76.2008 72.2505C76.3109 72.1561 76.4728 71.9264 76.6341 71.4735C76.7898 71.0363 76.9206 70.461 77.0176 69.7605C77.2113 68.3615 77.2592 66.546 77.1496 64.5175L78.6474 64.4366ZM57 66.0962C64.3313 66.0962 71.3267 65.2615 77.7258 63.7472L78.0712 65.2069C71.5554 66.7488 64.4439 67.5962 57 67.5962V66.0962Z" fill="black"/>
<path d="M11.6061 33.636C11.6061 33.3413 11.6231 33.0523 11.6571 32.769C11.7024 32.4857 11.7704 32.2023 11.8611 31.919C11.9404 31.681 12.0537 31.4373 12.2011 31.188C12.3484 30.9273 12.5184 30.6837 12.7111 30.457C12.9151 30.2303 13.1304 30.032 13.3571 29.862C13.5837 29.6807 13.8217 29.5503 14.0711 29.471C14.2297 29.4143 14.4167 29.3747 14.6321 29.352C14.8587 29.3293 15.0571 29.318 15.2271 29.318C16.2584 29.318 17.1084 29.5787 17.7771 30.1C18.4571 30.61 18.8991 31.324 19.1031 32.242H19.1371L22.4861 32.225C22.4747 31.851 22.4521 31.477 22.4181 31.103C22.3954 30.729 22.3841 30.3493 22.3841 29.964C22.3841 29.7373 22.4691 29.5447 22.6391 29.386C22.8204 29.2273 23.0187 29.148 23.2341 29.148C23.3927 29.148 23.5401 29.199 23.6761 29.301C23.8121 29.3917 23.8971 29.5163 23.9311 29.675C23.9424 29.743 23.9537 29.8337 23.9651 29.947C23.9764 30.0603 23.9821 30.1793 23.9821 30.304C23.9821 30.4173 23.9821 30.5307 23.9821 30.644C23.9934 30.7573 23.9991 30.848 23.9991 30.916C24.0104 31.188 24.0217 31.46 24.0331 31.732C24.0444 32.004 24.0501 32.276 24.0501 32.548C24.0501 32.7747 24.0444 33.0013 24.0331 33.228C24.0331 33.4433 24.0274 33.6643 24.0161 33.891L23.9651 35.251C23.9537 35.5683 23.9481 35.8913 23.9481 36.22C23.9594 36.5373 23.9367 36.8547 23.8801 37.172C23.8574 37.2627 23.8347 37.3363 23.8121 37.393C23.7327 37.5403 23.6194 37.6593 23.4721 37.75C23.3361 37.8407 23.1887 37.886 23.0301 37.886C22.8374 37.886 22.6674 37.8237 22.5201 37.699C22.3841 37.5743 22.3161 37.41 22.3161 37.206C22.3161 37.0587 22.3217 36.9113 22.3331 36.764C22.3444 36.6167 22.3557 36.4637 22.3671 36.305C22.3897 35.8743 22.4067 35.4493 22.4181 35.03C22.4407 34.5993 22.4521 34.1687 22.4521 33.738H19.2051C19.1711 34.2933 19.0464 34.809 18.8311 35.285C18.6837 35.591 18.4797 35.8743 18.2191 36.135C17.9584 36.3957 17.6694 36.6223 17.3521 36.815C17.0347 36.9963 16.7004 37.138 16.3491 37.24C15.9977 37.342 15.6521 37.393 15.3121 37.393C14.7454 37.393 14.2297 37.3023 13.7651 37.121C13.3117 36.9397 12.9207 36.6847 12.5921 36.356C12.2747 36.0273 12.0311 35.6363 11.8611 35.183C11.6911 34.7183 11.6061 34.2027 11.6061 33.636ZM15.0741 30.814C14.9834 30.814 14.8814 30.814 14.7681 30.814C14.6661 30.814 14.5697 30.8253 14.4791 30.848C14.3884 30.8707 14.3091 30.9103 14.2411 30.967C14.1844 31.0237 14.1221 31.0803 14.0541 31.137C13.7254 31.4657 13.4987 31.8283 13.3741 32.225C13.2494 32.6103 13.1871 33.0297 13.1871 33.483C13.1871 34.2083 13.3741 34.7977 13.7481 35.251C14.1334 35.693 14.7057 35.914 15.4651 35.914C15.6464 35.914 15.8334 35.8857 16.0261 35.829C16.2187 35.7723 16.4001 35.693 16.5701 35.591C16.7514 35.489 16.9157 35.37 17.0631 35.234C17.2104 35.0867 17.3294 34.928 17.4201 34.758C17.4881 34.6107 17.5447 34.4067 17.5901 34.146C17.6354 33.874 17.6581 33.653 17.6581 33.483C17.6581 32.667 17.4371 32.021 16.9951 31.545C16.5531 31.0577 15.9127 30.814 15.0741 30.814ZM14.0371 40.028C13.8444 40.028 13.6744 39.9657 13.5271 39.841C13.3911 39.7163 13.3231 39.552 13.3231 39.348C13.3231 39.1667 13.3797 39.008 13.4931 38.872C13.6064 38.736 13.7424 38.6397 13.9011 38.583C13.9804 38.549 14.1957 38.5263 14.5471 38.515C14.8984 38.5037 15.2781 38.498 15.6861 38.498C16.0941 38.4867 16.4851 38.481 16.8591 38.481C17.2331 38.481 17.4937 38.481 17.6411 38.481C18.4571 38.4583 19.2617 38.4413 20.0551 38.43C20.8484 38.4073 21.6474 38.396 22.4521 38.396C22.9281 38.396 23.2681 38.498 23.4721 38.702C23.6761 38.906 23.7781 39.246 23.7781 39.722C23.7781 39.858 23.7724 40.0507 23.7611 40.3C23.7611 40.538 23.7497 40.8043 23.7271 41.099C23.7157 41.3937 23.6931 41.6997 23.6591 42.017C23.6364 42.3343 23.6081 42.629 23.5741 42.901C23.5401 43.1843 23.5004 43.4337 23.4551 43.649C23.4097 43.8643 23.3587 44.0173 23.3021 44.108C23.2227 44.2327 23.1151 44.3347 22.9791 44.414C22.8544 44.5047 22.7127 44.55 22.5541 44.55C22.3614 44.55 22.1914 44.4877 22.0441 44.363C21.9081 44.2383 21.8401 44.074 21.8401 43.87C21.8401 43.6773 21.8627 43.479 21.9081 43.275C21.9647 43.071 22.0044 42.8727 22.0271 42.68L22.0781 42.221H21.9931L21.8231 42.238H21.7381L20.0211 42.289C19.1257 42.3117 18.2304 42.3343 17.3351 42.357C16.4511 42.391 15.5614 42.408 14.6661 42.408C14.4734 42.408 14.3034 42.3457 14.1561 42.221C14.0201 42.0963 13.9521 41.932 13.9521 41.728C13.9521 41.558 14.0087 41.405 14.1221 41.269C14.2354 41.1217 14.3714 41.0197 14.5301 40.963C14.6434 40.929 14.7624 40.912 14.8871 40.912C15.0231 40.912 15.1477 40.912 15.2611 40.912C16.4284 40.912 17.5844 40.8837 18.7291 40.827C19.8737 40.7703 21.0241 40.7363 22.1801 40.725V40.572L22.1971 40.249V40.096V39.892L16.7401 39.977C16.2867 39.9883 15.8334 39.9997 15.3801 40.011C14.9381 40.0223 14.4904 40.028 14.0371 40.028ZM29.8587 34.69C29.6661 34.69 29.4961 34.6277 29.3487 34.503C29.2127 34.3783 29.1447 34.214 29.1447 34.01C29.1447 33.7947 29.2241 33.6133 29.3827 33.466C29.5414 33.3187 29.7227 33.2337 29.9267 33.211C29.9947 33.1997 30.0627 33.194 30.1307 33.194C30.1987 33.194 30.2667 33.194 30.3347 33.194C31.4341 33.194 32.5221 33.177 33.5987 33.143C34.6754 33.109 35.7634 33.092 36.8627 33.092C37.1914 33.092 37.4521 33.143 37.6447 33.245C37.8374 33.347 37.9847 33.4887 38.0867 33.67C38.2001 33.8513 38.2737 34.061 38.3077 34.299C38.3531 34.537 38.3814 34.792 38.3927 35.064C38.4041 35.2453 38.4097 35.4267 38.4097 35.608C38.4097 35.7893 38.4097 35.9707 38.4097 36.152C38.4097 36.254 38.4097 36.4297 38.4097 36.679C38.4097 36.917 38.4097 37.189 38.4097 37.495C38.4097 37.801 38.4041 38.124 38.3927 38.464C38.3927 38.7927 38.3871 39.1043 38.3757 39.399C38.3644 39.6823 38.3474 39.926 38.3247 40.13C38.3134 40.334 38.2964 40.4643 38.2737 40.521C38.2057 40.6797 38.0981 40.81 37.9507 40.912C37.8034 41.0027 37.6447 41.048 37.4747 41.048C37.2821 41.048 37.1121 40.9857 36.9647 40.861C36.8287 40.7363 36.7607 40.572 36.7607 40.368C36.7607 40.1867 36.7607 40.011 36.7607 39.841C36.7721 39.6597 36.7834 39.4783 36.7947 39.297C36.7947 39.2403 36.7947 39.1837 36.7947 39.127C36.8061 39.0703 36.8117 39.0137 36.8117 38.957V38.294C36.8117 38.2373 36.8117 38.1807 36.8117 38.124C36.8231 38.0673 36.8287 38.0107 36.8287 37.954C36.6247 37.9653 36.3924 37.9767 36.1317 37.988C35.8824 37.9993 35.6331 38.0107 35.3837 38.022C35.1344 38.022 34.9077 38.0277 34.7037 38.039C34.5111 38.039 34.3694 38.039 34.2787 38.039L31.5247 38.141C31.2981 38.1523 31.0771 38.1637 30.8617 38.175C30.6464 38.1863 30.4254 38.192 30.1987 38.192C30.0061 38.192 29.8361 38.1297 29.6887 38.005C29.5527 37.8803 29.4847 37.716 29.4847 37.512C29.4847 37.342 29.5357 37.189 29.6377 37.053C29.7397 36.917 29.8701 36.8207 30.0287 36.764C30.1081 36.73 30.3121 36.7073 30.6407 36.696C30.9807 36.6733 31.3321 36.6563 31.6947 36.645C32.0687 36.6223 32.4031 36.611 32.6977 36.611C32.9924 36.5997 33.1454 36.594 33.1567 36.594C33.7687 36.5713 34.3807 36.5487 34.9927 36.526C35.6161 36.492 36.2337 36.4693 36.8457 36.458V35.829C36.8457 35.625 36.8401 35.421 36.8287 35.217C36.8174 35.013 36.7891 34.809 36.7437 34.605H36.0807C35.0381 34.605 34.0011 34.622 32.9697 34.656C31.9384 34.6787 30.9014 34.69 29.8587 34.69ZM45.1654 34.69C44.9727 34.69 44.8027 34.6277 44.6554 34.503C44.5194 34.3783 44.4514 34.214 44.4514 34.01C44.4514 33.7947 44.5307 33.6133 44.6894 33.466C44.848 33.3187 45.0294 33.2337 45.2334 33.211C45.3014 33.1997 45.3694 33.194 45.4374 33.194C45.5054 33.194 45.5734 33.194 45.6414 33.194C46.7407 33.194 47.8287 33.177 48.9054 33.143C49.982 33.109 51.0701 33.092 52.1694 33.092C52.4981 33.092 52.7587 33.143 52.9514 33.245C53.144 33.347 53.2914 33.4887 53.3934 33.67C53.5067 33.8513 53.5804 34.061 53.6144 34.299C53.6597 34.537 53.688 34.792 53.6994 35.064C53.7107 35.2453 53.7164 35.4267 53.7164 35.608C53.7164 35.7893 53.7164 35.9707 53.7164 36.152C53.7164 36.254 53.7164 36.4297 53.7164 36.679C53.7164 36.917 53.7164 37.189 53.7164 37.495C53.7164 37.801 53.7107 38.124 53.6994 38.464C53.6994 38.7927 53.6937 39.1043 53.6824 39.399C53.6711 39.6823 53.654 39.926 53.6314 40.13C53.62 40.334 53.603 40.4643 53.5804 40.521C53.5124 40.6797 53.4047 40.81 53.2574 40.912C53.1101 41.0027 52.9514 41.048 52.7814 41.048C52.5887 41.048 52.4187 40.9857 52.2714 40.861C52.1354 40.7363 52.0674 40.572 52.0674 40.368C52.0674 40.1867 52.0674 40.011 52.0674 39.841C52.0787 39.6597 52.0901 39.4783 52.1014 39.297C52.1014 39.2403 52.1014 39.1837 52.1014 39.127C52.1127 39.0703 52.1184 39.0137 52.1184 38.957V38.294C52.1184 38.2373 52.1184 38.1807 52.1184 38.124C52.1297 38.0673 52.1354 38.0107 52.1354 37.954C51.9314 37.9653 51.699 37.9767 51.4384 37.988C51.189 37.9993 50.9397 38.0107 50.6904 38.022C50.441 38.022 50.2144 38.0277 50.0104 38.039C49.8177 38.039 49.676 38.039 49.5854 38.039L46.8314 38.141C46.6047 38.1523 46.3837 38.1637 46.1684 38.175C45.953 38.1863 45.732 38.192 45.5054 38.192C45.3127 38.192 45.1427 38.1297 44.9954 38.005C44.8594 37.8803 44.7914 37.716 44.7914 37.512C44.7914 37.342 44.8424 37.189 44.9444 37.053C45.0464 36.917 45.1767 36.8207 45.3354 36.764C45.4147 36.73 45.6187 36.7073 45.9474 36.696C46.2874 36.6733 46.6387 36.6563 47.0014 36.645C47.3754 36.6223 47.7097 36.611 48.0044 36.611C48.299 36.5997 48.452 36.594 48.4634 36.594C49.0754 36.5713 49.6874 36.5487 50.2994 36.526C50.9227 36.492 51.5404 36.4693 52.1524 36.458V35.829C52.1524 35.625 52.1467 35.421 52.1354 35.217C52.124 35.013 52.0957 34.809 52.0504 34.605H51.3874C50.3447 34.605 49.3077 34.622 48.2764 34.656C47.245 34.6787 46.208 34.69 45.1654 34.69ZM60.472 34.69C60.2794 34.69 60.1094 34.6277 59.962 34.503C59.826 34.3783 59.758 34.214 59.758 34.01C59.758 33.7947 59.8374 33.6133 59.996 33.466C60.1547 33.3187 60.336 33.2337 60.54 33.211C60.608 33.1997 60.676 33.194 60.744 33.194C60.812 33.194 60.88 33.194 60.948 33.194C62.0474 33.194 63.1354 33.177 64.212 33.143C65.2887 33.109 66.3767 33.092 67.476 33.092C67.8047 33.092 68.0654 33.143 68.258 33.245C68.4507 33.347 68.598 33.4887 68.7 33.67C68.8134 33.8513 68.887 34.061 68.921 34.299C68.9664 34.537 68.9947 34.792 69.006 35.064C69.0174 35.2453 69.023 35.4267 69.023 35.608C69.023 35.7893 69.023 35.9707 69.023 36.152C69.023 36.254 69.023 36.4297 69.023 36.679C69.023 36.917 69.023 37.189 69.023 37.495C69.023 37.801 69.0174 38.124 69.006 38.464C69.006 38.7927 69.0004 39.1043 68.989 39.399C68.9777 39.6823 68.9607 39.926 68.938 40.13C68.9267 40.334 68.9097 40.4643 68.887 40.521C68.819 40.6797 68.7114 40.81 68.564 40.912C68.4167 41.0027 68.258 41.048 68.088 41.048C67.8954 41.048 67.7254 40.9857 67.578 40.861C67.442 40.7363 67.374 40.572 67.374 40.368C67.374 40.1867 67.374 40.011 67.374 39.841C67.3854 39.6597 67.3967 39.4783 67.408 39.297C67.408 39.2403 67.408 39.1837 67.408 39.127C67.4194 39.0703 67.425 39.0137 67.425 38.957V38.294C67.425 38.2373 67.425 38.1807 67.425 38.124C67.4364 38.0673 67.442 38.0107 67.442 37.954C67.238 37.9653 67.0057 37.9767 66.745 37.988C66.4957 37.9993 66.2464 38.0107 65.997 38.022C65.7477 38.022 65.521 38.0277 65.317 38.039C65.1244 38.039 64.9827 38.039 64.892 38.039L62.138 38.141C61.9114 38.1523 61.6904 38.1637 61.475 38.175C61.2597 38.1863 61.0387 38.192 60.812 38.192C60.6194 38.192 60.4494 38.1297 60.302 38.005C60.166 37.8803 60.098 37.716 60.098 37.512C60.098 37.342 60.149 37.189 60.251 37.053C60.353 36.917 60.4834 36.8207 60.642 36.764C60.7214 36.73 60.9254 36.7073 61.254 36.696C61.594 36.6733 61.9454 36.6563 62.308 36.645C62.682 36.6223 63.0164 36.611 63.311 36.611C63.6057 36.5997 63.7587 36.594 63.77 36.594C64.382 36.5713 64.994 36.5487 65.606 36.526C66.2294 36.492 66.847 36.4693 67.459 36.458V35.829C67.459 35.625 67.4534 35.421 67.442 35.217C67.4307 35.013 67.4024 34.809 67.357 34.605H66.694C65.6514 34.605 64.6144 34.622 63.583 34.656C62.5517 34.6787 61.5147 34.69 60.472 34.69ZM75.7787 34.69C75.586 34.69 75.416 34.6277 75.2687 34.503C75.1327 34.3783 75.0647 34.214 75.0647 34.01C75.0647 33.7947 75.144 33.6133 75.3027 33.466C75.4613 33.3187 75.6427 33.2337 75.8467 33.211C75.9147 33.1997 75.9827 33.194 76.0507 33.194C76.1187 33.194 76.1867 33.194 76.2547 33.194C77.354 33.194 78.442 33.177 79.5187 33.143C80.5953 33.109 81.6833 33.092 82.7827 33.092C83.1113 33.092 83.372 33.143 83.5647 33.245C83.7573 33.347 83.9047 33.4887 84.0067 33.67C84.12 33.8513 84.1937 34.061 84.2277 34.299C84.273 34.537 84.3013 34.792 84.3127 35.064C84.324 35.2453 84.3297 35.4267 84.3297 35.608C84.3297 35.7893 84.3297 35.9707 84.3297 36.152C84.3297 36.254 84.3297 36.4297 84.3297 36.679C84.3297 36.917 84.3297 37.189 84.3297 37.495C84.3297 37.801 84.324 38.124 84.3127 38.464C84.3127 38.7927 84.307 39.1043 84.2957 39.399C84.2843 39.6823 84.2673 39.926 84.2447 40.13C84.2333 40.334 84.2163 40.4643 84.1937 40.521C84.1257 40.6797 84.018 40.81 83.8707 40.912C83.7233 41.0027 83.5647 41.048 83.3947 41.048C83.202 41.048 83.032 40.9857 82.8847 40.861C82.7487 40.7363 82.6807 40.572 82.6807 40.368C82.6807 40.1867 82.6807 40.011 82.6807 39.841C82.692 39.6597 82.7033 39.4783 82.7147 39.297C82.7147 39.2403 82.7147 39.1837 82.7147 39.127C82.726 39.0703 82.7317 39.0137 82.7317 38.957V38.294C82.7317 38.2373 82.7317 38.1807 82.7317 38.124C82.743 38.0673 82.7487 38.0107 82.7487 37.954C82.5447 37.9653 82.3123 37.9767 82.0517 37.988C81.8023 37.9993 81.553 38.0107 81.3037 38.022C81.0543 38.022 80.8277 38.0277 80.6237 38.039C80.431 38.039 80.2893 38.039 80.1987 38.039L77.4447 38.141C77.218 38.1523 76.997 38.1637 76.7817 38.175C76.5663 38.1863 76.3453 38.192 76.1187 38.192C75.926 38.192 75.756 38.1297 75.6087 38.005C75.4727 37.8803 75.4047 37.716 75.4047 37.512C75.4047 37.342 75.4557 37.189 75.5577 37.053C75.6597 36.917 75.79 36.8207 75.9487 36.764C76.028 36.73 76.232 36.7073 76.5607 36.696C76.9007 36.6733 77.252 36.6563 77.6147 36.645C77.9887 36.6223 78.323 36.611 78.6177 36.611C78.9123 36.5997 79.0653 36.594 79.0767 36.594C79.6887 36.5713 80.3007 36.5487 80.9127 36.526C81.536 36.492 82.1537 36.4693 82.7657 36.458V35.829C82.7657 35.625 82.76 35.421 82.7487 35.217C82.7373 35.013 82.709 34.809 82.6637 34.605H82.0007C80.958 34.605 79.921 34.622 78.8897 34.656C77.8583 34.6787 76.8213 34.69 75.7787 34.69ZM91.0853 34.69C90.8926 34.69 90.7226 34.6277 90.5753 34.503C90.4393 34.3783 90.3713 34.214 90.3713 34.01C90.3713 33.7947 90.4506 33.6133 90.6093 33.466C90.768 33.3187 90.9493 33.2337 91.1533 33.211C91.2213 33.1997 91.2893 33.194 91.3573 33.194C91.4253 33.194 91.4933 33.194 91.5613 33.194C92.6606 33.194 93.7486 33.177 94.8253 33.143C95.902 33.109 96.99 33.092 98.0893 33.092C98.418 33.092 98.6786 33.143 98.8713 33.245C99.064 33.347 99.2113 33.4887 99.3133 33.67C99.4266 33.8513 99.5003 34.061 99.5343 34.299C99.5796 34.537 99.608 34.792 99.6193 35.064C99.6306 35.2453 99.6363 35.4267 99.6363 35.608C99.6363 35.7893 99.6363 35.9707 99.6363 36.152C99.6363 36.254 99.6363 36.4297 99.6363 36.679C99.6363 36.917 99.6363 37.189 99.6363 37.495C99.6363 37.801 99.6306 38.124 99.6193 38.464C99.6193 38.7927 99.6136 39.1043 99.6023 39.399C99.591 39.6823 99.574 39.926 99.5513 40.13C99.54 40.334 99.523 40.4643 99.5003 40.521C99.4323 40.6797 99.3246 40.81 99.1773 40.912C99.03 41.0027 98.8713 41.048 98.7013 41.048C98.5086 41.048 98.3386 40.9857 98.1913 40.861C98.0553 40.7363 97.9873 40.572 97.9873 40.368C97.9873 40.1867 97.9873 40.011 97.9873 39.841C97.9986 39.6597 98.01 39.4783 98.0213 39.297C98.0213 39.2403 98.0213 39.1837 98.0213 39.127C98.0326 39.0703 98.0383 39.0137 98.0383 38.957V38.294C98.0383 38.2373 98.0383 38.1807 98.0383 38.124C98.0496 38.0673 98.0553 38.0107 98.0553 37.954C97.8513 37.9653 97.619 37.9767 97.3583 37.988C97.109 37.9993 96.8596 38.0107 96.6103 38.022C96.361 38.022 96.1343 38.0277 95.9303 38.039C95.7376 38.039 95.596 38.039 95.5053 38.039L92.7513 38.141C92.5246 38.1523 92.3036 38.1637 92.0883 38.175C91.873 38.1863 91.652 38.192 91.4253 38.192C91.2326 38.192 91.0626 38.1297 90.9153 38.005C90.7793 37.8803 90.7113 37.716 90.7113 37.512C90.7113 37.342 90.7623 37.189 90.8643 37.053C90.9663 36.917 91.0966 36.8207 91.2553 36.764C91.3346 36.73 91.5386 36.7073 91.8673 36.696C92.2073 36.6733 92.5586 36.6563 92.9213 36.645C93.2953 36.6223 93.6296 36.611 93.9243 36.611C94.219 36.5997 94.372 36.594 94.3833 36.594C94.9953 36.5713 95.6073 36.5487 96.2193 36.526C96.8426 36.492 97.4603 36.4693 98.0723 36.458V35.829C98.0723 35.625 98.0666 35.421 98.0553 35.217C98.044 35.013 98.0156 34.809 97.9703 34.605H97.3073C96.2646 34.605 95.2276 34.622 94.1963 34.656C93.165 34.6787 92.128 34.69 91.0853 34.69Z" fill="black"/>
</svg>
