<svg width="150" height="186" viewBox="0 0 150 186" fill="none" xmlns="http://www.w3.org/2000/svg">
<g clip-path="url(#clip0_493_6126)">
<path d="M24.2007 4H130.261L148.101 19.85V152.47C148.098 153.302 147.766 154.099 147.178 154.687C146.59 155.276 145.793 155.607 144.961 155.61H4.48074C3.6851 155.61 2.92203 155.294 2.35942 154.731C1.79682 154.169 1.48074 153.406 1.48074 152.61V6.94C1.47545 6.55581 1.54654 6.1744 1.68991 5.81793C1.83327 5.46146 2.04604 5.13702 2.31586 4.86348C2.58568 4.58994 2.90717 4.37275 3.26165 4.22451C3.61612 4.07628 3.99652 3.99996 4.38074 4H19.7607C20.2912 4 20.7999 4.21071 21.175 4.58579C21.55 4.96086 21.7607 5.46957 21.7607 6C21.7607 5.46957 21.9715 4.96086 22.3465 4.58579C22.7216 4.21071 23.2303 4 23.7607 4H24.2007Z" fill="#FFE67C" stroke="black" stroke-width="2" stroke-linecap="round" stroke-linejoin="round"/>
<path d="M128.15 155.61V84.5599C128.15 83.3045 127.652 82.1004 126.766 81.2118C125.879 80.3232 124.676 79.8226 123.42 79.8199H28.0905C26.6026 79.8199 25.1757 80.411 24.1236 81.4631C23.0715 82.5152 22.4805 83.9421 22.4805 85.4299V155.61H128.15Z" fill="white" stroke="black" stroke-width="2" stroke-linecap="round" stroke-linejoin="round"/>
<path d="M29.7109 1V44.91C29.7215 46.2636 30.2666 47.5582 31.2275 48.5116C32.1885 49.4651 33.4873 50 34.8409 50H113.771C115.097 50 116.369 49.4732 117.306 48.5355C118.244 47.5979 118.771 46.3261 118.771 45V1H29.7109ZM58.4809 45.15H42.5909V9.73H46.8009V7.26H54.7309V9.73H58.4809V45.15Z" fill="#C9D1D3" stroke="black" stroke-width="2" stroke-linecap="round" stroke-linejoin="round"/>
<path d="M113.17 8.25H107.23V11.22H113.17V8.25Z" fill="black"/>
<path d="M29.7109 97.86V134.26C29.7162 135.255 30.1161 136.208 30.8228 136.909C31.5295 137.61 32.4854 138.003 33.4809 138H121.111V103.38C121.111 101.916 120.529 100.512 119.494 99.4768C118.459 98.4416 117.055 97.86 115.591 97.86H29.7109Z" fill="white" stroke="black" stroke-width="2" stroke-linecap="round" stroke-linejoin="round"/>
<path d="M54.7311 102.36H35.9111V131.09H54.7311V102.36Z" fill="#295F2E" stroke="black" stroke-width="2" stroke-linecap="round" stroke-linejoin="round"/>
<path d="M60.1807 107.81H103.241" stroke="black" stroke-width="2" stroke-linecap="round" stroke-linejoin="round"/>
<path d="M60.1807 115.66H113.181" stroke="black" stroke-width="2" stroke-linecap="round" stroke-linejoin="round"/>
<path d="M60.1807 123.16H113.181" stroke="black" stroke-width="2" stroke-linecap="round" stroke-linejoin="round"/>
<path d="M60.1807 130.1H113.181" stroke="black" stroke-width="2" stroke-linecap="round" stroke-linejoin="round"/>
<path d="M41.6006 110.92V114.98" stroke="black" stroke-width="2" stroke-linecap="round" stroke-linejoin="round"/>
<path d="M48.541 110.92V114.98" stroke="black" stroke-width="2" stroke-linecap="round" stroke-linejoin="round"/>
<path d="M41.1104 118.87C41.2225 119.762 41.6665 120.58 42.3539 121.16C43.0413 121.74 43.9218 122.04 44.8204 122C44.8204 122 48.2903 122.63 49.2803 118.66" stroke="black" stroke-width="2" stroke-linecap="round" stroke-linejoin="round"/>
<path d="M43.6462 174.574H41.3575V173.429H43.6462V174.574ZM43.6462 169.996H40.2131V172.285H41.3575V173.429H40.2131V172.285H39.0687V173.429H37.9243V174.574H35.6356V173.429H37.9243V172.285H39.0687V169.996H35.6356V168.852H37.9243V167.707H41.3575V168.852H43.6462V169.996ZM48.2237 178.007H36.78V176.862H49.3681V182.584H48.2237V178.007ZM47.0793 166.563H48.2237V169.996H50.5125V166.563H51.6568V175.718H50.5125V171.141H48.2237V175.718H47.0793V166.563ZM58.5231 181.44H57.3787V176.862H68.8225V182.584H58.5231V181.44ZM58.5231 181.44H67.6781V180.296V179.151V178.007H58.5231V179.151V181.44ZM67.6781 166.563H68.8225V175.718H67.6781V166.563ZM55.09 173.429H60.8118V174.574H55.09V173.429ZM55.09 173.429H53.9456V172.285V171.141V169.996V168.852H55.09V169.996V171.141V173.429ZM60.8118 173.429V168.852H61.9562V173.429H60.8118ZM55.09 168.852V167.707H60.8118V168.852H55.09ZM88.2768 171.141H85.9881V175.718H84.8437V166.563H85.9881V169.996H88.2768V171.141ZM76.8331 181.44H75.6887V176.862H87.1325V182.584H76.8331V181.44ZM76.8331 181.44H85.9881V180.296V179.151V178.007H76.8331V179.151V181.44ZM74.5443 174.574V175.718H73.4V174.574H74.5443ZM74.5443 174.574V173.429H76.8331V174.574H74.5443ZM76.8331 173.429V172.285H77.9775V173.429H76.8331ZM77.9775 172.285V171.141H79.1218V172.285H77.9775ZM79.1218 171.141V168.852H73.4V167.707H80.2662V171.141H79.1218ZM91.71 179.151H93.9987V181.44H91.71V179.151ZM106.587 173.429H105.442V174.574H104.298V175.718H103.154V176.862H102.009V178.007H104.298V176.862H106.587V179.151H98.5762V178.007H99.7206V176.862H100.865V175.718H102.009V174.574H103.154V173.429H100.865V174.574H98.5762V172.285H106.587V173.429ZM114.597 179.151H110.02V178.007H111.164V173.429H110.02V172.285H113.453V178.007H114.597V179.151ZM111.164 168.852H113.453V171.141H111.164V168.852ZM121.464 181.44H116.886V180.296H118.031V173.429H116.886V172.285H119.175V173.429H120.319V172.285H123.752V173.429H124.897V176.862H123.752V178.007H120.319V180.296H121.464V181.44ZM120.319 176.862H122.608V175.718V174.574V173.429H120.319V174.574V176.862Z" fill="#1F2223"/>
</g>
<defs>
<clipPath id="clip0_493_6126">
<rect width="148.62" height="185.04" fill="white" transform="translate(0.480469)"/>
</clipPath>
</defs>
</svg>
