<svg width="188" height="141" viewBox="0 0 188 141" fill="none" xmlns="http://www.w3.org/2000/svg">
<path d="M19.31 1H48.53C53.3861 1 58.0433 2.92908 61.4771 6.36287C64.9109 9.79667 66.84 14.4539 66.84 19.31V21.69H1V19.31C1 14.4539 2.92908 9.79667 6.36287 6.36287C9.79667 2.92908 14.4539 1 19.31 1Z" fill="#EADEA4" stroke="#231F20" stroke-width="2" stroke-linecap="round" stroke-linejoin="round"/>
<path d="M186.61 17.2998H1V139.58H186.61V17.2998Z" fill="#FFF5B8" stroke="#231F20" stroke-width="2" stroke-linecap="round" stroke-linejoin="round"/>
<path d="M48.5798 104C47.7054 104.003 46.8414 103.811 46.0498 103.44H45.9798H45.9198C45.2598 103.045 44.7231 102.473 44.3698 101.79C44.2552 101.636 44.1548 101.472 44.0698 101.3L43.9198 100.99V100.84C43.7983 100.548 43.7111 100.242 43.6598 99.9301C43.6598 99.7101 43.5698 99.4701 43.5298 99.2201V99.1101V98.9901C43.5397 98.8403 43.5397 98.69 43.5298 98.5401C43.5298 98.4301 43.5298 98.3101 43.5298 98.1901C43.426 97.9048 43.3719 97.6037 43.3698 97.3001V96.4501L43.4698 96.2401C43.4794 96.127 43.4794 96.0133 43.4698 95.9001V91.1901L43.5198 85.1901H41.7498L31.1398 85.2401L30.9998 97.7301V98.3101C30.9825 98.7832 30.912 99.2528 30.7898 99.7101C30.7289 99.9778 30.6521 100.242 30.5598 100.5C30.4798 100.71 30.4098 100.93 30.3298 101.15C30.0681 101.802 29.6322 102.369 29.0698 102.79C28.4523 103.329 27.6914 103.677 26.8798 103.79C26.4161 103.888 25.9437 103.939 25.4698 103.94C24.5985 103.944 23.7375 103.752 22.9498 103.38H22.8898H22.8298C22.1728 102.969 21.6241 102.407 21.2298 101.74L21.1798 101.67V101.6C21.0873 101.43 21.0167 101.248 20.9698 101.06L20.8498 100.83C20.7375 100.535 20.6505 100.23 20.5898 99.9201C20.5898 99.7001 20.5098 99.4601 20.4698 99.2101V99.1001V98.9801C20.4796 98.877 20.4796 98.7732 20.4698 98.6701L20.2398 98.0001C20.1948 97.578 20.1948 97.1523 20.2398 96.7301V95.9201L20.2998 91.2101L20.4198 82.4801C20.4598 81.1801 20.4798 79.8801 20.4798 78.5801V74.3201C20.4798 72.9101 20.4298 71.6101 20.4798 70.4901C20.5298 69.3701 20.5498 68.1101 20.6298 66.7301V66.4001C20.6697 66.0415 20.6897 65.681 20.6898 65.3201C20.6898 64.8601 20.7098 64.3901 20.7498 63.9101C20.7973 63.4378 20.8809 62.9697 20.9998 62.5101C21.1279 62.0376 21.3021 61.5787 21.5198 61.1401C21.6787 60.7236 21.9088 60.3379 22.1998 60.0001C22.4835 59.6879 22.8022 59.4094 23.1498 59.1701L23.2398 59.1001H23.3398C24.1289 58.6938 25.0022 58.478 25.8898 58.4701C26.2228 58.452 26.5567 58.452 26.8898 58.4701C27.1498 58.4701 27.3998 58.5201 27.6598 58.5601C28.4924 58.6616 29.2634 59.0507 29.8398 59.6601C30.2947 60.0715 30.6386 60.5908 30.8398 61.1701C31.0592 61.7217 31.2038 62.3002 31.2698 62.8901C31.3137 63.1949 31.3371 63.5022 31.3398 63.8101V66.9501L31.2398 75.2901C31.5298 75.2901 31.8598 75.2901 32.2398 75.2901H32.3498C34.3498 75.2901 36.4598 75.2901 38.5198 75.3501C40.1098 75.3501 41.7898 75.4001 43.5198 75.4101C43.5198 74.1401 43.5198 72.9201 43.5198 71.7401C43.5198 70.1101 43.5898 68.3801 43.6698 66.6101C43.6698 66.2101 43.6698 65.7901 43.6698 65.3601C43.6698 64.9301 43.7298 64.4801 43.7698 64.0201C43.8124 63.5471 43.8961 63.0787 44.0198 62.6201C44.1386 62.1727 44.2993 61.7374 44.4998 61.3201C44.6487 60.824 44.9204 60.3734 45.2898 60.0101C45.6067 59.6898 45.9628 59.411 46.3498 59.1801C47.1417 58.7182 48.0429 58.4765 48.9598 58.4801C49.2929 58.4626 49.6266 58.4626 49.9598 58.4801C50.235 58.4956 50.5089 58.529 50.7798 58.5801C51.5592 58.6825 52.2851 59.0331 52.8498 59.5801C53.4023 59.9688 53.8075 60.5325 53.9998 61.1801C54.0898 61.4301 54.1598 61.6801 54.2198 61.9101C54.2798 62.1401 54.3398 62.3001 54.4098 62.5101V62.6401V62.7701C54.4575 63.1013 54.4809 63.4355 54.4798 63.7701V66.9101L54.1298 97.7601V98.3301C54.1132 98.804 54.0394 99.2741 53.9098 99.7301C53.8536 99.999 53.7767 100.263 53.6798 100.52C53.6098 100.73 53.5298 100.95 53.4598 101.17C53.2055 101.823 52.7722 102.392 52.2098 102.81C51.5896 103.351 50.8249 103.698 50.0098 103.81C49.5412 103.924 49.0618 103.988 48.5798 104Z" fill="#FC9E2D" stroke="black" stroke-width="2" stroke-linecap="round" stroke-linejoin="round"/>
<path d="M76.8896 103.52C76.4388 103.518 75.9896 103.468 75.5496 103.37C74.7576 103.305 73.9993 103.022 73.3596 102.55H73.2896L73.2196 102.48C72.8043 102.059 72.4659 101.568 72.2196 101.03C71.9455 100.54 71.7625 100.005 71.6796 99.4502C71.5252 98.9818 71.4409 98.4932 71.4296 98.0002V68.8802C70.6696 68.8802 69.8596 68.8802 68.9896 68.8802C68.1196 68.8802 67.3096 68.8802 66.5396 68.7902C65.7696 68.7002 65.1996 68.7102 64.8696 68.6602L63.7496 68.4802C63.1996 68.3902 62.7496 68.3102 62.3996 68.2202C61.3818 67.9586 60.4572 67.4184 59.7296 66.6602C59.0796 65.9232 58.7236 64.9728 58.7296 63.9902V63.2802C58.73 62.9054 58.7942 62.5334 58.9196 62.1802C59.164 61.3653 59.7068 60.6725 60.4396 60.2402C60.7199 60.0428 61.014 59.8657 61.3196 59.7102C61.7167 59.4983 62.1359 59.3306 62.5696 59.2102C63.222 59.0135 63.8917 58.8796 64.5696 58.8102C64.9375 58.7617 65.3084 58.7383 65.6796 58.7402H70.6796C71.9096 58.7402 73.2196 58.7402 74.5896 58.6802C76.1496 58.6802 77.7096 58.6802 79.2396 58.6802H81.4996C83.7996 58.6802 86.1096 58.7502 88.3396 58.8302H88.3996C88.9426 58.8697 89.4832 58.9365 90.0196 59.0302C90.5994 59.1248 91.1665 59.2859 91.7096 59.5102C92.1275 59.6555 92.5323 59.8362 92.9196 60.0502C93.5134 60.4233 94.0111 60.9309 94.3724 61.532C94.7338 62.1331 94.9486 62.8107 94.9996 63.5102C94.9996 63.7802 94.9996 64.0702 94.9996 64.3602C94.9996 64.6502 94.9396 64.9602 94.8896 65.2202V65.3202C94.684 66.0402 94.2905 66.6925 93.7496 67.2102L93.6696 67.2802L93.5896 67.3502C93.0418 67.737 92.418 68.0028 91.7596 68.1302C91.4307 68.22 91.0968 68.2901 90.7596 68.3402C90.5102 68.3757 90.2631 68.4258 90.0196 68.4902H89.8696C89.5385 68.5402 89.2044 68.567 88.8696 68.5702H84.9296C84.2096 68.5702 83.4896 68.6302 82.7796 68.6302H82.2196C82.2196 69.4302 82.2196 70.2702 82.2196 71.1202C82.2196 72.5268 82.2196 74.1668 82.2196 76.0402C82.2196 77.9002 82.2196 80.0402 82.1596 82.5102C82.0996 84.9802 82.1596 87.8102 82.1596 91.0502V95.5602C82.1456 95.7633 82.1456 95.9671 82.1596 96.1702V96.3102V96.9002C82.1547 97.162 82.128 97.4229 82.0796 97.6802C82.0078 98.0103 81.9544 98.3441 81.9196 98.6802C81.9204 98.9527 81.8902 99.2245 81.8296 99.4902C81.7698 99.7592 81.6896 100.023 81.5896 100.28L81.4696 100.56L81.3096 100.72L81.1196 101.1C80.7377 101.805 80.1706 102.393 79.4796 102.8H79.4096H79.3396C78.5901 103.228 77.7512 103.474 76.8896 103.52Z" fill="#FC9E2D" stroke="black" stroke-width="2" stroke-linecap="round" stroke-linejoin="round"/>
<path d="M103.39 104.23C102.405 104.205 101.441 103.941 100.58 103.46C99.8097 102.99 99.205 102.29 98.8504 101.46C98.5686 100.82 98.3638 100.148 98.2404 99.46V99.34C98.2004 98.7733 98.1704 98.2233 98.1504 97.69C98.1504 97.16 98.1504 96.6 98.1504 96.03L98.2104 91.38L98.2704 82.24V74.24C98.2704 70.79 98.3904 67.36 98.6204 64.03C98.6233 63.5137 98.6905 62.9997 98.8204 62.5C98.9392 62.0455 99.093 61.6008 99.2804 61.17V61.12C99.677 60.2982 100.297 59.605 101.07 59.12C101.871 58.629 102.791 58.3694 103.73 58.37C104.034 58.3547 104.337 58.3547 104.64 58.37C104.932 58.3862 105.223 58.4196 105.51 58.47C106.731 58.7244 107.806 59.4411 108.51 60.47C108.987 61.12 109.498 61.7442 110.04 62.34C110.451 62.8056 110.832 63.2966 111.18 63.81C111.55 64.34 111.91 64.89 112.28 65.45L113.28 67.08L114 68.4C115 70.05 116 71.6 116.77 72.99C117.14 73.62 117.5 74.21 117.85 74.75L117.95 74.59C118.06 74.39 118.16 74.22 118.23 74.08V74.02V73.96C118.63 73.32 119.03 72.7 119.43 72.07L120.72 70.07C121.15 69.41 121.62 68.66 122.11 67.84C122.6 67.02 123.2 66.04 123.88 64.96C124.14 64.5133 124.5 63.9333 124.96 63.22C125.445 62.4724 125.983 61.7605 126.57 61.09C127.174 60.4114 127.844 59.795 128.57 59.25C129.35 58.627 130.312 58.2758 131.31 58.25C131.627 58.2331 131.944 58.2331 132.26 58.25C132.52 58.25 132.78 58.28 133.04 58.34C133.849 58.4313 134.607 58.7822 135.2 59.34H135.25C135.67 59.7577 136.009 60.2492 136.25 60.79V60.87V60.95C136.416 61.4613 136.533 61.9869 136.6 62.52C136.6 62.79 136.67 63.07 136.7 63.33C136.73 63.59 136.7 63.89 136.7 64.17C136.7 66.38 136.7 68.59 136.76 70.74C136.82 72.89 136.82 75.18 136.82 77.36C136.82 80.05 136.82 82.81 136.82 85.66C136.82 88.51 136.82 91.29 136.82 93.99C136.82 94.51 136.82 95.08 136.88 95.68C136.92 96.3728 136.92 97.0673 136.88 97.76C136.88 98.3 136.77 98.83 136.68 99.37C136.59 99.9942 136.416 100.603 136.16 101.18C135.909 101.799 135.507 102.346 134.99 102.77C134.389 103.321 133.63 103.671 132.82 103.77C132.345 103.92 131.849 103.997 131.35 104C131.131 104.015 130.91 104.015 130.69 104C130.066 103.907 129.457 103.728 128.88 103.47H128.79L128.7 103.41C127.974 102.965 127.38 102.333 126.98 101.58C126.662 100.967 126.426 100.315 126.28 99.64C126.141 98.9824 126.071 98.3121 126.07 97.64V91.37L126.01 82.29V79.81C126.01 79.61 126.01 79.39 126.01 79.15C125.56 79.89 125.14 80.55 124.76 81.15C123.941 82.4441 123.057 83.6957 122.11 84.9C121.564 85.709 120.885 86.4191 120.1 87C119.433 87.3963 118.684 87.6357 117.91 87.7H117.58C117.086 87.6956 116.6 87.5758 116.16 87.35C115.745 87.1384 115.353 86.8837 114.99 86.59C114.65 86.32 114.33 86.03 113.99 85.74C113.708 85.462 113.454 85.1573 113.23 84.83C112.23 83.64 111.23 82.19 110.01 80.54C109.65 80.03 109.28 79.49 108.91 78.92V80.32C108.91 82.2 108.91 84.23 108.91 86.39L108.85 92.39C108.85 94.26 108.85 95.84 108.76 97.08C108.76 97.81 108.76 98.42 108.64 98.92C108.645 99.816 108.418 100.698 107.98 101.48C107.563 102.248 106.966 102.903 106.24 103.39C105.466 103.899 104.567 104.186 103.64 104.22L103.39 104.23Z" fill="#FC9E2D" stroke="black" stroke-width="2" stroke-linecap="round" stroke-linejoin="round"/>
<path d="M148.68 104.29C148.02 104.29 147.36 104.29 146.68 104.19C145.616 104.083 144.578 103.796 143.61 103.34C142.511 102.814 141.663 101.877 141.25 100.73C141.149 100.48 141.069 100.223 141.01 99.96C140.959 99.7029 140.929 99.4421 140.92 99.18C140.761 97.8128 140.701 96.4359 140.74 95.06C140.74 93.76 140.8 92.48 140.8 91.25L140.92 82.61V74.68C140.92 73.24 140.92 71.96 140.92 70.85C140.92 69.74 140.92 68.5 141.01 67.15V66.75C141.01 66.38 141.08 66.01 141.1 65.63C141.12 65.25 141.1 64.89 141.1 64.52V64.39C141.172 63.4067 141.441 62.4478 141.89 61.57C142.257 60.735 142.876 60.0356 143.66 59.57C144.44 59.0562 145.357 58.7912 146.29 58.81C146.61 58.81 146.91 58.81 147.2 58.81C147.495 58.83 147.789 58.8668 148.08 58.92C148.479 58.9847 148.865 59.1165 149.22 59.31C149.546 59.4949 149.854 59.7091 150.14 59.95L150.23 60.02L150.31 60.12C150.645 60.5169 150.931 60.9535 151.16 61.42V61.5V61.58C151.349 62.1062 151.474 62.6536 151.53 63.21C151.53 63.46 151.6 63.7 151.64 63.91C151.694 64.2406 151.72 64.5751 151.72 64.91V65.15L151.64 65.38C151.626 65.4627 151.626 65.5473 151.64 65.63V67.35L151.41 93.88L161.72 93.99H164.5H165.37C165.68 93.99 165.99 94.05 166.3 94.09L167.17 94.21C167.475 94.2678 167.775 94.3447 168.07 94.44C168.691 94.6033 169.259 94.9236 169.72 95.37C170.269 95.8438 170.683 96.4545 170.92 97.14C171.068 97.5674 171.135 98.0182 171.12 98.47V99.39C171.121 99.8944 171.023 100.394 170.83 100.86C170.655 101.256 170.427 101.627 170.15 101.96C169.587 102.682 168.821 103.218 167.95 103.5C166.955 103.845 165.913 104.034 164.86 104.06C164.4 104.06 163.92 104.12 163.43 104.12C163.035 104.119 162.64 104.149 162.25 104.21H162.13H161.77C160.25 104.21 158.7 104.21 157.12 104.21H152.31H151.31C150.82 104.21 150.31 104.21 149.73 104.21C149.47 104.28 149.07 104.29 148.68 104.29Z" fill="#FC9E2D" stroke="black" stroke-width="2" stroke-linecap="round" stroke-linejoin="round"/>
</svg>
