<svg width="150" height="186" viewBox="0 0 150 186" fill="none" xmlns="http://www.w3.org/2000/svg">
<g clip-path="url(#clip0_493_6109)">
<path d="M24.5806 4H130.641L148.481 19.85V152.47C148.478 153.302 148.146 154.099 147.558 154.687C146.97 155.276 146.173 155.607 145.341 155.61H4.86063C4.06498 155.61 3.30192 155.294 2.73931 154.731C2.1767 154.169 1.86063 153.406 1.86063 152.61V6.94C1.85533 6.55581 1.92643 6.1744 2.06979 5.81793C2.21315 5.46146 2.42593 5.13702 2.69575 4.86348C2.96556 4.58994 3.28705 4.37275 3.64153 4.22451C3.996 4.07628 4.3764 3.99996 4.76063 4H20.1406C20.6711 4 21.1798 4.21071 21.5548 4.58579C21.9299 4.96086 22.1406 5.46957 22.1406 6C22.1406 5.46957 22.3513 4.96086 22.7264 4.58579C23.1015 4.21071 23.6102 4 24.1406 4H24.5806Z" fill="#295F2E" stroke="black" stroke-width="2" stroke-linecap="round" stroke-linejoin="round"/>
<path d="M128.53 155.61V84.5599C128.53 83.3045 128.032 82.1004 127.146 81.2118C126.259 80.3232 125.056 79.8226 123.8 79.8199H28.4704C26.9825 79.8199 25.5556 80.411 24.5035 81.4631C23.4514 82.5152 22.8604 83.9421 22.8604 85.4299V155.61H128.53Z" fill="white" stroke="black" stroke-width="2" stroke-linecap="round" stroke-linejoin="round"/>
<path d="M30.0908 1V44.91C30.1014 46.2636 30.6465 47.5582 31.6074 48.5116C32.5684 49.4651 33.8672 50 35.2208 50H114.151C115.477 50 116.749 49.4732 117.686 48.5355C118.624 47.5979 119.151 46.3261 119.151 45V1H30.0908ZM58.8608 45.15H42.9708V9.73H47.1808V7.26H55.1108V9.73H58.8608V45.15Z" fill="#C9D1D3" stroke="black" stroke-width="2" stroke-linecap="round" stroke-linejoin="round"/>
<path d="M113.55 8.25H107.61V11.22H113.55V8.25Z" fill="black"/>
<path d="M30.0908 97.86V134.26C30.0961 135.255 30.496 136.208 31.2027 136.909C31.9094 137.61 32.8653 138.003 33.8608 138H121.491V103.38C121.491 101.916 120.909 100.512 119.874 99.4768C118.839 98.4416 117.435 97.86 115.971 97.86H30.0908Z" fill="white" stroke="black" stroke-width="2" stroke-linecap="round" stroke-linejoin="round"/>
<path d="M55.111 102.36H36.291V131.09H55.111V102.36Z" fill="#FFE67C" stroke="black" stroke-width="2" stroke-linecap="round" stroke-linejoin="round"/>
<path d="M60.5605 107.81H103.621" stroke="black" stroke-width="2" stroke-linecap="round" stroke-linejoin="round"/>
<path d="M60.5605 115.66H113.561" stroke="black" stroke-width="2" stroke-linecap="round" stroke-linejoin="round"/>
<path d="M60.5605 123.16H113.561" stroke="black" stroke-width="2" stroke-linecap="round" stroke-linejoin="round"/>
<path d="M60.5605 130.1H113.561" stroke="black" stroke-width="2" stroke-linecap="round" stroke-linejoin="round"/>
<path d="M41.9805 110.92V114.98" stroke="black" stroke-width="2" stroke-linecap="round" stroke-linejoin="round"/>
<path d="M48.9209 110.92V114.98" stroke="black" stroke-width="2" stroke-linecap="round" stroke-linejoin="round"/>
<path d="M41.4902 118.87C41.6024 119.762 42.0464 120.58 42.7338 121.16C43.4212 121.74 44.3017 122.04 45.2002 122C45.2002 122 48.6702 122.63 49.6602 118.66" stroke="black" stroke-width="2" stroke-linecap="round" stroke-linejoin="round"/>
<path d="M38.9071 182.584H29.7521V181.44H38.9071V182.584ZM41.1959 171.141H38.9071V175.718H37.7628V166.563H38.9071V169.996H41.1959V171.141ZM29.7521 181.44H28.6078V179.151H37.7628V178.007H28.6078V176.862H38.9071V180.296H29.7521V181.44ZM30.8965 174.574V175.718H29.7521V174.574H30.8965ZM30.8965 174.574V173.429H32.0409V174.574H30.8965ZM27.4634 173.429V174.574H26.319V173.429H27.4634ZM27.4634 173.429V172.285H28.6078V173.429H27.4634ZM32.0409 173.429V168.852H29.7521V172.285H28.6078V168.852H25.1746V167.707H33.1853V173.429H32.0409ZM57.2171 182.584H48.0621V181.44H57.2171V182.584ZM59.5059 171.141H57.2171V175.718H56.0728V166.563H57.2171V169.996H59.5059V171.141ZM48.0621 181.44H46.9178V179.151H56.0728V178.007H46.9178V176.862H57.2171V180.296H48.0621V181.44ZM49.2065 174.574V175.718H48.0621V174.574H49.2065ZM49.2065 174.574V173.429H50.3509V174.574H49.2065ZM45.7734 173.429V174.574H44.629V173.429H45.7734ZM45.7734 173.429V172.285H46.9178V173.429H45.7734ZM50.3509 173.429V168.852H48.0621V172.285H46.9178V168.852H43.4846V167.707H51.4953V173.429H50.3509ZM76.6715 178.007H72.094V182.584H70.9496V178.007H67.5165V182.584H66.3721V178.007H61.7946V176.862H76.6715V178.007ZM64.0834 172.285H74.3828V173.429H64.0834V172.285ZM64.0834 172.285H62.939V171.141V169.996V168.852H64.0834V169.996V172.285ZM74.3828 172.285V168.852H75.5271V172.285H74.3828ZM64.0834 168.852V167.707H74.3828V168.852H64.0834ZM93.8371 173.429H90.404V172.285H93.8371V166.563H94.9815V182.584H93.8371V173.429ZM80.1046 168.852H88.1153V179.151H80.1046V168.852ZM81.249 178.007H86.9709V176.862V175.718V174.574V173.429V172.285V171.141V169.996H81.249V171.141V172.285V173.429V174.574V175.718V178.007ZM99.559 179.151H101.848V181.44H99.559V179.151ZM114.436 173.429H113.292V174.574H112.147V175.718H111.003V176.862H109.858V178.007H112.147V176.862H114.436V179.151H106.425V178.007H107.57V176.862H108.714V175.718H109.858V174.574H111.003V173.429H108.714V174.574H106.425V172.285H114.436V173.429ZM122.447 179.151H117.869V178.007H119.013V173.429H117.869V172.285H121.302V178.007H122.447V179.151ZM119.013 168.852H121.302V171.141H119.013V168.852ZM129.313 181.44H124.735V180.296H125.88V173.429H124.735V172.285H127.024V173.429H128.168V172.285H131.602V173.429H132.746V176.862H131.602V178.007H128.168V180.296H129.313V181.44ZM128.168 176.862H130.457V175.718V174.574V173.429H128.168V174.574V176.862Z" fill="#1F2223"/>
</g>
<defs>
<clipPath id="clip0_493_6109">
<rect width="148.62" height="185.04" fill="white" transform="translate(0.860352)"/>
</clipPath>
</defs>
</svg>
