<svg width="168" height="109" viewBox="0 0 168 109" fill="none" xmlns="http://www.w3.org/2000/svg">
<path fill-rule="evenodd" clip-rule="evenodd" d="M84 98.5934C129.84 98.5934 167 76.7464 167 49.7967C167 22.847 129.84 1 84 1C38.1604 1 1 22.847 1 49.7967C1 67.0146 16.1682 82.1497 39.0772 90.8354C41.0484 95.7321 45.3423 101.509 53.7533 106.794C54.2823 107.251 54.8007 107.55 55.2687 107.714C54.7493 107.409 54.2443 107.103 53.7533 106.794C51.8029 105.109 49.7097 101.278 49.4757 94.1847C59.9884 97.0155 71.6808 98.5934 84 98.5934Z" fill="white"/>
<path d="M39.0772 90.8354L39.7729 90.5553C39.6947 90.361 39.5389 90.2083 39.3431 90.1341L39.0772 90.8354ZM55.2687 107.714L55.021 108.422C55.3854 108.55 55.787 108.38 55.9493 108.029C56.1115 107.679 55.9813 107.263 55.6484 107.067L55.2687 107.714ZM49.4757 94.1847L49.6707 93.4605C49.4412 93.3987 49.196 93.4494 49.0097 93.5971C48.8235 93.7447 48.7183 93.9719 48.7261 94.2095L49.4757 94.1847ZM166.25 49.7967C166.25 62.897 157.213 74.8928 142.31 83.6546C127.424 92.4063 106.81 97.8434 84 97.8434V99.3434C107.03 99.3434 127.916 93.857 143.07 84.9477C158.207 76.0487 167.75 63.6461 167.75 49.7967H166.25ZM84 1.75C106.81 1.75 127.424 7.18714 142.31 15.9388C157.213 24.7006 166.25 36.6964 166.25 49.7967H167.75C167.75 35.9473 158.207 23.5448 143.07 14.6457C127.916 5.73638 107.03 0.25 84 0.25V1.75ZM1.75 49.7967C1.75 36.6964 10.7869 24.7006 25.6902 15.9388C40.5762 7.18714 61.1901 1.75 84 1.75V0.25C60.9703 0.25 40.0842 5.73638 24.93 14.6457C9.79329 23.5448 0.25 35.9473 0.25 49.7967H1.75ZM39.3431 90.1341C16.5311 81.4852 1.75 66.537 1.75 49.7967H0.25C0.25 67.4922 15.8053 82.8142 38.8113 91.5366L39.3431 90.1341ZM54.1523 106.159C45.8556 100.946 41.677 95.2853 39.7729 90.5553L38.3815 91.1154C40.4198 96.1789 44.8291 102.073 53.3543 107.429L54.1523 106.159ZM55.5165 107.006C55.1517 106.879 54.7137 106.633 54.2437 106.227L53.2629 107.362C53.8508 107.87 54.4497 108.222 55.021 108.422L55.5165 107.006ZM53.3543 107.429C53.8518 107.742 54.3633 108.052 54.8891 108.361L55.6484 107.067C55.1354 106.766 54.6368 106.463 54.1523 106.159L53.3543 107.429ZM48.7261 94.2095C48.964 101.422 51.097 105.49 53.2629 107.362L54.2437 106.227C52.5088 104.727 50.4553 101.134 50.2253 94.16L48.7261 94.2095ZM84 97.8434C71.7439 97.8434 60.1172 96.2735 49.6707 93.4605L49.2807 94.909C59.8596 97.7575 71.6177 99.3434 84 99.3434V97.8434Z" fill="black"/>
<path d="M65.1239 33.784C64.8066 33.784 64.5799 33.6423 64.4439 33.359C64.4212 33.3137 64.3986 33.1777 64.3759 32.951C64.3646 32.713 64.3476 32.4297 64.3249 32.101C64.3136 31.761 64.3022 31.3983 64.2909 31.013C64.2796 30.6163 64.2682 30.2423 64.2569 29.891C64.2456 29.5283 64.2342 29.2053 64.2229 28.922C64.2116 28.6387 64.2059 28.4403 64.2059 28.327C64.1946 28.0663 64.1832 27.8113 64.1719 27.562C64.1606 27.3013 64.1436 27.0407 64.1209 26.78C64.1096 26.6327 64.0982 26.491 64.0869 26.355C64.0756 26.2077 64.0699 26.0603 64.0699 25.913C64.0699 25.6863 64.1549 25.4937 64.3249 25.335C64.5062 25.1763 64.7046 25.097 64.9199 25.097C65.2259 25.097 65.4469 25.233 65.5829 25.505C65.6169 25.5617 65.6452 25.7657 65.6679 26.117C65.7019 26.457 65.7302 26.8707 65.7529 27.358H65.8039L66.6709 27.375H67.0959C67.2546 27.375 67.4586 27.375 67.7079 27.375C67.9686 27.3637 68.1782 27.3693 68.3369 27.392C68.5069 27.4147 68.6429 27.4883 68.7449 27.613C68.8582 27.7377 68.9149 27.885 68.9149 28.055C68.9149 28.2817 68.8242 28.4743 68.6429 28.633C68.4729 28.7917 68.2802 28.871 68.0649 28.871H67.6399L66.7729 28.854H66.3479C66.2799 28.854 66.2006 28.8597 66.1099 28.871C66.0192 28.871 65.9229 28.871 65.8209 28.871C65.8322 29.0863 65.8379 29.296 65.8379 29.5C65.8379 29.6927 65.8436 29.8853 65.8549 30.078L66.6709 30.095H67.0959C67.2546 30.095 67.4586 30.095 67.7079 30.095C67.9686 30.0837 68.1782 30.0893 68.3369 30.112C68.5069 30.1347 68.6429 30.2083 68.7449 30.333C68.8582 30.4577 68.9149 30.605 68.9149 30.775C68.9149 31.0017 68.8242 31.1943 68.6429 31.353C68.4729 31.5117 68.2802 31.591 68.0649 31.591H67.6399L66.7729 31.574H66.3479H65.9059C65.9059 31.6307 65.9059 31.71 65.9059 31.812C65.9172 31.9027 65.9229 31.965 65.9229 31.999C65.9342 32.1577 65.9456 32.322 65.9569 32.492C65.9682 32.6507 65.9739 32.8093 65.9739 32.968C65.9739 33.1947 65.8832 33.3873 65.7019 33.546C65.5319 33.7047 65.3392 33.784 65.1239 33.784ZM54.0229 29.636C54.0229 29.3413 54.0399 29.0523 54.0739 28.769C54.1192 28.4857 54.1872 28.2023 54.2779 27.919C54.3572 27.681 54.4706 27.4373 54.6179 27.188C54.7652 26.9273 54.9352 26.6837 55.1279 26.457C55.3319 26.2303 55.5472 26.032 55.7739 25.862C56.0006 25.6807 56.2386 25.5503 56.4879 25.471C56.6466 25.4143 56.8336 25.3747 57.0489 25.352C57.2756 25.3293 57.4739 25.318 57.6439 25.318C58.2559 25.318 58.8056 25.4143 59.2929 25.607C59.7916 25.7997 60.2109 26.0717 60.5509 26.423C60.9022 26.7743 61.1686 27.1993 61.3499 27.698C61.5426 28.1967 61.6389 28.752 61.6389 29.364C61.6389 29.67 61.6049 29.9987 61.5369 30.35C61.4689 30.69 61.3726 31.0017 61.2479 31.285C61.1006 31.591 60.8966 31.8743 60.6359 32.135C60.3752 32.3957 60.0862 32.6223 59.7689 32.815C59.4516 32.9963 59.1172 33.138 58.7659 33.24C58.4146 33.342 58.0689 33.393 57.7289 33.393C57.1622 33.393 56.6466 33.3023 56.1819 33.121C55.7286 32.9397 55.3376 32.6847 55.0089 32.356C54.6916 32.0273 54.4479 31.6363 54.2779 31.183C54.1079 30.7183 54.0229 30.2027 54.0229 29.636ZM57.4909 26.814C57.4002 26.814 57.2982 26.814 57.1849 26.814C57.0829 26.814 56.9866 26.8253 56.8959 26.848C56.8052 26.8707 56.7259 26.9103 56.6579 26.967C56.6012 27.0237 56.5389 27.0803 56.4709 27.137C56.1422 27.4657 55.9156 27.8283 55.7909 28.225C55.6662 28.6103 55.6039 29.0297 55.6039 29.483C55.6039 30.2083 55.7909 30.7977 56.1649 31.251C56.5502 31.693 57.1226 31.914 57.8819 31.914C58.0632 31.914 58.2502 31.8857 58.4429 31.829C58.6356 31.7723 58.8169 31.693 58.9869 31.591C59.1682 31.489 59.3326 31.37 59.4799 31.234C59.6272 31.0867 59.7462 30.928 59.8369 30.758C59.9049 30.6107 59.9616 30.4067 60.0069 30.146C60.0522 29.874 60.0749 29.653 60.0749 29.483C60.0749 28.667 59.8539 28.021 59.4119 27.545C58.9699 27.0577 58.3296 26.814 57.4909 26.814ZM56.2839 36.028C56.0912 36.028 55.9212 35.9657 55.7739 35.841C55.6379 35.7163 55.5699 35.552 55.5699 35.348C55.5699 35.1667 55.6266 35.008 55.7399 34.872C55.8532 34.736 55.9892 34.6397 56.1479 34.583C56.2272 34.549 56.4426 34.5263 56.7939 34.515C57.1452 34.5037 57.5249 34.498 57.9329 34.498C58.3409 34.4867 58.7319 34.481 59.1059 34.481C59.4799 34.481 59.7406 34.481 59.8879 34.481C60.7039 34.4583 61.5086 34.4413 62.3019 34.43C63.0952 34.4073 63.8942 34.396 64.6989 34.396C65.1749 34.396 65.5149 34.498 65.7189 34.702C65.9229 34.906 66.0249 35.246 66.0249 35.722C66.0249 35.858 66.0192 36.0507 66.0079 36.3C66.0079 36.538 65.9966 36.8043 65.9739 37.099C65.9626 37.3937 65.9399 37.6997 65.9059 38.017C65.8832 38.3343 65.8549 38.629 65.8209 38.901C65.7869 39.1843 65.7472 39.4337 65.7019 39.649C65.6566 39.8643 65.6056 40.0173 65.5489 40.108C65.4696 40.2327 65.3619 40.3347 65.2259 40.414C65.1012 40.5047 64.9596 40.55 64.8009 40.55C64.6082 40.55 64.4382 40.4877 64.2909 40.363C64.1549 40.2383 64.0869 40.074 64.0869 39.87C64.0869 39.6773 64.1096 39.479 64.1549 39.275C64.2116 39.071 64.2512 38.8727 64.2739 38.68L64.3249 38.221C64.2682 38.221 64.2116 38.221 64.1549 38.221C64.0982 38.2323 64.0416 38.238 63.9849 38.238L62.2679 38.289C61.3726 38.3117 60.4772 38.3343 59.5819 38.357C58.6979 38.391 57.8082 38.408 56.9129 38.408C56.7202 38.408 56.5502 38.3457 56.4029 38.221C56.2669 38.0963 56.1989 37.932 56.1989 37.728C56.1989 37.558 56.2556 37.405 56.3689 37.269C56.4822 37.1217 56.6182 37.0197 56.7769 36.963C56.8902 36.929 57.0092 36.912 57.1339 36.912C57.2699 36.912 57.3946 36.912 57.5079 36.912C58.6752 36.912 59.8312 36.8837 60.9759 36.827C62.1206 36.7703 63.2709 36.7363 64.4269 36.725C64.4269 36.623 64.4269 36.521 64.4269 36.419C64.4382 36.3057 64.4439 36.198 64.4439 36.096V35.892L58.9869 35.977C58.5336 35.9883 58.0802 35.9997 57.6269 36.011C57.1849 36.0223 56.7372 36.028 56.2839 36.028ZM72.7152 30.69C72.5225 30.69 72.3525 30.6277 72.2052 30.503C72.0692 30.3783 72.0012 30.214 72.0012 30.01C72.0012 29.7947 72.0805 29.6133 72.2392 29.466C72.3979 29.3187 72.5792 29.2337 72.7832 29.211C72.8512 29.1997 72.9192 29.194 72.9872 29.194C73.0552 29.194 73.1232 29.194 73.1912 29.194C74.2905 29.194 75.3785 29.177 76.4552 29.143C77.5319 29.109 78.6199 29.092 79.7192 29.092C80.0479 29.092 80.3085 29.143 80.5012 29.245C80.6939 29.347 80.8412 29.4887 80.9432 29.67C81.0565 29.8513 81.1302 30.061 81.1642 30.299C81.2095 30.537 81.2379 30.792 81.2492 31.064C81.2605 31.2453 81.2662 31.4267 81.2662 31.608C81.2662 31.7893 81.2662 31.9707 81.2662 32.152C81.2662 32.254 81.2662 32.4297 81.2662 32.679C81.2662 32.917 81.2662 33.189 81.2662 33.495C81.2662 33.801 81.2605 34.124 81.2492 34.464C81.2492 34.7927 81.2435 35.1043 81.2322 35.399C81.2209 35.6823 81.2039 35.926 81.1812 36.13C81.1699 36.334 81.1529 36.4643 81.1302 36.521C81.0622 36.6797 80.9545 36.81 80.8072 36.912C80.6599 37.0027 80.5012 37.048 80.3312 37.048C80.1385 37.048 79.9685 36.9857 79.8212 36.861C79.6852 36.7363 79.6172 36.572 79.6172 36.368C79.6172 36.1867 79.6172 36.011 79.6172 35.841C79.6285 35.6597 79.6399 35.4783 79.6512 35.297C79.6512 35.2403 79.6512 35.1837 79.6512 35.127C79.6625 35.0703 79.6682 35.0137 79.6682 34.957V34.294C79.6682 34.2373 79.6682 34.1807 79.6682 34.124C79.6795 34.0673 79.6852 34.0107 79.6852 33.954C79.4812 33.9653 79.2489 33.9767 78.9882 33.988C78.7389 33.9993 78.4895 34.0107 78.2402 34.022C77.9909 34.022 77.7642 34.0277 77.5602 34.039C77.3675 34.039 77.2259 34.039 77.1352 34.039L74.3812 34.141C74.1545 34.1523 73.9335 34.1637 73.7182 34.175C73.5029 34.1863 73.2819 34.192 73.0552 34.192C72.8625 34.192 72.6925 34.1297 72.5452 34.005C72.4092 33.8803 72.3412 33.716 72.3412 33.512C72.3412 33.342 72.3922 33.189 72.4942 33.053C72.5962 32.917 72.7265 32.8207 72.8852 32.764C72.9645 32.73 73.1685 32.7073 73.4972 32.696C73.8372 32.6733 74.1885 32.6563 74.5512 32.645C74.9252 32.6223 75.2595 32.611 75.5542 32.611C75.8489 32.5997 76.0019 32.594 76.0132 32.594C76.6252 32.5713 77.2372 32.5487 77.8492 32.526C78.4725 32.492 79.0902 32.4693 79.7022 32.458V31.829C79.7022 31.625 79.6965 31.421 79.6852 31.217C79.6739 31.013 79.6455 30.809 79.6002 30.605H78.9372C77.8945 30.605 76.8575 30.622 75.8262 30.656C74.7949 30.6787 73.7579 30.69 72.7152 30.69ZM88.0218 30.69C87.8292 30.69 87.6592 30.6277 87.5118 30.503C87.3758 30.3783 87.3078 30.214 87.3078 30.01C87.3078 29.7947 87.3872 29.6133 87.5458 29.466C87.7045 29.3187 87.8858 29.2337 88.0898 29.211C88.1578 29.1997 88.2258 29.194 88.2938 29.194C88.3618 29.194 88.4298 29.194 88.4978 29.194C89.5972 29.194 90.6852 29.177 91.7618 29.143C92.8385 29.109 93.9265 29.092 95.0258 29.092C95.3545 29.092 95.6152 29.143 95.8078 29.245C96.0005 29.347 96.1478 29.4887 96.2498 29.67C96.3632 29.8513 96.4368 30.061 96.4708 30.299C96.5162 30.537 96.5445 30.792 96.5558 31.064C96.5672 31.2453 96.5728 31.4267 96.5728 31.608C96.5728 31.7893 96.5728 31.9707 96.5728 32.152C96.5728 32.254 96.5728 32.4297 96.5728 32.679C96.5728 32.917 96.5728 33.189 96.5728 33.495C96.5728 33.801 96.5672 34.124 96.5558 34.464C96.5558 34.7927 96.5502 35.1043 96.5388 35.399C96.5275 35.6823 96.5105 35.926 96.4878 36.13C96.4765 36.334 96.4595 36.4643 96.4368 36.521C96.3688 36.6797 96.2612 36.81 96.1138 36.912C95.9665 37.0027 95.8078 37.048 95.6378 37.048C95.4452 37.048 95.2752 36.9857 95.1278 36.861C94.9918 36.7363 94.9238 36.572 94.9238 36.368C94.9238 36.1867 94.9238 36.011 94.9238 35.841C94.9352 35.6597 94.9465 35.4783 94.9578 35.297C94.9578 35.2403 94.9578 35.1837 94.9578 35.127C94.9692 35.0703 94.9748 35.0137 94.9748 34.957V34.294C94.9748 34.2373 94.9748 34.1807 94.9748 34.124C94.9862 34.0673 94.9918 34.0107 94.9918 33.954C94.7878 33.9653 94.5555 33.9767 94.2948 33.988C94.0455 33.9993 93.7962 34.0107 93.5468 34.022C93.2975 34.022 93.0708 34.0277 92.8668 34.039C92.6742 34.039 92.5325 34.039 92.4418 34.039L89.6878 34.141C89.4612 34.1523 89.2402 34.1637 89.0248 34.175C88.8095 34.1863 88.5885 34.192 88.3618 34.192C88.1692 34.192 87.9992 34.1297 87.8518 34.005C87.7158 33.8803 87.6478 33.716 87.6478 33.512C87.6478 33.342 87.6988 33.189 87.8008 33.053C87.9028 32.917 88.0332 32.8207 88.1918 32.764C88.2712 32.73 88.4752 32.7073 88.8038 32.696C89.1438 32.6733 89.4952 32.6563 89.8578 32.645C90.2318 32.6223 90.5662 32.611 90.8608 32.611C91.1555 32.5997 91.3085 32.594 91.3198 32.594C91.9318 32.5713 92.5438 32.5487 93.1558 32.526C93.7792 32.492 94.3968 32.4693 95.0088 32.458V31.829C95.0088 31.625 95.0032 31.421 94.9918 31.217C94.9805 31.013 94.9522 30.809 94.9068 30.605H94.2438C93.2012 30.605 92.1642 30.622 91.1328 30.656C90.1015 30.6787 89.0645 30.69 88.0218 30.69ZM103.328 30.69C103.136 30.69 102.966 30.6277 102.818 30.503C102.682 30.3783 102.614 30.214 102.614 30.01C102.614 29.7947 102.694 29.6133 102.852 29.466C103.011 29.3187 103.192 29.2337 103.396 29.211C103.464 29.1997 103.532 29.194 103.6 29.194C103.668 29.194 103.736 29.194 103.804 29.194C104.904 29.194 105.992 29.177 107.068 29.143C108.145 29.109 109.233 29.092 110.332 29.092C110.661 29.092 110.922 29.143 111.114 29.245C111.307 29.347 111.454 29.4887 111.556 29.67C111.67 29.8513 111.743 30.061 111.777 30.299C111.823 30.537 111.851 30.792 111.862 31.064C111.874 31.2453 111.879 31.4267 111.879 31.608C111.879 31.7893 111.879 31.9707 111.879 32.152C111.879 32.254 111.879 32.4297 111.879 32.679C111.879 32.917 111.879 33.189 111.879 33.495C111.879 33.801 111.874 34.124 111.862 34.464C111.862 34.7927 111.857 35.1043 111.845 35.399C111.834 35.6823 111.817 35.926 111.794 36.13C111.783 36.334 111.766 36.4643 111.743 36.521C111.675 36.6797 111.568 36.81 111.42 36.912C111.273 37.0027 111.114 37.048 110.944 37.048C110.752 37.048 110.582 36.9857 110.434 36.861C110.298 36.7363 110.23 36.572 110.23 36.368C110.23 36.1867 110.23 36.011 110.23 35.841C110.242 35.6597 110.253 35.4783 110.264 35.297C110.264 35.2403 110.264 35.1837 110.264 35.127C110.276 35.0703 110.281 35.0137 110.281 34.957V34.294C110.281 34.2373 110.281 34.1807 110.281 34.124C110.293 34.0673 110.298 34.0107 110.298 33.954C110.094 33.9653 109.862 33.9767 109.601 33.988C109.352 33.9993 109.103 34.0107 108.853 34.022C108.604 34.022 108.377 34.0277 108.173 34.039C107.981 34.039 107.839 34.039 107.748 34.039L104.994 34.141C104.768 34.1523 104.547 34.1637 104.331 34.175C104.116 34.1863 103.895 34.192 103.668 34.192C103.476 34.192 103.306 34.1297 103.158 34.005C103.022 33.8803 102.954 33.716 102.954 33.512C102.954 33.342 103.005 33.189 103.107 33.053C103.209 32.917 103.34 32.8207 103.498 32.764C103.578 32.73 103.782 32.7073 104.11 32.696C104.45 32.6733 104.802 32.6563 105.164 32.645C105.538 32.6223 105.873 32.611 106.167 32.611C106.462 32.5997 106.615 32.594 106.626 32.594C107.238 32.5713 107.85 32.5487 108.462 32.526C109.086 32.492 109.703 32.4693 110.315 32.458V31.829C110.315 31.625 110.31 31.421 110.298 31.217C110.287 31.013 110.259 30.809 110.213 30.605H109.55C108.508 30.605 107.471 30.622 106.439 30.656C105.408 30.6787 104.371 30.69 103.328 30.69ZM30.0149 61.295C29.7882 61.295 29.6126 61.2213 29.4879 61.074C29.3632 60.938 29.3009 60.7567 29.3009 60.53V55.243C29.3009 54.8123 29.3009 54.376 29.3009 53.934C29.3009 53.492 29.2952 53.0557 29.2839 52.625C29.0006 52.6477 28.7002 52.6647 28.3829 52.676C28.0656 52.676 27.8276 52.6817 27.6689 52.693C27.3742 52.7043 27.0796 52.7213 26.7849 52.744C26.5016 52.7667 26.1956 52.778 25.8669 52.778C25.6742 52.778 25.5042 52.7157 25.3569 52.591C25.2209 52.4663 25.1529 52.302 25.1529 52.098C25.1529 51.9393 25.1982 51.7977 25.2889 51.673C25.4476 51.4463 25.6516 51.3217 25.9009 51.299C26.1616 51.2763 26.4166 51.2593 26.6659 51.248C27.1079 51.2253 27.5216 51.2083 27.9069 51.197C28.3036 51.1857 28.6946 51.1687 29.0799 51.146C29.1139 51.146 29.1422 51.146 29.1649 51.146C29.1989 51.1347 29.2272 51.129 29.2499 51.129C29.2386 50.755 29.2216 50.381 29.1989 50.007C29.1876 49.6217 29.1706 49.242 29.1479 48.868C29.1252 48.5733 29.1026 48.2843 29.0799 48.001C29.0572 47.7177 29.0459 47.4287 29.0459 47.134C29.0459 46.9073 29.1309 46.7147 29.3009 46.556C29.4709 46.3973 29.6692 46.318 29.8959 46.318C30.1906 46.318 30.4116 46.454 30.5589 46.726C30.5816 46.7713 30.6042 46.93 30.6269 47.202C30.6496 47.474 30.6722 47.8083 30.6949 48.205C30.7176 48.6017 30.7402 49.0323 30.7629 49.497C30.7856 49.9503 30.8026 50.3867 30.8139 50.806C30.8252 51.2253 30.8366 51.5993 30.8479 51.928C30.8592 52.2567 30.8649 52.4777 30.8649 52.591V60.479C30.8649 60.7057 30.7799 60.8983 30.6099 61.057C30.4399 61.2157 30.2416 61.295 30.0149 61.295ZM23.2319 48.545C23.1072 48.5337 22.9032 48.5223 22.6199 48.511C22.3479 48.4997 22.0362 48.494 21.6849 48.494C21.3449 48.4827 20.9879 48.4713 20.6139 48.46C20.2399 48.4487 19.8886 48.4373 19.5599 48.426C19.2426 48.4033 18.9706 48.3863 18.7439 48.375C18.5172 48.3523 18.3756 48.324 18.3189 48.29C18.0582 48.1427 17.9279 47.9387 17.9279 47.678C17.9279 47.4513 18.0129 47.2587 18.1829 47.1C18.3529 46.9413 18.5512 46.862 18.7779 46.862C18.9139 46.862 19.0499 46.8677 19.1859 46.879C19.3332 46.8903 19.4749 46.9017 19.6109 46.913C19.8716 46.9357 20.1209 46.947 20.3589 46.947C20.6082 46.947 20.8632 46.9527 21.1239 46.964C21.5886 46.9867 22.0476 46.998 22.5009 46.998C22.9656 46.998 23.4302 47.0263 23.8949 47.083C23.9856 47.0943 24.0706 47.1113 24.1499 47.134C24.2292 47.1453 24.3086 47.1793 24.3879 47.236C24.5466 47.338 24.6542 47.4853 24.7109 47.678C24.7789 47.8707 24.8129 48.052 24.8129 48.222C24.8129 48.6187 24.7506 49.0833 24.6259 49.616C24.5126 50.1487 24.3652 50.6927 24.1839 51.248C24.0139 51.792 23.8269 52.319 23.6229 52.829C23.4189 53.339 23.2319 53.7697 23.0619 54.121C23.0846 54.121 23.0959 54.1323 23.0959 54.155L23.1469 54.206C23.1582 54.2173 23.1639 54.2287 23.1639 54.24C23.3566 54.4553 23.5549 54.6593 23.7589 54.852C23.9742 55.0447 24.1952 55.2373 24.4219 55.43C24.8186 55.7813 25.2492 56.1157 25.7139 56.433C25.8159 56.501 25.9179 56.569 26.0199 56.637C26.1332 56.6937 26.2352 56.7673 26.3259 56.858C26.4392 56.9713 26.4959 57.1243 26.4959 57.317C26.4959 57.5437 26.4109 57.7363 26.2409 57.895C26.0709 58.0537 25.8726 58.133 25.6459 58.133C25.5212 58.133 25.4136 58.1103 25.3229 58.065C25.2549 58.031 25.1869 57.9913 25.1189 57.946C25.0509 57.9007 24.9886 57.8553 24.9319 57.81C24.4332 57.4813 23.9572 57.1357 23.5039 56.773C23.0506 56.399 22.6199 55.9967 22.2119 55.566C21.8832 56.0647 21.5206 56.535 21.1239 56.977C20.7386 57.419 20.3079 57.8383 19.8319 58.235C19.7526 58.303 19.6506 58.388 19.5259 58.49C19.4126 58.5807 19.2936 58.6713 19.1689 58.762C19.0442 58.8413 18.9139 58.9093 18.7779 58.966C18.6532 59.0227 18.5399 59.051 18.4379 59.051C18.2452 59.051 18.0752 58.9887 17.9279 58.864C17.7919 58.7393 17.7239 58.575 17.7239 58.371C17.7239 58.133 17.8032 57.9573 17.9619 57.844C18.1206 57.7307 18.2849 57.6117 18.4549 57.487C18.7156 57.3057 18.9649 57.1073 19.2029 56.892C19.4522 56.6653 19.6846 56.433 19.8999 56.195C20.6366 55.3677 21.2372 54.461 21.7019 53.475C22.1666 52.489 22.5462 51.4633 22.8409 50.398C22.9316 50.092 23.0109 49.786 23.0789 49.48C23.1582 49.174 23.2092 48.8623 23.2319 48.545ZM48.6886 60.19C48.6773 58.7167 48.6773 57.2547 48.6886 55.804C48.6999 54.3533 48.6773 52.8913 48.6206 51.418C48.5866 50.4547 48.5356 49.4743 48.4676 48.477C48.4449 48.2617 48.4223 48.0463 48.3996 47.831C48.3769 47.6157 48.3656 47.4003 48.3656 47.185C48.3656 46.9583 48.4506 46.7657 48.6206 46.607C48.7906 46.4483 48.9889 46.369 49.2156 46.369C49.3516 46.369 49.4819 46.4087 49.6066 46.488C49.7313 46.556 49.8219 46.6523 49.8786 46.777C49.9353 46.879 49.9636 47.032 49.9636 47.236C49.9749 47.44 49.9863 47.6043 49.9976 47.729C50.0543 48.341 50.0939 48.9927 50.1166 49.684C50.1393 50.364 50.1619 51.01 50.1846 51.622C50.4113 51.622 50.6153 51.6163 50.7966 51.605C50.9893 51.5937 51.1706 51.5823 51.3406 51.571C51.5106 51.5597 51.6863 51.554 51.8676 51.554C52.0603 51.5427 52.2699 51.537 52.4966 51.537C52.6893 51.537 52.8536 51.5993 52.9896 51.724C53.1369 51.8487 53.2106 52.013 53.2106 52.217C53.2106 52.523 53.0916 52.7383 52.8536 52.863C52.6269 52.9763 52.3833 53.033 52.1226 53.033C51.9299 53.033 51.7543 53.0387 51.5956 53.05C51.4483 53.05 51.3066 53.0557 51.1706 53.067C51.0346 53.067 50.8873 53.0727 50.7286 53.084C50.5813 53.0953 50.4113 53.101 50.2186 53.101C50.2299 53.6677 50.2356 54.189 50.2356 54.665C50.2469 55.1297 50.2526 55.6453 50.2526 56.212V60.513C50.2526 60.7397 50.1676 60.9323 49.9976 61.091C49.8276 61.2497 49.6293 61.329 49.4026 61.329C49.1759 61.329 48.9946 61.261 48.8586 61.125C48.7339 60.989 48.6716 60.8077 48.6716 60.581V60.479L48.6886 60.292V60.19ZM37.9446 58.813C37.9446 58.6883 37.9673 58.5807 38.0126 58.49C38.1033 58.286 38.2109 58.0877 38.3356 57.895C38.4716 57.7023 38.5963 57.5097 38.7096 57.317C38.9363 56.9203 39.1516 56.5237 39.3556 56.127C39.5709 55.7303 39.7749 55.328 39.9676 54.92C40.1376 54.5347 40.2793 54.1437 40.3926 53.747C40.5173 53.3503 40.6193 52.948 40.6986 52.54C40.8119 51.928 40.9026 51.3217 40.9706 50.721C41.0386 50.109 41.1123 49.497 41.1916 48.885C41.2143 48.647 41.2313 48.409 41.2426 48.171C41.2653 47.933 41.3049 47.695 41.3616 47.457C41.3729 47.389 41.4013 47.3153 41.4466 47.236C41.5259 47.1 41.6336 46.9867 41.7696 46.896C41.9056 46.8053 42.0529 46.76 42.2116 46.76C42.4043 46.76 42.5686 46.8223 42.7046 46.947C42.8519 47.0717 42.9256 47.236 42.9256 47.44C42.9256 47.5647 42.9143 47.6893 42.8916 47.814C42.8803 47.9273 42.8633 48.0463 42.8406 48.171C42.8293 48.239 42.8179 48.307 42.8066 48.375C42.8066 48.4317 42.8009 48.494 42.7896 48.562L42.7046 49.344C42.6933 49.412 42.6819 49.48 42.6706 49.548C42.6706 49.6047 42.6649 49.667 42.6536 49.735C42.5969 50.245 42.5403 50.7097 42.4836 51.129C42.4269 51.537 42.3703 51.9223 42.3136 52.285C42.4156 52.421 42.5119 52.574 42.6026 52.744C42.6933 52.914 42.7839 53.067 42.8746 53.203C43.1353 53.5997 43.3903 53.9907 43.6396 54.376C43.8889 54.7613 44.1439 55.1467 44.4046 55.532C44.5746 55.7927 44.7446 56.0533 44.9146 56.314C45.0959 56.5633 45.2773 56.8183 45.4586 57.079C45.5606 57.2263 45.6683 57.3737 45.7816 57.521C45.9063 57.6683 46.0139 57.8213 46.1046 57.98C46.1613 58.0933 46.1896 58.2067 46.1896 58.32C46.1896 58.5467 46.1046 58.7393 45.9346 58.898C45.7646 59.0567 45.5663 59.136 45.3396 59.136C45.1243 59.136 44.9429 59.0623 44.7956 58.915C44.7389 58.8697 44.6596 58.779 44.5576 58.643C44.4669 58.507 44.3649 58.3597 44.2516 58.201C44.1496 58.0423 44.0476 57.8893 43.9456 57.742C43.8549 57.5947 43.7813 57.4813 43.7246 57.402C43.3959 56.926 43.0729 56.4443 42.7556 55.957C42.4383 55.4697 42.1153 54.9823 41.7866 54.495C41.6053 55.0163 41.3729 55.5603 41.0896 56.127C40.8063 56.6823 40.4379 57.334 39.9846 58.082L39.5936 58.728C39.4689 58.9207 39.3443 59.0963 39.2196 59.255C39.1063 59.4137 38.9193 59.493 38.6586 59.493C38.4659 59.493 38.2959 59.4307 38.1486 59.306C38.0126 59.1813 37.9446 59.017 37.9446 58.813ZM65.1733 54.784C64.856 54.784 64.6293 54.6423 64.4933 54.359C64.4706 54.3137 64.448 54.1777 64.4253 53.951C64.414 53.713 64.397 53.4297 64.3743 53.101C64.363 52.761 64.3516 52.3983 64.3403 52.013C64.329 51.6163 64.3176 51.2423 64.3063 50.891C64.295 50.5283 64.2836 50.2053 64.2723 49.922C64.261 49.6387 64.2553 49.4403 64.2553 49.327C64.244 49.0663 64.2326 48.8113 64.2213 48.562C64.21 48.3013 64.193 48.0407 64.1703 47.78C64.159 47.6327 64.1476 47.491 64.1363 47.355C64.125 47.2077 64.1193 47.0603 64.1193 46.913C64.1193 46.6863 64.2043 46.4937 64.3743 46.335C64.5556 46.1763 64.754 46.097 64.9693 46.097C65.2753 46.097 65.4963 46.233 65.6323 46.505C65.655 46.5503 65.672 46.6637 65.6833 46.845C65.706 47.0263 65.723 47.2587 65.7343 47.542C65.757 47.814 65.774 48.1257 65.7853 48.477C65.808 48.817 65.8306 49.174 65.8533 49.548H66.0063L66.8223 49.565H67.9103C67.9896 49.565 68.069 49.565 68.1483 49.565C68.2276 49.5537 68.307 49.5593 68.3863 49.582C68.5563 49.6047 68.6923 49.6783 68.7943 49.803C68.9076 49.9277 68.9643 50.075 68.9643 50.245C68.9643 50.4717 68.8736 50.6643 68.6923 50.823C68.5223 50.9817 68.3296 51.061 68.1143 51.061H67.7063L66.8903 51.044H66.4823L65.9043 51.061C65.927 51.5143 65.9383 51.9167 65.9383 52.268C65.9496 52.608 65.961 52.8517 65.9723 52.999C65.9836 53.1577 65.995 53.322 66.0063 53.492C66.0176 53.6507 66.0233 53.8093 66.0233 53.968C66.0233 54.1947 65.9326 54.3873 65.7513 54.546C65.5813 54.7047 65.3886 54.784 65.1733 54.784ZM58.8153 47.916C58.6 47.916 58.3846 47.916 58.1693 47.916C57.9653 47.916 57.75 47.9217 57.5233 47.933L56.6563 47.967C56.441 47.9783 56.2256 47.984 56.0103 47.984C55.795 47.984 55.574 47.984 55.3473 47.984C55.2226 47.984 55.0923 47.9783 54.9563 47.967C54.8316 47.9557 54.7183 47.9273 54.6163 47.882C54.5143 47.8367 54.4293 47.7687 54.3613 47.678C54.2933 47.576 54.2593 47.4457 54.2593 47.287C54.2593 47.0603 54.3443 46.8677 54.5143 46.709C54.6956 46.5503 54.894 46.471 55.1093 46.471H55.4663L56.1633 46.488H56.5203C56.883 46.4767 57.2513 46.4653 57.6253 46.454C57.9993 46.4427 58.3676 46.437 58.7303 46.437C59.1496 46.437 59.501 46.4483 59.7843 46.471C60.079 46.4937 60.317 46.5673 60.4983 46.692C60.691 46.8053 60.8383 46.9923 60.9403 47.253C61.0423 47.5023 61.1216 47.8537 61.1783 48.307C61.2123 48.647 61.2463 48.987 61.2803 49.327C61.3143 49.6557 61.3313 49.99 61.3313 50.33C61.3313 50.5567 61.2406 50.7493 61.0593 50.908C60.8893 51.0667 60.6966 51.146 60.4813 51.146H59.5293L57.6083 51.112H56.5203L56.2313 51.129H56.0953C56.0953 51.333 56.0953 51.5427 56.0953 51.758C56.0953 51.9733 56.1236 52.183 56.1803 52.387C56.1803 52.387 56.186 52.3983 56.1973 52.421V52.472C56.1973 52.4833 56.1973 52.489 56.1973 52.489C56.2086 52.489 56.2143 52.4947 56.2143 52.506L56.2823 52.71C56.305 52.7553 56.3163 52.795 56.3163 52.829C56.4183 52.8857 56.5486 52.931 56.7073 52.965C56.866 52.9877 57.036 53.0103 57.2173 53.033C57.3986 53.0443 57.5686 53.05 57.7273 53.05C57.8973 53.05 58.0446 53.05 58.1693 53.05C58.5773 53.05 58.9796 53.033 59.3763 52.999C59.7843 52.965 60.1866 52.9253 60.5833 52.88C60.7306 52.8687 60.878 52.8517 61.0253 52.829C61.1726 52.8063 61.32 52.795 61.4673 52.795C61.66 52.795 61.8243 52.8573 61.9603 52.982C62.1076 53.1067 62.1813 53.271 62.1813 53.475C62.1813 53.6677 62.1133 53.8377 61.9773 53.985C61.8526 54.121 61.7053 54.2117 61.5353 54.257C61.4446 54.2797 61.3313 54.3023 61.1953 54.325C61.0706 54.3363 60.9346 54.3477 60.7873 54.359C60.64 54.3703 60.4983 54.3817 60.3623 54.393C60.2376 54.393 60.13 54.3987 60.0393 54.41C59.7106 54.4327 59.3763 54.461 59.0363 54.495C58.6963 54.529 58.362 54.546 58.0333 54.546C57.4213 54.546 56.8943 54.5233 56.4523 54.478C56.0103 54.4213 55.6476 54.291 55.3643 54.087C55.081 53.883 54.8713 53.5827 54.7353 53.186C54.5993 52.7893 54.5313 52.251 54.5313 51.571C54.5313 51.3897 54.5256 51.2083 54.5143 51.027C54.503 50.8457 54.4973 50.6587 54.4973 50.466C54.4973 50.2733 54.5653 50.1033 54.7013 49.956C54.8373 49.8087 54.996 49.7123 55.1773 49.667C55.2566 49.6557 55.37 49.65 55.5173 49.65C55.6646 49.6387 55.8176 49.633 55.9763 49.633C56.135 49.633 56.288 49.633 56.4353 49.633C56.594 49.633 56.7186 49.633 56.8093 49.633C57.2966 49.633 57.7783 49.633 58.2543 49.633C58.7416 49.633 59.229 49.6387 59.7163 49.65C59.705 49.5707 59.6936 49.446 59.6823 49.276C59.671 49.106 59.654 48.9303 59.6313 48.749C59.62 48.5677 59.603 48.4033 59.5803 48.256C59.5576 48.0973 59.5293 47.9897 59.4953 47.933C59.382 47.9217 59.2686 47.916 59.1553 47.916C59.0533 47.916 58.94 47.916 58.8153 47.916ZM66.0743 56.824C66.0743 57.3 66.0573 57.776 66.0233 58.252C66.0006 58.728 65.9893 59.204 65.9893 59.68C65.9893 59.8387 65.995 60.003 66.0063 60.173C66.0176 60.3543 66.0006 60.5243 65.9553 60.683C65.91 60.853 65.8363 60.9833 65.7343 61.074C65.6323 61.176 65.5133 61.244 65.3773 61.278C65.2526 61.3233 65.111 61.3517 64.9523 61.363C64.805 61.3743 64.6633 61.38 64.5273 61.38C63.4506 61.4253 62.3796 61.465 61.3143 61.499C60.249 61.533 59.1836 61.55 58.1183 61.55C57.9256 61.55 57.716 61.5273 57.4893 61.482C57.274 61.4367 57.0643 61.3687 56.8603 61.278C56.6563 61.1873 56.475 61.0627 56.3163 60.904C56.169 60.7567 56.0726 60.581 56.0273 60.377C56.0046 60.2977 55.9876 60.1843 55.9763 60.037C55.965 59.8897 55.9536 59.7367 55.9423 59.578C55.9423 59.4307 55.9366 59.2833 55.9253 59.136C55.9253 58.9887 55.9196 58.8697 55.9083 58.779C55.8856 58.3823 55.8573 57.9857 55.8233 57.589C55.7893 57.1923 55.7723 56.7957 55.7723 56.399C55.7723 56.1723 55.8573 55.9797 56.0273 55.821C56.2086 55.6623 56.407 55.583 56.6223 55.583H56.9283L57.5233 55.617H57.8293C58.7473 55.617 59.6653 55.6 60.5833 55.566C61.5013 55.532 62.4193 55.5037 63.3373 55.481C63.632 55.4583 63.9153 55.4413 64.1873 55.43C64.4706 55.4187 64.7596 55.413 65.0543 55.413C65.2356 55.413 65.3886 55.4583 65.5133 55.549C65.6493 55.6397 65.757 55.753 65.8363 55.889C65.927 56.025 65.9893 56.178 66.0233 56.348C66.0573 56.5067 66.0743 56.6653 66.0743 56.824ZM64.4083 59.901C64.4196 59.6063 64.4253 59.306 64.4253 59C64.4253 58.694 64.4366 58.388 64.4593 58.082C64.4706 57.9007 64.4763 57.7193 64.4763 57.538C64.4876 57.3567 64.4933 57.1753 64.4933 56.994V56.909C63.7453 56.9317 62.9916 56.9543 62.2323 56.977C61.4843 56.9997 60.7363 57.0223 59.9883 57.045C59.603 57.0677 59.2176 57.0847 58.8323 57.096C58.4583 57.1073 58.073 57.113 57.6763 57.113H57.3873C57.41 57.5777 57.4383 58.0367 57.4723 58.49C57.5063 58.932 57.5403 59.3853 57.5743 59.85C57.6763 59.9407 57.784 59.9973 57.8973 60.02C58.0106 60.0427 58.1296 60.054 58.2543 60.054C58.617 60.054 58.9796 60.0483 59.3423 60.037C59.7163 60.037 60.0846 60.0313 60.4473 60.02C61.116 59.9973 61.779 59.9803 62.4363 59.969C63.0936 59.9577 63.751 59.935 64.4083 59.901ZM80.889 45.961C81.229 45.961 81.5973 45.978 81.994 46.012C82.402 46.0347 82.8043 46.0857 83.201 46.165C83.609 46.2443 83.9943 46.352 84.357 46.488C84.731 46.624 85.054 46.7997 85.326 47.015C85.6547 47.2983 85.9097 47.6327 86.091 48.018C86.1817 48.1993 86.2497 48.3863 86.295 48.579C86.3517 48.7717 86.38 48.9643 86.38 49.157C86.38 49.8257 86.227 50.3753 85.921 50.806C85.6263 51.2367 85.241 51.5823 84.765 51.843C84.3003 52.0923 83.779 52.268 83.201 52.37C82.6343 52.4607 82.079 52.506 81.535 52.506C81.093 52.506 80.6397 52.489 80.175 52.455C79.7103 52.421 79.2627 52.3417 78.832 52.217C78.4013 52.0923 77.9933 51.911 77.608 51.673C77.234 51.435 76.9053 51.1177 76.622 50.721C76.4973 50.551 76.3897 50.3527 76.299 50.126C76.2083 49.8993 76.163 49.684 76.163 49.48C76.163 49.2873 76.18 49.1003 76.214 48.919C76.2593 48.7377 76.3103 48.5563 76.367 48.375C76.537 47.9217 76.7863 47.542 77.115 47.236C77.4437 46.93 77.812 46.6863 78.22 46.505C78.6393 46.3123 79.0813 46.1763 79.546 46.097C80.0107 46.0063 80.4583 45.961 80.889 45.961ZM80.736 47.457C80.3167 47.457 79.9313 47.491 79.58 47.559C79.24 47.627 78.8887 47.763 78.526 47.967C78.4353 48.0237 78.3503 48.0747 78.271 48.12C78.203 48.1653 78.1407 48.2277 78.084 48.307C77.982 48.4317 77.897 48.5903 77.829 48.783C77.761 48.9757 77.727 49.1513 77.727 49.31C77.727 49.378 77.7553 49.4743 77.812 49.599C77.88 49.7123 77.9367 49.7973 77.982 49.854C78.186 50.126 78.4353 50.3413 78.73 50.5C79.0247 50.6587 79.3363 50.7777 79.665 50.857C80.005 50.925 80.345 50.9703 80.685 50.993C81.0363 51.0043 81.365 51.01 81.671 51.01C81.8523 51.01 82.0733 50.9987 82.334 50.976C82.606 50.9533 82.878 50.9193 83.15 50.874C83.422 50.8173 83.6713 50.7437 83.898 50.653C84.136 50.5623 84.323 50.449 84.459 50.313C84.5837 50.177 84.6687 50.024 84.714 49.854C84.7707 49.6727 84.799 49.497 84.799 49.327C84.799 49.225 84.782 49.1287 84.748 49.038C84.7253 48.936 84.697 48.8397 84.663 48.749C84.6063 48.647 84.544 48.5507 84.476 48.46C84.4193 48.358 84.3457 48.273 84.255 48.205C84.0623 48.0577 83.813 47.933 83.507 47.831C83.2123 47.729 82.9007 47.6553 82.572 47.61C82.2433 47.5533 81.9147 47.5137 81.586 47.491C81.2573 47.4683 80.974 47.457 80.736 47.457ZM80.991 57.759C80.991 57.3397 80.991 56.9147 80.991 56.484C80.991 56.0533 80.9967 55.6283 81.008 55.209H79.75L76.792 55.226H75.33C75.2053 55.226 75.0637 55.226 74.905 55.226C74.7463 55.226 74.599 55.209 74.463 55.175C74.327 55.141 74.2137 55.0787 74.123 54.988C74.0323 54.886 73.987 54.7387 73.987 54.546C73.987 54.3647 74.0437 54.206 74.157 54.07C74.2703 53.934 74.4063 53.8377 74.565 53.781C74.633 53.747 74.7123 53.73 74.803 53.73C75.1657 53.7073 75.534 53.7017 75.908 53.713C76.282 53.7243 76.6503 53.73 77.013 53.73H78.781L82.3 53.713H84.051C84.119 53.713 84.2607 53.713 84.476 53.713C84.6913 53.713 84.9407 53.713 85.224 53.713C85.5073 53.713 85.8077 53.7187 86.125 53.73C86.4423 53.73 86.7313 53.7357 86.992 53.747C87.264 53.747 87.4963 53.7527 87.689 53.764C87.8817 53.7753 87.995 53.7867 88.029 53.798C88.3237 53.9227 88.471 54.1323 88.471 54.427C88.471 54.6537 88.386 54.8463 88.216 55.005C88.046 55.1637 87.8477 55.243 87.621 55.243H86.023L82.81 55.209H82.589C82.589 55.5263 82.589 55.855 82.589 56.195C82.589 56.5237 82.5833 56.8467 82.572 57.164C82.572 57.2547 82.572 57.351 82.572 57.453C82.5833 57.555 82.5777 57.6513 82.555 57.742C82.521 57.9347 82.419 58.099 82.249 58.235C82.079 58.371 81.8977 58.439 81.705 58.439C81.5123 58.439 81.3423 58.3767 81.195 58.252C81.059 58.1273 80.991 57.963 80.991 57.759ZM76.52 58.932L76.503 57.283C76.503 57.0337 76.5823 56.8183 76.741 56.637C76.8997 56.4557 77.1093 56.365 77.37 56.365C77.54 56.365 77.6703 56.399 77.761 56.467C77.863 56.5237 77.9367 56.603 77.982 56.705C78.0387 56.7957 78.0727 56.909 78.084 57.045C78.0953 57.1697 78.101 57.3 78.101 57.436C78.101 57.5607 78.0953 57.725 78.084 57.929C78.084 58.133 78.084 58.3483 78.084 58.575C78.084 58.7903 78.0897 58.9943 78.101 59.187C78.1123 59.3797 78.135 59.5157 78.169 59.595C78.2143 59.7197 78.3163 59.8217 78.475 59.901C78.5657 59.935 78.662 59.952 78.764 59.952C78.8773 59.9633 78.9793 59.969 79.07 59.969C80.2373 59.969 81.399 59.952 82.555 59.918C83.7223 59.884 84.8897 59.867 86.057 59.867C86.2497 59.867 86.414 59.9293 86.55 60.054C86.6973 60.1787 86.771 60.343 86.771 60.547C86.771 60.717 86.72 60.87 86.618 61.006C86.516 61.142 86.3857 61.2383 86.227 61.295C86.1363 61.329 86.04 61.346 85.938 61.346C85.836 61.3573 85.734 61.363 85.632 61.363C84.51 61.363 83.3937 61.3743 82.283 61.397C81.1723 61.431 80.056 61.448 78.934 61.448C78.39 61.448 77.897 61.3403 77.455 61.125C77.0243 60.921 76.741 60.547 76.605 60.003C76.5597 59.8217 76.5313 59.6403 76.52 59.459C76.52 59.289 76.52 59.1133 76.52 58.932ZM101.082 54.784C100.764 54.784 100.538 54.6423 100.402 54.359C100.379 54.3137 100.356 54.1777 100.334 53.951C100.322 53.713 100.305 53.4297 100.283 53.101C100.271 52.761 100.26 52.3983 100.249 52.013C100.237 51.6163 100.226 51.2423 100.215 50.891C100.203 50.5283 100.192 50.2053 100.181 49.922C100.169 49.6387 100.164 49.4403 100.164 49.327C100.152 49.0663 100.141 48.8113 100.13 48.562C100.118 48.3013 100.101 48.0407 100.079 47.78C100.067 47.6327 100.056 47.491 100.045 47.355C100.033 47.2077 100.028 47.0603 100.028 46.913C100.028 46.6863 100.113 46.4937 100.283 46.335C100.464 46.1763 100.662 46.097 100.878 46.097C101.184 46.097 101.405 46.233 101.541 46.505C101.563 46.5503 101.58 46.6637 101.592 46.845C101.614 47.0263 101.631 47.2587 101.643 47.542C101.665 47.814 101.682 48.1257 101.694 48.477C101.716 48.817 101.739 49.174 101.762 49.548H101.915L102.731 49.565H103.139H103.819C103.898 49.565 103.977 49.565 104.057 49.565C104.136 49.5537 104.215 49.5593 104.295 49.582C104.465 49.6047 104.601 49.6783 104.703 49.803C104.816 49.9277 104.873 50.075 104.873 50.245C104.873 50.4717 104.782 50.6643 104.601 50.823C104.431 50.9817 104.238 51.061 104.023 51.061H103.615L102.799 51.044H102.391L101.813 51.061C101.835 51.5143 101.847 51.9167 101.847 52.268C101.858 52.608 101.869 52.8517 101.881 52.999C101.892 53.1577 101.903 53.322 101.915 53.492C101.926 53.6507 101.932 53.8093 101.932 53.968C101.932 54.1947 101.841 54.3873 101.66 54.546C101.49 54.7047 101.297 54.784 101.082 54.784ZM92.4627 52.982C93.1313 52.982 93.7887 52.931 94.4347 52.829C95.0807 52.727 95.7267 52.608 96.3727 52.472C96.4633 52.4493 96.5767 52.4153 96.7127 52.37C96.86 52.3247 97.0017 52.285 97.1377 52.251C97.285 52.2057 97.4267 52.166 97.5627 52.132C97.6987 52.098 97.8063 52.081 97.8857 52.081C98.0783 52.081 98.2427 52.1433 98.3787 52.268C98.526 52.3927 98.5997 52.557 98.5997 52.761C98.5997 52.897 98.56 53.0273 98.4807 53.152C98.4127 53.2653 98.322 53.3617 98.2087 53.441C98.1067 53.4977 97.9933 53.543 97.8687 53.577C97.7553 53.611 97.6363 53.645 97.5117 53.679C96.5937 53.9397 95.6757 54.138 94.7577 54.274C93.851 54.41 92.9217 54.478 91.9697 54.478C91.845 54.478 91.7033 54.4723 91.5447 54.461C91.3973 54.4497 91.2557 54.427 91.1197 54.393C90.9837 54.3477 90.859 54.2853 90.7457 54.206C90.6323 54.1267 90.553 54.0133 90.5077 53.866C90.4623 53.7413 90.434 53.6167 90.4227 53.492C90.4227 53.356 90.4227 53.2257 90.4227 53.101C90.4 52.8403 90.3887 52.5853 90.3887 52.336C90.3887 52.0753 90.3887 51.8147 90.3887 51.554V50.772L90.4057 49.191V48.409V48.222L90.3887 47.865V47.678C90.3887 47.2247 90.4907 46.9357 90.6947 46.811C90.91 46.675 91.2273 46.607 91.6467 46.607C92.406 46.607 93.1653 46.5957 93.9247 46.573C94.684 46.539 95.4433 46.522 96.2027 46.522C96.3273 46.522 96.452 46.5277 96.5767 46.539C96.7013 46.5503 96.8147 46.5787 96.9167 46.624C97.0187 46.6693 97.098 46.7373 97.1547 46.828C97.2227 46.9187 97.2567 47.0433 97.2567 47.202C97.2567 47.4287 97.166 47.6213 96.9847 47.78C96.8147 47.9387 96.622 48.018 96.4067 48.018C95.67 48.018 94.939 48.0293 94.2137 48.052C93.4997 48.0747 92.7743 48.086 92.0377 48.086H91.9867C91.9753 48.6187 91.9697 49.1457 91.9697 49.667C91.9697 50.177 91.9697 50.6927 91.9697 51.214C91.9697 51.5087 91.9697 51.8033 91.9697 52.098C91.9697 52.3927 91.9753 52.6873 91.9867 52.982H92.4627ZM92.2417 57.028C92.049 57.028 91.879 56.9657 91.7317 56.841C91.5957 56.7163 91.5277 56.552 91.5277 56.348C91.5277 56.1667 91.5843 56.008 91.6977 55.872C91.811 55.736 91.947 55.6397 92.1057 55.583C92.185 55.549 92.4003 55.5263 92.7517 55.515C93.103 55.5037 93.4827 55.498 93.8907 55.498C94.2987 55.4867 94.6897 55.481 95.0637 55.481C95.4377 55.481 95.6983 55.481 95.8457 55.481C96.6617 55.4583 97.4663 55.4413 98.2597 55.43C99.053 55.4073 99.852 55.396 100.657 55.396C101.133 55.396 101.473 55.498 101.677 55.702C101.881 55.906 101.983 56.246 101.983 56.722C101.983 56.858 101.977 57.0507 101.966 57.3C101.966 57.538 101.954 57.8043 101.932 58.099C101.92 58.3937 101.898 58.6997 101.864 59.017C101.841 59.3343 101.813 59.629 101.779 59.901C101.745 60.1843 101.705 60.4337 101.66 60.649C101.614 60.8643 101.563 61.0173 101.507 61.108C101.427 61.2327 101.32 61.3347 101.184 61.414C101.059 61.5047 100.917 61.55 100.759 61.55C100.566 61.55 100.396 61.4877 100.249 61.363C100.113 61.2383 100.045 61.074 100.045 60.87C100.045 60.6773 100.067 60.479 100.113 60.275C100.169 60.071 100.209 59.8727 100.232 59.68L100.283 59.221C100.226 59.221 100.169 59.221 100.113 59.221C100.056 59.2323 99.9993 59.238 99.9427 59.238L98.2257 59.289C97.3303 59.3117 96.435 59.3343 95.5397 59.357C94.6557 59.391 93.766 59.408 92.8707 59.408C92.678 59.408 92.508 59.3457 92.3607 59.221C92.2247 59.0963 92.1567 58.932 92.1567 58.728C92.1567 58.558 92.2133 58.405 92.3267 58.269C92.44 58.1217 92.576 58.0197 92.7347 57.963C92.848 57.929 92.967 57.912 93.0917 57.912C93.2277 57.912 93.3523 57.912 93.4657 57.912C94.633 57.912 95.789 57.8837 96.9337 57.827C98.0783 57.7703 99.2287 57.7363 100.385 57.725C100.385 57.623 100.385 57.521 100.385 57.419C100.396 57.3057 100.402 57.198 100.402 57.096V56.892L94.9447 56.977C94.4913 56.9883 94.038 56.9997 93.5847 57.011C93.1427 57.0223 92.695 57.028 92.2417 57.028ZM108.674 51.69C108.482 51.69 108.312 51.6277 108.164 51.503C108.028 51.3783 107.96 51.214 107.96 51.01C107.96 50.7947 108.04 50.6133 108.198 50.466C108.357 50.3187 108.538 50.2337 108.742 50.211C108.81 50.1997 108.878 50.194 108.946 50.194C109.014 50.194 109.082 50.194 109.15 50.194C110.25 50.194 111.338 50.177 112.414 50.143C113.491 50.109 114.579 50.092 115.678 50.092C116.007 50.092 116.268 50.143 116.46 50.245C116.653 50.347 116.8 50.4887 116.902 50.67C117.016 50.8513 117.089 51.061 117.123 51.299C117.169 51.537 117.197 51.792 117.208 52.064C117.22 52.2453 117.225 52.4267 117.225 52.608C117.225 52.7893 117.225 52.9707 117.225 53.152C117.225 53.254 117.225 53.4297 117.225 53.679C117.225 53.917 117.225 54.189 117.225 54.495C117.225 54.801 117.22 55.124 117.208 55.464C117.208 55.7927 117.203 56.1043 117.191 56.399C117.18 56.6823 117.163 56.926 117.14 57.13C117.129 57.334 117.112 57.4643 117.089 57.521C117.021 57.6797 116.914 57.81 116.766 57.912C116.619 58.0027 116.46 58.048 116.29 58.048C116.098 58.048 115.928 57.9857 115.78 57.861C115.644 57.7363 115.576 57.572 115.576 57.368C115.576 57.1867 115.576 57.011 115.576 56.841C115.588 56.6597 115.599 56.4783 115.61 56.297C115.61 56.2403 115.61 56.1837 115.61 56.127C115.622 56.0703 115.627 56.0137 115.627 55.957V55.294C115.627 55.2373 115.627 55.1807 115.627 55.124C115.639 55.0673 115.644 55.0107 115.644 54.954C115.44 54.9653 115.208 54.9767 114.947 54.988C114.698 54.9993 114.449 55.0107 114.199 55.022C113.95 55.022 113.723 55.0277 113.519 55.039C113.327 55.039 113.185 55.039 113.094 55.039L110.34 55.141C110.114 55.1523 109.893 55.1637 109.677 55.175C109.462 55.1863 109.241 55.192 109.014 55.192C108.822 55.192 108.652 55.1297 108.504 55.005C108.368 54.8803 108.3 54.716 108.3 54.512C108.3 54.342 108.351 54.189 108.453 54.053C108.555 53.917 108.686 53.8207 108.844 53.764C108.924 53.73 109.128 53.7073 109.456 53.696C109.796 53.6733 110.148 53.6563 110.51 53.645C110.884 53.6223 111.219 53.611 111.513 53.611C111.808 53.5997 111.961 53.594 111.972 53.594C112.584 53.5713 113.196 53.5487 113.808 53.526C114.432 53.492 115.049 53.4693 115.661 53.458V52.829C115.661 52.625 115.656 52.421 115.644 52.217C115.633 52.013 115.605 51.809 115.559 51.605H114.896C113.854 51.605 112.817 51.622 111.785 51.656C110.754 51.6787 109.717 51.69 108.674 51.69ZM123.981 51.69C123.788 51.69 123.618 51.6277 123.471 51.503C123.335 51.3783 123.267 51.214 123.267 51.01C123.267 50.7947 123.346 50.6133 123.505 50.466C123.663 50.3187 123.845 50.2337 124.049 50.211C124.117 50.1997 124.185 50.194 124.253 50.194C124.321 50.194 124.389 50.194 124.457 50.194C125.556 50.194 126.644 50.177 127.721 50.143C128.797 50.109 129.885 50.092 130.985 50.092C131.313 50.092 131.574 50.143 131.767 50.245C131.959 50.347 132.107 50.4887 132.209 50.67C132.322 50.8513 132.396 51.061 132.43 51.299C132.475 51.537 132.503 51.792 132.515 52.064C132.526 52.2453 132.532 52.4267 132.532 52.608C132.532 52.7893 132.532 52.9707 132.532 53.152C132.532 53.254 132.532 53.4297 132.532 53.679C132.532 53.917 132.532 54.189 132.532 54.495C132.532 54.801 132.526 55.124 132.515 55.464C132.515 55.7927 132.509 56.1043 132.498 56.399C132.486 56.6823 132.469 56.926 132.447 57.13C132.435 57.334 132.418 57.4643 132.396 57.521C132.328 57.6797 132.22 57.81 132.073 57.912C131.925 58.0027 131.767 58.048 131.597 58.048C131.404 58.048 131.234 57.9857 131.087 57.861C130.951 57.7363 130.883 57.572 130.883 57.368C130.883 57.1867 130.883 57.011 130.883 56.841C130.894 56.6597 130.905 56.4783 130.917 56.297C130.917 56.2403 130.917 56.1837 130.917 56.127C130.928 56.0703 130.934 56.0137 130.934 55.957V55.294C130.934 55.2373 130.934 55.1807 130.934 55.124C130.945 55.0673 130.951 55.0107 130.951 54.954C130.747 54.9653 130.514 54.9767 130.254 54.988C130.004 54.9993 129.755 55.0107 129.506 55.022C129.256 55.022 129.03 55.0277 128.826 55.039C128.633 55.039 128.491 55.039 128.401 55.039L125.647 55.141C125.42 55.1523 125.199 55.1637 124.984 55.175C124.768 55.1863 124.547 55.192 124.321 55.192C124.128 55.192 123.958 55.1297 123.811 55.005C123.675 54.8803 123.607 54.716 123.607 54.512C123.607 54.342 123.658 54.189 123.76 54.053C123.862 53.917 123.992 53.8207 124.151 53.764C124.23 53.73 124.434 53.7073 124.763 53.696C125.103 53.6733 125.454 53.6563 125.817 53.645C126.191 53.6223 126.525 53.611 126.82 53.611C127.114 53.5997 127.267 53.594 127.279 53.594C127.891 53.5713 128.503 53.5487 129.115 53.526C129.738 53.492 130.356 53.4693 130.968 53.458V52.829C130.968 52.625 130.962 52.421 130.951 52.217C130.939 52.013 130.911 51.809 130.866 51.605H130.203C129.16 51.605 128.123 51.622 127.092 51.656C126.06 51.6787 125.023 51.69 123.981 51.69ZM139.287 51.69C139.095 51.69 138.925 51.6277 138.777 51.503C138.641 51.3783 138.573 51.214 138.573 51.01C138.573 50.7947 138.653 50.6133 138.811 50.466C138.97 50.3187 139.151 50.2337 139.355 50.211C139.423 50.1997 139.491 50.194 139.559 50.194C139.627 50.194 139.695 50.194 139.763 50.194C140.863 50.194 141.951 50.177 143.027 50.143C144.104 50.109 145.192 50.092 146.291 50.092C146.62 50.092 146.881 50.143 147.073 50.245C147.266 50.347 147.413 50.4887 147.515 50.67C147.629 50.8513 147.702 51.061 147.736 51.299C147.782 51.537 147.81 51.792 147.821 52.064C147.833 52.2453 147.838 52.4267 147.838 52.608C147.838 52.7893 147.838 52.9707 147.838 53.152C147.838 53.254 147.838 53.4297 147.838 53.679C147.838 53.917 147.838 54.189 147.838 54.495C147.838 54.801 147.833 55.124 147.821 55.464C147.821 55.7927 147.816 56.1043 147.804 56.399C147.793 56.6823 147.776 56.926 147.753 57.13C147.742 57.334 147.725 57.4643 147.702 57.521C147.634 57.6797 147.527 57.81 147.379 57.912C147.232 58.0027 147.073 58.048 146.903 58.048C146.711 58.048 146.541 57.9857 146.393 57.861C146.257 57.7363 146.189 57.572 146.189 57.368C146.189 57.1867 146.189 57.011 146.189 56.841C146.201 56.6597 146.212 56.4783 146.223 56.297C146.223 56.2403 146.223 56.1837 146.223 56.127C146.235 56.0703 146.24 56.0137 146.24 55.957V55.294C146.24 55.2373 146.24 55.1807 146.24 55.124C146.252 55.0673 146.257 55.0107 146.257 54.954C146.053 54.9653 145.821 54.9767 145.56 54.988C145.311 54.9993 145.062 55.0107 144.812 55.022C144.563 55.022 144.336 55.0277 144.132 55.039C143.94 55.039 143.798 55.039 143.707 55.039L140.953 55.141C140.727 55.1523 140.506 55.1637 140.29 55.175C140.075 55.1863 139.854 55.192 139.627 55.192C139.435 55.192 139.265 55.1297 139.117 55.005C138.981 54.8803 138.913 54.716 138.913 54.512C138.913 54.342 138.964 54.189 139.066 54.053C139.168 53.917 139.299 53.8207 139.457 53.764C139.537 53.73 139.741 53.7073 140.069 53.696C140.409 53.6733 140.761 53.6563 141.123 53.645C141.497 53.6223 141.832 53.611 142.126 53.611C142.421 53.5997 142.574 53.594 142.585 53.594C143.197 53.5713 143.809 53.5487 144.421 53.526C145.045 53.492 145.662 53.4693 146.274 53.458V52.829C146.274 52.625 146.269 52.421 146.257 52.217C146.246 52.013 146.218 51.809 146.172 51.605H145.509C144.467 51.605 143.43 51.622 142.398 51.656C141.367 51.6787 140.33 51.69 139.287 51.69Z" fill="black"/>
</svg>
